<?xml version="1.0" encoding="UTF-8" standalone="no"?>
<!-- Created with Inkscape (http://www.inkscape.org/) -->

<svg
   xmlns:ns0="http://www.iki.fi/pav/software/textext/"
   xmlns:dc="http://purl.org/dc/elements/1.1/"
   xmlns:cc="http://creativecommons.org/ns#"
   xmlns:rdf="http://www.w3.org/1999/02/22-rdf-syntax-ns#"
   xmlns:svg="http://www.w3.org/2000/svg"
   xmlns="http://www.w3.org/2000/svg"
   xmlns:sodipodi="http://sodipodi.sourceforge.net/DTD/sodipodi-0.dtd"
   xmlns:inkscape="http://www.inkscape.org/namespaces/inkscape"
   width="261.09601"
   height="147.60439"
   id="svg4428"
   version="1.1"
   inkscape:version="0.47 r22583"
   sodipodi:docname="T1_Ch04-0017.svg">
  <defs
     id="defs4430">
    <inkscape:perspective
       sodipodi:type="inkscape:persp3d"
       inkscape:vp_x="0 : 526.18109 : 1"
       inkscape:vp_y="0 : 1000 : 0"
       inkscape:vp_z="744.09448 : 526.18109 : 1"
       inkscape:persp3d-origin="372.04724 : 350.78739 : 1"
       id="perspective4436" />
    <inkscape:perspective
       id="perspective4305"
       inkscape:persp3d-origin="0.5 : 0.33333333 : 1"
       inkscape:vp_z="1 : 0.5 : 1"
       inkscape:vp_y="0 : 1000 : 0"
       inkscape:vp_x="0 : 0.5 : 1"
       sodipodi:type="inkscape:persp3d" />
    <marker
       inkscape:stockid="Arrow2Mstart"
       orient="auto"
       refY="0"
       refX="0"
       id="Arrow2Mstart"
       style="overflow:visible">
      <path
         id="path3625"
         style="font-size:12px;fill-rule:evenodd;stroke-width:0.625;stroke-linejoin:round"
         d="M 8.7185878,4.0337352 -2.2072895,0.01601326 8.7185884,-4.0017078 c -1.7454984,2.3720609 -1.7354408,5.6174519 -6e-7,8.035443 z"
         transform="scale(0.6,0.6)" />
    </marker>
    <marker
       inkscape:stockid="Arrow2Mend"
       orient="auto"
       refY="0"
       refX="0"
       id="Arrow2Mend"
       style="overflow:visible">
      <path
         id="path3628"
         style="font-size:12px;fill-rule:evenodd;stroke-width:0.625;stroke-linejoin:round"
         d="M 8.7185878,4.0337352 -2.2072895,0.01601326 8.7185884,-4.0017078 c -1.7454984,2.3720609 -1.7354408,5.6174519 -6e-7,8.035443 z"
         transform="scale(-0.6,-0.6)" />
    </marker>
    <inkscape:perspective
       id="perspective5489"
       inkscape:persp3d-origin="0.5 : 0.33333333 : 1"
       inkscape:vp_z="1 : 0.5 : 1"
       inkscape:vp_y="0 : 1000 : 0"
       inkscape:vp_x="0 : 0.5 : 1"
       sodipodi:type="inkscape:persp3d" />
    <marker
       inkscape:stockid="Arrow2Mstart"
       orient="auto"
       refY="0"
       refX="0"
       id="Arrow2Mstart-6"
       style="overflow:visible">
      <path
         id="path3625-1"
         style="font-size:12px;fill-rule:evenodd;stroke-width:0.625;stroke-linejoin:round"
         d="M 8.7185878,4.0337352 -2.2072895,0.01601326 8.7185884,-4.0017078 c -1.7454984,2.3720609 -1.7354408,5.6174519 -6e-7,8.035443 z"
         transform="scale(0.6,0.6)" />
    </marker>
    <marker
       inkscape:stockid="Arrow2Mend"
       orient="auto"
       refY="0"
       refX="0"
       id="Arrow2Mend-5"
       style="overflow:visible">
      <path
         id="path3628-5"
         style="font-size:12px;fill-rule:evenodd;stroke-width:0.625;stroke-linejoin:round"
         d="M 8.7185878,4.0337352 -2.2072895,0.01601326 8.7185884,-4.0017078 c -1.7454984,2.3720609 -1.7354408,5.6174519 -6e-7,8.035443 z"
         transform="scale(-0.6,-0.6)" />
    </marker>
    <inkscape:perspective
       id="perspective3011"
       inkscape:persp3d-origin="0.5 : 0.33333333 : 1"
       inkscape:vp_z="1 : 0.5 : 1"
       inkscape:vp_y="0 : 1000 : 0"
       inkscape:vp_x="0 : 0.5 : 1"
       sodipodi:type="inkscape:persp3d" />
  </defs>
  <sodipodi:namedview
     id="base"
     pagecolor="#ffffff"
     bordercolor="#666666"
     borderopacity="1.0"
     inkscape:pageopacity="0.0"
     inkscape:pageshadow="2"
     inkscape:zoom="2.8"
     inkscape:cx="209.38515"
     inkscape:cy="24.95244"
     inkscape:document-units="px"
     inkscape:current-layer="g7389"
     showgrid="true"
     inkscape:window-width="1280"
     inkscape:window-height="717"
     inkscape:window-x="0"
     inkscape:window-y="29"
     inkscape:window-maximized="1">
    <inkscape:grid
       type="xygrid"
       id="grid4683"
       empspacing="5"
       visible="true"
       enabled="true"
       snapvisiblegridlinesonly="true" />
  </sodipodi:namedview>
  <metadata
     id="metadata4433">
    <rdf:RDF>
      <cc:Work
         rdf:about="">
        <dc:format>image/svg+xml</dc:format>
        <dc:type
           rdf:resource="http://purl.org/dc/dcmitype/StillImage" />
        <dc:title />
      </cc:Work>
    </rdf:RDF>
  </metadata>
  <g
     inkscape:label="Calque 1"
     inkscape:groupmode="layer"
     id="layer1"
     transform="translate(-165,-531.03782)">
    <path
       sodipodi:nodetypes="ccccc"
       id="path3112"
       d="m 220,667.36219 0,-40 c 25,-24.99999 45,-39.99999 75,-55 l 0,40 c 30,25.00001 65,30.00001 105,30"
       style="fill:none;stroke:#000000;stroke-width:1px;stroke-linecap:butt;stroke-linejoin:miter;stroke-opacity:1;display:inline" />
    <g
       id="content"
       transform="matrix(0.9,0,0,-0.9,-36.383999,1277.9611)"
       xml:space="preserve"
       stroke-miterlimit="10.433"
       fill-rule="even-odd"
       font-style="normal"
       font-variant="normal"
       font-weight="normal"
       font-stretch="normal"
       font-size-adjust="none"
       letter-spacing="normal"
       word-spacing="normal"
       ns0:text="d\\\'eformation\\\\\ninstantan\\\'ee"
       ns0:preamble=""
       style="font-style:normal;font-variant:normal;font-weight:normal;font-stretch:normal;letter-spacing:normal;word-spacing:normal;text-anchor:start;fill:none;stroke:#000000;stroke-linecap:butt;stroke-linejoin:miter;stroke-miterlimit:10.43299961;stroke-opacity:1;stroke-dasharray:none;stroke-dashoffset:0;display:inline">
<path
   style="fill:#000000;stroke-width:0"
   d="m 227.22,707.67 v -0.66 l 1.46,0.11 v 0.31 c -0.69,0 -0.77,0.07 -0.77,0.56 v 6.05 l -1.44,-0.11 v -0.31 c 0.7,0 0.78,-0.07 0.78,-0.56 v -2.15 c -0.29,0.36 -0.72,0.62 -1.26,0.62 l 0.04,-0.22 c 0.35,0 0.77,-0.15 1.08,-0.6 0.11,-0.17 0.11,-0.19 0.11,-0.37 h 0 v -2.04 c 0,-0.18 0,-0.2 -0.11,-0.37 -0.3,-0.48 -0.75,-0.7 -1.18,-0.7 -0.44,0 -0.8,0.26 -1.04,0.64 -0.26,0.41 -0.29,0.98 -0.29,1.39 0,0.36 0.02,0.96 0.31,1.41 0.21,0.31 0.58,0.64 1.12,0.64 l -0.04,0.22 c -1.17,0 -2.22,-0.98 -2.22,-2.27 0,-1.26 0.98,-2.25 2.11,-2.25 0.64,0 1.09,0.34 1.34,0.66 z"
   id="path3241" />
<path
   style="fill:#000000;stroke-width:0"
   d="m 232.43,713.42 0.01,0.01 0.02,0.02 0.02,0.01 0.01,0.02 0.01,0.01 0.01,0.01 0,0 0.01,0.01 0.01,0.01 0,0.01 0.01,0.01 0,0.01 0.01,0.01 0.01,0.01 0,0.01 0.01,0.01 0,0.01 0,0.01 0.01,0.01 0,0.01 0,0.01 0.01,0.01 0,0.01 0,0.01 0,0.01 0,0.02 0,0.01 0.01,0.01 c 0,0.18 -0.18,0.36 -0.36,0.36 -0.15,0 -0.26,-0.11 -0.3,-0.17 l -1.2,-1.53 0.17,-0.18 z"
   id="path3243" />
<path
   style="fill:#000000;stroke-width:0"
   d="m 230.07,709.42 0.01,0.21 c 0.06,1.49 0.9,1.74 1.24,1.74 1.03,0 1.12,-1.35 1.12,-1.74 h -2.36 l -0.01,-0.21 h 2.78 c 0.22,0 0.25,0 0.25,0.21 0,0.99 -0.54,1.96 -1.78,1.96 -1.16,0 -2.07,-1.03 -2.07,-2.28 0,-1.33 1.04,-2.3 2.19,-2.3 1.21,0 1.66,1.11 1.66,1.3 0,0.1 -0.08,0.12 -0.13,0.12 -0.09,0 -0.11,-0.06 -0.13,-0.14 -0.35,-1.03 -1.24,-1.03 -1.34,-1.03 -0.5,0 -0.9,0.3 -1.13,0.67 -0.3,0.48 -0.3,1.14 -0.3,1.49 z"
   id="path3245" />
<path
   style="fill:#000000;stroke-width:0"
   d="m 235.14,711.42 v 1.15 c 0,0.88 0.47,1.36 0.91,1.36 0.03,0 0.18,0 0.33,-0.07 -0.12,-0.04 -0.3,-0.17 -0.3,-0.42 0,-0.23 0.16,-0.43 0.43,-0.43 0.29,0 0.44,0.2 0.44,0.44 0,0.37 -0.37,0.7 -0.9,0.7 -0.7,0 -1.54,-0.53 -1.54,-1.59 v -1.14 h -0.79 v -0.31 h 0.79 v -3.23 c 0,-0.45 -0.11,-0.45 -0.78,-0.45 v -0.31 c 0.39,0.01 0.86,0.03 1.14,0.03 0.39,0 0.86,0 1.26,-0.03 v 0.31 h -0.21 c -0.73,0 -0.75,0.11 -0.75,0.47 v 3.21 h 1.13 v 0.31 z"
   id="path3247" />
<path
   style="fill:#000000;stroke-width:0"
   d="m 241.13,709.26 0,0.11 -0.01,0.12 -0.02,0.12 -0.02,0.11 -0.02,0.11 -0.03,0.11 -0.03,0.11 -0.04,0.11 -0.05,0.1 -0.05,0.1 -0.05,0.1 -0.06,0.09 -0.06,0.09 -0.07,0.09 -0.07,0.09 -0.07,0.08 -0.08,0.08 -0.08,0.07 -0.08,0.07 -0.09,0.06 -0.08,0.07 -0.1,0.05 -0.09,0.05 -0.1,0.05 -0.1,0.04 -0.1,0.04 -0.11,0.03 -0.1,0.03 -0.11,0.02 -0.11,0.01 -0.11,0.01 -0.11,0.01 -0.01,-0.22 c 0.44,0 0.87,-0.22 1.12,-0.65 0.26,-0.43 0.26,-1.01 0.26,-1.39 0,-0.35 0,-0.89 -0.22,-1.33 -0.21,-0.45 -0.65,-0.74 -1.15,-0.74 h 0 c -0.43,0 -0.87,0.21 -1.14,0.67 -0.25,0.44 -0.25,1.05 -0.25,1.4 0,0.39 0,0.93 0.24,1.37 0.27,0.46 0.74,0.67 1.14,0.67 l 0.01,0.22 c -1.25,0 -2.21,-1.09 -2.21,-2.33 0,-1.29 1.03,-2.25 2.2,-2.25 1.2,0 2.21,0.98 2.21,2.25 z"
   id="path3249" />
<path
   style="fill:#000000;stroke-width:0"
   d="m 243.08,710.43 v 1.1 l -1.38,-0.11 v -0.31 c 0.69,0 0.77,-0.07 0.77,-0.56 v -2.67 c 0,-0.45 -0.11,-0.45 -0.77,-0.45 v -0.31 c 0.39,0.01 0.85,0.03 1.13,0.03 0.4,0 0.87,0 1.27,-0.03 v 0.31 h -0.21 c -0.74,0 -0.76,0.11 -0.76,0.47 v 1.53 c 0,0.99 0.42,1.88 1.18,1.88 0.07,0 0.09,0 0.11,-0.01 -0.03,-0.01 -0.23,-0.13 -0.23,-0.39 0,-0.28 0.21,-0.43 0.43,-0.43 0.17,0 0.42,0.12 0.42,0.44 0,0.32 -0.3,0.61 -0.73,0.61 -0.73,0 -1.09,-0.67 -1.23,-1.1 z"
   id="path3251" />
<path
   style="fill:#000000;stroke-width:0"
   d="m 246.42,710.55 v -2.67 c 0,-0.45 -0.11,-0.45 -0.78,-0.45 v -0.31 c 0.35,0.01 0.86,0.03 1.13,0.03 0.26,0 0.78,-0.02 1.11,-0.03 v 0.31 c -0.66,0 -0.77,0 -0.77,0.45 v 1.83 c 0,1.04 0.71,1.6 1.34,1.6 0.63,0 0.74,-0.54 0.74,-1.11 v -2.32 c 0,-0.45 -0.11,-0.45 -0.78,-0.45 v -0.31 c 0.35,0.01 0.86,0.03 1.13,0.03 0.26,0 0.78,-0.02 1.11,-0.03 v 0.31 c -0.66,0 -0.77,0 -0.77,0.45 v 1.83 c 0,1.04 0.71,1.6 1.34,1.6 0.63,0 0.74,-0.54 0.74,-1.11 v -2.32 c 0,-0.45 -0.11,-0.45 -0.78,-0.45 v -0.31 c 0.35,0.01 0.86,0.03 1.13,0.03 0.26,0 0.78,-0.02 1.12,-0.03 v 0.31 c -0.52,0 -0.77,0 -0.78,0.3 v 1.9 c 0,0.86 0,1.17 -0.31,1.53 -0.14,0.17 -0.47,0.37 -1.05,0.37 -0.83,0 -1.27,-0.6 -1.44,-0.98 -0.14,0.87 -0.88,0.98 -1.33,0.98 -0.72,0 -1.19,-0.43 -1.47,-1.05 v 1.05 l -1.41,-0.11 v -0.31 c 0.7,0 0.78,-0.07 0.78,-0.56 z"
   id="path3253" />
<path
   style="fill:#000000;stroke-width:0"
   d="m 256.95,707.88 0,-0.04 0.01,-0.03 0,-0.04 0.01,-0.04 0.01,-0.04 0.01,-0.03 0.01,-0.04 0.02,-0.04 0.01,-0.03 0.02,-0.04 0.02,-0.03 0.02,-0.03 0.02,-0.04 0.02,-0.03 0.02,-0.03 0.02,-0.03 0.03,-0.03 0.02,-0.02 0.03,-0.03 0.03,-0.02 0.03,-0.03 0.03,-0.02 0.04,-0.02 0.03,-0.02 0.03,-0.01 0.04,-0.02 0.04,-0.01 0.04,-0.01 0.04,-0.01 0.04,0 0.04,-0.01 0.04,0 c 0.21,0 0.82,0.14 0.82,0.95 v 0.56 h -0.25 v -0.56 c 0,-0.58 -0.25,-0.64 -0.36,-0.64 -0.33,0 -0.37,0.45 -0.37,0.5 v 1.99 c 0,0.42 0,0.81 -0.36,1.18 -0.38,0.39 -0.88,0.55 -1.36,0.55 -0.82,0 -1.5,-0.47 -1.5,-1.13 0,-0.3 0.19,-0.47 0.45,-0.47 0.28,0 0.46,0.2 0.46,0.46 0,0.12 -0.05,0.45 -0.51,0.46 0.27,0.35 0.76,0.46 1.08,0.46 0.49,0 1.06,-0.39 1.06,-1.28 v -0.37 -0.21 -0.99 c 0,-0.95 -0.72,-1.29 -1.17,-1.29 -0.49,0 -0.9,0.35 -0.9,0.85 0,0.55 0.42,1.37 2.07,1.43 h 0 v 0.21 c -0.51,-0.03 -1.21,-0.06 -1.84,-0.36 -0.75,-0.33 -0.99,-0.85 -0.99,-1.29 0,-0.81 0.96,-1.06 1.59,-1.06 0.66,0 1.12,0.4 1.31,0.87 z"
   id="path3255" />
<path
   style="fill:#000000;stroke-width:0"
   d="m 260.33,711.11 h 1.43 v 0.31 h -1.43 v 1.83 h -0.25 c -0.01,-0.82 -0.31,-1.88 -1.28,-1.92 v -0.22 h 0.84 v -2.75 c 0,-1.23 0.93,-1.35 1.29,-1.35 0.71,0 0.99,0.71 0.99,1.35 v 0.57 h -0.25 v -0.55 c 0,-0.74 -0.3,-1.12 -0.67,-1.12 -0.67,0 -0.67,0.91 -0.67,1.08 z"
   id="path3257" />
<path
   style="fill:#000000;stroke-width:0"
   d="m 264.24,711.53 -1.39,-0.11 v -0.31 c 0.64,0 0.73,-0.06 0.73,-0.55 v -2.68 c 0,-0.45 -0.11,-0.45 -0.77,-0.45 v -0.31 c 0.31,0.01 0.85,0.03 1.09,0.03 0.35,0 0.7,-0.02 1.04,-0.03 v 0.31 c -0.66,0 -0.7,0.05 -0.7,0.44 z"
   id="path3259" />
<path
   style="fill:#000000;stroke-width:0"
   d="m 264.28,713.26 0,0.03 0,0.03 -0.01,0.03 0,0.02 -0.01,0.03 0,0.03 -0.01,0.02 -0.01,0.03 -0.01,0.02 -0.02,0.02 -0.01,0.02 -0.01,0.03 -0.02,0.02 -0.01,0.02 -0.02,0.01 -0.02,0.02 -0.02,0.02 -0.02,0.02 -0.02,0.01 -0.02,0.01 -0.02,0.02 -0.02,0.01 -0.02,0.01 -0.03,0.01 -0.02,0.01 -0.02,0.01 -0.03,0 -0.02,0.01 -0.03,0 -0.03,0 -0.02,0.01 -0.03,0 c -0.31,0 -0.52,-0.27 -0.52,-0.53 0,-0.27 0.21,-0.53 0.52,-0.53 0.28,0 0.53,0.21 0.53,0.53 z"
   id="path3261" />
<path
   style="fill:#000000;stroke-width:0"
   d="m 269.94,709.26 -0.01,0.11 0,0.12 -0.02,0.12 -0.02,0.11 -0.02,0.11 -0.03,0.11 -0.04,0.11 -0.04,0.11 -0.04,0.1 -0.05,0.1 -0.05,0.1 -0.06,0.09 -0.06,0.09 -0.07,0.09 -0.07,0.09 -0.07,0.08 -0.08,0.08 -0.08,0.07 -0.08,0.07 -0.09,0.06 -0.09,0.07 -0.09,0.05 -0.09,0.05 -0.1,0.05 -0.1,0.04 -0.1,0.04 -0.11,0.03 -0.1,0.03 -0.11,0.02 -0.11,0.01 -0.11,0.01 -0.11,0.01 -0.01,-0.22 c 0.43,0 0.86,-0.22 1.12,-0.65 0.26,-0.43 0.26,-1.01 0.26,-1.39 0,-0.35 0,-0.89 -0.22,-1.33 -0.22,-0.45 -0.66,-0.74 -1.15,-0.74 h 0 c -0.43,0 -0.87,0.21 -1.14,0.67 -0.25,0.44 -0.25,1.05 -0.25,1.4 0,0.39 0,0.93 0.24,1.37 0.27,0.46 0.74,0.67 1.14,0.67 l 0.01,0.22 c -1.25,0 -2.22,-1.09 -2.22,-2.33 0,-1.29 1.04,-2.25 2.21,-2.25 1.2,0 2.21,0.98 2.21,2.25 z"
   id="path3263" />
<path
   style="fill:#000000;stroke-width:0"
   d="m 271.33,710.55 v -2.67 c 0,-0.45 -0.11,-0.45 -0.78,-0.45 v -0.31 c 0.35,0.01 0.86,0.03 1.13,0.03 0.26,0 0.77,-0.02 1.11,-0.03 v 0.31 c -0.67,0 -0.77,0 -0.77,0.45 v 1.83 c 0,1.04 0.7,1.6 1.34,1.6 0.63,0 0.74,-0.54 0.74,-1.11 v -2.32 c 0,-0.45 -0.11,-0.45 -0.78,-0.45 v -0.31 c 0.35,0.01 0.86,0.03 1.13,0.03 0.26,0 0.77,-0.02 1.11,-0.03 v 0.31 c -0.52,0 -0.76,0 -0.77,0.3 v 1.9 c 0,0.86 0,1.17 -0.31,1.53 -0.14,0.17 -0.47,0.37 -1.05,0.37 -0.73,0 -1.2,-0.43 -1.47,-1.05 v 1.05 l -1.41,-0.11 v -0.31 c 0.7,0 0.78,-0.07 0.78,-0.56 z"
   id="path3265" />
<path
   style="fill:#000000;stroke-width:0"
   d="m 225.2,699.57 -1.4,-0.11 v -0.31 c 0.65,0 0.74,-0.06 0.74,-0.55 v -2.68 c 0,-0.44 -0.11,-0.44 -0.78,-0.44 v -0.31 c 0.32,0.01 0.86,0.03 1.1,0.03 0.35,0 0.69,-0.02 1.03,-0.03 v 0.31 c -0.65,0 -0.69,0.05 -0.69,0.43 z"
   id="path3267" />
<path
   style="fill:#000000;stroke-width:0"
   d="m 225.24,701.3 0,0.03 -0.01,0.03 0,0.03 -0.01,0.03 0,0.03 -0.01,0.02 -0.01,0.03 -0.01,0.02 -0.01,0.02 -0.01,0.03 -0.01,0.02 -0.02,0.02 -0.01,0.02 -0.02,0.02 -0.02,0.02 -0.01,0.02 -0.02,0.01 -0.02,0.02 -0.02,0.02 -0.02,0.01 -0.02,0.01 -0.03,0.01 -0.02,0.01 -0.02,0.01 -0.03,0.01 -0.02,0.01 -0.02,0.01 -0.03,0 -0.02,0.01 -0.03,0 -0.03,0 -0.02,0 c -0.31,0 -0.53,-0.27 -0.53,-0.53 0,-0.27 0.22,-0.52 0.53,-0.52 0.28,0 0.53,0.21 0.53,0.52 z"
   id="path3269" />
<path
   style="fill:#000000;stroke-width:0"
   d="m 227.3,698.59 v -2.67 c 0,-0.44 -0.11,-0.44 -0.78,-0.44 v -0.31 c 0.35,0.01 0.86,0.03 1.13,0.03 0.25,0 0.77,-0.02 1.11,-0.03 v 0.31 c -0.67,0 -0.78,0 -0.78,0.44 v 1.84 c 0,1.03 0.71,1.59 1.35,1.59 0.63,0 0.74,-0.54 0.74,-1.1 v -2.33 c 0,-0.44 -0.11,-0.44 -0.78,-0.44 v -0.31 c 0.35,0.01 0.86,0.03 1.12,0.03 0.26,0 0.78,-0.02 1.12,-0.03 v 0.31 c -0.52,0 -0.77,0 -0.78,0.3 v 1.9 c 0,0.85 0,1.16 -0.31,1.52 -0.14,0.17 -0.46,0.37 -1.04,0.37 -0.73,0 -1.2,-0.43 -1.48,-1.04 v 1.04 l -1.4,-0.11 v -0.31 c 0.7,0 0.78,-0.07 0.78,-0.56 z"
   id="path3271" />
<path
   style="fill:#000000;stroke-width:0"
   d="m 233.81,697.1 0.02,0 0.02,-0.01 0.03,0 0.03,-0.01 0.04,-0.01 0.03,-0.01 0.04,-0.01 0.04,-0.01 0.04,-0.01 0.04,-0.02 0.05,-0.01 0.04,-0.02 0.05,-0.02 0.04,-0.02 0.04,-0.02 0.05,-0.02 0.04,-0.03 0.04,-0.03 0.04,-0.03 0.04,-0.03 0.04,-0.04 0.04,-0.03 0.03,-0.04 0.03,-0.05 0.03,-0.04 0.01,-0.02 0.02,-0.03 0.01,-0.02 0.01,-0.03 0.01,-0.03 0.01,-0.02 0.01,-0.03 0,-0.03 0.01,-0.03 0,-0.03 0.01,-0.03 0,-0.03 0,-0.03 0,-0.04 c 0,-0.5 -0.35,-0.9 -1.12,-0.9 -0.84,0 -1.2,0.56 -1.39,1.41 -0.03,0.13 -0.04,0.17 -0.14,0.17 -0.13,0 -0.13,-0.07 -0.13,-0.25 v -1.31 c 0,-0.17 0,-0.24 0.11,-0.24 0.05,0 0.06,0.01 0.25,0.2 0.02,0.02 0.02,0.04 0.2,0.23 0.44,-0.42 0.89,-0.43 1.1,-0.43 1.14,0 1.6,0.66 1.6,1.38 0,0.53 -0.3,0.83 -0.42,0.95 -0.33,0.32 -0.71,0.4 -1.13,0.48 -0.56,0.11 -1.23,0.24 -1.23,0.81 0,0.35 0.26,0.76 1.12,0.76 1.09,0 1.14,-0.9 1.16,-1.2 0.01,-0.09 0.1,-0.09 0.12,-0.09 0.13,0 0.13,0.05 0.13,0.24 v 1 c 0,0.17 0,0.24 -0.11,0.24 -0.05,0 -0.07,0 -0.2,-0.12 -0.03,-0.04 -0.13,-0.13 -0.17,-0.16 -0.37,0.28 -0.78,0.28 -0.93,0.28 -1.22,0 -1.6,-0.67 -1.6,-1.22 0,-0.35 0.16,-0.63 0.43,-0.85 0.32,-0.26 0.6,-0.32 1.32,-0.46 z"
   id="path3273" />
<path
   style="fill:#000000;stroke-width:0"
   d="m 237.39,699.15 h 1.42 v 0.31 h -1.42 v 1.83 h -0.25 c -0.01,-0.81 -0.31,-1.88 -1.29,-1.92 v -0.22 h 0.85 v -2.75 c 0,-1.22 0.93,-1.34 1.29,-1.34 0.7,0 0.98,0.71 0.98,1.34 v 0.57 h -0.25 v -0.55 c 0,-0.73 -0.29,-1.11 -0.66,-1.11 -0.67,0 -0.67,0.9 -0.67,1.07 z"
   id="path3275" />
<path
   style="fill:#000000;stroke-width:0"
   d="m 242.85,695.92 0.01,-0.03 0,-0.04 0.01,-0.04 0.01,-0.03 0.01,-0.04 0.01,-0.04 0.01,-0.04 0.01,-0.03 0.02,-0.04 0.02,-0.03 0.01,-0.04 0.02,-0.03 0.02,-0.03 0.02,-0.03 0.03,-0.03 0.02,-0.03 0.03,-0.03 0.02,-0.03 0.03,-0.02 0.03,-0.03 0.03,-0.02 0.03,-0.02 0.03,-0.02 0.04,-0.02 0.03,-0.02 0.04,-0.01 0.03,-0.01 0.04,-0.01 0.04,-0.01 0.04,-0.01 0.05,0 0.04,0 c 0.21,0 0.82,0.14 0.82,0.94 v 0.56 h -0.25 v -0.56 c 0,-0.57 -0.25,-0.63 -0.36,-0.63 -0.33,0 -0.37,0.44 -0.37,0.49 v 2 c 0,0.42 0,0.8 -0.36,1.17 -0.39,0.39 -0.88,0.55 -1.36,0.55 -0.82,0 -1.51,-0.47 -1.51,-1.12 0,-0.3 0.2,-0.47 0.46,-0.47 0.28,0 0.46,0.2 0.46,0.45 0,0.12 -0.05,0.45 -0.51,0.46 0.27,0.35 0.76,0.46 1.08,0.46 0.48,0 1.05,-0.39 1.05,-1.27 v -0.37 -0.21 -1 c 0,-0.94 -0.71,-1.28 -1.16,-1.28 -0.49,0 -0.9,0.35 -0.9,0.84 0,0.55 0.42,1.38 2.06,1.44 h 0 v 0.21 c -0.51,-0.03 -1.2,-0.06 -1.83,-0.36 -0.75,-0.34 -1,-0.86 -1,-1.3 0,-0.8 0.97,-1.05 1.6,-1.05 0.66,0 1.11,0.4 1.3,0.86 z"
   id="path3277" />
<path
   style="fill:#000000;stroke-width:0"
   d="m 245.62,698.59 v -2.67 c 0,-0.44 -0.11,-0.44 -0.78,-0.44 v -0.31 c 0.35,0.01 0.86,0.03 1.13,0.03 0.26,0 0.77,-0.02 1.11,-0.03 v 0.31 c -0.67,0 -0.77,0 -0.77,0.44 v 1.84 c 0,1.03 0.7,1.59 1.34,1.59 0.63,0 0.74,-0.54 0.74,-1.1 v -2.33 c 0,-0.44 -0.11,-0.44 -0.78,-0.44 v -0.31 c 0.35,0.01 0.86,0.03 1.13,0.03 0.26,0 0.77,-0.02 1.11,-0.03 v 0.31 c -0.52,0 -0.76,0 -0.78,0.3 v 1.9 c 0,0.85 0,1.16 -0.3,1.52 -0.14,0.17 -0.47,0.37 -1.05,0.37 -0.73,0 -1.2,-0.43 -1.47,-1.04 v 1.04 l -1.41,-0.11 v -0.31 c 0.7,0 0.78,-0.07 0.78,-0.56 z"
   id="path3279" />
<path
   style="fill:#000000;stroke-width:0"
   d="m 251.5,699.15 h 1.42 v 0.31 h -1.42 v 1.83 h -0.25 c -0.01,-0.81 -0.31,-1.88 -1.29,-1.92 v -0.22 h 0.85 v -2.75 c 0,-1.22 0.93,-1.34 1.28,-1.34 0.71,0 0.99,0.71 0.99,1.34 v 0.57 h -0.25 v -0.55 c 0,-0.73 -0.3,-1.11 -0.67,-1.11 -0.66,0 -0.66,0.9 -0.66,1.07 z"
   id="path3281" />
<path
   style="fill:#000000;stroke-width:0"
   d="m 256.97,695.92 0,-0.03 0.01,-0.04 0,-0.04 0.01,-0.03 0.01,-0.04 0.01,-0.04 0.02,-0.04 0.01,-0.03 0.01,-0.04 0.02,-0.03 0.02,-0.04 0.02,-0.03 0.02,-0.03 0.02,-0.03 0.02,-0.03 0.03,-0.03 0.02,-0.03 0.03,-0.03 0.02,-0.02 0.03,-0.03 0.03,-0.02 0.03,-0.02 0.04,-0.02 0.03,-0.02 0.04,-0.02 0.03,-0.01 0.04,-0.01 0.04,-0.01 0.04,-0.01 0.04,-0.01 0.04,0 0.04,0 c 0.21,0 0.82,0.14 0.82,0.94 v 0.56 h -0.25 v -0.56 c 0,-0.57 -0.25,-0.63 -0.36,-0.63 -0.33,0 -0.37,0.44 -0.37,0.49 v 2 c 0,0.42 0,0.8 -0.35,1.17 -0.39,0.39 -0.89,0.55 -1.37,0.55 -0.82,0 -1.5,-0.47 -1.5,-1.12 0,-0.3 0.2,-0.47 0.46,-0.47 0.28,0 0.45,0.2 0.45,0.45 0,0.12 -0.05,0.45 -0.5,0.46 0.27,0.35 0.75,0.46 1.07,0.46 0.49,0 1.06,-0.39 1.06,-1.27 v -0.37 -0.21 -1 c 0,-0.94 -0.72,-1.28 -1.17,-1.28 -0.49,0 -0.89,0.35 -0.89,0.84 0,0.55 0.41,1.38 2.06,1.44 h 0 v 0.21 c -0.51,-0.03 -1.21,-0.06 -1.83,-0.36 -0.75,-0.34 -1,-0.86 -1,-1.3 0,-0.8 0.97,-1.05 1.59,-1.05 0.66,0 1.12,0.4 1.31,0.86 z"
   id="path3283" />
<path
   style="fill:#000000;stroke-width:0"
   d="m 259.73,698.59 v -2.67 c 0,-0.44 -0.11,-0.44 -0.78,-0.44 v -0.31 c 0.35,0.01 0.86,0.03 1.13,0.03 0.25,0 0.77,-0.02 1.11,-0.03 v 0.31 c -0.67,0 -0.78,0 -0.78,0.44 v 1.84 c 0,1.03 0.71,1.59 1.35,1.59 0.63,0 0.73,-0.54 0.73,-1.1 v -2.33 c 0,-0.44 -0.1,-0.44 -0.77,-0.44 v -0.31 c 0.35,0.01 0.86,0.03 1.12,0.03 0.26,0 0.78,-0.02 1.12,-0.03 v 0.31 c -0.52,0 -0.77,0 -0.78,0.3 v 1.9 c 0,0.85 0,1.16 -0.31,1.52 -0.14,0.17 -0.46,0.37 -1.04,0.37 -0.73,0 -1.2,-0.43 -1.48,-1.04 v 1.04 l -1.4,-0.11 v -0.31 c 0.7,0 0.78,-0.07 0.78,-0.56 z"
   id="path3285" />
<path
   style="fill:#000000;stroke-width:0"
   d="m 267.62,701.46 0.02,0.02 0.02,0.01 0.01,0.02 0.02,0.01 0.01,0.02 0.01,0.01 0.01,0.01 0,0.01 0.01,0.01 0.01,0.01 0,0 0.01,0.01 0,0.01 0.01,0.01 0,0.01 0.01,0.01 0,0.01 0.01,0.01 0,0.02 0,0.01 0.01,0.01 0,0.01 0,0.01 0,0.01 0,0.01 0,0.01 0,0.01 c 0,0.18 -0.18,0.36 -0.36,0.36 -0.14,0 -0.26,-0.11 -0.29,-0.17 l -1.2,-1.52 0.17,-0.18 z"
   id="path3287" />
<path
   style="fill:#000000;stroke-width:0"
   d="m 265.27,697.47 0.01,0.21 c 0.06,1.48 0.9,1.73 1.24,1.73 1.02,0 1.12,-1.34 1.12,-1.73 h -2.36 l -0.01,-0.21 h 2.78 c 0.22,0 0.25,0 0.25,0.21 0,0.98 -0.54,1.95 -1.78,1.95 -1.16,0 -2.08,-1.03 -2.08,-2.27 0,-1.34 1.05,-2.3 2.2,-2.3 1.21,0 1.66,1.1 1.66,1.29 0,0.1 -0.08,0.12 -0.13,0.12 -0.09,0 -0.11,-0.06 -0.13,-0.14 -0.35,-1.02 -1.24,-1.02 -1.34,-1.02 -0.5,0 -0.9,0.3 -1.13,0.66 -0.3,0.48 -0.3,1.14 -0.3,1.5 z"
   id="path3289" />
<path
   style="fill:#000000;stroke-width:0"
   d="m 269.7,697.47 0.01,0.21 c 0.06,1.48 0.9,1.73 1.24,1.73 1.03,0 1.12,-1.34 1.12,-1.73 h -2.36 l -0.01,-0.21 h 2.78 c 0.22,0 0.25,0 0.25,0.21 0,0.98 -0.54,1.95 -1.78,1.95 -1.16,0 -2.07,-1.03 -2.07,-2.27 0,-1.34 1.04,-2.3 2.19,-2.3 1.21,0 1.66,1.1 1.66,1.29 0,0.1 -0.08,0.12 -0.13,0.12 -0.09,0 -0.11,-0.06 -0.13,-0.14 -0.35,-1.02 -1.24,-1.02 -1.34,-1.02 -0.5,0 -0.9,0.3 -1.13,0.66 -0.3,0.48 -0.3,1.14 -0.3,1.5 z"
   id="path3291" />
</g>    <g
       style="font-style:normal;font-variant:normal;font-weight:normal;font-stretch:normal;letter-spacing:normal;word-spacing:normal;text-anchor:start;fill:none;stroke:#000000;stroke-linecap:butt;stroke-linejoin:miter;stroke-miterlimit:10.43299961;stroke-opacity:1;stroke-dasharray:none;stroke-dashoffset:0;display:inline"
       ns0:preamble=""
       ns0:text="recouvrance\\\\\ninstantan\\\'ee"
       word-spacing="normal"
       letter-spacing="normal"
       font-size-adjust="none"
       font-stretch="normal"
       font-weight="normal"
       font-variant="normal"
       font-style="normal"
       fill-rule="even-odd"
       stroke-miterlimit="10.433"
       xml:space="preserve"
       transform="matrix(0.9,0,0,-0.9,106.996,1224.9982)"
       id="g3490">
<path
   style="fill:#000000;stroke-width:0"
   id="path3492"
   d="m 225.1,710.43 v 1.1 l -1.39,-0.11 v -0.31 c 0.7,0 0.78,-0.07 0.78,-0.56 v -2.67 c 0,-0.45 -0.11,-0.45 -0.78,-0.45 v -0.31 c 0.39,0.01 0.86,0.03 1.14,0.03 0.4,0 0.86,0 1.26,-0.03 v 0.31 h -0.21 c -0.73,0 -0.75,0.11 -0.75,0.47 v 1.53 c 0,0.99 0.41,1.88 1.17,1.88 0.07,0 0.09,0 0.11,-0.01 -0.03,-0.01 -0.23,-0.13 -0.23,-0.39 0,-0.28 0.21,-0.43 0.43,-0.43 0.18,0 0.43,0.12 0.43,0.44 0,0.32 -0.31,0.61 -0.74,0.61 -0.73,0 -1.08,-0.67 -1.22,-1.1 z" />
<path
   style="fill:#000000;stroke-width:0"
   id="path3494"
   d="m 228.44,709.42 0.01,0.21 c 0.06,1.49 0.9,1.74 1.23,1.74 1.03,0 1.13,-1.35 1.13,-1.74 h -2.36 l -0.01,-0.21 h 2.78 c 0.22,0 0.25,0 0.25,0.21 0,0.99 -0.54,1.96 -1.79,1.96 -1.15,0 -2.07,-1.03 -2.07,-2.28 0,-1.33 1.05,-2.3 2.19,-2.3 1.22,0 1.67,1.11 1.67,1.3 0,0.1 -0.08,0.12 -0.13,0.12 -0.09,0 -0.11,-0.06 -0.13,-0.14 -0.35,-1.03 -1.25,-1.03 -1.35,-1.03 -0.49,0 -0.89,0.3 -1.12,0.67 -0.3,0.48 -0.3,1.14 -0.3,1.49 z" />
<path
   style="fill:#000000;stroke-width:0"
   id="path3496"
   d="m 232.93,709.29 0,0.08 0,0.07 0.01,0.07 0,0.07 0.01,0.07 0,0.07 0.01,0.06 0.01,0.07 0.01,0.06 0.01,0.06 0.01,0.06 0.01,0.06 0.03,0.11 0.03,0.1 0.03,0.1 0.04,0.09 0.04,0.08 0.04,0.08 0.04,0.08 0.05,0.07 0.05,0.06 0.05,0.06 0.05,0.06 0.05,0.05 0.05,0.05 0.06,0.04 0.05,0.04 0.06,0.03 0.06,0.03 0.05,0.03 0.06,0.02 0.06,0.02 0.05,0.01 0.06,0.02 0.05,0.01 0.05,0 0.06,0.01 0.05,0 c 0.09,0 0.71,-0.01 1.06,-0.37 -0.41,-0.03 -0.47,-0.33 -0.47,-0.46 0,-0.26 0.18,-0.46 0.46,-0.46 0.26,0 0.46,0.17 0.46,0.47 0,0.68 -0.76,1.07 -1.52,1.07 -1.25,0 -2.17,-1.08 -2.17,-2.32 0,-1.27 0.99,-2.26 2.15,-2.26 1.33,0 1.65,1.2 1.65,1.3 0,0.1 -0.1,0.1 -0.13,0.1 -0.09,0 -0.11,-0.04 -0.13,-0.1 -0.29,-0.93 -0.94,-1.05 -1.3,-1.05 -0.53,0 -1.41,0.43 -1.41,2.03 z" />
<path
   style="fill:#000000;stroke-width:0"
   id="path3498"
   d="m 240.88,709.26 0,0.11 -0.01,0.12 -0.01,0.12 -0.02,0.11 -0.03,0.11 -0.03,0.11 -0.03,0.11 -0.04,0.11 -0.05,0.1 -0.05,0.1 -0.05,0.1 -0.06,0.09 -0.06,0.09 -0.06,0.09 -0.07,0.09 -0.08,0.08 -0.07,0.08 -0.08,0.07 -0.09,0.07 -0.08,0.06 -0.09,0.07 -0.09,0.05 -0.1,0.05 -0.1,0.05 -0.1,0.04 -0.1,0.04 -0.1,0.03 -0.11,0.03 -0.11,0.02 -0.11,0.01 -0.11,0.01 -0.11,0.01 -0.01,-0.22 c 0.44,0 0.87,-0.22 1.13,-0.65 0.25,-0.43 0.25,-1.01 0.25,-1.39 0,-0.35 0,-0.89 -0.21,-1.33 -0.22,-0.45 -0.66,-0.74 -1.16,-0.74 h 0 c -0.43,0 -0.87,0.21 -1.14,0.67 -0.24,0.44 -0.24,1.05 -0.24,1.4 0,0.39 0,0.93 0.24,1.37 0.26,0.46 0.73,0.67 1.13,0.67 l 0.01,0.22 c -1.25,0 -2.21,-1.09 -2.21,-2.33 0,-1.29 1.04,-2.25 2.2,-2.25 1.21,0 2.21,0.98 2.21,2.25 z" />
<path
   style="fill:#000000;stroke-width:0"
   id="path3500"
   d="m 245.07,707.91 v -0.9 l 1.43,0.11 v 0.31 c -0.7,0 -0.78,0.07 -0.78,0.56 v 3.54 l -1.46,-0.11 v -0.31 c 0.7,0 0.78,-0.07 0.78,-0.56 v -1.77 c 0,-0.87 -0.48,-1.55 -1.21,-1.55 -0.84,0 -0.88,0.47 -0.88,0.99 v 3.31 l -1.46,-0.11 v -0.31 c 0.78,0 0.78,-0.03 0.78,-0.92 v -1.49 c 0,-0.78 0,-1.69 1.51,-1.69 0.56,0 1,0.28 1.29,0.9 z" />
<path
   style="fill:#000000;stroke-width:0"
   id="path3502"
   d="m 250.85,710.44 0.01,0.02 0.01,0.03 0.01,0.02 0.01,0.02 0.01,0.03 0.01,0.03 0.01,0.02 0.02,0.03 0.01,0.03 0.02,0.02 0.02,0.03 0.02,0.03 0.02,0.03 0.02,0.02 0.02,0.03 0.02,0.03 0.03,0.02 0.03,0.03 0.03,0.02 0.03,0.02 0.03,0.02 0.04,0.02 0.04,0.02 0.04,0.02 0.04,0.02 0.04,0.01 0.05,0.01 0.05,0.02 0.05,0 0.03,0.01 0.03,0 0.03,0 0.03,0.01 0.03,0 0.03,0 v 0.31 c -0.23,-0.02 -0.52,-0.03 -0.75,-0.03 -0.24,0 -0.7,0.02 -0.87,0.03 v -0.31 c 0.37,-0.01 0.48,-0.24 0.48,-0.43 0,-0.09 -0.02,-0.13 -0.06,-0.24 l -1.02,-2.54 -1.11,2.78 c -0.06,0.13 -0.06,0.15 -0.06,0.17 0,0.26 0.39,0.26 0.57,0.26 v 0.31 c -0.3,-0.01 -0.86,-0.03 -1.09,-0.03 -0.27,0 -0.67,0.01 -0.97,0.03 v -0.31 c 0.63,0 0.67,-0.06 0.8,-0.37 l 1.44,-3.54 c 0.06,-0.14 0.08,-0.19 0.21,-0.19 0.12,0 0.17,0.09 0.2,0.19 z" />
<path
   style="fill:#000000;stroke-width:0"
   id="path3504"
   d="m 253.63,710.43 v 1.1 l -1.39,-0.11 v -0.31 c 0.7,0 0.78,-0.07 0.78,-0.56 v -2.67 c 0,-0.45 -0.11,-0.45 -0.78,-0.45 v -0.31 c 0.39,0.01 0.86,0.03 1.14,0.03 0.4,0 0.86,0 1.26,-0.03 v 0.31 h -0.21 c -0.73,0 -0.75,0.11 -0.75,0.47 v 1.53 c 0,0.99 0.41,1.88 1.17,1.88 0.07,0 0.09,0 0.11,-0.01 -0.03,-0.01 -0.23,-0.13 -0.23,-0.39 0,-0.28 0.21,-0.43 0.43,-0.43 0.18,0 0.43,0.12 0.43,0.44 0,0.32 -0.31,0.61 -0.74,0.61 -0.73,0 -1.08,-0.67 -1.22,-1.1 z" />
<path
   style="fill:#000000;stroke-width:0"
   id="path3506"
   d="m 259.18,707.88 0,-0.04 0.01,-0.03 0.01,-0.04 0.01,-0.04 0.01,-0.04 0.01,-0.03 0.01,-0.04 0.01,-0.04 0.02,-0.03 0.01,-0.04 0.02,-0.03 0.02,-0.03 0.02,-0.04 0.02,-0.03 0.02,-0.03 0.03,-0.03 0.02,-0.03 0.03,-0.02 0.03,-0.03 0.03,-0.02 0.03,-0.03 0.03,-0.02 0.03,-0.02 0.03,-0.02 0.04,-0.01 0.03,-0.02 0.04,-0.01 0.04,-0.01 0.04,-0.01 0.04,0 0.04,-0.01 0.05,0 c 0.21,0 0.81,0.14 0.81,0.95 v 0.56 h -0.25 v -0.56 c 0,-0.58 -0.24,-0.64 -0.35,-0.64 -0.33,0 -0.37,0.45 -0.37,0.5 v 1.99 c 0,0.42 0,0.81 -0.36,1.18 -0.39,0.39 -0.89,0.55 -1.37,0.55 -0.81,0 -1.5,-0.47 -1.5,-1.13 0,-0.3 0.2,-0.47 0.46,-0.47 0.28,0 0.46,0.2 0.46,0.46 0,0.12 -0.05,0.45 -0.51,0.46 0.27,0.35 0.75,0.46 1.07,0.46 0.49,0 1.06,-0.39 1.06,-1.28 v -0.37 -0.21 -0.99 c 0,-0.95 -0.72,-1.29 -1.16,-1.29 -0.49,0 -0.9,0.35 -0.9,0.85 0,0.55 0.42,1.37 2.06,1.43 h 0 v 0.21 c -0.51,-0.03 -1.21,-0.06 -1.83,-0.36 -0.75,-0.33 -1,-0.85 -1,-1.29 0,-0.81 0.97,-1.06 1.6,-1.06 0.65,0 1.11,0.4 1.3,0.87 z" />
<path
   style="fill:#000000;stroke-width:0"
   id="path3508"
   d="m 261.95,710.55 v -2.67 c 0,-0.45 -0.11,-0.45 -0.78,-0.45 v -0.31 c 0.35,0.01 0.86,0.03 1.13,0.03 0.25,0 0.77,-0.02 1.11,-0.03 v 0.31 c -0.67,0 -0.78,0 -0.78,0.45 v 1.83 c 0,1.04 0.71,1.6 1.35,1.6 0.63,0 0.73,-0.54 0.73,-1.11 v -2.32 c 0,-0.45 -0.1,-0.45 -0.77,-0.45 v -0.31 c 0.35,0.01 0.86,0.03 1.12,0.03 0.26,0 0.78,-0.02 1.12,-0.03 v 0.31 c -0.52,0 -0.77,0 -0.78,0.3 v 1.9 c 0,0.86 0,1.17 -0.31,1.53 -0.14,0.17 -0.46,0.37 -1.04,0.37 -0.73,0 -1.2,-0.43 -1.48,-1.05 v 1.05 l -1.4,-0.11 v -0.31 c 0.7,0 0.78,-0.07 0.78,-0.56 z" />
<path
   style="fill:#000000;stroke-width:0"
   id="path3510"
   d="m 267.55,709.29 0,0.08 0,0.07 0.01,0.07 0,0.07 0.01,0.07 0,0.07 0.01,0.06 0.01,0.07 0.01,0.06 0.01,0.06 0.01,0.06 0.01,0.06 0.03,0.11 0.03,0.1 0.03,0.1 0.04,0.09 0.04,0.08 0.04,0.08 0.04,0.08 0.05,0.07 0.05,0.06 0.05,0.06 0.05,0.06 0.05,0.05 0.05,0.05 0.06,0.04 0.05,0.04 0.06,0.03 0.06,0.03 0.05,0.03 0.06,0.02 0.06,0.02 0.05,0.01 0.06,0.02 0.05,0.01 0.05,0 0.06,0.01 0.05,0 c 0.08,0 0.71,-0.01 1.06,-0.37 -0.41,-0.03 -0.47,-0.33 -0.47,-0.46 0,-0.26 0.18,-0.46 0.46,-0.46 0.26,0 0.46,0.17 0.46,0.47 0,0.68 -0.76,1.07 -1.52,1.07 -1.25,0 -2.17,-1.08 -2.17,-2.32 0,-1.27 0.99,-2.26 2.15,-2.26 1.33,0 1.65,1.2 1.65,1.3 0,0.1 -0.1,0.1 -0.13,0.1 -0.09,0 -0.11,-0.04 -0.13,-0.1 -0.29,-0.93 -0.94,-1.05 -1.31,-1.05 -0.52,0 -1.4,0.43 -1.4,2.03 z" />
<path
   style="fill:#000000;stroke-width:0"
   id="path3512"
   d="m 271.92,709.42 0.01,0.21 c 0.06,1.49 0.89,1.74 1.23,1.74 1.03,0 1.13,-1.35 1.13,-1.74 h -2.36 l -0.01,-0.21 h 2.78 c 0.22,0 0.24,0 0.24,0.21 0,0.99 -0.53,1.96 -1.78,1.96 -1.15,0 -2.07,-1.03 -2.07,-2.28 0,-1.33 1.05,-2.3 2.19,-2.3 1.22,0 1.66,1.11 1.66,1.3 0,0.1 -0.08,0.12 -0.12,0.12 -0.09,0 -0.12,-0.06 -0.14,-0.14 -0.34,-1.03 -1.24,-1.03 -1.34,-1.03 -0.5,0 -0.9,0.3 -1.13,0.67 -0.29,0.48 -0.29,1.14 -0.29,1.49 z" />
<path
   style="fill:#000000;stroke-width:0"
   id="path3514"
   d="m 225.2,699.57 -1.4,-0.11 v -0.31 c 0.65,0 0.74,-0.06 0.74,-0.55 v -2.68 c 0,-0.44 -0.11,-0.44 -0.78,-0.44 v -0.31 c 0.32,0.01 0.86,0.03 1.1,0.03 0.35,0 0.69,-0.02 1.03,-0.03 v 0.31 c -0.65,0 -0.69,0.05 -0.69,0.43 z" />
<path
   style="fill:#000000;stroke-width:0"
   id="path3516"
   d="m 225.24,701.3 0,0.03 -0.01,0.03 0,0.03 -0.01,0.03 0,0.03 -0.01,0.02 -0.01,0.03 -0.01,0.02 -0.01,0.02 -0.01,0.03 -0.01,0.02 -0.02,0.02 -0.01,0.02 -0.02,0.02 -0.02,0.02 -0.01,0.02 -0.02,0.01 -0.02,0.02 -0.02,0.02 -0.02,0.01 -0.02,0.01 -0.03,0.01 -0.02,0.01 -0.02,0.01 -0.03,0.01 -0.02,0.01 -0.02,0.01 -0.03,0 -0.02,0.01 -0.03,0 -0.03,0 -0.02,0 c -0.31,0 -0.53,-0.27 -0.53,-0.53 0,-0.27 0.22,-0.52 0.53,-0.52 0.28,0 0.53,0.21 0.53,0.52 z" />
<path
   style="fill:#000000;stroke-width:0"
   id="path3518"
   d="m 227.3,698.59 v -2.67 c 0,-0.44 -0.11,-0.44 -0.78,-0.44 v -0.31 c 0.35,0.01 0.86,0.03 1.13,0.03 0.25,0 0.77,-0.02 1.11,-0.03 v 0.31 c -0.67,0 -0.78,0 -0.78,0.44 v 1.84 c 0,1.03 0.71,1.59 1.35,1.59 0.63,0 0.74,-0.54 0.74,-1.1 v -2.33 c 0,-0.44 -0.11,-0.44 -0.78,-0.44 v -0.31 c 0.35,0.01 0.86,0.03 1.12,0.03 0.26,0 0.78,-0.02 1.12,-0.03 v 0.31 c -0.52,0 -0.77,0 -0.78,0.3 v 1.9 c 0,0.85 0,1.16 -0.31,1.52 -0.14,0.17 -0.46,0.37 -1.04,0.37 -0.73,0 -1.2,-0.43 -1.48,-1.04 v 1.04 l -1.4,-0.11 v -0.31 c 0.7,0 0.78,-0.07 0.78,-0.56 z" />
<path
   style="fill:#000000;stroke-width:0"
   id="path3520"
   d="m 233.81,697.1 0.02,0 0.02,-0.01 0.03,0 0.03,-0.01 0.04,-0.01 0.03,-0.01 0.04,-0.01 0.04,-0.01 0.04,-0.01 0.04,-0.02 0.05,-0.01 0.04,-0.02 0.05,-0.02 0.04,-0.02 0.04,-0.02 0.05,-0.02 0.04,-0.03 0.04,-0.03 0.04,-0.03 0.04,-0.03 0.04,-0.04 0.04,-0.03 0.03,-0.04 0.03,-0.05 0.03,-0.04 0.01,-0.02 0.02,-0.03 0.01,-0.02 0.01,-0.03 0.01,-0.03 0.01,-0.02 0.01,-0.03 0,-0.03 0.01,-0.03 0,-0.03 0.01,-0.03 0,-0.03 0,-0.03 0,-0.04 c 0,-0.5 -0.35,-0.9 -1.12,-0.9 -0.84,0 -1.2,0.56 -1.39,1.41 -0.03,0.13 -0.04,0.17 -0.14,0.17 -0.13,0 -0.13,-0.07 -0.13,-0.25 v -1.31 c 0,-0.17 0,-0.24 0.11,-0.24 0.05,0 0.06,0.01 0.25,0.2 0.02,0.02 0.02,0.04 0.2,0.23 0.44,-0.42 0.89,-0.43 1.1,-0.43 1.14,0 1.6,0.66 1.6,1.38 0,0.53 -0.3,0.83 -0.42,0.95 -0.33,0.32 -0.71,0.4 -1.13,0.48 -0.56,0.11 -1.23,0.24 -1.23,0.81 0,0.35 0.26,0.76 1.12,0.76 1.09,0 1.14,-0.9 1.16,-1.2 0.01,-0.09 0.1,-0.09 0.12,-0.09 0.13,0 0.13,0.05 0.13,0.24 v 1 c 0,0.17 0,0.24 -0.11,0.24 -0.05,0 -0.07,0 -0.2,-0.12 -0.03,-0.04 -0.13,-0.13 -0.17,-0.16 -0.37,0.28 -0.78,0.28 -0.93,0.28 -1.22,0 -1.6,-0.67 -1.6,-1.22 0,-0.35 0.16,-0.63 0.43,-0.85 0.32,-0.26 0.6,-0.32 1.32,-0.46 z" />
<path
   style="fill:#000000;stroke-width:0"
   id="path3522"
   d="m 237.39,699.15 h 1.42 v 0.31 h -1.42 v 1.83 h -0.25 c -0.01,-0.81 -0.31,-1.88 -1.29,-1.92 v -0.22 h 0.85 v -2.75 c 0,-1.22 0.93,-1.34 1.29,-1.34 0.7,0 0.98,0.71 0.98,1.34 v 0.57 h -0.25 v -0.55 c 0,-0.73 -0.29,-1.11 -0.66,-1.11 -0.67,0 -0.67,0.9 -0.67,1.07 z" />
<path
   style="fill:#000000;stroke-width:0"
   id="path3524"
   d="m 242.85,695.92 0.01,-0.03 0,-0.04 0.01,-0.04 0.01,-0.03 0.01,-0.04 0.01,-0.04 0.01,-0.04 0.01,-0.03 0.02,-0.04 0.02,-0.03 0.01,-0.04 0.02,-0.03 0.02,-0.03 0.02,-0.03 0.03,-0.03 0.02,-0.03 0.03,-0.03 0.02,-0.03 0.03,-0.02 0.03,-0.03 0.03,-0.02 0.03,-0.02 0.03,-0.02 0.04,-0.02 0.03,-0.02 0.04,-0.01 0.03,-0.01 0.04,-0.01 0.04,-0.01 0.04,-0.01 0.05,0 0.04,0 c 0.21,0 0.82,0.14 0.82,0.94 v 0.56 h -0.25 v -0.56 c 0,-0.57 -0.25,-0.63 -0.36,-0.63 -0.33,0 -0.37,0.44 -0.37,0.49 v 2 c 0,0.42 0,0.8 -0.36,1.17 -0.39,0.39 -0.88,0.55 -1.36,0.55 -0.82,0 -1.51,-0.47 -1.51,-1.12 0,-0.3 0.2,-0.47 0.46,-0.47 0.28,0 0.46,0.2 0.46,0.45 0,0.12 -0.05,0.45 -0.51,0.46 0.27,0.35 0.76,0.46 1.08,0.46 0.48,0 1.05,-0.39 1.05,-1.27 v -0.37 -0.21 -1 c 0,-0.94 -0.71,-1.28 -1.16,-1.28 -0.49,0 -0.9,0.35 -0.9,0.84 0,0.55 0.42,1.38 2.06,1.44 h 0 v 0.21 c -0.51,-0.03 -1.2,-0.06 -1.83,-0.36 -0.75,-0.34 -1,-0.86 -1,-1.3 0,-0.8 0.97,-1.05 1.6,-1.05 0.66,0 1.11,0.4 1.3,0.86 z" />
<path
   style="fill:#000000;stroke-width:0"
   id="path3526"
   d="m 245.62,698.59 v -2.67 c 0,-0.44 -0.11,-0.44 -0.78,-0.44 v -0.31 c 0.35,0.01 0.86,0.03 1.13,0.03 0.26,0 0.77,-0.02 1.11,-0.03 v 0.31 c -0.67,0 -0.77,0 -0.77,0.44 v 1.84 c 0,1.03 0.7,1.59 1.34,1.59 0.63,0 0.74,-0.54 0.74,-1.1 v -2.33 c 0,-0.44 -0.11,-0.44 -0.78,-0.44 v -0.31 c 0.35,0.01 0.86,0.03 1.13,0.03 0.26,0 0.77,-0.02 1.11,-0.03 v 0.31 c -0.52,0 -0.76,0 -0.78,0.3 v 1.9 c 0,0.85 0,1.16 -0.3,1.52 -0.14,0.17 -0.47,0.37 -1.05,0.37 -0.73,0 -1.2,-0.43 -1.47,-1.04 v 1.04 l -1.41,-0.11 v -0.31 c 0.7,0 0.78,-0.07 0.78,-0.56 z" />
<path
   style="fill:#000000;stroke-width:0"
   id="path3528"
   d="m 251.5,699.15 h 1.42 v 0.31 h -1.42 v 1.83 h -0.25 c -0.01,-0.81 -0.31,-1.88 -1.29,-1.92 v -0.22 h 0.85 v -2.75 c 0,-1.22 0.93,-1.34 1.28,-1.34 0.71,0 0.99,0.71 0.99,1.34 v 0.57 h -0.25 v -0.55 c 0,-0.73 -0.3,-1.11 -0.67,-1.11 -0.66,0 -0.66,0.9 -0.66,1.07 z" />
<path
   style="fill:#000000;stroke-width:0"
   id="path3530"
   d="m 256.97,695.92 0,-0.03 0.01,-0.04 0,-0.04 0.01,-0.03 0.01,-0.04 0.01,-0.04 0.02,-0.04 0.01,-0.03 0.01,-0.04 0.02,-0.03 0.02,-0.04 0.02,-0.03 0.02,-0.03 0.02,-0.03 0.02,-0.03 0.03,-0.03 0.02,-0.03 0.03,-0.03 0.02,-0.02 0.03,-0.03 0.03,-0.02 0.03,-0.02 0.04,-0.02 0.03,-0.02 0.04,-0.02 0.03,-0.01 0.04,-0.01 0.04,-0.01 0.04,-0.01 0.04,-0.01 0.04,0 0.04,0 c 0.21,0 0.82,0.14 0.82,0.94 v 0.56 h -0.25 v -0.56 c 0,-0.57 -0.25,-0.63 -0.36,-0.63 -0.33,0 -0.37,0.44 -0.37,0.49 v 2 c 0,0.42 0,0.8 -0.35,1.17 -0.39,0.39 -0.89,0.55 -1.37,0.55 -0.82,0 -1.5,-0.47 -1.5,-1.12 0,-0.3 0.2,-0.47 0.46,-0.47 0.28,0 0.45,0.2 0.45,0.45 0,0.12 -0.05,0.45 -0.5,0.46 0.27,0.35 0.75,0.46 1.07,0.46 0.49,0 1.06,-0.39 1.06,-1.27 v -0.37 -0.21 -1 c 0,-0.94 -0.72,-1.28 -1.17,-1.28 -0.49,0 -0.89,0.35 -0.89,0.84 0,0.55 0.41,1.38 2.06,1.44 h 0 v 0.21 c -0.51,-0.03 -1.21,-0.06 -1.83,-0.36 -0.75,-0.34 -1,-0.86 -1,-1.3 0,-0.8 0.97,-1.05 1.59,-1.05 0.66,0 1.12,0.4 1.31,0.86 z" />
<path
   style="fill:#000000;stroke-width:0"
   id="path3532"
   d="m 259.73,698.59 v -2.67 c 0,-0.44 -0.11,-0.44 -0.78,-0.44 v -0.31 c 0.35,0.01 0.86,0.03 1.13,0.03 0.25,0 0.77,-0.02 1.11,-0.03 v 0.31 c -0.67,0 -0.78,0 -0.78,0.44 v 1.84 c 0,1.03 0.71,1.59 1.35,1.59 0.63,0 0.73,-0.54 0.73,-1.1 v -2.33 c 0,-0.44 -0.1,-0.44 -0.77,-0.44 v -0.31 c 0.35,0.01 0.86,0.03 1.12,0.03 0.26,0 0.78,-0.02 1.12,-0.03 v 0.31 c -0.52,0 -0.77,0 -0.78,0.3 v 1.9 c 0,0.85 0,1.16 -0.31,1.52 -0.14,0.17 -0.46,0.37 -1.04,0.37 -0.73,0 -1.2,-0.43 -1.48,-1.04 v 1.04 l -1.4,-0.11 v -0.31 c 0.7,0 0.78,-0.07 0.78,-0.56 z" />
<path
   style="fill:#000000;stroke-width:0"
   id="path3534"
   d="m 267.62,701.46 0.02,0.02 0.02,0.01 0.01,0.02 0.02,0.01 0.01,0.02 0.01,0.01 0.01,0.01 0,0.01 0.01,0.01 0.01,0.01 0,0 0.01,0.01 0,0.01 0.01,0.01 0,0.01 0.01,0.01 0,0.01 0.01,0.01 0,0.02 0,0.01 0.01,0.01 0,0.01 0,0.01 0,0.01 0,0.01 0,0.01 0,0.01 c 0,0.18 -0.18,0.36 -0.36,0.36 -0.14,0 -0.26,-0.11 -0.29,-0.17 l -1.2,-1.52 0.17,-0.18 z" />
<path
   style="fill:#000000;stroke-width:0"
   id="path3536"
   d="m 265.27,697.47 0.01,0.21 c 0.06,1.48 0.9,1.73 1.24,1.73 1.02,0 1.12,-1.34 1.12,-1.73 h -2.36 l -0.01,-0.21 h 2.78 c 0.22,0 0.25,0 0.25,0.21 0,0.98 -0.54,1.95 -1.78,1.95 -1.16,0 -2.08,-1.03 -2.08,-2.27 0,-1.34 1.05,-2.3 2.2,-2.3 1.21,0 1.66,1.1 1.66,1.29 0,0.1 -0.08,0.12 -0.13,0.12 -0.09,0 -0.11,-0.06 -0.13,-0.14 -0.35,-1.02 -1.24,-1.02 -1.34,-1.02 -0.5,0 -0.9,0.3 -1.13,0.66 -0.3,0.48 -0.3,1.14 -0.3,1.5 z" />
<path
   style="fill:#000000;stroke-width:0"
   id="path3538"
   d="m 269.7,697.47 0.01,0.21 c 0.06,1.48 0.9,1.73 1.24,1.73 1.03,0 1.12,-1.34 1.12,-1.73 h -2.36 l -0.01,-0.21 h 2.78 c 0.22,0 0.25,0 0.25,0.21 0,0.98 -0.54,1.95 -1.78,1.95 -1.16,0 -2.07,-1.03 -2.07,-2.27 0,-1.34 1.04,-2.3 2.19,-2.3 1.21,0 1.66,1.1 1.66,1.29 0,0.1 -0.08,0.12 -0.13,0.12 -0.09,0 -0.11,-0.06 -0.13,-0.14 -0.35,-1.02 -1.24,-1.02 -1.34,-1.02 -0.5,0 -0.9,0.3 -1.13,0.66 -0.3,0.48 -0.3,1.14 -0.3,1.5 z" />
</g>    <g
       style="font-style:normal;font-variant:normal;font-weight:normal;font-stretch:normal;letter-spacing:normal;word-spacing:normal;text-anchor:start;fill:none;stroke:#000000;stroke-linecap:butt;stroke-linejoin:miter;stroke-miterlimit:10.43299961;stroke-opacity:1;stroke-dasharray:none;stroke-dashoffset:0;display:inline"
       id="g3688"
       transform="matrix(0.9,0,0,-0.9,143.274,1265.0971)"
       xml:space="preserve"
       stroke-miterlimit="10.433"
       fill-rule="even-odd"
       font-style="normal"
       font-variant="normal"
       font-weight="normal"
       font-stretch="normal"
       font-size-adjust="none"
       letter-spacing="normal"
       word-spacing="normal"
       ns0:text="rec. diff\\\'er\\\'ee"
       ns0:preamble="">
<path
   style="fill:#000000;stroke-width:0"
   d="m 225.1,710.43 v 1.1 l -1.39,-0.11 v -0.31 c 0.7,0 0.78,-0.07 0.78,-0.56 v -2.67 c 0,-0.45 -0.11,-0.45 -0.78,-0.45 v -0.31 c 0.39,0.01 0.86,0.03 1.14,0.03 0.4,0 0.86,0 1.26,-0.03 v 0.31 h -0.21 c -0.73,0 -0.75,0.11 -0.75,0.47 v 1.53 c 0,0.99 0.41,1.88 1.17,1.88 0.07,0 0.09,0 0.11,-0.01 -0.03,-0.01 -0.23,-0.13 -0.23,-0.39 0,-0.28 0.21,-0.43 0.43,-0.43 0.18,0 0.43,0.12 0.43,0.44 0,0.32 -0.31,0.61 -0.74,0.61 -0.73,0 -1.08,-0.67 -1.22,-1.1 z"
   id="path3690" />
<path
   style="fill:#000000;stroke-width:0"
   d="m 228.44,709.42 0.01,0.21 c 0.06,1.49 0.9,1.74 1.23,1.74 1.03,0 1.13,-1.35 1.13,-1.74 h -2.36 l -0.01,-0.21 h 2.78 c 0.22,0 0.25,0 0.25,0.21 0,0.99 -0.54,1.96 -1.79,1.96 -1.15,0 -2.07,-1.03 -2.07,-2.28 0,-1.33 1.05,-2.3 2.19,-2.3 1.22,0 1.67,1.11 1.67,1.3 0,0.1 -0.08,0.12 -0.13,0.12 -0.09,0 -0.11,-0.06 -0.13,-0.14 -0.35,-1.03 -1.25,-1.03 -1.35,-1.03 -0.49,0 -0.89,0.3 -1.12,0.67 -0.3,0.48 -0.3,1.14 -0.3,1.49 z"
   id="path3692" />
<path
   style="fill:#000000;stroke-width:0"
   d="m 232.93,709.29 0,0.08 0,0.07 0.01,0.07 0,0.07 0.01,0.07 0,0.07 0.01,0.06 0.01,0.07 0.01,0.06 0.01,0.06 0.01,0.06 0.01,0.06 0.03,0.11 0.03,0.1 0.03,0.1 0.04,0.09 0.04,0.08 0.04,0.08 0.04,0.08 0.05,0.07 0.05,0.06 0.05,0.06 0.05,0.06 0.05,0.05 0.05,0.05 0.06,0.04 0.05,0.04 0.06,0.03 0.06,0.03 0.05,0.03 0.06,0.02 0.06,0.02 0.05,0.01 0.06,0.02 0.05,0.01 0.05,0 0.06,0.01 0.05,0 c 0.09,0 0.71,-0.01 1.06,-0.37 -0.41,-0.03 -0.47,-0.33 -0.47,-0.46 0,-0.26 0.18,-0.46 0.46,-0.46 0.26,0 0.46,0.17 0.46,0.47 0,0.68 -0.76,1.07 -1.52,1.07 -1.25,0 -2.17,-1.08 -2.17,-2.32 0,-1.27 0.99,-2.26 2.15,-2.26 1.33,0 1.65,1.2 1.65,1.3 0,0.1 -0.1,0.1 -0.13,0.1 -0.09,0 -0.11,-0.04 -0.13,-0.1 -0.29,-0.93 -0.94,-1.05 -1.3,-1.05 -0.53,0 -1.41,0.43 -1.41,2.03 z"
   id="path3694" />
<path
   style="fill:#000000;stroke-width:0"
   d="m 238.1,707.65 0,0.03 0,0.02 0,0.03 -0.01,0.03 0,0.02 -0.01,0.03 -0.01,0.02 -0.01,0.03 -0.01,0.02 -0.01,0.02 -0.01,0.02 -0.02,0.02 -0.01,0.03 -0.02,0.02 -0.02,0.01 -0.01,0.02 -0.02,0.02 -0.02,0.02 -0.02,0.01 -0.02,0.02 -0.02,0.01 -0.02,0.01 -0.03,0.02 -0.02,0.01 -0.02,0.01 -0.03,0 -0.02,0.01 -0.03,0.01 -0.03,0 -0.02,0.01 -0.03,0 -0.03,0 c -0.28,0 -0.52,-0.24 -0.52,-0.53 0,-0.29 0.24,-0.53 0.52,-0.53 0.29,0 0.53,0.24 0.53,0.53 z"
   id="path3696" />
<path
   style="fill:#000000;stroke-width:0"
   d="m 247.17,707.67 v -0.66 l 1.46,0.11 v 0.31 c -0.7,0 -0.77,0.07 -0.77,0.56 v 6.05 l -1.44,-0.11 v -0.31 c 0.7,0 0.78,-0.07 0.78,-0.56 v -2.15 c -0.29,0.36 -0.72,0.62 -1.26,0.62 l 0.04,-0.22 c 0.35,0 0.77,-0.15 1.08,-0.6 0.11,-0.17 0.11,-0.19 0.11,-0.37 h 0 v -2.04 c 0,-0.18 0,-0.2 -0.11,-0.37 -0.3,-0.48 -0.75,-0.7 -1.18,-0.7 -0.45,0 -0.8,0.26 -1.04,0.64 -0.26,0.41 -0.29,0.98 -0.29,1.39 0,0.36 0.02,0.96 0.31,1.41 0.21,0.31 0.59,0.64 1.12,0.64 l -0.04,0.22 c -1.17,0 -2.22,-0.98 -2.22,-2.27 0,-1.26 0.98,-2.25 2.11,-2.25 0.64,0 1.09,0.34 1.34,0.66 z"
   id="path3698" />
<path
   style="fill:#000000;stroke-width:0"
   d="m 250.68,711.53 -1.39,-0.11 v -0.31 c 0.64,0 0.73,-0.06 0.73,-0.55 v -2.68 c 0,-0.45 -0.11,-0.45 -0.77,-0.45 v -0.31 c 0.32,0.01 0.85,0.03 1.09,0.03 0.35,0 0.7,-0.02 1.04,-0.03 v 0.31 c -0.66,0 -0.7,0.05 -0.7,0.44 z"
   id="path3700" />
<path
   style="fill:#000000;stroke-width:0"
   d="m 250.72,713.26 0,0.03 0,0.03 -0.01,0.03 0,0.02 -0.01,0.03 0,0.03 -0.01,0.02 -0.01,0.03 -0.01,0.02 -0.02,0.02 -0.01,0.02 -0.01,0.03 -0.02,0.02 -0.01,0.02 -0.02,0.01 -0.02,0.02 -0.02,0.02 -0.02,0.02 -0.02,0.01 -0.02,0.01 -0.02,0.02 -0.02,0.01 -0.02,0.01 -0.03,0.01 -0.02,0.01 -0.02,0.01 -0.03,0 -0.02,0.01 -0.03,0 -0.03,0 -0.02,0.01 -0.03,0 c -0.31,0 -0.53,-0.27 -0.53,-0.53 0,-0.27 0.22,-0.53 0.53,-0.53 0.28,0 0.53,0.21 0.53,0.53 z"
   id="path3702" />
<path
   style="fill:#000000;stroke-width:0"
   d="m 256.15,711.11 h 1.14 v 0.31 h -1.17 v 1.15 c 0,0.89 0.48,1.36 0.93,1.36 0.03,0 0.17,0 0.32,-0.07 -0.12,-0.04 -0.29,-0.17 -0.29,-0.42 0,-0.23 0.15,-0.43 0.42,-0.43 0.29,0 0.44,0.2 0.44,0.44 0,0.36 -0.35,0.7 -0.9,0.7 -0.59,0 -1.03,-0.38 -1.08,-0.42 -0.29,0.37 -0.85,0.42 -1.12,0.42 l -0.01,-0.22 c 0.49,0 0.77,-0.19 0.78,-0.19 v -0.01 c -0.17,-0.02 -0.37,-0.15 -0.37,-0.43 0,-0.06 0.01,-0.31 0.28,-0.4 -0.03,-0.13 -0.03,-0.22 -0.03,-0.34 v -1.14 h -2.12 v 1.12 c 0,0.97 0.82,1.39 1.46,1.39 l 0.01,0.22 c -0.94,0 -2.1,-0.52 -2.1,-1.6 v -1.13 h -0.79 v -0.31 h 0.79 v -3.23 c 0,-0.45 -0.11,-0.45 -0.78,-0.45 v -0.31 c 0.33,0.01 0.86,0.03 1.11,0.03 0.25,0 0.74,-0.02 1.11,-0.03 v 0.31 c -0.67,0 -0.78,0 -0.78,0.45 v 3.23 h 2.09 v -3.23 c 0,-0.45 -0.11,-0.45 -0.78,-0.45 v -0.31 c 0.39,0.01 0.86,0.03 1.14,0.03 0.4,0 0.87,0 1.26,-0.03 v 0.31 h -0.21 c -0.73,0 -0.75,0.11 -0.75,0.47 z"
   id="path3704" />
<path
   style="fill:#000000;stroke-width:0"
   d="m 260.96,713.42 0.02,0.01 0.02,0.02 0.01,0.01 0.02,0.02 0.01,0.02 0.01,0 0.01,0.01 0,0.01 0.01,0.01 0.01,0.01 0,0.01 0.01,0.01 0,0.01 0.01,0.01 0,0.01 0.01,0.01 0,0.01 0.01,0.01 0,0.01 0,0.01 0.01,0.01 0,0.01 0,0.01 0,0.01 0,0.02 0,0.01 0,0.01 c 0,0.18 -0.18,0.36 -0.36,0.36 -0.15,0 -0.25,-0.11 -0.29,-0.17 l -1.2,-1.53 0.17,-0.18 z"
   id="path3706" />
<path
   style="fill:#000000;stroke-width:0"
   d="m 258.6,709.42 0.01,0.21 c 0.06,1.49 0.9,1.74 1.24,1.74 1.03,0 1.12,-1.35 1.12,-1.74 h -2.36 l -0.01,-0.21 h 2.78 c 0.22,0 0.25,0 0.25,0.21 0,0.99 -0.54,1.96 -1.78,1.96 -1.16,0 -2.07,-1.03 -2.07,-2.28 0,-1.33 1.04,-2.3 2.19,-2.3 1.21,0 1.66,1.11 1.66,1.3 0,0.1 -0.08,0.12 -0.13,0.12 -0.09,0 -0.11,-0.06 -0.13,-0.14 -0.35,-1.03 -1.24,-1.03 -1.34,-1.03 -0.5,0 -0.9,0.3 -1.13,0.67 -0.3,0.48 -0.3,1.14 -0.3,1.49 z"
   id="path3708" />
<path
   style="fill:#000000;stroke-width:0"
   d="m 263.59,710.43 v 1.1 l -1.38,-0.11 v -0.31 c 0.7,0 0.78,-0.07 0.78,-0.56 v -2.67 c 0,-0.45 -0.11,-0.45 -0.78,-0.45 v -0.31 c 0.39,0.01 0.86,0.03 1.14,0.03 0.39,0 0.86,0 1.26,-0.03 v 0.31 h -0.21 c -0.74,0 -0.76,0.11 -0.76,0.47 v 1.53 c 0,0.99 0.42,1.88 1.18,1.88 0.07,0 0.09,0 0.11,-0.01 -0.03,-0.01 -0.23,-0.13 -0.23,-0.39 0,-0.28 0.21,-0.43 0.43,-0.43 0.18,0 0.43,0.12 0.43,0.44 0,0.32 -0.31,0.61 -0.74,0.61 -0.73,0 -1.09,-0.67 -1.23,-1.1 z"
   id="path3710" />
<path
   style="fill:#000000;stroke-width:0"
   d="m 269.29,713.42 0.01,0.01 0.02,0.02 0.02,0.01 0.01,0.02 0.02,0.02 0,0 0.01,0.01 0.01,0.01 0,0.01 0.01,0.01 0.01,0.01 0,0.01 0.01,0.01 0,0.01 0.01,0.01 0,0.01 0.01,0.01 0,0.01 0,0.01 0.01,0.01 0,0.01 0,0.01 0,0.01 0.01,0.01 0,0.02 0,0.01 0,0.01 c 0,0.18 -0.18,0.36 -0.36,0.36 -0.15,0 -0.26,-0.11 -0.3,-0.17 l -1.19,-1.53 0.16,-0.18 z"
   id="path3712" />
<path
   style="fill:#000000;stroke-width:0"
   d="m 266.93,709.42 0.01,0.21 c 0.06,1.49 0.89,1.74 1.23,1.74 1.03,0 1.13,-1.35 1.13,-1.74 h -2.36 l -0.01,-0.21 h 2.78 c 0.22,0 0.25,0 0.25,0.21 0,0.99 -0.54,1.96 -1.79,1.96 -1.15,0 -2.07,-1.03 -2.07,-2.28 0,-1.33 1.05,-2.3 2.19,-2.3 1.22,0 1.67,1.11 1.67,1.3 0,0.1 -0.08,0.12 -0.13,0.12 -0.09,0 -0.11,-0.06 -0.13,-0.14 -0.35,-1.03 -1.25,-1.03 -1.35,-1.03 -0.49,0 -0.89,0.3 -1.12,0.67 -0.3,0.48 -0.3,1.14 -0.3,1.49 z"
   id="path3714" />
<path
   style="fill:#000000;stroke-width:0"
   d="m 271.37,709.42 0.01,0.21 c 0.06,1.49 0.89,1.74 1.23,1.74 1.03,0 1.13,-1.35 1.13,-1.74 h -2.36 l -0.01,-0.21 h 2.78 c 0.22,0 0.25,0 0.25,0.21 0,0.99 -0.54,1.96 -1.79,1.96 -1.15,0 -2.07,-1.03 -2.07,-2.28 0,-1.33 1.05,-2.3 2.19,-2.3 1.22,0 1.67,1.11 1.67,1.3 0,0.1 -0.08,0.12 -0.13,0.12 -0.09,0 -0.11,-0.06 -0.13,-0.14 -0.35,-1.03 -1.25,-1.03 -1.35,-1.03 -0.49,0 -0.89,0.3 -1.12,0.67 -0.3,0.48 -0.3,1.14 -0.3,1.49 z"
   id="path3716" />
</g>    <g
       ns0:preamble=""
       ns0:text="rec. diff\\\'er\\\'ee"
       word-spacing="normal"
       letter-spacing="normal"
       font-size-adjust="none"
       font-stretch="normal"
       font-weight="normal"
       font-variant="normal"
       font-style="normal"
       fill-rule="even-odd"
       stroke-miterlimit="10.433"
       xml:space="preserve"
       transform="matrix(0.9,0,0,-0.9,143.274,1265.0971)"
       id="g3813"
       style="font-style:normal;font-variant:normal;font-weight:normal;font-stretch:normal;letter-spacing:normal;word-spacing:normal;text-anchor:start;fill:none;stroke:#000000;stroke-linecap:butt;stroke-linejoin:miter;stroke-miterlimit:10.43299961;stroke-opacity:1;stroke-dasharray:none;stroke-dashoffset:0;display:inline">
<path
   id="path3815"
   d="m 225.1,710.43 v 1.1 l -1.39,-0.11 v -0.31 c 0.7,0 0.78,-0.07 0.78,-0.56 v -2.67 c 0,-0.45 -0.11,-0.45 -0.78,-0.45 v -0.31 c 0.39,0.01 0.86,0.03 1.14,0.03 0.4,0 0.86,0 1.26,-0.03 v 0.31 h -0.21 c -0.73,0 -0.75,0.11 -0.75,0.47 v 1.53 c 0,0.99 0.41,1.88 1.17,1.88 0.07,0 0.09,0 0.11,-0.01 -0.03,-0.01 -0.23,-0.13 -0.23,-0.39 0,-0.28 0.21,-0.43 0.43,-0.43 0.18,0 0.43,0.12 0.43,0.44 0,0.32 -0.31,0.61 -0.74,0.61 -0.73,0 -1.08,-0.67 -1.22,-1.1 z"
   style="fill:#000000;stroke-width:0" />
<path
   id="path3817"
   d="m 228.44,709.42 0.01,0.21 c 0.06,1.49 0.9,1.74 1.23,1.74 1.03,0 1.13,-1.35 1.13,-1.74 h -2.36 l -0.01,-0.21 h 2.78 c 0.22,0 0.25,0 0.25,0.21 0,0.99 -0.54,1.96 -1.79,1.96 -1.15,0 -2.07,-1.03 -2.07,-2.28 0,-1.33 1.05,-2.3 2.19,-2.3 1.22,0 1.67,1.11 1.67,1.3 0,0.1 -0.08,0.12 -0.13,0.12 -0.09,0 -0.11,-0.06 -0.13,-0.14 -0.35,-1.03 -1.25,-1.03 -1.35,-1.03 -0.49,0 -0.89,0.3 -1.12,0.67 -0.3,0.48 -0.3,1.14 -0.3,1.49 z"
   style="fill:#000000;stroke-width:0" />
<path
   id="path3819"
   d="m 232.93,709.29 0,0.08 0,0.07 0.01,0.07 0,0.07 0.01,0.07 0,0.07 0.01,0.06 0.01,0.07 0.01,0.06 0.01,0.06 0.01,0.06 0.01,0.06 0.03,0.11 0.03,0.1 0.03,0.1 0.04,0.09 0.04,0.08 0.04,0.08 0.04,0.08 0.05,0.07 0.05,0.06 0.05,0.06 0.05,0.06 0.05,0.05 0.05,0.05 0.06,0.04 0.05,0.04 0.06,0.03 0.06,0.03 0.05,0.03 0.06,0.02 0.06,0.02 0.05,0.01 0.06,0.02 0.05,0.01 0.05,0 0.06,0.01 0.05,0 c 0.09,0 0.71,-0.01 1.06,-0.37 -0.41,-0.03 -0.47,-0.33 -0.47,-0.46 0,-0.26 0.18,-0.46 0.46,-0.46 0.26,0 0.46,0.17 0.46,0.47 0,0.68 -0.76,1.07 -1.52,1.07 -1.25,0 -2.17,-1.08 -2.17,-2.32 0,-1.27 0.99,-2.26 2.15,-2.26 1.33,0 1.65,1.2 1.65,1.3 0,0.1 -0.1,0.1 -0.13,0.1 -0.09,0 -0.11,-0.04 -0.13,-0.1 -0.29,-0.93 -0.94,-1.05 -1.3,-1.05 -0.53,0 -1.41,0.43 -1.41,2.03 z"
   style="fill:#000000;stroke-width:0" />
<path
   id="path3821"
   d="m 238.1,707.65 0,0.03 0,0.02 0,0.03 -0.01,0.03 0,0.02 -0.01,0.03 -0.01,0.02 -0.01,0.03 -0.01,0.02 -0.01,0.02 -0.01,0.02 -0.02,0.02 -0.01,0.03 -0.02,0.02 -0.02,0.01 -0.01,0.02 -0.02,0.02 -0.02,0.02 -0.02,0.01 -0.02,0.02 -0.02,0.01 -0.02,0.01 -0.03,0.02 -0.02,0.01 -0.02,0.01 -0.03,0 -0.02,0.01 -0.03,0.01 -0.03,0 -0.02,0.01 -0.03,0 -0.03,0 c -0.28,0 -0.52,-0.24 -0.52,-0.53 0,-0.29 0.24,-0.53 0.52,-0.53 0.29,0 0.53,0.24 0.53,0.53 z"
   style="fill:#000000;stroke-width:0" />
<path
   id="path3823"
   d="m 247.17,707.67 v -0.66 l 1.46,0.11 v 0.31 c -0.7,0 -0.77,0.07 -0.77,0.56 v 6.05 l -1.44,-0.11 v -0.31 c 0.7,0 0.78,-0.07 0.78,-0.56 v -2.15 c -0.29,0.36 -0.72,0.62 -1.26,0.62 l 0.04,-0.22 c 0.35,0 0.77,-0.15 1.08,-0.6 0.11,-0.17 0.11,-0.19 0.11,-0.37 h 0 v -2.04 c 0,-0.18 0,-0.2 -0.11,-0.37 -0.3,-0.48 -0.75,-0.7 -1.18,-0.7 -0.45,0 -0.8,0.26 -1.04,0.64 -0.26,0.41 -0.29,0.98 -0.29,1.39 0,0.36 0.02,0.96 0.31,1.41 0.21,0.31 0.59,0.64 1.12,0.64 l -0.04,0.22 c -1.17,0 -2.22,-0.98 -2.22,-2.27 0,-1.26 0.98,-2.25 2.11,-2.25 0.64,0 1.09,0.34 1.34,0.66 z"
   style="fill:#000000;stroke-width:0" />
<path
   id="path3825"
   d="m 250.68,711.53 -1.39,-0.11 v -0.31 c 0.64,0 0.73,-0.06 0.73,-0.55 v -2.68 c 0,-0.45 -0.11,-0.45 -0.77,-0.45 v -0.31 c 0.32,0.01 0.85,0.03 1.09,0.03 0.35,0 0.7,-0.02 1.04,-0.03 v 0.31 c -0.66,0 -0.7,0.05 -0.7,0.44 z"
   style="fill:#000000;stroke-width:0" />
<path
   id="path3827"
   d="m 250.72,713.26 0,0.03 0,0.03 -0.01,0.03 0,0.02 -0.01,0.03 0,0.03 -0.01,0.02 -0.01,0.03 -0.01,0.02 -0.02,0.02 -0.01,0.02 -0.01,0.03 -0.02,0.02 -0.01,0.02 -0.02,0.01 -0.02,0.02 -0.02,0.02 -0.02,0.02 -0.02,0.01 -0.02,0.01 -0.02,0.02 -0.02,0.01 -0.02,0.01 -0.03,0.01 -0.02,0.01 -0.02,0.01 -0.03,0 -0.02,0.01 -0.03,0 -0.03,0 -0.02,0.01 -0.03,0 c -0.31,0 -0.53,-0.27 -0.53,-0.53 0,-0.27 0.22,-0.53 0.53,-0.53 0.28,0 0.53,0.21 0.53,0.53 z"
   style="fill:#000000;stroke-width:0" />
<path
   id="path3829"
   d="m 256.15,711.11 h 1.14 v 0.31 h -1.17 v 1.15 c 0,0.89 0.48,1.36 0.93,1.36 0.03,0 0.17,0 0.32,-0.07 -0.12,-0.04 -0.29,-0.17 -0.29,-0.42 0,-0.23 0.15,-0.43 0.42,-0.43 0.29,0 0.44,0.2 0.44,0.44 0,0.36 -0.35,0.7 -0.9,0.7 -0.59,0 -1.03,-0.38 -1.08,-0.42 -0.29,0.37 -0.85,0.42 -1.12,0.42 l -0.01,-0.22 c 0.49,0 0.77,-0.19 0.78,-0.19 v -0.01 c -0.17,-0.02 -0.37,-0.15 -0.37,-0.43 0,-0.06 0.01,-0.31 0.28,-0.4 -0.03,-0.13 -0.03,-0.22 -0.03,-0.34 v -1.14 h -2.12 v 1.12 c 0,0.97 0.82,1.39 1.46,1.39 l 0.01,0.22 c -0.94,0 -2.1,-0.52 -2.1,-1.6 v -1.13 h -0.79 v -0.31 h 0.79 v -3.23 c 0,-0.45 -0.11,-0.45 -0.78,-0.45 v -0.31 c 0.33,0.01 0.86,0.03 1.11,0.03 0.25,0 0.74,-0.02 1.11,-0.03 v 0.31 c -0.67,0 -0.78,0 -0.78,0.45 v 3.23 h 2.09 v -3.23 c 0,-0.45 -0.11,-0.45 -0.78,-0.45 v -0.31 c 0.39,0.01 0.86,0.03 1.14,0.03 0.4,0 0.87,0 1.26,-0.03 v 0.31 h -0.21 c -0.73,0 -0.75,0.11 -0.75,0.47 z"
   style="fill:#000000;stroke-width:0" />
<path
   id="path3831"
   d="m 260.96,713.42 0.02,0.01 0.02,0.02 0.01,0.01 0.02,0.02 0.01,0.02 0.01,0 0.01,0.01 0,0.01 0.01,0.01 0.01,0.01 0,0.01 0.01,0.01 0,0.01 0.01,0.01 0,0.01 0.01,0.01 0,0.01 0.01,0.01 0,0.01 0,0.01 0.01,0.01 0,0.01 0,0.01 0,0.01 0,0.02 0,0.01 0,0.01 c 0,0.18 -0.18,0.36 -0.36,0.36 -0.15,0 -0.25,-0.11 -0.29,-0.17 l -1.2,-1.53 0.17,-0.18 z"
   style="fill:#000000;stroke-width:0" />
<path
   id="path3833"
   d="m 258.6,709.42 0.01,0.21 c 0.06,1.49 0.9,1.74 1.24,1.74 1.03,0 1.12,-1.35 1.12,-1.74 h -2.36 l -0.01,-0.21 h 2.78 c 0.22,0 0.25,0 0.25,0.21 0,0.99 -0.54,1.96 -1.78,1.96 -1.16,0 -2.07,-1.03 -2.07,-2.28 0,-1.33 1.04,-2.3 2.19,-2.3 1.21,0 1.66,1.11 1.66,1.3 0,0.1 -0.08,0.12 -0.13,0.12 -0.09,0 -0.11,-0.06 -0.13,-0.14 -0.35,-1.03 -1.24,-1.03 -1.34,-1.03 -0.5,0 -0.9,0.3 -1.13,0.67 -0.3,0.48 -0.3,1.14 -0.3,1.49 z"
   style="fill:#000000;stroke-width:0" />
<path
   id="path3835"
   d="m 263.59,710.43 v 1.1 l -1.38,-0.11 v -0.31 c 0.7,0 0.78,-0.07 0.78,-0.56 v -2.67 c 0,-0.45 -0.11,-0.45 -0.78,-0.45 v -0.31 c 0.39,0.01 0.86,0.03 1.14,0.03 0.39,0 0.86,0 1.26,-0.03 v 0.31 h -0.21 c -0.74,0 -0.76,0.11 -0.76,0.47 v 1.53 c 0,0.99 0.42,1.88 1.18,1.88 0.07,0 0.09,0 0.11,-0.01 -0.03,-0.01 -0.23,-0.13 -0.23,-0.39 0,-0.28 0.21,-0.43 0.43,-0.43 0.18,0 0.43,0.12 0.43,0.44 0,0.32 -0.31,0.61 -0.74,0.61 -0.73,0 -1.09,-0.67 -1.23,-1.1 z"
   style="fill:#000000;stroke-width:0" />
<path
   id="path3837"
   d="m 269.29,713.42 0.01,0.01 0.02,0.02 0.02,0.01 0.01,0.02 0.02,0.02 0,0 0.01,0.01 0.01,0.01 0,0.01 0.01,0.01 0.01,0.01 0,0.01 0.01,0.01 0,0.01 0.01,0.01 0,0.01 0.01,0.01 0,0.01 0,0.01 0.01,0.01 0,0.01 0,0.01 0,0.01 0.01,0.01 0,0.02 0,0.01 0,0.01 c 0,0.18 -0.18,0.36 -0.36,0.36 -0.15,0 -0.26,-0.11 -0.3,-0.17 l -1.19,-1.53 0.16,-0.18 z"
   style="fill:#000000;stroke-width:0" />
<path
   id="path3839"
   d="m 266.93,709.42 0.01,0.21 c 0.06,1.49 0.89,1.74 1.23,1.74 1.03,0 1.13,-1.35 1.13,-1.74 h -2.36 l -0.01,-0.21 h 2.78 c 0.22,0 0.25,0 0.25,0.21 0,0.99 -0.54,1.96 -1.79,1.96 -1.15,0 -2.07,-1.03 -2.07,-2.28 0,-1.33 1.05,-2.3 2.19,-2.3 1.22,0 1.67,1.11 1.67,1.3 0,0.1 -0.08,0.12 -0.13,0.12 -0.09,0 -0.11,-0.06 -0.13,-0.14 -0.35,-1.03 -1.25,-1.03 -1.35,-1.03 -0.49,0 -0.89,0.3 -1.12,0.67 -0.3,0.48 -0.3,1.14 -0.3,1.49 z"
   style="fill:#000000;stroke-width:0" />
<path
   id="path3841"
   d="m 271.37,709.42 0.01,0.21 c 0.06,1.49 0.89,1.74 1.23,1.74 1.03,0 1.13,-1.35 1.13,-1.74 h -2.36 l -0.01,-0.21 h 2.78 c 0.22,0 0.25,0 0.25,0.21 0,0.99 -0.54,1.96 -1.79,1.96 -1.15,0 -2.07,-1.03 -2.07,-2.28 0,-1.33 1.05,-2.3 2.19,-2.3 1.22,0 1.67,1.11 1.67,1.3 0,0.1 -0.08,0.12 -0.13,0.12 -0.09,0 -0.11,-0.06 -0.13,-0.14 -0.35,-1.03 -1.25,-1.03 -1.35,-1.03 -0.49,0 -0.89,0.3 -1.12,0.67 -0.3,0.48 -0.3,1.14 -0.3,1.49 z"
   style="fill:#000000;stroke-width:0" />
</g>    <g
       style="font-style:normal;font-variant:normal;font-weight:normal;font-stretch:normal;letter-spacing:normal;word-spacing:normal;text-anchor:start;fill:none;stroke:#000000;stroke-linecap:butt;stroke-linejoin:miter;stroke-miterlimit:10.43299961;stroke-opacity:1;stroke-dasharray:none;stroke-dashoffset:0;display:inline"
       ns0:preamble=""
       ns0:text="d\\\'eformation r\\\'esiduelle"
       word-spacing="normal"
       letter-spacing="normal"
       font-size-adjust="none"
       font-stretch="normal"
       font-weight="normal"
       font-variant="normal"
       font-style="normal"
       fill-rule="even-odd"
       stroke-miterlimit="10.433"
       xml:space="preserve"
       transform="matrix(0.9,0,0,-0.9,116.609,1289.9981)"
       id="g4107">
<path
   id="path4109"
   d="m 227.22,707.67 v -0.66 l 1.46,0.11 v 0.31 c -0.69,0 -0.77,0.07 -0.77,0.56 v 6.05 l -1.44,-0.11 v -0.31 c 0.7,0 0.78,-0.07 0.78,-0.56 v -2.15 c -0.29,0.36 -0.72,0.62 -1.26,0.62 l 0.04,-0.22 c 0.35,0 0.77,-0.15 1.08,-0.6 0.11,-0.17 0.11,-0.19 0.11,-0.37 h 0 v -2.04 c 0,-0.18 0,-0.2 -0.11,-0.37 -0.3,-0.48 -0.75,-0.7 -1.18,-0.7 -0.44,0 -0.8,0.26 -1.04,0.64 -0.26,0.41 -0.29,0.98 -0.29,1.39 0,0.36 0.02,0.96 0.31,1.41 0.21,0.31 0.58,0.64 1.12,0.64 l -0.04,0.22 c -1.17,0 -2.22,-0.98 -2.22,-2.27 0,-1.26 0.98,-2.25 2.11,-2.25 0.64,0 1.09,0.34 1.34,0.66 z"
   style="fill:#000000;stroke-width:0" />
<path
   id="path4111"
   d="m 232.43,713.42 0.01,0.01 0.02,0.02 0.02,0.01 0.01,0.02 0.01,0.01 0.01,0.01 0,0 0.01,0.01 0.01,0.01 0,0.01 0.01,0.01 0,0.01 0.01,0.01 0.01,0.01 0,0.01 0.01,0.01 0,0.01 0,0.01 0.01,0.01 0,0.01 0,0.01 0.01,0.01 0,0.01 0,0.01 0,0.01 0,0.02 0,0.01 0.01,0.01 c 0,0.18 -0.18,0.36 -0.36,0.36 -0.15,0 -0.26,-0.11 -0.3,-0.17 l -1.2,-1.53 0.17,-0.18 z"
   style="fill:#000000;stroke-width:0" />
<path
   id="path4113"
   d="m 230.07,709.42 0.01,0.21 c 0.06,1.49 0.9,1.74 1.24,1.74 1.03,0 1.12,-1.35 1.12,-1.74 h -2.36 l -0.01,-0.21 h 2.78 c 0.22,0 0.25,0 0.25,0.21 0,0.99 -0.54,1.96 -1.78,1.96 -1.16,0 -2.07,-1.03 -2.07,-2.28 0,-1.33 1.04,-2.3 2.19,-2.3 1.21,0 1.66,1.11 1.66,1.3 0,0.1 -0.08,0.12 -0.13,0.12 -0.09,0 -0.11,-0.06 -0.13,-0.14 -0.35,-1.03 -1.24,-1.03 -1.34,-1.03 -0.5,0 -0.9,0.3 -1.13,0.67 -0.3,0.48 -0.3,1.14 -0.3,1.49 z"
   style="fill:#000000;stroke-width:0" />
<path
   id="path4115"
   d="m 235.14,711.42 v 1.15 c 0,0.88 0.47,1.36 0.91,1.36 0.03,0 0.18,0 0.33,-0.07 -0.12,-0.04 -0.3,-0.17 -0.3,-0.42 0,-0.23 0.16,-0.43 0.43,-0.43 0.29,0 0.44,0.2 0.44,0.44 0,0.37 -0.37,0.7 -0.9,0.7 -0.7,0 -1.54,-0.53 -1.54,-1.59 v -1.14 h -0.79 v -0.31 h 0.79 v -3.23 c 0,-0.45 -0.11,-0.45 -0.78,-0.45 v -0.31 c 0.39,0.01 0.86,0.03 1.14,0.03 0.39,0 0.86,0 1.26,-0.03 v 0.31 h -0.21 c -0.73,0 -0.75,0.11 -0.75,0.47 v 3.21 h 1.13 v 0.31 z"
   style="fill:#000000;stroke-width:0" />
<path
   id="path4117"
   d="m 241.13,709.26 0,0.11 -0.01,0.12 -0.02,0.12 -0.02,0.11 -0.02,0.11 -0.03,0.11 -0.03,0.11 -0.04,0.11 -0.05,0.1 -0.05,0.1 -0.05,0.1 -0.06,0.09 -0.06,0.09 -0.07,0.09 -0.07,0.09 -0.07,0.08 -0.08,0.08 -0.08,0.07 -0.08,0.07 -0.09,0.06 -0.08,0.07 -0.1,0.05 -0.09,0.05 -0.1,0.05 -0.1,0.04 -0.1,0.04 -0.11,0.03 -0.1,0.03 -0.11,0.02 -0.11,0.01 -0.11,0.01 -0.11,0.01 -0.01,-0.22 c 0.44,0 0.87,-0.22 1.12,-0.65 0.26,-0.43 0.26,-1.01 0.26,-1.39 0,-0.35 0,-0.89 -0.22,-1.33 -0.21,-0.45 -0.65,-0.74 -1.15,-0.74 h 0 c -0.43,0 -0.87,0.21 -1.14,0.67 -0.25,0.44 -0.25,1.05 -0.25,1.4 0,0.39 0,0.93 0.24,1.37 0.27,0.46 0.74,0.67 1.14,0.67 l 0.01,0.22 c -1.25,0 -2.21,-1.09 -2.21,-2.33 0,-1.29 1.03,-2.25 2.2,-2.25 1.2,0 2.21,0.98 2.21,2.25 z"
   style="fill:#000000;stroke-width:0" />
<path
   id="path4119"
   d="m 243.08,710.43 v 1.1 l -1.38,-0.11 v -0.31 c 0.69,0 0.77,-0.07 0.77,-0.56 v -2.67 c 0,-0.45 -0.11,-0.45 -0.77,-0.45 v -0.31 c 0.39,0.01 0.85,0.03 1.13,0.03 0.4,0 0.87,0 1.27,-0.03 v 0.31 h -0.21 c -0.74,0 -0.76,0.11 -0.76,0.47 v 1.53 c 0,0.99 0.42,1.88 1.18,1.88 0.07,0 0.09,0 0.11,-0.01 -0.03,-0.01 -0.23,-0.13 -0.23,-0.39 0,-0.28 0.21,-0.43 0.43,-0.43 0.17,0 0.42,0.12 0.42,0.44 0,0.32 -0.3,0.61 -0.73,0.61 -0.73,0 -1.09,-0.67 -1.23,-1.1 z"
   style="fill:#000000;stroke-width:0" />
<path
   id="path4121"
   d="m 246.42,710.55 v -2.67 c 0,-0.45 -0.11,-0.45 -0.78,-0.45 v -0.31 c 0.35,0.01 0.86,0.03 1.13,0.03 0.26,0 0.78,-0.02 1.11,-0.03 v 0.31 c -0.66,0 -0.77,0 -0.77,0.45 v 1.83 c 0,1.04 0.71,1.6 1.34,1.6 0.63,0 0.74,-0.54 0.74,-1.11 v -2.32 c 0,-0.45 -0.11,-0.45 -0.78,-0.45 v -0.31 c 0.35,0.01 0.86,0.03 1.13,0.03 0.26,0 0.78,-0.02 1.11,-0.03 v 0.31 c -0.66,0 -0.77,0 -0.77,0.45 v 1.83 c 0,1.04 0.71,1.6 1.34,1.6 0.63,0 0.74,-0.54 0.74,-1.11 v -2.32 c 0,-0.45 -0.11,-0.45 -0.78,-0.45 v -0.31 c 0.35,0.01 0.86,0.03 1.13,0.03 0.26,0 0.78,-0.02 1.12,-0.03 v 0.31 c -0.52,0 -0.77,0 -0.78,0.3 v 1.9 c 0,0.86 0,1.17 -0.31,1.53 -0.14,0.17 -0.47,0.37 -1.05,0.37 -0.83,0 -1.27,-0.6 -1.44,-0.98 -0.14,0.87 -0.88,0.98 -1.33,0.98 -0.72,0 -1.19,-0.43 -1.47,-1.05 v 1.05 l -1.41,-0.11 v -0.31 c 0.7,0 0.78,-0.07 0.78,-0.56 z"
   style="fill:#000000;stroke-width:0" />
<path
   id="path4123"
   d="m 256.95,707.88 0,-0.04 0.01,-0.03 0,-0.04 0.01,-0.04 0.01,-0.04 0.01,-0.03 0.01,-0.04 0.02,-0.04 0.01,-0.03 0.02,-0.04 0.02,-0.03 0.02,-0.03 0.02,-0.04 0.02,-0.03 0.02,-0.03 0.02,-0.03 0.03,-0.03 0.02,-0.02 0.03,-0.03 0.03,-0.02 0.03,-0.03 0.03,-0.02 0.04,-0.02 0.03,-0.02 0.03,-0.01 0.04,-0.02 0.04,-0.01 0.04,-0.01 0.04,-0.01 0.04,0 0.04,-0.01 0.04,0 c 0.21,0 0.82,0.14 0.82,0.95 v 0.56 h -0.25 v -0.56 c 0,-0.58 -0.25,-0.64 -0.36,-0.64 -0.33,0 -0.37,0.45 -0.37,0.5 v 1.99 c 0,0.42 0,0.81 -0.36,1.18 -0.38,0.39 -0.88,0.55 -1.36,0.55 -0.82,0 -1.5,-0.47 -1.5,-1.13 0,-0.3 0.19,-0.47 0.45,-0.47 0.28,0 0.46,0.2 0.46,0.46 0,0.12 -0.05,0.45 -0.51,0.46 0.27,0.35 0.76,0.46 1.08,0.46 0.49,0 1.06,-0.39 1.06,-1.28 v -0.37 -0.21 -0.99 c 0,-0.95 -0.72,-1.29 -1.17,-1.29 -0.49,0 -0.9,0.35 -0.9,0.85 0,0.55 0.42,1.37 2.07,1.43 h 0 v 0.21 c -0.51,-0.03 -1.21,-0.06 -1.84,-0.36 -0.75,-0.33 -0.99,-0.85 -0.99,-1.29 0,-0.81 0.96,-1.06 1.59,-1.06 0.66,0 1.12,0.4 1.31,0.87 z"
   style="fill:#000000;stroke-width:0" />
<path
   id="path4125"
   d="m 260.33,711.11 h 1.43 v 0.31 h -1.43 v 1.83 h -0.25 c -0.01,-0.82 -0.31,-1.88 -1.28,-1.92 v -0.22 h 0.84 v -2.75 c 0,-1.23 0.93,-1.35 1.29,-1.35 0.71,0 0.99,0.71 0.99,1.35 v 0.57 h -0.25 v -0.55 c 0,-0.74 -0.3,-1.12 -0.67,-1.12 -0.67,0 -0.67,0.91 -0.67,1.08 z"
   style="fill:#000000;stroke-width:0" />
<path
   id="path4127"
   d="m 264.24,711.53 -1.39,-0.11 v -0.31 c 0.64,0 0.73,-0.06 0.73,-0.55 v -2.68 c 0,-0.45 -0.11,-0.45 -0.77,-0.45 v -0.31 c 0.31,0.01 0.85,0.03 1.09,0.03 0.35,0 0.7,-0.02 1.04,-0.03 v 0.31 c -0.66,0 -0.7,0.05 -0.7,0.44 z"
   style="fill:#000000;stroke-width:0" />
<path
   id="path4129"
   d="m 264.28,713.26 0,0.03 0,0.03 -0.01,0.03 0,0.02 -0.01,0.03 0,0.03 -0.01,0.02 -0.01,0.03 -0.01,0.02 -0.02,0.02 -0.01,0.02 -0.01,0.03 -0.02,0.02 -0.01,0.02 -0.02,0.01 -0.02,0.02 -0.02,0.02 -0.02,0.02 -0.02,0.01 -0.02,0.01 -0.02,0.02 -0.02,0.01 -0.02,0.01 -0.03,0.01 -0.02,0.01 -0.02,0.01 -0.03,0 -0.02,0.01 -0.03,0 -0.03,0 -0.02,0.01 -0.03,0 c -0.31,0 -0.52,-0.27 -0.52,-0.53 0,-0.27 0.21,-0.53 0.52,-0.53 0.28,0 0.53,0.21 0.53,0.53 z"
   style="fill:#000000;stroke-width:0" />
<path
   id="path4131"
   d="m 269.94,709.26 -0.01,0.11 0,0.12 -0.02,0.12 -0.02,0.11 -0.02,0.11 -0.03,0.11 -0.04,0.11 -0.04,0.11 -0.04,0.1 -0.05,0.1 -0.05,0.1 -0.06,0.09 -0.06,0.09 -0.07,0.09 -0.07,0.09 -0.07,0.08 -0.08,0.08 -0.08,0.07 -0.08,0.07 -0.09,0.06 -0.09,0.07 -0.09,0.05 -0.09,0.05 -0.1,0.05 -0.1,0.04 -0.1,0.04 -0.11,0.03 -0.1,0.03 -0.11,0.02 -0.11,0.01 -0.11,0.01 -0.11,0.01 -0.01,-0.22 c 0.43,0 0.86,-0.22 1.12,-0.65 0.26,-0.43 0.26,-1.01 0.26,-1.39 0,-0.35 0,-0.89 -0.22,-1.33 -0.22,-0.45 -0.66,-0.74 -1.15,-0.74 h 0 c -0.43,0 -0.87,0.21 -1.14,0.67 -0.25,0.44 -0.25,1.05 -0.25,1.4 0,0.39 0,0.93 0.24,1.37 0.27,0.46 0.74,0.67 1.14,0.67 l 0.01,0.22 c -1.25,0 -2.22,-1.09 -2.22,-2.33 0,-1.29 1.04,-2.25 2.21,-2.25 1.2,0 2.21,0.98 2.21,2.25 z"
   style="fill:#000000;stroke-width:0" />
<path
   id="path4133"
   d="m 271.33,710.55 v -2.67 c 0,-0.45 -0.11,-0.45 -0.78,-0.45 v -0.31 c 0.35,0.01 0.86,0.03 1.13,0.03 0.26,0 0.77,-0.02 1.11,-0.03 v 0.31 c -0.67,0 -0.77,0 -0.77,0.45 v 1.83 c 0,1.04 0.7,1.6 1.34,1.6 0.63,0 0.74,-0.54 0.74,-1.11 v -2.32 c 0,-0.45 -0.11,-0.45 -0.78,-0.45 v -0.31 c 0.35,0.01 0.86,0.03 1.13,0.03 0.26,0 0.77,-0.02 1.11,-0.03 v 0.31 c -0.52,0 -0.76,0 -0.77,0.3 v 1.9 c 0,0.86 0,1.17 -0.31,1.53 -0.14,0.17 -0.47,0.37 -1.05,0.37 -0.73,0 -1.2,-0.43 -1.47,-1.05 v 1.05 l -1.41,-0.11 v -0.31 c 0.7,0 0.78,-0.07 0.78,-0.56 z"
   style="fill:#000000;stroke-width:0" />
<path
   id="path4135"
   d="m 280.75,710.43 v 1.1 l -1.39,-0.11 v -0.31 c 0.7,0 0.78,-0.07 0.78,-0.56 v -2.67 c 0,-0.45 -0.11,-0.45 -0.78,-0.45 v -0.31 c 0.39,0.01 0.86,0.03 1.14,0.03 0.4,0 0.86,0 1.26,-0.03 v 0.31 h -0.21 c -0.73,0 -0.75,0.11 -0.75,0.47 v 1.53 c 0,0.99 0.41,1.88 1.17,1.88 0.07,0 0.09,0 0.11,-0.01 -0.03,-0.01 -0.23,-0.13 -0.23,-0.39 0,-0.28 0.21,-0.43 0.43,-0.43 0.18,0 0.43,0.12 0.43,0.44 0,0.32 -0.31,0.61 -0.74,0.61 -0.73,0 -1.08,-0.67 -1.22,-1.1 z"
   style="fill:#000000;stroke-width:0" />
<path
   id="path4137"
   d="m 286.44,713.42 0.02,0.01 0.01,0.02 0.02,0.01 0.02,0.02 0,0.01 0.01,0.01 0.01,0 0,0.01 0.01,0.01 0.01,0.01 0,0.01 0.01,0.01 0,0.01 0.01,0.01 0.01,0.01 0,0.01 0,0.01 0.01,0.01 0,0.01 0.01,0.01 0,0.01 0,0.01 0,0.01 0.01,0.01 0,0.01 0,0.02 0,0.01 0,0.01 c 0,0.18 -0.18,0.36 -0.36,0.36 -0.15,0 -0.26,-0.11 -0.3,-0.17 l -1.19,-1.53 0.17,-0.18 z"
   style="fill:#000000;stroke-width:0" />
<path
   id="path4139"
   d="m 284.09,709.42 0.01,0.21 c 0.06,1.49 0.89,1.74 1.23,1.74 1.03,0 1.13,-1.35 1.13,-1.74 h -2.36 l -0.01,-0.21 h 2.78 c 0.22,0 0.25,0 0.25,0.21 0,0.99 -0.54,1.96 -1.79,1.96 -1.15,0 -2.07,-1.03 -2.07,-2.28 0,-1.33 1.05,-2.3 2.19,-2.3 1.22,0 1.67,1.11 1.67,1.3 0,0.1 -0.08,0.12 -0.13,0.12 -0.09,0 -0.11,-0.06 -0.13,-0.14 -0.35,-1.03 -1.25,-1.03 -1.35,-1.03 -0.49,0 -0.89,0.3 -1.12,0.67 -0.3,0.48 -0.3,1.14 -0.3,1.49 z"
   style="fill:#000000;stroke-width:0" />
<path
   id="path4141"
   d="m 289.49,709.05 0.02,0 0.02,0 0.03,-0.01 0.03,-0.01 0.04,0 0.03,-0.01 0.04,-0.01 0.04,-0.01 0.04,-0.02 0.04,-0.01 0.05,-0.02 0.04,-0.01 0.05,-0.02 0.04,-0.02 0.04,-0.02 0.05,-0.03 0.04,-0.03 0.04,-0.02 0.04,-0.03 0.04,-0.04 0.04,-0.03 0.04,-0.04 0.03,-0.04 0.03,-0.04 0.03,-0.05 0.01,-0.02 0.02,-0.02 0.01,-0.03 0.01,-0.02 0.01,-0.03 0.01,-0.03 0.01,-0.03 0,-0.02 0.01,-0.03 0,-0.03 0.01,-0.03 0,-0.04 0,-0.03 0,-0.03 c 0,-0.51 -0.35,-0.91 -1.12,-0.91 -0.84,0 -1.2,0.57 -1.39,1.42 -0.03,0.13 -0.04,0.17 -0.14,0.17 -0.13,0 -0.13,-0.07 -0.13,-0.25 v -1.32 c 0,-0.17 0,-0.24 0.11,-0.24 0.05,0 0.06,0.01 0.25,0.2 0.02,0.02 0.02,0.04 0.2,0.23 0.44,-0.42 0.89,-0.43 1.1,-0.43 1.14,0 1.6,0.67 1.6,1.39 0,0.53 -0.3,0.82 -0.42,0.94 -0.33,0.32 -0.71,0.4 -1.13,0.48 -0.56,0.11 -1.23,0.24 -1.23,0.82 0,0.35 0.26,0.76 1.12,0.76 1.09,0 1.14,-0.9 1.16,-1.21 0.01,-0.09 0.1,-0.09 0.12,-0.09 0.13,0 0.13,0.05 0.13,0.24 v 1.01 c 0,0.17 0,0.24 -0.11,0.24 -0.05,0 -0.07,0 -0.2,-0.12 -0.03,-0.04 -0.13,-0.13 -0.17,-0.16 -0.37,0.28 -0.78,0.28 -0.93,0.28 -1.22,0 -1.6,-0.67 -1.6,-1.23 0,-0.35 0.16,-0.63 0.43,-0.85 0.32,-0.25 0.6,-0.31 1.32,-0.46 z"
   style="fill:#000000;stroke-width:0" />
<path
   id="path4143"
   d="m 293.1,711.53 -1.39,-0.11 v -0.31 c 0.64,0 0.73,-0.06 0.73,-0.55 v -2.68 c 0,-0.45 -0.11,-0.45 -0.77,-0.45 v -0.31 c 0.31,0.01 0.85,0.03 1.09,0.03 0.35,0 0.7,-0.02 1.04,-0.03 v 0.31 c -0.66,0 -0.7,0.05 -0.7,0.44 z"
   style="fill:#000000;stroke-width:0" />
<path
   id="path4145"
   d="m 293.14,713.26 0,0.03 0,0.03 -0.01,0.03 0,0.02 -0.01,0.03 0,0.03 -0.01,0.02 -0.01,0.03 -0.01,0.02 -0.02,0.02 -0.01,0.02 -0.01,0.03 -0.02,0.02 -0.01,0.02 -0.02,0.01 -0.02,0.02 -0.02,0.02 -0.02,0.02 -0.02,0.01 -0.02,0.01 -0.02,0.02 -0.02,0.01 -0.02,0.01 -0.03,0.01 -0.02,0.01 -0.02,0.01 -0.03,0 -0.02,0.01 -0.03,0 -0.03,0 -0.02,0.01 -0.03,0 c -0.31,0 -0.53,-0.27 -0.53,-0.53 0,-0.27 0.22,-0.53 0.53,-0.53 0.28,0 0.53,0.21 0.53,0.53 z"
   style="fill:#000000;stroke-width:0" />
<path
   id="path4147"
   d="m 297.89,707.67 v -0.66 l 1.47,0.11 v 0.31 c -0.7,0 -0.78,0.07 -0.78,0.56 v 6.05 l -1.44,-0.11 v -0.31 c 0.7,0 0.78,-0.07 0.78,-0.56 v -2.15 c -0.29,0.36 -0.72,0.62 -1.25,0.62 l 0.03,-0.22 c 0.35,0 0.77,-0.15 1.08,-0.6 0.11,-0.17 0.11,-0.19 0.11,-0.37 h 0 v -2.04 c 0,-0.18 0,-0.2 -0.11,-0.37 -0.3,-0.48 -0.75,-0.7 -1.17,-0.7 -0.45,0 -0.81,0.26 -1.05,0.64 -0.26,0.41 -0.29,0.98 -0.29,1.39 0,0.36 0.02,0.96 0.31,1.41 0.21,0.31 0.59,0.64 1.12,0.64 l -0.03,0.22 c -1.18,0 -2.23,-0.98 -2.23,-2.27 0,-1.26 0.98,-2.25 2.12,-2.25 0.63,0 1.08,0.34 1.33,0.66 z"
   style="fill:#000000;stroke-width:0" />
<path
   id="path4149"
   d="m 303.54,707.91 v -0.9 l 1.43,0.11 v 0.31 c -0.7,0 -0.78,0.07 -0.78,0.56 v 3.54 l -1.46,-0.11 v -0.31 c 0.7,0 0.78,-0.07 0.78,-0.56 v -1.77 c 0,-0.87 -0.48,-1.55 -1.21,-1.55 -0.84,0 -0.88,0.47 -0.88,0.99 v 3.31 l -1.46,-0.11 v -0.31 c 0.78,0 0.78,-0.03 0.78,-0.92 v -1.49 c 0,-0.78 0,-1.69 1.51,-1.69 0.56,0 1,0.28 1.29,0.9 z"
   style="fill:#000000;stroke-width:0" />
<path
   id="path4151"
   d="m 306.29,709.42 0.01,0.21 c 0.06,1.49 0.9,1.74 1.23,1.74 1.03,0 1.13,-1.35 1.13,-1.74 h -2.36 l -0.01,-0.21 h 2.78 c 0.22,0 0.25,0 0.25,0.21 0,0.99 -0.54,1.96 -1.79,1.96 -1.15,0 -2.07,-1.03 -2.07,-2.28 0,-1.33 1.05,-2.3 2.19,-2.3 1.22,0 1.67,1.11 1.67,1.3 0,0.1 -0.08,0.12 -0.13,0.12 -0.09,0 -0.11,-0.06 -0.13,-0.14 -0.35,-1.03 -1.25,-1.03 -1.35,-1.03 -0.5,0 -0.89,0.3 -1.12,0.67 -0.3,0.48 -0.3,1.14 -0.3,1.49 z"
   style="fill:#000000;stroke-width:0" />
<path
   id="path4153"
   d="m 311.37,714.04 -1.43,-0.11 v -0.31 c 0.69,0 0.77,-0.07 0.77,-0.56 v -5.18 c 0,-0.45 -0.11,-0.45 -0.77,-0.45 v -0.31 c 0.33,0.01 0.85,0.03 1.1,0.03 0.25,0 0.74,-0.02 1.11,-0.03 v 0.31 c -0.67,0 -0.78,0 -0.78,0.45 z"
   style="fill:#000000;stroke-width:0" />
<path
   id="path4155"
   d="m 314.14,714.04 -1.44,-0.11 v -0.31 c 0.7,0 0.78,-0.07 0.78,-0.56 v -5.18 c 0,-0.45 -0.11,-0.45 -0.78,-0.45 v -0.31 c 0.33,0.01 0.86,0.03 1.11,0.03 0.25,0 0.74,-0.02 1.11,-0.03 v 0.31 c -0.67,0 -0.78,0 -0.78,0.45 z"
   style="fill:#000000;stroke-width:0" />
<path
   id="path4157"
   d="m 316.25,709.42 0.01,0.21 c 0.06,1.49 0.89,1.74 1.23,1.74 1.03,0 1.13,-1.35 1.13,-1.74 h -2.36 l -0.01,-0.21 h 2.78 c 0.22,0 0.25,0 0.25,0.21 0,0.99 -0.54,1.96 -1.79,1.96 -1.15,0 -2.07,-1.03 -2.07,-2.28 0,-1.33 1.05,-2.3 2.19,-2.3 1.22,0 1.67,1.11 1.67,1.3 0,0.1 -0.08,0.12 -0.13,0.12 -0.09,0 -0.11,-0.06 -0.13,-0.14 -0.35,-1.03 -1.25,-1.03 -1.35,-1.03 -0.5,0 -0.89,0.3 -1.12,0.67 -0.3,0.48 -0.3,1.14 -0.3,1.49 z"
   style="fill:#000000;stroke-width:0" />
</g>    <path
       style="fill:none;stroke:#000000;stroke-width:1;stroke-linecap:butt;stroke-linejoin:miter;stroke-miterlimit:4;stroke-opacity:1;stroke-dasharray:6.00000006, 2.00000002;stroke-dashoffset:0;display:inline"
       d="m 220,667.36219 -30,0"
       id="path4685" />
    <path
       id="path4687"
       d="m 220,627.36222 -30,0"
       style="fill:none;stroke:#000000;stroke-width:1;stroke-linecap:butt;stroke-linejoin:miter;stroke-miterlimit:4;stroke-opacity:1;stroke-dasharray:6, 2;stroke-dashoffset:0;display:inline" />
    <path
       style="fill:none;stroke:#000000;stroke-width:1;stroke-linecap:butt;stroke-linejoin:miter;stroke-miterlimit:4;stroke-opacity:1;stroke-dasharray:6.00000006, 2.00000002;stroke-dashoffset:0;display:inline"
       d="m 295,572.36219 35,0"
       id="path5473" />
    <path
       style="fill:none;stroke:#000000;stroke-width:1;stroke-linecap:butt;stroke-linejoin:miter;stroke-miterlimit:4;stroke-opacity:1;stroke-dasharray:6.00000006, 2.00000002;stroke-dashoffset:0;display:inline"
       d="m 295,612.36219 35,0"
       id="path5475" />
    <path
       style="fill:none;stroke:#000000;stroke-width:1;stroke-linecap:butt;stroke-linejoin:miter;stroke-miterlimit:4;stroke-opacity:1;stroke-dasharray:6.00000006, 2.00000002;stroke-dashoffset:0;display:inline"
       d="m 290,644.36219 120,0"
       id="path5477" />
    <path
       style="fill:none;stroke:#000000;stroke-width:1;stroke-linecap:butt;stroke-linejoin:miter;stroke-miterlimit:4;stroke-opacity:1;stroke-dasharray:6.00000006, 2.00000002;stroke-dashoffset:0;display:inline"
       d="m 220,597.36219 160,-60"
       id="path5479" />
    <g
       id="g7389"
       transform="translate(-38.282179,286.6805)">
      <path
         sodipodi:nodetypes="ccc"
         id="path2824"
         d="m 258.28218,245.68169 0,135 200,0"
         style="fill:none;stroke:#000000;stroke-width:0.99999994px;stroke-linecap:butt;stroke-linejoin:miter;stroke-opacity:1;marker-start:url(#Arrow2Mstart);marker-end:url(#Arrow2Mend)" />
      <g
         style="font-style:normal;font-variant:normal;font-weight:normal;font-stretch:normal;letter-spacing:normal;word-spacing:normal;text-anchor:start;fill:none;stroke:#000000;stroke-linecap:butt;stroke-linejoin:miter;stroke-miterlimit:10.43299961;stroke-opacity:1;stroke-dasharray:none;stroke-dashoffset:0"
         ns0:preamble=""
         ns0:text="$\\varepsilon$"
         word-spacing="normal"
         letter-spacing="normal"
         font-size-adjust="none"
         font-stretch="normal"
         font-weight="normal"
         font-variant="normal"
         font-style="normal"
         fill-rule="even-odd"
         stroke-miterlimit="10.433"
         xml:space="preserve"
         transform="matrix(1.35,0,0,-1.35,-62.14182,1208.5607)"
         id="g3177">
<path
   style="fill:#000000;stroke-width:0"
   id="path3051"
   d="m 224.84,709.38 0.03,-0.01 0.03,-0.01 0.03,-0.01 0.03,-0.01 0.03,-0.01 0.03,-0.01 0.03,-0.01 0.03,-0.01 0.02,0 0.03,-0.01 0.06,-0.01 0.06,-0.01 0.05,-0.01 0.05,0 0.05,-0.01 0.06,0 0.05,0 0.04,0 0.05,0 0.05,0 0.04,-0.01 v 0.22 c -0.21,0 -0.34,0 -0.52,0.05 h 0 c 0.23,0.08 0.43,0.09 0.6,0.09 0.25,0 0.29,-0.01 0.47,-0.06 -0.15,-0.07 -0.17,-0.08 -0.55,-0.08 v -0.22 c 0.26,0 0.81,0 0.81,0.31 0,0.24 -0.35,0.27 -0.73,0.27 -0.21,0 -0.55,-0.02 -0.92,-0.19 -0.23,0.12 -0.4,0.31 -0.4,0.58 0,0.61 0.98,0.97 1.87,0.97 0.16,0 0.52,0 0.92,-0.28 0.11,-0.08 0.13,-0.1 0.2,-0.1 0.13,0 0.27,0.13 0.27,0.27 0,0.19 -0.61,0.57 -1.29,0.57 -1.14,0 -2.22,-0.67 -2.22,-1.43 0,-0.43 0.36,-0.68 0.4,-0.71 -0.59,-0.33 -0.91,-0.88 -0.91,-1.34 0,-0.65 0.57,-1.26 1.63,-1.26 1.31,0 1.87,0.88 1.87,1.03 0,0.06 -0.05,0.1 -0.11,0.1 -0.05,0 -0.08,-0.04 -0.1,-0.07 -0.14,-0.23 -0.38,-0.6 -1.58,-0.6 -0.6,0 -1.45,0.15 -1.45,0.86 0,0.34 0.28,0.87 0.89,1.16 z" />
</g>      <g
         style="font-style:normal;font-variant:normal;font-weight:normal;font-stretch:normal;letter-spacing:normal;word-spacing:normal;text-anchor:start;fill:none;stroke:#000000;stroke-linecap:butt;stroke-linejoin:miter;stroke-miterlimit:10.43299961;stroke-opacity:1;stroke-dasharray:none;stroke-dashoffset:0"
         ns0:preamble=""
         ns0:text="$t$"
         word-spacing="normal"
         letter-spacing="normal"
         font-size-adjust="none"
         font-stretch="normal"
         font-weight="normal"
         font-variant="normal"
         font-style="normal"
         fill-rule="even-odd"
         stroke-miterlimit="10.433"
         xml:space="preserve"
         transform="matrix(1.35,0,0,-1.35,156.77518,1344.9602)"
         id="content-8">
<path
   id="path2951"
   d="m 225.49,711.11 h 0.93 c 0.2,0 0.3,0 0.3,0.2 0,0.11 -0.1,0.11 -0.28,0.11 h -0.88 c 0.36,1.41 0.41,1.61 0.41,1.67 0,0.17 -0.12,0.27 -0.29,0.27 -0.03,0 -0.3,-0.01 -0.39,-0.36 l -0.39,-1.58 h -0.94 c -0.2,0 -0.3,0 -0.3,-0.19 0,-0.12 0.08,-0.12 0.28,-0.12 h 0.88 c -0.72,-2.83 -0.76,-3 -0.76,-3.18 0,-0.54 0.38,-0.92 0.92,-0.92 1.01,0 1.58,1.46 1.58,1.54 0,0.1 -0.08,0.1 -0.12,0.1 -0.09,0 -0.1,-0.03 -0.15,-0.14 -0.43,-1.04 -0.95,-1.28 -1.29,-1.28 -0.21,0 -0.31,0.13 -0.31,0.46 0,0.24 0.02,0.31 0.06,0.48 z"
   style="fill:#000000;stroke-width:0" />
</g>    </g>
  </g>
</svg>
