<?xml version="1.0" encoding="UTF-8" standalone="no"?>
<!-- Created with Inkscape (http://www.inkscape.org/) -->

<svg
   xmlns:ns0="http://www.iki.fi/pav/software/textext/"
   xmlns:dc="http://purl.org/dc/elements/1.1/"
   xmlns:cc="http://creativecommons.org/ns#"
   xmlns:rdf="http://www.w3.org/1999/02/22-rdf-syntax-ns#"
   xmlns:svg="http://www.w3.org/2000/svg"
   xmlns="http://www.w3.org/2000/svg"
   xmlns:sodipodi="http://sodipodi.sourceforge.net/DTD/sodipodi-0.dtd"
   xmlns:inkscape="http://www.inkscape.org/namespaces/inkscape"
   width="189.58"
   height="62.835865"
   id="svg4278"
   version="1.1"
   inkscape:version="0.47 r22583"
   sodipodi:docname="T1_Ch04-0024.svg">
  <sodipodi:namedview
     id="base"
     pagecolor="#ffffff"
     bordercolor="#666666"
     borderopacity="1.0"
     inkscape:pageopacity="0.0"
     inkscape:pageshadow="2"
     inkscape:zoom="2.0978836"
     inkscape:cx="124.33078"
     inkscape:cy="62.540796"
     inkscape:document-units="px"
     inkscape:current-layer="layer1"
     showgrid="true"
     inkscape:window-width="1280"
     inkscape:window-height="717"
     inkscape:window-x="0"
     inkscape:window-y="29"
     inkscape:window-maximized="1">
    <inkscape:grid
       type="xygrid"
       id="grid4377"
       empspacing="5"
       visible="true"
       enabled="true"
       snapvisiblegridlinesonly="true" />
  </sodipodi:namedview>
  <defs
     id="defs4280">
    <marker
       inkscape:stockid="Arrow2Mend"
       orient="auto"
       refY="0"
       refX="0"
       id="Arrow2Mend"
       style="overflow:visible">
      <path
         id="path3628"
         style="font-size:12px;fill-rule:evenodd;stroke-width:0.625;stroke-linejoin:round"
         d="M 8.7185878,4.0337352 -2.2072895,0.01601326 8.7185884,-4.0017078 c -1.7454984,2.3720609 -1.7354408,5.6174519 -6e-7,8.035443 z"
         transform="scale(-0.6,-0.6)" />
    </marker>
    <marker
       inkscape:stockid="Arrow2Mstart"
       orient="auto"
       refY="0"
       refX="0"
       id="Arrow2Mstart"
       style="overflow:visible">
      <path
         id="path3625"
         style="font-size:12px;fill-rule:evenodd;stroke-width:0.625;stroke-linejoin:round"
         d="M 8.7185878,4.0337352 -2.2072895,0.01601326 8.7185884,-4.0017078 c -1.7454984,2.3720609 -1.7354408,5.6174519 -6e-7,8.035443 z"
         transform="scale(0.6,0.6)" />
    </marker>
    <marker
       inkscape:stockid="EmptyTriangleOutM"
       orient="auto"
       refY="0"
       refX="0"
       id="EmptyTriangleOutM"
       style="overflow:visible">
      <path
         id="path3765"
         d="m 5.77,0 -8.65,5 0,-10 8.65,5 z"
         style="fill:#ffffff;fill-rule:evenodd;stroke:#000000;stroke-width:1pt;marker-start:none"
         transform="matrix(0.4,0,0,0.4,-1.8,0)" />
    </marker>
    <marker
       inkscape:stockid="TriangleInM"
       orient="auto"
       refY="0"
       refX="0"
       id="TriangleInM"
       style="overflow:visible">
      <path
         id="path3738"
         d="m 5.77,0 -8.65,5 0,-10 8.65,5 z"
         style="fill-rule:evenodd;stroke:#000000;stroke-width:1pt;marker-start:none"
         transform="scale(-0.4,-0.4)" />
    </marker>
    <marker
       inkscape:stockid="TriangleOutM"
       orient="auto"
       refY="0"
       refX="0"
       id="TriangleOutM"
       style="overflow:visible">
      <path
         id="path3747"
         d="m 5.77,0 -8.65,5 0,-10 8.65,5 z"
         style="fill-rule:evenodd;stroke:#000000;stroke-width:1pt;marker-start:none"
         transform="scale(0.4,0.4)" />
    </marker>
    <inkscape:perspective
       sodipodi:type="inkscape:persp3d"
       inkscape:vp_x="0 : 526.18109 : 1"
       inkscape:vp_y="0 : 1000 : 0"
       inkscape:vp_z="744.09448 : 526.18109 : 1"
       inkscape:persp3d-origin="372.04724 : 350.78739 : 1"
       id="perspective4286" />
    <inkscape:perspective
       id="perspective4265"
       inkscape:persp3d-origin="0.5 : 0.33333333 : 1"
       inkscape:vp_z="1 : 0.5 : 1"
       inkscape:vp_y="0 : 1000 : 0"
       inkscape:vp_x="0 : 0.5 : 1"
       sodipodi:type="inkscape:persp3d" />
    <marker
       style="overflow:visible"
       id="DotM"
       refX="0"
       refY="0"
       orient="auto"
       inkscape:stockid="DotM">
      <path
         transform="matrix(0.4,0,0,0.4,2.96,0.4)"
         style="fill-rule:evenodd;stroke:#000000;stroke-width:1pt;marker-start:none;marker-end:none"
         d="m -2.5,-1 c 0,2.76 -2.24,5 -5,5 -2.76,0 -5,-2.24 -5,-5 0,-2.76 2.24,-5 5,-5 2.76,0 5,2.24 5,5 z"
         id="path3666" />
    </marker>
    <marker
       style="overflow:visible"
       id="marker4271"
       refX="0"
       refY="0"
       orient="auto"
       inkscape:stockid="DotM">
      <path
         transform="matrix(0.4,0,0,0.4,2.96,0.4)"
         style="fill-rule:evenodd;stroke:#000000;stroke-width:1pt;marker-start:none;marker-end:none"
         d="m -2.5,-1 c 0,2.76 -2.24,5 -5,5 -2.76,0 -5,-2.24 -5,-5 0,-2.76 2.24,-5 5,-5 2.76,0 5,2.24 5,5 z"
         id="path4273" />
    </marker>
    <inkscape:perspective
       id="perspective6717"
       inkscape:persp3d-origin="0.5 : 0.33333333 : 1"
       inkscape:vp_z="1 : 0.5 : 1"
       inkscape:vp_y="0 : 1000 : 0"
       inkscape:vp_x="0 : 0.5 : 1"
       sodipodi:type="inkscape:persp3d" />
    <marker
       style="overflow:visible"
       id="DotM-1"
       refX="0"
       refY="0"
       orient="auto"
       inkscape:stockid="DotM">
      <path
         transform="matrix(0.4,0,0,0.4,2.96,0.4)"
         style="fill-rule:evenodd;stroke:#000000;stroke-width:1pt;marker-start:none;marker-end:none"
         d="m -2.5,-1 c 0,2.76 -2.24,5 -5,5 -2.76,0 -5,-2.24 -5,-5 0,-2.76 2.24,-5 5,-5 2.76,0 5,2.24 5,5 z"
         id="path3666-5" />
    </marker>
    <marker
       style="overflow:visible"
       id="marker6723"
       refX="0"
       refY="0"
       orient="auto"
       inkscape:stockid="DotM">
      <path
         transform="matrix(0.4,0,0,0.4,2.96,0.4)"
         style="fill-rule:evenodd;stroke:#000000;stroke-width:1pt;marker-start:none;marker-end:none"
         d="m -2.5,-1 c 0,2.76 -2.24,5 -5,5 -2.76,0 -5,-2.24 -5,-5 0,-2.76 2.24,-5 5,-5 2.76,0 5,2.24 5,5 z"
         id="path6725" />
    </marker>
  </defs>
  <metadata
     id="metadata4283">
    <rdf:RDF>
      <cc:Work
         rdf:about="">
        <dc:format>image/svg+xml</dc:format>
        <dc:type
           rdf:resource="http://purl.org/dc/dcmitype/StillImage" />
        <dc:title></dc:title>
      </cc:Work>
    </rdf:RDF>
  </metadata>
  <g
     inkscape:label="Calque 1"
     inkscape:groupmode="layer"
     id="layer1"
     transform="translate(-237.60286,-343.73104)">
    <path
       sodipodi:nodetypes="cc"
       style="fill:none;stroke:#000000;stroke-width:1px;stroke-linecap:butt;stroke-linejoin:miter;stroke-opacity:1;marker-start:url(#marker4271);marker-end:none"
       d="m 0,25.404949 45,0"
       id="path4379"
       transform="translate(329.89286,343.23114)" />
    <path
       style="fill:none;stroke:#000000;stroke-width:1px;stroke-linecap:butt;stroke-linejoin:miter;stroke-opacity:1;marker-start:url(#marker4271);marker-end:none"
       d="m 95,25.404949 -45,0"
       id="path4381"
       transform="translate(329.89286,343.23114)"
       sodipodi:nodetypes="cc" />
    <path
       transform="translate(329.89286,343.23114)"
       id="path6523"
       d="m 35,20.404949 15,0 0,10 -15,0"
       style="fill:none;stroke:#000000;stroke-width:1px;stroke-linecap:butt;stroke-linejoin:miter;stroke-opacity:1" />
    <path
       sodipodi:nodetypes="cc"
       transform="translate(329.89286,343.23114)"
       id="path6525"
       d="m 45,22.404949 0,6"
       style="fill:none;stroke:#000000;stroke-width:1px;stroke-linecap:butt;stroke-linejoin:miter;stroke-opacity:1" />
    <g
       style="font-style:normal;font-variant:normal;font-weight:normal;font-stretch:normal;letter-spacing:normal;word-spacing:normal;text-anchor:start;fill:none;stroke:#000000;stroke-linecap:butt;stroke-linejoin:miter;stroke-miterlimit:10.43299961;stroke-opacity:1;stroke-dasharray:none;stroke-dashoffset:0"
       ns0:preamble=""
       ns0:text="$\\eta$"
       word-spacing="normal"
       letter-spacing="normal"
       font-size-adjust="none"
       font-stretch="normal"
       font-weight="normal"
       font-variant="normal"
       font-style="normal"
       fill-rule="even-odd"
       stroke-miterlimit="10.433"
       xml:space="preserve"
       transform="matrix(1.199997,0,0,-1.199997,104.23487,1199.909)"
       id="content">
<path
   id="path6550"
   d="m 228.29,709.88 0.01,0.04 0.01,0.03 0.01,0.03 0.01,0.03 0,0.03 0.01,0.03 0.01,0.03 0,0.04 0.01,0.03 0,0.04 0,0.01 0.01,0.02 0,0.02 0,0.02 0,0.02 0,0.02 0,0.02 0,0.03 0,0.02 0,0.02 0,0.03 0,0.02 c 0,0.65 -0.39,1.07 -1.14,1.07 -0.79,0 -1.31,-0.52 -1.55,-0.87 -0.05,0.57 -0.46,0.87 -0.91,0.87 -0.46,0 -0.65,-0.39 -0.74,-0.57 -0.18,-0.34 -0.31,-0.94 -0.31,-0.97 0,-0.1 0.1,-0.1 0.12,-0.1 0.1,0 0.11,0.01 0.17,0.23 0.17,0.71 0.37,1.19 0.73,1.19 0.17,0 0.31,-0.08 0.31,-0.46 0,-0.21 -0.03,-0.32 -0.16,-0.84 l -0.58,-2.3 c -0.03,-0.15 -0.09,-0.38 -0.09,-0.43 0,-0.18 0.14,-0.27 0.29,-0.27 0.12,0 0.3,0.08 0.37,0.28 0.01,0.02 0.13,0.49 0.19,0.74 l 0.22,0.9 c 0.06,0.22 0.11,0.43 0.17,0.66 0.02,0.06 0.09,0.39 0.1,0.45 0.03,0.09 0.34,0.65 0.68,0.92 0.22,0.16 0.53,0.35 0.96,0.35 0.43,0 0.54,-0.34 0.54,-0.7 0,-0.05 0,-0.23 -0.1,-0.63 l -1.14,-4.58 c -0.03,-0.12 -0.03,-0.14 -0.03,-0.16 0,-0.15 0.11,-0.27 0.28,-0.27 0.31,0 0.38,0.29 0.41,0.4 z"
   style="fill:#000000;stroke-width:0" />
</g>    <path
       sodipodi:nodetypes="cccccccccc"
       id="path2824"
       d="m 239.89286,368.6361 15.00001,0 4.99999,-10.00001 10,19.99995 10,-19.99995 10,19.99995 10,-19.99995 10,19.99995 5,-9.99995 15,0"
       style="fill:none;stroke:#000000;stroke-width:1px;stroke-linecap:butt;stroke-linejoin:miter;stroke-opacity:1;marker-start:url(#DotM);marker-end:url(#DotM)" />
    <g
       ns0:preamble=""
       ns0:text="$E$"
       word-spacing="normal"
       letter-spacing="normal"
       font-size-adjust="none"
       font-stretch="normal"
       font-weight="normal"
       font-variant="normal"
       font-style="normal"
       fill-rule="even-odd"
       stroke-miterlimit="10.433"
       xml:space="preserve"
       transform="matrix(1.199997,0,0,-1.199997,11.94487,1200.4089)"
       id="content-9"
       style="font-style:normal;font-variant:normal;font-weight:normal;font-stretch:normal;letter-spacing:normal;word-spacing:normal;text-anchor:start;fill:none;stroke:#000000;stroke-linecap:butt;stroke-linejoin:miter;stroke-miterlimit:10.43299961;stroke-opacity:1;stroke-dasharray:none;stroke-dashoffset:0">
<path
   id="path4243"
   d="m 230.49,709.44 0,0.01 0,0 0,0.01 0.01,0.01 0,0.01 0.01,0.01 0,0.01 0,0.01 0.01,0.01 0,0.01 0,0 0,0.01 0.01,0 0,0.01 0,0 0,0.01 0,0 0,0 0,0.01 0,0 0,0 0.01,0.01 0,0 0,0 0,0 c 0,0.01 0,0.11 -0.12,0.11 -0.09,0 -0.11,-0.06 -0.13,-0.12 -0.65,-1.47 -1.02,-2.14 -2.72,-2.14 h -1.46 c -0.14,0 -0.16,0 -0.22,0.01 -0.1,0.01 -0.13,0.02 -0.13,0.1 0,0.03 0,0.05 0.05,0.23 l 0.68,2.72 h 0.99 c 0.84,0 0.84,-0.21 0.84,-0.46 0,-0.07 0,-0.19 -0.07,-0.49 -0.02,-0.05 -0.02,-0.08 -0.02,-0.11 0,-0.05 0.03,-0.11 0.12,-0.11 0.08,0 0.11,0.05 0.15,0.2 l 0.57,2.33 c 0,0.06 -0.05,0.11 -0.12,0.11 -0.09,0 -0.11,-0.05 -0.14,-0.18 -0.21,-0.75 -0.39,-0.98 -1.3,-0.98 h -0.94 l 0.6,2.4 c 0.09,0.35 0.1,0.39 0.54,0.39 h 1.4 c 1.22,0 1.52,-0.29 1.52,-1.11 0,-0.24 0,-0.26 -0.04,-0.53 0,-0.05 -0.01,-0.12 -0.01,-0.17 0,-0.06 0.03,-0.12 0.12,-0.12 0.1,0 0.12,0.06 0.14,0.25 l 0.19,1.72 c 0.03,0.27 -0.02,0.27 -0.27,0.27 h -5.03 c -0.19,0 -0.3,0 -0.3,-0.2 0,-0.11 0.09,-0.11 0.28,-0.11 0.37,0 0.65,0 0.65,-0.18 0,-0.04 0,-0.06 -0.05,-0.24 L 225,707.9 c -0.1,-0.39 -0.12,-0.47 -0.91,-0.47 -0.17,0 -0.28,0 -0.28,-0.19 0,-0.12 0.09,-0.12 0.28,-0.12 h 5.17 c 0.23,0 0.24,0.01 0.31,0.17 z"
   style="fill:#000000;stroke-width:0" />
</g>    <path
       style="fill:none;stroke:#000000;stroke-width:1;stroke-linecap:butt;stroke-linejoin:miter;stroke-miterlimit:4;stroke-opacity:1;stroke-dasharray:6, 2;stroke-dashoffset:0;marker-start:url(#Arrow2Mstart);marker-end:url(#Arrow2Mend)"
       d="m -90,45.404949 90,0"
       id="path6751"
       transform="translate(329.89286,343.23114)" />
    <path
       id="path7155"
       d="m 329.89286,388.63609 95,0"
       style="fill:none;stroke:#000000;stroke-width:1;stroke-linecap:butt;stroke-linejoin:miter;stroke-miterlimit:4;stroke-opacity:1;stroke-dasharray:6, 2;stroke-dashoffset:0;marker-start:url(#Arrow2Mstart);marker-end:url(#Arrow2Mend)"
       sodipodi:nodetypes="cc" />
    <g
       style="font-style:normal;font-variant:normal;font-weight:normal;font-stretch:normal;letter-spacing:normal;word-spacing:normal;text-anchor:start;fill:none;stroke:#000000;stroke-linecap:butt;stroke-linejoin:miter;stroke-miterlimit:10.43299961;stroke-opacity:1;stroke-dasharray:none;stroke-dashoffset:0"
       id="g7195"
       transform="matrix(1.8360414,0,0,-1.8360414,-132.86164,1702.1328)"
       xml:space="preserve"
       stroke-miterlimit="10.433"
       fill-rule="even-odd"
       font-style="normal"
       font-variant="normal"
       font-weight="normal"
       font-stretch="normal"
       font-size-adjust="none"
       letter-spacing="normal"
       word-spacing="normal"
       ns0:text="$\\varepsilon_1$"
       ns0:preamble="">
<path
   style="fill:#000000;stroke-width:0"
   d="m 224.84,709.38 0.03,-0.01 0.03,-0.01 0.03,-0.01 0.03,-0.01 0.03,-0.01 0.03,-0.01 0.03,-0.01 0.03,-0.01 0.02,0 0.03,-0.01 0.06,-0.01 0.06,-0.01 0.05,-0.01 0.05,0 0.05,-0.01 0.06,0 0.05,0 0.04,0 0.05,0 0.05,0 0.04,-0.01 v 0.22 c -0.21,0 -0.34,0 -0.52,0.05 h 0 c 0.23,0.08 0.43,0.09 0.6,0.09 0.25,0 0.29,-0.01 0.47,-0.06 -0.15,-0.07 -0.17,-0.08 -0.55,-0.08 v -0.22 c 0.26,0 0.81,0 0.81,0.31 0,0.24 -0.35,0.27 -0.73,0.27 -0.21,0 -0.55,-0.02 -0.92,-0.19 -0.23,0.12 -0.4,0.31 -0.4,0.58 0,0.61 0.98,0.97 1.87,0.97 0.16,0 0.52,0 0.92,-0.28 0.11,-0.08 0.13,-0.1 0.2,-0.1 0.13,0 0.27,0.13 0.27,0.27 0,0.19 -0.61,0.57 -1.29,0.57 -1.14,0 -2.22,-0.67 -2.22,-1.43 0,-0.43 0.36,-0.68 0.4,-0.71 -0.59,-0.33 -0.91,-0.88 -0.91,-1.34 0,-0.65 0.57,-1.26 1.63,-1.26 1.31,0 1.87,0.88 1.87,1.03 0,0.06 -0.05,0.1 -0.11,0.1 -0.05,0 -0.08,-0.04 -0.1,-0.07 -0.14,-0.23 -0.38,-0.6 -1.58,-0.6 -0.6,0 -1.45,0.15 -1.45,0.86 0,0.34 0.28,0.87 0.89,1.16 z"
   id="path7197" />
<path
   style="fill:#000000;stroke-width:0"
   d="m 230.41,710.07 0,0 0,0.01 0,0.01 0,0.01 0,0.01 0,0 0,0.01 0,0.01 0,0 0,0.01 0,0.01 0,0 0,0.01 0,0 0,0.01 0,0.01 -0.01,0 0,0.01 0,0 0,0.01 0,0.01 -0.01,0.01 0,0 -0.01,0.01 0,0 -0.01,0.01 0,0 -0.01,0.01 -0.01,0 0,0 -0.01,0 -0.01,0.01 -0.01,0 0,0 -0.01,0 0,0 -0.01,0 -0.01,0 0,0 -0.01,0 -0.01,0 0,0 -0.01,0 -0.01,0 -0.01,0 0,0 -0.01,0 -0.01,0 -0.01,0 -0.01,0 c -0.44,-0.44 -1.08,-0.45 -1.36,-0.45 v -0.25 c 0.16,0 0.62,0 1.01,0.2 v -3.56 c 0,-0.23 0,-0.32 -0.7,-0.32 h -0.27 v -0.25 c 0.13,0.01 0.99,0.03 1.24,0.03 0.22,0 1.1,-0.02 1.25,-0.03 v 0.25 h -0.26 c -0.7,0 -0.7,0.09 -0.7,0.32 z"
   id="path7199" />
</g>    <g
       style="font-style:normal;font-variant:normal;font-weight:normal;font-stretch:normal;letter-spacing:normal;word-spacing:normal;text-anchor:start;fill:none;stroke:#000000;stroke-linecap:butt;stroke-linejoin:miter;stroke-miterlimit:10.43299961;stroke-opacity:1;stroke-dasharray:none;stroke-dashoffset:0"
       ns0:preamble=""
       ns0:text="$\\varepsilon_2$"
       word-spacing="normal"
       letter-spacing="normal"
       font-size-adjust="none"
       font-stretch="normal"
       font-weight="normal"
       font-variant="normal"
       font-style="normal"
       fill-rule="even-odd"
       stroke-miterlimit="10.433"
       xml:space="preserve"
       transform="matrix(1.8360414,0,0,-1.8360414,-40.36164,1702.1328)"
       id="g7287">
<path
   id="path7289"
   d="m 224.84,709.38 0.03,-0.01 0.03,-0.01 0.03,-0.01 0.03,-0.01 0.03,-0.01 0.03,-0.01 0.03,-0.01 0.03,-0.01 0.02,0 0.03,-0.01 0.06,-0.01 0.06,-0.01 0.05,-0.01 0.05,0 0.05,-0.01 0.06,0 0.05,0 0.04,0 0.05,0 0.05,0 0.04,-0.01 v 0.22 c -0.21,0 -0.34,0 -0.52,0.05 h 0 c 0.23,0.08 0.43,0.09 0.6,0.09 0.25,0 0.29,-0.01 0.47,-0.06 -0.15,-0.07 -0.17,-0.08 -0.55,-0.08 v -0.22 c 0.26,0 0.81,0 0.81,0.31 0,0.24 -0.35,0.27 -0.73,0.27 -0.21,0 -0.55,-0.02 -0.92,-0.19 -0.23,0.12 -0.4,0.31 -0.4,0.58 0,0.61 0.98,0.97 1.87,0.97 0.16,0 0.52,0 0.92,-0.28 0.11,-0.08 0.13,-0.1 0.2,-0.1 0.13,0 0.27,0.13 0.27,0.27 0,0.19 -0.61,0.57 -1.29,0.57 -1.14,0 -2.22,-0.67 -2.22,-1.43 0,-0.43 0.36,-0.68 0.4,-0.71 -0.59,-0.33 -0.91,-0.88 -0.91,-1.34 0,-0.65 0.57,-1.26 1.63,-1.26 1.31,0 1.87,0.88 1.87,1.03 0,0.06 -0.05,0.1 -0.11,0.1 -0.05,0 -0.08,-0.04 -0.1,-0.07 -0.14,-0.23 -0.38,-0.6 -1.58,-0.6 -0.6,0 -1.45,0.15 -1.45,0.86 0,0.34 0.28,0.87 0.89,1.16 z"
   style="fill:#000000;stroke-width:0" />
<path
   id="path7291"
   d="m 231.6,706.9 h -0.24 c -0.02,-0.15 -0.09,-0.57 -0.18,-0.63 -0.06,-0.05 -0.59,-0.05 -0.69,-0.05 h -1.28 c 0.73,0.65 0.97,0.85 1.39,1.17 0.52,0.42 1,0.85 1,1.51 0,0.84 -0.74,1.36 -1.64,1.36 -0.86,0 -1.45,-0.61 -1.45,-1.25 0,-0.35 0.3,-0.39 0.37,-0.39 0.17,0 0.37,0.12 0.37,0.37 0,0.13 -0.04,0.37 -0.41,0.37 0.22,0.5 0.69,0.65 1.02,0.65 0.7,0 1.06,-0.54 1.06,-1.11 0,-0.61 -0.43,-1.09 -0.66,-1.34 l -1.68,-1.66 c -0.07,-0.06 -0.07,-0.07 -0.07,-0.27 h 2.88 z"
   style="fill:#000000;stroke-width:0" />
</g>  </g>
</svg>
