<?xml version="1.0" encoding="UTF-8" standalone="no"?>
<!-- Created with Inkscape (http://www.inkscape.org/) -->

<svg
   xmlns:ns0="http://www.iki.fi/pav/software/textext/"
   xmlns:dc="http://purl.org/dc/elements/1.1/"
   xmlns:cc="http://creativecommons.org/ns#"
   xmlns:rdf="http://www.w3.org/1999/02/22-rdf-syntax-ns#"
   xmlns:svg="http://www.w3.org/2000/svg"
   xmlns="http://www.w3.org/2000/svg"
   xmlns:sodipodi="http://sodipodi.sourceforge.net/DTD/sodipodi-0.dtd"
   xmlns:inkscape="http://www.inkscape.org/namespaces/inkscape"
   width="295.37155"
   height="144.55034"
   id="svg4804"
   version="1.1"
   inkscape:version="0.47 r22583"
   sodipodi:docname="Nouveau document 6">
  <defs
     id="defs4806">
    <inkscape:perspective
       sodipodi:type="inkscape:persp3d"
       inkscape:vp_x="0 : 526.18109 : 1"
       inkscape:vp_y="0 : 1000 : 0"
       inkscape:vp_z="744.09448 : 526.18109 : 1"
       inkscape:persp3d-origin="372.04724 : 350.78739 : 1"
       id="perspective4812" />
    <inkscape:perspective
       id="perspective4767"
       inkscape:persp3d-origin="0.5 : 0.33333333 : 1"
       inkscape:vp_z="1 : 0.5 : 1"
       inkscape:vp_y="0 : 1000 : 0"
       inkscape:vp_x="0 : 0.5 : 1"
       sodipodi:type="inkscape:persp3d" />
    <marker
       inkscape:stockid="DotM"
       orient="auto"
       refY="0"
       refX="0"
       id="DotM"
       style="overflow:visible">
      <path
         id="path4179"
         d="m -2.5,-1 c 0,2.76 -2.24,5 -5,5 -2.76,0 -5,-2.24 -5,-5 0,-2.76 2.24,-5 5,-5 2.76,0 5,2.24 5,5 z"
         style="fill-rule:evenodd;stroke:#000000;stroke-width:1pt;marker-start:none;marker-end:none"
         transform="matrix(0.4,0,0,0.4,2.96,0.4)" />
    </marker>
    <marker
       style="overflow:visible"
       id="marker3793"
       refX="0"
       refY="0"
       orient="auto"
       inkscape:stockid="Arrow2Mend">
      <path
         transform="scale(-0.6,-0.6)"
         d="M 8.7185878,4.0337352 -2.2072895,0.01601326 8.7185884,-4.0017078 c -1.7454984,2.3720609 -1.7354408,5.6174519 -6e-7,8.035443 z"
         style="font-size:12px;fill-rule:evenodd;stroke-width:0.625;stroke-linejoin:round"
         id="path3795" />
    </marker>
    <marker
       style="overflow:visible"
       id="Arrow2Mstart"
       refX="0"
       refY="0"
       orient="auto"
       inkscape:stockid="Arrow2Mstart">
      <path
         transform="scale(0.6,0.6)"
         d="M 8.7185878,4.0337352 -2.2072895,0.01601326 8.7185884,-4.0017078 c -1.7454984,2.3720609 -1.7354408,5.6174519 -6e-7,8.035443 z"
         style="font-size:12px;fill-rule:evenodd;stroke-width:0.625;stroke-linejoin:round"
         id="path3670" />
    </marker>
    <marker
       style="overflow:visible"
       id="Arrow2Mend"
       refX="0"
       refY="0"
       orient="auto"
       inkscape:stockid="Arrow2Mend">
      <path
         transform="scale(-0.6,-0.6)"
         d="M 8.7185878,4.0337352 -2.2072895,0.01601326 8.7185884,-4.0017078 c -1.7454984,2.3720609 -1.7354408,5.6174519 -6e-7,8.035443 z"
         style="font-size:12px;fill-rule:evenodd;stroke-width:0.625;stroke-linejoin:round"
         id="path3673" />
    </marker>
    <marker
       style="overflow:visible"
       id="marker4779"
       refX="0"
       refY="0"
       orient="auto"
       inkscape:stockid="Arrow2Mend">
      <path
         transform="scale(-0.6,-0.6)"
         d="M 8.7185878,4.0337352 -2.2072895,0.01601326 8.7185884,-4.0017078 c -1.7454984,2.3720609 -1.7354408,5.6174519 -6e-7,8.035443 z"
         style="font-size:12px;fill-rule:evenodd;stroke-width:0.625;stroke-linejoin:round"
         id="path4781" />
    </marker>
  </defs>
  <sodipodi:namedview
     id="base"
     pagecolor="#ffffff"
     bordercolor="#666666"
     borderopacity="1.0"
     inkscape:pageopacity="0.0"
     inkscape:pageshadow="2"
     inkscape:zoom="1.979899"
     inkscape:cx="95.563552"
     inkscape:cy="86.213836"
     inkscape:document-units="px"
     inkscape:current-layer="layer1"
     showgrid="false"
     inkscape:window-width="1280"
     inkscape:window-height="725"
     inkscape:window-x="0"
     inkscape:window-y="25"
     inkscape:window-maximized="1" />
  <metadata
     id="metadata4809">
    <rdf:RDF>
      <cc:Work
         rdf:about="">
        <dc:format>image/svg+xml</dc:format>
        <dc:type
           rdf:resource="http://purl.org/dc/dcmitype/StillImage" />
        <dc:title></dc:title>
      </cc:Work>
    </rdf:RDF>
  </metadata>
  <g
     inkscape:label="Calque 1"
     inkscape:groupmode="layer"
     id="layer1"
     transform="translate(-195.17136,-385.8013)">
    <g
       id="g2986"
       transform="matrix(0.45,0,0,-0.45,22.316812,739.73549)">
      <path
         style="fill:none;stroke:#000000;stroke-width:3.33333325;stroke-linecap:butt;stroke-linejoin:miter;stroke-miterlimit:4;stroke-opacity:1;stroke-dasharray:none;display:inline"
         d="M 753.33333,668.88878 C 642.36866,713.27465 368.31128,692.93369 386.66667,591.111 404.25236,493.55804 576.79184,457.87277 720,468.88878 c 144.44444,11.11111 144.44444,155.55556 33.33333,200 z"
         id="path4279"
         sodipodi:nodetypes="czzz" />
      <path
         sodipodi:nodetypes="cc"
         id="path4290"
         d="m 753.33333,668.88878 33.33334,66.66667"
         style="fill:none;stroke:#000000;stroke-width:4.44444466;stroke-linecap:butt;stroke-linejoin:miter;stroke-miterlimit:4;stroke-opacity:1;stroke-dasharray:none;marker-end:url(#Arrow2Mend);display:inline" />
    </g>
    <path
       style="fill:none;stroke:#000000;stroke-width:1;stroke-linecap:butt;stroke-linejoin:miter;stroke-miterlimit:4;stroke-opacity:1;stroke-dasharray:none;marker-start:url(#Arrow2Mstart);marker-end:url(#Arrow2Mend);display:inline"
       d="m 488.40655,473.7355 -202.08974,0 0,-86.60983"
       id="path2869" />
    <g
       ns0:preamble=""
       ns0:text="$\\sigma_{ij}$"
       word-spacing="normal"
       letter-spacing="normal"
       font-size-adjust="none"
       font-stretch="normal"
       font-weight="normal"
       font-variant="normal"
       font-style="normal"
       fill-rule="even-odd"
       stroke-miterlimit="10.433"
       xml:space="preserve"
       transform="matrix(1.4434982,0,0,-1.4434982,151.30641,1509.1424)"
       id="g4739"
       style="font-style:normal;font-variant:normal;font-weight:normal;font-stretch:normal;letter-spacing:normal;word-spacing:normal;text-anchor:start;fill:none;stroke:#000000;stroke-linecap:butt;stroke-linejoin:miter;stroke-miterlimit:10.43299961;stroke-opacity:1;stroke-dasharray:none;stroke-dashoffset:0;display:inline">
<path
   id="path4741"
   d="m 228.59,710.84 0.02,0 0.01,0 0.02,0 0.01,0 0.02,0 0.02,0 0.01,0 0.02,0 0.02,0.01 0.02,0 0.02,0 0.02,0.01 0.03,0 0.02,0.01 0.02,0 0.02,0.01 0.02,0.01 0.01,0.01 0.02,0.01 0.02,0.01 0.02,0.01 0.01,0.02 0.01,0.01 0.01,0 0.01,0.01 0,0.01 0.01,0.01 0.01,0.01 0,0.01 0.01,0.01 0,0.01 0.01,0.01 0,0.01 0.01,0.02 0,0.01 0,0.01 0,0.01 0.01,0.02 0,0.01 0,0.02 0,0.01 0,0.02 c 0,0.24 -0.21,0.24 -0.39,0.24 h -2.27 c -1.5,0 -2.61,-1.65 -2.61,-2.83 0,-0.88 0.59,-1.58 1.49,-1.58 l 0.02,0.22 c -0.49,0 -0.89,0.36 -0.89,1.08 0,0.3 0.12,1.11 0.47,1.7 0.42,0.69 1.01,0.83 1.35,0.83 0.84,0 0.92,-0.66 0.92,-0.97 0,-0.47 -0.2,-1.28 -0.54,-1.79 -0.39,-0.59 -0.93,-0.85 -1.31,-0.85 h 0 l -0.02,-0.22 c 1.18,0 2.51,1.21 2.51,2.74 0,0.17 0,0.65 -0.31,1.09 z"
   style="fill:#000000;stroke-width:0" />
<path
   id="path4743"
   d="m 231.38,709.99 0,0.01 0,0.01 0,0.01 0,0.01 0,0.01 0,0.01 -0.01,0.02 0,0.01 -0.01,0.01 0,0.01 -0.01,0.01 0,0.01 -0.01,0.01 -0.01,0.01 0,0.01 -0.01,0.01 -0.01,0.01 -0.01,0.01 -0.01,0.01 -0.01,0.01 -0.01,0.01 -0.01,0 -0.02,0.01 -0.01,0.01 -0.01,0 -0.02,0.01 -0.01,0 -0.02,0.01 -0.01,0 -0.02,0 -0.02,0 -0.01,0 c -0.19,0 -0.4,-0.18 -0.4,-0.38 0,-0.12 0.1,-0.27 0.28,-0.27 0.21,0 0.39,0.2 0.39,0.39 z"
   style="fill:#000000;stroke-width:0" />
<path
   id="path4745"
   d="m 229.96,706.45 0,-0.02 -0.01,-0.02 -0.01,-0.03 -0.01,-0.02 0,-0.02 -0.01,-0.01 0,-0.02 0,-0.02 -0.01,-0.02 0,-0.01 -0.01,-0.02 0,-0.01 0,-0.01 0,-0.01 0,-0.01 0,-0.01 0,-0.02 0,-0.01 0,-0.01 c 0,-0.32 0.28,-0.59 0.66,-0.59 0.7,0 1.01,0.96 1.01,1.07 0,0.09 -0.09,0.09 -0.12,0.09 -0.09,0 -0.1,-0.04 -0.13,-0.12 -0.16,-0.56 -0.47,-0.84 -0.74,-0.84 -0.14,0 -0.17,0.09 -0.17,0.24 0,0.16 0.05,0.29 0.11,0.45 0.07,0.18 0.15,0.37 0.22,0.55 0.07,0.17 0.32,0.81 0.35,0.89 0.02,0.07 0.04,0.15 0.04,0.22 0,0.33 -0.28,0.6 -0.67,0.6 -0.69,0 -1.01,-0.95 -1.01,-1.07 0,-0.09 0.1,-0.09 0.12,-0.09 0.1,0 0.11,0.03 0.13,0.11 0.18,0.6 0.48,0.85 0.74,0.85 0.11,0 0.18,-0.06 0.18,-0.24 0,-0.16 -0.04,-0.27 -0.22,-0.7 z"
   style="fill:#000000;stroke-width:0" />
<path
   id="path4747"
   d="m 235.01,709.99 0,0.01 0,0.01 -0.01,0.01 0,0.01 0,0.02 0,0.01 -0.01,0.01 0,0.01 0,0.01 -0.01,0.01 -0.01,0.01 0,0.01 -0.01,0.02 -0.01,0.01 0,0.01 -0.01,0.01 -0.01,0.01 -0.01,0 -0.01,0.01 -0.01,0.01 -0.01,0.01 -0.01,0.01 -0.02,0 -0.01,0.01 -0.01,0 -0.02,0.01 -0.01,0 -0.02,0.01 -0.01,0 -0.02,0 -0.01,0 -0.02,0 c -0.21,0 -0.39,-0.19 -0.39,-0.38 0,-0.11 0.08,-0.27 0.28,-0.27 0.18,0 0.39,0.19 0.39,0.39 z"
   style="fill:#000000;stroke-width:0" />
<path
   id="path4749"
   d="m 233.53,705.29 -0.01,-0.05 -0.02,-0.04 -0.01,-0.04 -0.02,-0.05 -0.01,-0.04 -0.02,-0.04 -0.02,-0.04 -0.02,-0.04 -0.03,-0.04 -0.02,-0.04 -0.02,-0.04 -0.03,-0.03 -0.03,-0.04 -0.02,-0.03 -0.03,-0.03 -0.03,-0.03 -0.03,-0.03 -0.03,-0.03 -0.03,-0.03 -0.04,-0.02 -0.03,-0.03 -0.03,-0.02 -0.04,-0.02 -0.03,-0.02 -0.04,-0.01 -0.04,-0.02 -0.03,-0.01 -0.04,-0.01 -0.04,-0.01 -0.04,0 -0.03,-0.01 -0.04,0 c -0.09,0 -0.18,0.02 -0.25,0.04 0.18,0.09 0.24,0.26 0.24,0.36 0,0.17 -0.14,0.26 -0.28,0.26 -0.21,0 -0.39,-0.19 -0.39,-0.41 0,-0.27 0.27,-0.44 0.68,-0.44 0.42,0 1.24,0.25 1.46,1.1 l 0.62,2.5 c 0.03,0.07 0.04,0.14 0.04,0.24 0,0.38 -0.33,0.66 -0.75,0.66 -0.77,0 -1.22,-0.97 -1.22,-1.07 0,-0.09 0.1,-0.09 0.12,-0.09 0.08,0 0.09,0.02 0.14,0.12 0.17,0.41 0.54,0.84 0.94,0.84 0.18,0 0.24,-0.12 0.24,-0.34 0,-0.08 -0.01,-0.18 -0.02,-0.21 z"
   style="fill:#000000;stroke-width:0" />
</g>    <g
       style="font-style:normal;font-variant:normal;font-weight:normal;font-stretch:normal;letter-spacing:normal;word-spacing:normal;text-anchor:start;fill:none;stroke:#000000;stroke-linecap:butt;stroke-linejoin:miter;stroke-miterlimit:10.43299961;stroke-opacity:1;stroke-dasharray:none;stroke-dashoffset:0;display:inline"
       ns0:preamble=""
       ns0:text="$\\vec{\\mathrm{d}\\varepsilon^p}$"
       word-spacing="normal"
       letter-spacing="normal"
       font-size-adjust="none"
       font-stretch="normal"
       font-weight="normal"
       font-variant="normal"
       font-style="normal"
       fill-rule="even-odd"
       stroke-miterlimit="10.433"
       xml:space="preserve"
       transform="matrix(1.4434982,0,0,-1.4434982,56.217642,1449.4476)"
       id="content">
<path
   style="fill:#000000;stroke-width:0"
   id="path3108"
   d="m 232.91,715.68 -0.01,-0.01 -0.01,-0.01 -0.02,-0.02 -0.02,-0.01 -0.01,-0.02 -0.02,-0.01 -0.02,-0.02 -0.02,-0.02 -0.02,-0.02 -0.02,-0.01 -0.03,-0.04 -0.04,-0.04 -0.04,-0.04 -0.02,-0.02 -0.02,-0.02 -0.02,-0.02 -0.01,-0.02 -0.02,-0.03 -0.01,-0.02 -0.02,-0.02 -0.01,-0.02 -0.01,-0.02 -0.01,-0.02 -0.01,-0.01 -0.01,-0.02 0,-0.02 -0.01,-0.02 0,-0.02 0,-0.02 c 0,-0.1 0.1,-0.19 0.2,-0.19 0.09,0 0.14,0.07 0.19,0.13 0.12,0.14 0.34,0.42 0.78,0.64 0.07,0.04 0.17,0.09 0.17,0.21 0,0.1 -0.07,0.15 -0.14,0.2 -0.22,0.15 -0.33,0.33 -0.41,0.57 -0.02,0.09 -0.06,0.22 -0.2,0.22 -0.14,0 -0.19,-0.13 -0.19,-0.21 0,-0.05 0.08,-0.37 0.23,-0.58 h -3.35 c -0.17,0 -0.35,0 -0.35,-0.2 0,-0.2 0.18,-0.2 0.35,-0.2 z" />
<path
   style="fill:#000000;stroke-width:0"
   id="path3110"
   d="m 227.22,707.67 v -0.66 l 1.46,0.11 v 0.31 c -0.69,0 -0.77,0.07 -0.77,0.56 v 6.05 l -1.44,-0.11 v -0.31 c 0.7,0 0.78,-0.07 0.78,-0.56 v -2.15 c -0.29,0.36 -0.72,0.62 -1.26,0.62 l 0.04,-0.22 c 0.35,0 0.77,-0.15 1.08,-0.6 0.11,-0.17 0.11,-0.19 0.11,-0.37 h 0 v -2.04 c 0,-0.18 0,-0.2 -0.11,-0.37 -0.3,-0.48 -0.75,-0.7 -1.18,-0.7 -0.44,0 -0.8,0.26 -1.04,0.64 -0.26,0.41 -0.29,0.98 -0.29,1.39 0,0.36 0.02,0.96 0.31,1.41 0.21,0.31 0.58,0.64 1.12,0.64 l -0.04,0.22 c -1.17,0 -2.22,-0.98 -2.22,-2.27 0,-1.26 0.98,-2.25 2.11,-2.25 0.64,0 1.09,0.34 1.34,0.66 z" />
<path
   style="fill:#000000;stroke-width:0"
   id="path3112"
   d="m 230.37,709.38 0.03,-0.01 0.03,-0.01 0.03,-0.01 0.03,-0.01 0.03,-0.01 0.03,-0.01 0.03,-0.01 0.03,-0.01 0.03,0 0.03,-0.01 0.05,-0.01 0.06,-0.01 0.05,-0.01 0.06,0 0.05,-0.01 0.05,0 0.05,0 0.05,0 0.05,0 0.04,0 0.05,-0.01 v 0.22 c -0.22,0 -0.34,0 -0.53,0.05 h 0 c 0.23,0.08 0.44,0.09 0.61,0.09 0.25,0 0.29,-0.01 0.47,-0.06 -0.15,-0.07 -0.17,-0.08 -0.55,-0.08 v -0.22 c 0.26,0 0.81,0 0.81,0.31 0,0.24 -0.35,0.27 -0.73,0.27 -0.21,0 -0.56,-0.02 -0.93,-0.19 -0.23,0.12 -0.4,0.31 -0.4,0.58 0,0.61 0.98,0.97 1.88,0.97 0.16,0 0.52,0 0.91,-0.28 0.11,-0.08 0.13,-0.1 0.2,-0.1 0.13,0 0.27,0.13 0.27,0.27 0,0.19 -0.61,0.57 -1.28,0.57 -1.15,0 -2.22,-0.67 -2.22,-1.43 0,-0.43 0.35,-0.68 0.39,-0.71 -0.59,-0.33 -0.9,-0.88 -0.9,-1.34 0,-0.65 0.56,-1.26 1.62,-1.26 1.31,0 1.87,0.88 1.87,1.03 0,0.06 -0.05,0.1 -0.11,0.1 -0.05,0 -0.08,-0.04 -0.1,-0.07 -0.13,-0.23 -0.37,-0.6 -1.57,-0.6 -0.61,0 -1.45,0.15 -1.45,0.86 0,0.34 0.27,0.87 0.88,1.16 z" />
<path
   style="fill:#000000;stroke-width:0"
   id="path3114"
   d="m 234.13,709.15 0,-0.02 -0.01,-0.01 0,-0.02 0,-0.02 -0.01,-0.01 0,-0.01 -0.01,-0.02 0,-0.01 -0.01,-0.01 0,-0.01 -0.01,-0.01 0,-0.01 -0.01,-0.01 -0.01,-0.01 0,-0.01 -0.01,-0.01 -0.01,0 -0.01,-0.01 -0.01,-0.01 -0.01,0 -0.01,-0.01 -0.02,0 -0.01,0 -0.01,-0.01 -0.02,0 -0.01,0 -0.01,0 -0.01,0 -0.01,0 -0.01,-0.01 -0.01,0 -0.01,0 -0.01,0 -0.01,0 -0.01,0 -0.01,0 -0.01,0 -0.02,0 -0.01,0 c -0.09,0 -0.19,0 -0.19,-0.15 0,-0.07 0.07,-0.1 0.1,-0.1 0.18,0 0.41,0.03 0.6,0.03 0.24,0 0.5,-0.03 0.73,-0.03 0.07,0 0.14,0.02 0.14,0.15 0,0.1 -0.1,0.1 -0.18,0.1 -0.15,0 -0.34,0 -0.34,0.08 0,0.04 0.05,0.22 0.08,0.32 0.08,0.37 0.18,0.75 0.25,1.04 0.09,-0.13 0.3,-0.41 0.72,-0.41 v 0.2 c -0.49,0 -0.62,0.53 -0.62,0.6 0,0.03 0.02,0.08 0.02,0.11 l 0.35,1.4 c 0.41,0.54 0.75,0.64 0.98,0.64 0.27,0 0.51,-0.2 0.51,-0.67 0,-0.29 -0.16,-1 -0.37,-1.41 -0.17,-0.34 -0.51,-0.67 -0.87,-0.67 v -0.2 c 0.85,0 1.79,0.94 1.79,1.98 0,0.82 -0.56,1.17 -1.04,1.17 -0.43,0 -0.8,-0.3 -0.99,-0.49 -0.12,0.4 -0.51,0.49 -0.72,0.49 -0.27,0 -0.44,-0.18 -0.55,-0.37 -0.14,-0.24 -0.25,-0.66 -0.25,-0.7 0,-0.09 0.1,-0.09 0.12,-0.09 0.09,0 0.1,0.02 0.15,0.21 0.1,0.4 0.24,0.75 0.51,0.75 0.18,0 0.23,-0.15 0.23,-0.34 0,-0.08 -0.02,-0.17 -0.02,-0.21 z" />
</g>    <g
       id="g3192"
       transform="matrix(1.4434982,0,0,-1.4434982,34.586492,1477.8542)"
       xml:space="preserve"
       stroke-miterlimit="10.433"
       fill-rule="even-odd"
       font-style="normal"
       font-variant="normal"
       font-weight="normal"
       font-stretch="normal"
       font-size-adjust="none"
       letter-spacing="normal"
       word-spacing="normal"
       ns0:text="$\\Sigma$"
       ns0:preamble=""
       style="font-style:normal;font-variant:normal;font-weight:normal;font-stretch:normal;letter-spacing:normal;word-spacing:normal;text-anchor:start;fill:none;stroke:#000000;stroke-linecap:butt;stroke-linejoin:miter;stroke-miterlimit:10.43299961;stroke-opacity:1;stroke-dasharray:none;stroke-dashoffset:0;display:inline">
<path
   style="fill:#000000;stroke-width:0"
   d="m 227.14,710.37 0,0 0.01,0.01 0,0 0,0.01 0.01,0 0,0.01 0.01,0 0,0 0,0.01 0,0 0.01,0.01 0.01,0.01 0,0 0,0.01 0.01,0.01 0,0 0.01,0.01 0,0 0,0.01 0,0.01 0.01,0 0,0 0,0.01 0,0 0,0.01 0,0 0.01,0 0,0.01 0,0 0,0 0,0.01 0,0 0,0 0,0 0,0.01 0,0 c 0,0.05 -0.04,0.1 -0.07,0.14 l -2.04,2.95 h 2.3 c 1.68,0 2.18,-0.36 2.39,-1.94 h 0.25 l -0.28,2.25 h -5.53 c -0.24,0 -0.26,0 -0.26,-0.23 l 2.48,-3.61 -2.37,-2.7 c -0.1,-0.11 -0.1,-0.13 -0.1,-0.16 0,-0.11 0.1,-0.11 0.25,-0.11 h 5.53 l 0.28,2.35 h -0.25 c -0.18,-1.66 -0.86,-1.93 -2.42,-1.93 h -2.75 z"
   id="path3194" />
</g>    <g
       style="font-style:normal;font-variant:normal;font-weight:normal;font-stretch:normal;letter-spacing:normal;word-spacing:normal;text-anchor:start;fill:none;stroke:#000000;stroke-linecap:butt;stroke-linejoin:miter;stroke-miterlimit:10.43299961;stroke-opacity:1;stroke-dasharray:none;stroke-dashoffset:0;display:inline"
       ns0:preamble=""
       ns0:text="$\\Sigma^{\\ast}$"
       word-spacing="normal"
       letter-spacing="normal"
       font-size-adjust="none"
       font-stretch="normal"
       font-weight="normal"
       font-variant="normal"
       font-style="normal"
       fill-rule="even-odd"
       stroke-miterlimit="10.433"
       xml:space="preserve"
       transform="matrix(1.4434982,0,0,-1.4434982,-20.413508,1491.0444)"
       id="g3270">
<path
   style="fill:#000000;stroke-width:0"
   id="path3272"
   d="m 227.14,710.37 0,0 0.01,0.01 0,0 0,0.01 0.01,0 0,0.01 0.01,0 0,0 0,0.01 0,0 0.01,0.01 0.01,0.01 0,0 0,0.01 0.01,0.01 0,0 0.01,0.01 0,0 0,0.01 0,0.01 0.01,0 0,0 0,0.01 0,0 0,0.01 0,0 0.01,0 0,0.01 0,0 0,0 0,0.01 0,0 0,0 0,0 0,0.01 0,0 c 0,0.05 -0.04,0.1 -0.07,0.14 l -2.04,2.95 h 2.3 c 1.68,0 2.18,-0.36 2.39,-1.94 h 0.25 l -0.28,2.25 h -5.53 c -0.24,0 -0.26,0 -0.26,-0.23 l 2.48,-3.61 -2.37,-2.7 c -0.1,-0.11 -0.1,-0.13 -0.1,-0.16 0,-0.11 0.1,-0.11 0.25,-0.11 h 5.53 l 0.28,2.35 h -0.25 c -0.18,-1.66 -0.86,-1.93 -2.42,-1.93 h -2.75 z" />
<path
   style="fill:#000000;stroke-width:0"
   id="path3274"
   d="m 232.88,712.47 0.05,0.03 0.05,0.02 0.05,0.02 0.05,0.02 0.04,0.02 0.05,0.02 0.04,0.02 0.04,0.02 0.04,0.01 0.04,0.02 0.04,0.01 0.03,0.02 0.03,0.01 0.04,0.02 0.03,0.01 0.03,0.01 0.03,0.02 0.03,0.01 0.02,0.01 0.03,0.01 0.02,0.01 0.03,0.01 0.02,0.01 0.02,0.01 0.02,0.01 0.02,0.01 0.04,0.01 0.04,0.02 0.03,0.02 c 0.13,0.05 0.2,0.08 0.2,0.21 0,0.12 -0.09,0.23 -0.22,0.23 -0.05,0 -0.06,0 -0.15,-0.07 l -0.94,-0.63 0.1,1.03 c 0.01,0.13 0,0.3 -0.21,0.3 -0.08,0 -0.21,-0.06 -0.21,-0.21 0,-0.06 0.02,-0.27 0.03,-0.34 0.01,-0.12 0.06,-0.62 0.08,-0.78 l -0.94,0.63 c -0.07,0.05 -0.1,0.07 -0.16,0.07 -0.12,0 -0.21,-0.11 -0.21,-0.23 0,-0.14 0.08,-0.17 0.14,-0.2 l 1.06,-0.44 c -0.58,-0.25 -0.83,-0.35 -1.01,-0.43 -0.13,-0.06 -0.19,-0.08 -0.19,-0.22 0,-0.12 0.09,-0.22 0.21,-0.22 0.05,0 0.06,0 0.15,0.06 l 0.95,0.64 -0.11,-1.13 c 0,-0.15 0.13,-0.21 0.21,-0.21 0.08,0 0.22,0.06 0.22,0.21 0,0.07 -0.03,0.28 -0.04,0.35 -0.01,0.11 -0.06,0.62 -0.07,0.78 l 0.83,-0.56 c 0.18,-0.14 0.2,-0.14 0.26,-0.14 0.13,0 0.22,0.1 0.22,0.22 0,0.14 -0.09,0.18 -0.15,0.2 z" />
</g>    <path
       style="fill:none;stroke:#000000;stroke-width:1px;stroke-linecap:butt;stroke-linejoin:miter;stroke-opacity:1;marker-start:url(#DotM);marker-end:url(#marker3793)"
       d="m 315.91326,452.22033 45.3033,-13.40926"
       id="path3313"
       sodipodi:nodetypes="cc" />
  </g>
</svg>
