<?xml version="1.0" encoding="UTF-8" standalone="no"?>
<!-- Created with Inkscape (http://www.inkscape.org/) -->

<svg
   xmlns:ns0="http://www.iki.fi/pav/software/textext/"
   xmlns:dc="http://purl.org/dc/elements/1.1/"
   xmlns:cc="http://creativecommons.org/ns#"
   xmlns:rdf="http://www.w3.org/1999/02/22-rdf-syntax-ns#"
   xmlns:svg="http://www.w3.org/2000/svg"
   xmlns="http://www.w3.org/2000/svg"
   xmlns:sodipodi="http://sodipodi.sourceforge.net/DTD/sodipodi-0.dtd"
   xmlns:inkscape="http://www.inkscape.org/namespaces/inkscape"
   id="svg2"
   version="1.1"
   inkscape:version="0.47 r22583"
   width="288.59164"
   height="161.82437"
   xml:space="preserve"
   sodipodi:docname="T1_Ch10-14.svg"><sodipodi:namedview
     pagecolor="#ffffff"
     bordercolor="#666666"
     borderopacity="1"
     objecttolerance="10"
     gridtolerance="10"
     guidetolerance="10"
     inkscape:pageopacity="0"
     inkscape:pageshadow="2"
     inkscape:window-width="1280"
     inkscape:window-height="725"
     id="namedview4"
     showgrid="true"
     inkscape:zoom="0.89686946"
     inkscape:cx="557.18388"
     inkscape:cy="65.724969"
     inkscape:window-x="0"
     inkscape:window-y="25"
     inkscape:window-maximized="1"
     inkscape:current-layer="layer1"><inkscape:grid
       type="xygrid"
       id="grid2822"
       empspacing="5"
       visible="true"
       enabled="true"
       snapvisiblegridlinesonly="true" /></sodipodi:namedview><metadata
     id="metadata8"><rdf:RDF><cc:Work
         rdf:about=""><dc:format>image/svg+xml</dc:format><dc:type
           rdf:resource="http://purl.org/dc/dcmitype/StillImage" /><dc:title></dc:title></cc:Work></rdf:RDF></metadata><defs
     id="defs6"><marker
       inkscape:stockid="Arrow2Mend"
       orient="auto"
       refY="0"
       refX="0"
       id="Arrow2Mend"
       style="overflow:visible"><path
         id="path3628"
         style="font-size:12px;fill-rule:evenodd;stroke-width:0.625;stroke-linejoin:round"
         d="M 8.7185878,4.0337352 -2.2072895,0.01601326 8.7185884,-4.0017078 c -1.7454984,2.3720609 -1.7354408,5.6174519 -6e-7,8.035443 z"
         transform="scale(-0.6,-0.6)" /></marker><marker
       inkscape:stockid="Arrow2Mstart"
       orient="auto"
       refY="0"
       refX="0"
       id="Arrow2Mstart"
       style="overflow:visible"><path
         id="path3625"
         style="font-size:12px;fill-rule:evenodd;stroke-width:0.625;stroke-linejoin:round"
         d="M 8.7185878,4.0337352 -2.2072895,0.01601326 8.7185884,-4.0017078 c -1.7454984,2.3720609 -1.7354408,5.6174519 -6e-7,8.035443 z"
         transform="scale(0.6,0.6)" /></marker><inkscape:perspective
       sodipodi:type="inkscape:persp3d"
       inkscape:vp_x="0 : 0.5 : 1"
       inkscape:vp_y="0 : 1000 : 0"
       inkscape:vp_z="1 : 0.5 : 1"
       inkscape:persp3d-origin="0.5 : 0.33333333 : 1"
       id="perspective10" /><inkscape:perspective
       sodipodi:type="inkscape:persp3d"
       inkscape:vp_x="0 : 0.5 : 1"
       inkscape:vp_y="0 : 1000 : 0"
       inkscape:vp_z="1 : 0.5 : 1"
       inkscape:persp3d-origin="0.5 : 0.33333333 : 1"
       id="perspective6688" /></defs><g
     style="display:inline"
     id="g12"
     inkscape:groupmode="layer"
     inkscape:label="MS1_ch10"
     transform="matrix(0.45,0,0,-0.45,-94.499999,426.32433)">



</g><g
     style="display:inline"
     inkscape:label="dessin"
     id="layer1"
     inkscape:groupmode="layer"
     transform="translate(-94.499999,-626.22567)">














<g
   id="g10487"><g
     id="g5066"
     transform="matrix(0.45,0,0,-0.45,2e-7,1052.55)"><path
       transform="matrix(2.2222222,0,0,-2.2222222,0,2339)"
       id="path4688"
       d="m 95,712.55005 125,0"
       style="fill:none;stroke:#000000;stroke-width:1px;stroke-linecap:butt;stroke-linejoin:miter;stroke-opacity:1;marker-end:url(#Arrow2Mend)" /><path
       transform="matrix(2.2222222,0,0,-2.2222222,0,2339)"
       id="path4876"
       d="m 160,787.55005 0,-160"
       style="fill:none;stroke:#000000;stroke-width:1px;stroke-linecap:butt;stroke-linejoin:miter;stroke-opacity:1;marker-end:url(#Arrow2Mend)" /><path
       transform="matrix(2.2222222,0,0,-2.2222222,0,2339)"
       id="path5064"
       d="m 130,662.55005 60,100"
       style="fill:none;stroke:#000000;stroke-width:1.5;stroke-linecap:butt;stroke-linejoin:miter;stroke-miterlimit:4;stroke-opacity:1;stroke-dasharray:none" /></g><g
     id="g5864"><path
       id="path5112"
       d="m 160,667.55005 -25,0"
       style="fill:none;stroke:#000000;stroke-width:1px;stroke-linecap:butt;stroke-linejoin:miter;stroke-opacity:1;marker-end:url(#Arrow2Mend)" /><path
       id="path5300"
       d="m 160,677.55005 -20,0"
       style="fill:none;stroke:#000000;stroke-width:1px;stroke-linecap:butt;stroke-linejoin:miter;stroke-opacity:1;marker-end:url(#Arrow2Mend)" /><path
       sodipodi:nodetypes="cc"
       id="path5488"
       d="m 160,687.55005 -13.60626,0"
       style="fill:none;stroke:#000000;stroke-width:1px;stroke-linecap:butt;stroke-linejoin:miter;stroke-opacity:1;marker-end:url(#Arrow2Mend)" /><path
       sodipodi:nodetypes="cc"
       id="path5676"
       d="m 160,697.55005 -8.04877,0"
       style="fill:none;stroke:#000000;stroke-width:1px;stroke-linecap:butt;stroke-linejoin:miter;stroke-opacity:1;marker-end:url(#Arrow2Mend)" /></g><g
     id="g5870"
     transform="matrix(-1,0,0,-1,320.17563,1425.1193)"><path
       style="fill:none;stroke:#000000;stroke-width:1px;stroke-linecap:butt;stroke-linejoin:miter;stroke-opacity:1;marker-end:url(#Arrow2Mend)"
       d="m 160,667.55005 -25,0"
       id="path5872" /><path
       style="fill:none;stroke:#000000;stroke-width:1px;stroke-linecap:butt;stroke-linejoin:miter;stroke-opacity:1;marker-end:url(#Arrow2Mend)"
       d="m 160,677.55005 -20,0"
       id="path5874" /><path
       style="fill:none;stroke:#000000;stroke-width:1px;stroke-linecap:butt;stroke-linejoin:miter;stroke-opacity:1;marker-end:url(#Arrow2Mend)"
       d="m 160,687.55005 -13.60626,0"
       id="path5876"
       sodipodi:nodetypes="cc" /><path
       style="fill:none;stroke:#000000;stroke-width:1px;stroke-linecap:butt;stroke-linejoin:miter;stroke-opacity:1;marker-end:url(#Arrow2Mend)"
       d="m 160,697.55005 -8.04877,0"
       id="path5878"
       sodipodi:nodetypes="cc" /></g><g
     style="font-style:normal;font-variant:normal;font-weight:normal;font-stretch:normal;letter-spacing:normal;word-spacing:normal;text-anchor:start;fill:none;stroke:#000000;stroke-linecap:butt;stroke-linejoin:miter;stroke-miterlimit:10.43299961;stroke-opacity:1;stroke-dasharray:none;stroke-dashoffset:0"
     ns0:preamble=""
     ns0:text="$x_2$"
     word-spacing="normal"
     letter-spacing="normal"
     font-size-adjust="none"
     font-stretch="normal"
     font-weight="normal"
     font-variant="normal"
     font-style="normal"
     fill-rule="even-odd"
     stroke-miterlimit="10.433"
     xml:space="preserve"
     transform="matrix(1.35,0,0,-1.35,-135.3515,1590.186)"
     id="g6643">
<path
   style="fill:#000000;stroke-width:0"
   id="path6645"
   d="m 226.76,710.13 0.01,0.03 0,0.03 0.01,0.03 0.01,0.04 0.01,0.03 0.01,0.05 0.02,0.04 0.01,0.04 0.02,0.05 0.01,0.05 0.02,0.05 0.02,0.05 0.03,0.05 0.02,0.05 0.03,0.05 0.02,0.05 0.03,0.04 0.03,0.05 0.04,0.05 0.03,0.04 0.04,0.05 0.04,0.04 0.04,0.03 0.05,0.04 0.04,0.03 0.05,0.03 0.03,0.01 0.02,0.02 0.03,0.01 0.03,0.01 0.02,0.01 0.03,0 0.03,0.01 0.03,0.01 0.03,0 0.03,0 0.03,0.01 0.04,0 c 0.05,0 0.29,0 0.49,-0.13 -0.28,-0.05 -0.47,-0.3 -0.47,-0.54 0,-0.16 0.11,-0.35 0.38,-0.35 0.21,0 0.53,0.18 0.53,0.58 0,0.52 -0.58,0.66 -0.92,0.66 -0.58,0 -0.93,-0.53 -1.05,-0.76 -0.25,0.66 -0.79,0.76 -1.08,0.76 -1.03,0 -1.6,-1.29 -1.6,-1.54 0,-0.1 0.1,-0.1 0.12,-0.1 0.08,0 0.11,0.02 0.13,0.11 0.34,1.06 1,1.31 1.33,1.31 0.19,0 0.54,-0.09 0.54,-0.67 0,-0.31 -0.17,-0.98 -0.54,-2.37 -0.15,-0.62 -0.5,-1.04 -0.94,-1.04 -0.06,0 -0.29,0 -0.5,0.13 0.25,0.05 0.47,0.26 0.47,0.54 0,0.27 -0.22,0.35 -0.37,0.35 -0.3,0 -0.55,-0.26 -0.55,-0.58 0,-0.46 0.5,-0.66 0.94,-0.66 0.66,0 1.01,0.7 1.04,0.76 0.12,-0.37 0.48,-0.76 1.08,-0.76 1.03,0 1.59,1.29 1.59,1.54 0,0.1 -0.09,0.1 -0.12,0.1 -0.09,0 -0.1,-0.04 -0.13,-0.11 -0.32,-1.07 -1,-1.31 -1.32,-1.31 -0.39,0 -0.55,0.32 -0.55,0.66 0,0.22 0.06,0.44 0.17,0.88 z" />
<path
   style="fill:#000000;stroke-width:0"
   id="path6647"
   d="m 232.65,706.9 h -0.24 c -0.02,-0.15 -0.09,-0.57 -0.18,-0.63 -0.06,-0.05 -0.59,-0.05 -0.69,-0.05 h -1.28 c 0.73,0.65 0.97,0.85 1.39,1.17 0.52,0.42 1,0.85 1,1.51 0,0.84 -0.74,1.36 -1.64,1.36 -0.86,0 -1.45,-0.61 -1.45,-1.25 0,-0.35 0.3,-0.39 0.37,-0.39 0.17,0 0.37,0.12 0.37,0.37 0,0.13 -0.04,0.37 -0.41,0.37 0.22,0.5 0.69,0.65 1.02,0.65 0.7,0 1.06,-0.54 1.06,-1.11 0,-0.61 -0.43,-1.09 -0.65,-1.34 l -1.69,-1.66 c -0.07,-0.06 -0.07,-0.07 -0.07,-0.27 h 2.88 z" />
</g><g
     id="content"
     transform="matrix(1.35,0,0,-1.35,-86.715,1680.726)"
     xml:space="preserve"
     stroke-miterlimit="10.433"
     fill-rule="even-odd"
     font-style="normal"
     font-variant="normal"
     font-weight="normal"
     font-stretch="normal"
     font-size-adjust="none"
     letter-spacing="normal"
     word-spacing="normal"
     ns0:text="$\\sigma_{11}$"
     ns0:preamble=""
     style="font-style:normal;font-variant:normal;font-weight:normal;font-stretch:normal;letter-spacing:normal;word-spacing:normal;text-anchor:start;fill:none;stroke:#000000;stroke-linecap:butt;stroke-linejoin:miter;stroke-miterlimit:10.43299961;stroke-opacity:1;stroke-dasharray:none;stroke-dashoffset:0">
<path
   style="fill:#000000;stroke-width:0"
   d="m 228.59,710.84 0.02,0 0.01,0 0.02,0 0.01,0 0.02,0 0.02,0 0.01,0 0.02,0 0.02,0.01 0.02,0 0.02,0 0.02,0.01 0.03,0 0.02,0.01 0.02,0 0.02,0.01 0.02,0.01 0.01,0.01 0.02,0.01 0.02,0.01 0.02,0.01 0.01,0.02 0.01,0.01 0.01,0 0.01,0.01 0,0.01 0.01,0.01 0.01,0.01 0,0.01 0.01,0.01 0,0.01 0.01,0.01 0,0.01 0.01,0.02 0,0.01 0,0.01 0,0.01 0.01,0.02 0,0.01 0,0.02 0,0.01 0,0.02 c 0,0.24 -0.21,0.24 -0.39,0.24 h -2.27 c -1.5,0 -2.61,-1.65 -2.61,-2.83 0,-0.88 0.59,-1.58 1.49,-1.58 l 0.02,0.22 c -0.49,0 -0.89,0.36 -0.89,1.08 0,0.3 0.12,1.11 0.47,1.7 0.42,0.69 1.01,0.83 1.35,0.83 0.84,0 0.92,-0.66 0.92,-0.97 0,-0.47 -0.2,-1.28 -0.54,-1.79 -0.39,-0.59 -0.93,-0.85 -1.31,-0.85 h 0 l -0.02,-0.22 c 1.18,0 2.51,1.21 2.51,2.74 0,0.17 0,0.65 -0.31,1.09 z"
   id="path6830" />
<path
   style="fill:#000000;stroke-width:0"
   d="m 231.46,710.07 0,0 0,0.01 0,0.01 0,0.01 0,0.01 0,0 0,0.01 0,0.01 0,0 0,0.01 0,0.01 0,0 0,0.01 0,0 0,0.01 0,0.01 -0.01,0 0,0.01 0,0 0,0.01 0,0.01 -0.01,0.01 0,0 -0.01,0.01 0,0 -0.01,0.01 0,0 -0.01,0.01 -0.01,0 0,0 -0.01,0 -0.01,0.01 -0.01,0 0,0 -0.01,0 0,0 -0.01,0 -0.01,0 0,0 -0.01,0 -0.01,0 0,0 -0.01,0 -0.01,0 -0.01,0 0,0 -0.01,0 -0.01,0 -0.01,0 -0.01,0 c -0.44,-0.44 -1.08,-0.45 -1.37,-0.45 v -0.25 c 0.17,0 0.63,0 1.02,0.2 v -3.56 c 0,-0.23 0,-0.32 -0.7,-0.32 h -0.27 v -0.25 c 0.13,0.01 0.99,0.03 1.25,0.03 0.21,0 1.09,-0.02 1.24,-0.03 v 0.25 h -0.26 c -0.7,0 -0.7,0.09 -0.7,0.32 z"
   id="path6832" />
<path
   style="fill:#000000;stroke-width:0"
   d="m 235.44,710.07 0,0 0,0.01 0,0.01 0,0.01 0,0.01 0,0 0,0.01 0,0.01 -0.01,0 0,0.01 0,0.01 0,0 0,0.01 0,0 0,0.01 0,0.01 0,0 0,0.01 0,0 -0.01,0.01 0,0.01 0,0.01 -0.01,0 0,0.01 -0.01,0 0,0.01 -0.01,0 0,0.01 -0.01,0 -0.01,0 -0.01,0 -0.01,0.01 0,0 -0.01,0 0,0 -0.01,0 -0.01,0 0,0 -0.01,0 0,0 -0.01,0 -0.01,0 -0.01,0 0,0 -0.01,0 -0.01,0 -0.01,0 -0.01,0 0,0 -0.01,0 c -0.45,-0.44 -1.08,-0.45 -1.37,-0.45 v -0.25 c 0.17,0 0.63,0 1.01,0.2 v -3.56 c 0,-0.23 0,-0.32 -0.7,-0.32 h -0.26 v -0.25 c 0.12,0.01 0.98,0.03 1.24,0.03 0.22,0 1.09,-0.02 1.25,-0.03 v 0.25 h -0.27 c -0.69,0 -0.69,0.09 -0.69,0.32 z"
   id="path6834" />
</g><g
     style="font-style:normal;font-variant:normal;font-weight:normal;font-stretch:normal;letter-spacing:normal;word-spacing:normal;text-anchor:start;fill:none;stroke:#000000;stroke-linecap:butt;stroke-linejoin:miter;stroke-miterlimit:10.43299961;stroke-opacity:1;stroke-dasharray:none;stroke-dashoffset:0"
     ns0:preamble=""
     ns0:text="$\\sigma_{e}$"
     word-spacing="normal"
     letter-spacing="normal"
     font-size-adjust="none"
     font-stretch="normal"
     font-weight="normal"
     font-variant="normal"
     font-style="normal"
     fill-rule="even-odd"
     stroke-miterlimit="10.433"
     xml:space="preserve"
     transform="matrix(1.35,0,0,-1.35,-104.715,1658.726)"
     id="g7104">
<path
   style="fill:#000000;stroke-width:0"
   id="path7106"
   d="m 228.59,710.84 0.02,0 0.01,0 0.02,0 0.01,0 0.02,0 0.02,0 0.01,0 0.02,0 0.02,0.01 0.02,0 0.02,0 0.02,0.01 0.03,0 0.02,0.01 0.02,0 0.02,0.01 0.02,0.01 0.01,0.01 0.02,0.01 0.02,0.01 0.02,0.01 0.01,0.02 0.01,0.01 0.01,0 0.01,0.01 0,0.01 0.01,0.01 0.01,0.01 0,0.01 0.01,0.01 0,0.01 0.01,0.01 0,0.01 0.01,0.02 0,0.01 0,0.01 0,0.01 0.01,0.02 0,0.01 0,0.02 0,0.01 0,0.02 c 0,0.24 -0.21,0.24 -0.39,0.24 h -2.27 c -1.5,0 -2.61,-1.65 -2.61,-2.83 0,-0.88 0.59,-1.58 1.49,-1.58 l 0.02,0.22 c -0.49,0 -0.89,0.36 -0.89,1.08 0,0.3 0.12,1.11 0.47,1.7 0.42,0.69 1.01,0.83 1.35,0.83 0.84,0 0.92,-0.66 0.92,-0.97 0,-0.47 -0.2,-1.28 -0.54,-1.79 -0.39,-0.59 -0.93,-0.85 -1.31,-0.85 h 0 l -0.02,-0.22 c 1.18,0 2.51,1.21 2.51,2.74 0,0.17 0,0.65 -0.31,1.09 z" />
<path
   style="fill:#000000;stroke-width:0"
   id="path7108"
   d="m 230.69,707.22 0.02,0 0.02,0 0.02,0 0.03,0 0.02,0 0.03,0 0.03,0 0.03,0 0.03,0.01 0.04,0 0.03,0 0.04,0 0.04,0 0.03,0.01 0.08,0 0.08,0.01 0.08,0.01 0.08,0.01 0.08,0.02 0.08,0.01 0.04,0.01 0.04,0.01 0.04,0.01 0.04,0.01 0.03,0.01 0.04,0.02 c 0.52,0.18 0.61,0.51 0.61,0.72 0,0.38 -0.38,0.62 -0.86,0.62 v -0.2 c 0.31,0 0.56,-0.15 0.56,-0.42 0,-0.68 -1.17,-0.68 -1.47,-0.68 h -0.35 c 0.29,1.02 1.06,1.1 1.26,1.1 v 0.2 c -0.84,0 -1.97,-0.65 -1.97,-1.84 0,-0.7 0.44,-1.31 1.26,-1.31 1.18,0 1.73,0.69 1.73,0.79 0,0.04 -0.07,0.12 -0.12,0.12 -0.04,0 -0.06,-0.02 -0.11,-0.07 -0.55,-0.64 -1.36,-0.64 -1.49,-0.64 -0.42,0 -0.7,0.27 -0.7,0.84 0,0.1 0,0.24 0.09,0.62 z" />
</g><g
     id="g8000"
     transform="matrix(1.35,0,0,-1.35,-135.3515,1590.186)"
     xml:space="preserve"
     stroke-miterlimit="10.433"
     fill-rule="even-odd"
     font-style="normal"
     font-variant="normal"
     font-weight="normal"
     font-stretch="normal"
     font-size-adjust="none"
     letter-spacing="normal"
     word-spacing="normal"
     ns0:text="$x_2$"
     ns0:preamble=""
     style="font-style:normal;font-variant:normal;font-weight:normal;font-stretch:normal;letter-spacing:normal;word-spacing:normal;text-anchor:start;fill:none;stroke:#000000;stroke-linecap:butt;stroke-linejoin:miter;stroke-miterlimit:10.43299961;stroke-opacity:1;stroke-dasharray:none;stroke-dashoffset:0">
<path
   d="m 226.76,710.13 0.01,0.03 0,0.03 0.01,0.03 0.01,0.04 0.01,0.03 0.01,0.05 0.02,0.04 0.01,0.04 0.02,0.05 0.01,0.05 0.02,0.05 0.02,0.05 0.03,0.05 0.02,0.05 0.03,0.05 0.02,0.05 0.03,0.04 0.03,0.05 0.04,0.05 0.03,0.04 0.04,0.05 0.04,0.04 0.04,0.03 0.05,0.04 0.04,0.03 0.05,0.03 0.03,0.01 0.02,0.02 0.03,0.01 0.03,0.01 0.02,0.01 0.03,0 0.03,0.01 0.03,0.01 0.03,0 0.03,0 0.03,0.01 0.04,0 c 0.05,0 0.29,0 0.49,-0.13 -0.28,-0.05 -0.47,-0.3 -0.47,-0.54 0,-0.16 0.11,-0.35 0.38,-0.35 0.21,0 0.53,0.18 0.53,0.58 0,0.52 -0.58,0.66 -0.92,0.66 -0.58,0 -0.93,-0.53 -1.05,-0.76 -0.25,0.66 -0.79,0.76 -1.08,0.76 -1.03,0 -1.6,-1.29 -1.6,-1.54 0,-0.1 0.1,-0.1 0.12,-0.1 0.08,0 0.11,0.02 0.13,0.11 0.34,1.06 1,1.31 1.33,1.31 0.19,0 0.54,-0.09 0.54,-0.67 0,-0.31 -0.17,-0.98 -0.54,-2.37 -0.15,-0.62 -0.5,-1.04 -0.94,-1.04 -0.06,0 -0.29,0 -0.5,0.13 0.25,0.05 0.47,0.26 0.47,0.54 0,0.27 -0.22,0.35 -0.37,0.35 -0.3,0 -0.55,-0.26 -0.55,-0.58 0,-0.46 0.5,-0.66 0.94,-0.66 0.66,0 1.01,0.7 1.04,0.76 0.12,-0.37 0.48,-0.76 1.08,-0.76 1.03,0 1.59,1.29 1.59,1.54 0,0.1 -0.09,0.1 -0.12,0.1 -0.09,0 -0.1,-0.04 -0.13,-0.11 -0.32,-1.07 -1,-1.31 -1.32,-1.31 -0.39,0 -0.55,0.32 -0.55,0.66 0,0.22 0.06,0.44 0.17,0.88 z"
   id="path8002"
   style="fill:#000000;stroke-width:0" />
<path
   d="m 232.65,706.9 h -0.24 c -0.02,-0.15 -0.09,-0.57 -0.18,-0.63 -0.06,-0.05 -0.59,-0.05 -0.69,-0.05 h -1.28 c 0.73,0.65 0.97,0.85 1.39,1.17 0.52,0.42 1,0.85 1,1.51 0,0.84 -0.74,1.36 -1.64,1.36 -0.86,0 -1.45,-0.61 -1.45,-1.25 0,-0.35 0.3,-0.39 0.37,-0.39 0.17,0 0.37,0.12 0.37,0.37 0,0.13 -0.04,0.37 -0.41,0.37 0.22,0.5 0.69,0.65 1.02,0.65 0.7,0 1.06,-0.54 1.06,-1.11 0,-0.61 -0.43,-1.09 -0.65,-1.34 l -1.69,-1.66 c -0.07,-0.06 -0.07,-0.07 -0.07,-0.27 h 2.88 z"
   id="path8004"
   style="fill:#000000;stroke-width:0" />
</g><g
     style="font-style:normal;font-variant:normal;font-weight:normal;font-stretch:normal;letter-spacing:normal;word-spacing:normal;text-anchor:start;fill:none;stroke:#000000;stroke-linecap:butt;stroke-linejoin:miter;stroke-miterlimit:10.43299961;stroke-opacity:1;stroke-dasharray:none;stroke-dashoffset:0"
     ns0:preamble=""
     ns0:text="$h/2$"
     word-spacing="normal"
     letter-spacing="normal"
     font-size-adjust="none"
     font-stretch="normal"
     font-weight="normal"
     font-variant="normal"
     font-style="normal"
     fill-rule="even-odd"
     stroke-miterlimit="10.433"
     xml:space="preserve"
     transform="matrix(1.35,0,0,-1.35,-135.3515,1620.186)"
     id="g8161">
<path
   style="fill:#000000;stroke-width:0"
   id="path8163"
   d="m 226.29,713.93 0,0 0,0 0,0 0,0 0,0 0,0.01 0,0 0,0 0,0.01 0,0 0,0.01 0,0 0,0.01 -0.01,0 0,0.01 0,0 0,0.01 -0.01,0 0,0.01 -0.01,0 0,0 0,0.01 0,0 -0.01,0 0,0 0,0.01 -0.01,0 0,0 0,0 -0.01,0 0,0 0,0.01 -0.01,0 0,0 -0.01,0 0,0 -0.01,0 0,0 0,0 -0.01,0.01 -0.01,0 0,0 -0.01,0 0,0 -0.01,0 c -0.23,0 -0.95,-0.08 -1.21,-0.1 -0.08,-0.01 -0.19,-0.02 -0.19,-0.2 0,-0.12 0.09,-0.12 0.24,-0.12 0.48,0 0.49,-0.07 0.49,-0.17 l -0.03,-0.2 -1.44,-5.74 c -0.04,-0.14 -0.04,-0.16 -0.04,-0.22 0,-0.23 0.2,-0.28 0.29,-0.28 0.16,0 0.32,0.12 0.37,0.26 l 0.19,0.76 0.22,0.9 c 0.06,0.22 0.12,0.43 0.17,0.66 0.02,0.06 0.1,0.39 0.1,0.45 0.03,0.09 0.34,0.65 0.68,0.92 0.22,0.16 0.53,0.35 0.96,0.35 0.43,0 0.54,-0.34 0.54,-0.7 0,-0.54 -0.38,-1.62 -0.62,-2.23 -0.08,-0.23 -0.13,-0.35 -0.13,-0.55 0,-0.47 0.35,-0.82 0.82,-0.82 0.93,0 1.3,1.46 1.3,1.54 0,0.1 -0.09,0.1 -0.12,0.1 -0.1,0 -0.1,-0.03 -0.15,-0.18 -0.15,-0.53 -0.47,-1.24 -1.01,-1.24 -0.17,0 -0.24,0.1 -0.24,0.33 0,0.25 0.09,0.49 0.18,0.71 0.16,0.43 0.6,1.61 0.6,2.19 0,0.65 -0.39,1.07 -1.14,1.07 -0.63,0 -1.11,-0.31 -1.48,-0.77 z" />
<path
   style="fill:#000000;stroke-width:0"
   id="path8165"
   d="m 233.54,714.22 0.01,0 0,0.01 0,0 0,0.01 0,0 0.01,0.01 0,0.01 0,0.01 0.01,0.01 0,0.01 0,0.01 0,0.01 0.01,0 0,0.01 0,0.01 0,0 0,0.01 0.01,0 0,0.01 0,0.01 0,0 0,0 0,0.01 0,0 0,0.01 0,0 0,0 0,0 0,0.01 0,0 0,0 0,0 0,0 0,0 0,0.01 c 0,0.11 -0.09,0.19 -0.2,0.19 -0.07,0 -0.13,-0.02 -0.16,-0.08 l -3.46,-9.5 c -0.05,-0.13 -0.05,-0.17 -0.05,-0.18 0,-0.11 0.09,-0.2 0.2,-0.2 0.13,0 0.16,0.07 0.22,0.24 z" />
<path
   style="fill:#000000;stroke-width:0"
   id="path8167"
   d="m 235.41,707.89 1.06,1.03 c 1.55,1.37 2.15,1.91 2.15,2.91 0,1.13 -0.89,1.93 -2.11,1.93 -1.13,0 -1.86,-0.92 -1.86,-1.81 0,-0.55 0.5,-0.55 0.53,-0.55 0.17,0 0.51,0.12 0.51,0.52 0,0.26 -0.18,0.52 -0.52,0.52 -0.08,0 -0.1,0 -0.13,-0.01 0.23,0.65 0.76,1.02 1.34,1.02 0.91,0 1.34,-0.81 1.34,-1.62 0,-0.8 -0.5,-1.59 -1.05,-2.21 l -1.91,-2.13 c -0.11,-0.11 -0.11,-0.13 -0.11,-0.37 h 3.69 l 0.28,1.74 h -0.25 c -0.05,-0.3 -0.11,-0.74 -0.22,-0.89 -0.06,-0.08 -0.72,-0.08 -0.94,-0.08 z" />
</g><g
     style="font-style:normal;font-variant:normal;font-weight:normal;font-stretch:normal;letter-spacing:normal;word-spacing:normal;text-anchor:start;fill:none;stroke:#000000;stroke-linecap:butt;stroke-linejoin:miter;stroke-miterlimit:10.43299961;stroke-opacity:1;stroke-dasharray:none;stroke-dashoffset:0"
     ns0:preamble=""
     ns0:text="$\\mathcal{M}&lt;\\mathcal{M}_e$"
     word-spacing="normal"
     letter-spacing="normal"
     font-size-adjust="none"
     font-stretch="normal"
     font-weight="normal"
     font-variant="normal"
     font-style="normal"
     fill-rule="even-odd"
     stroke-miterlimit="10.433"
     xml:space="preserve"
     transform="matrix(1.35,0,0,-1.35,-199.3515,1738.186)"
     id="g9307">
<path
   style="fill:#000000;stroke-width:0"
   id="path9309"
   d="m 227.27,712.69 0.02,-0.12 0.03,-0.13 0.03,-0.13 0.03,-0.14 0.03,-0.14 0.03,-0.14 0.06,-0.3 0.07,-0.3 0.07,-0.31 0.07,-0.32 0.08,-0.31 0.09,-0.32 0.08,-0.31 0.09,-0.3 0.09,-0.29 0.05,-0.14 0.05,-0.14 0.05,-0.13 0.05,-0.14 0.05,-0.12 0.05,-0.12 0.05,-0.12 0.05,-0.11 c 0.22,-0.43 0.33,-0.65 0.43,-0.65 0.04,0 0.06,0 0.24,0.18 0.76,0.73 1.28,1.31 1.97,2.1 l 2.19,2.54 c -0.14,-0.84 -0.5,-3.08 -0.5,-4.25 0,-0.27 0.01,-0.53 0.04,-0.8 0.01,-0.11 0.05,-0.4 0.47,-0.4 0.41,0 1.17,0.44 1.17,0.64 0,0.06 -0.06,0.07 -0.09,0.07 -0.13,0 -0.33,-0.09 -0.44,-0.16 -0.24,0.03 -0.26,0.19 -0.28,0.42 -0.03,0.32 -0.03,0.62 -0.03,0.66 0,1.1 0.44,4.12 0.73,5.36 0.01,0.07 0.02,0.09 0.02,0.17 0,0.04 -0.01,0.15 -0.08,0.15 -0.04,0 -0.05,-0.01 -0.24,-0.23 -0.93,-1.14 -3.84,-4.63 -4.83,-5.46 -0.25,0.53 -0.43,0.9 -0.78,2.3 -0.29,1.13 -0.46,1.95 -0.62,2.92 -0.03,0.14 -0.08,0.41 -0.08,0.43 -0.03,0.05 -0.08,0.05 -0.11,0.05 -0.18,0 -0.6,-0.22 -0.63,-0.43 -0.12,-0.84 -0.32,-2.15 -1.02,-4.06 -0.79,-2.12 -1.01,-2.12 -1.2,-2.12 -0.13,0 -0.5,0.08 -0.72,0.28 -0.05,0.05 -0.07,0.05 -0.09,0.05 -0.14,0 -0.36,-0.45 -0.36,-0.73 0,-0.09 0,-0.21 0.32,-0.38 0.25,-0.13 0.49,-0.14 0.54,-0.14 0.62,0 1.2,1.43 1.4,1.94 0.47,1.12 1.03,2.7 1.31,4.13 z" />
<path
   style="fill:#000000;stroke-width:0"
   id="path9311"
   d="m 244.89,712.08 0.01,0.01 0.01,0.01 0.01,0 0.01,0.01 0.01,0 0.01,0.01 0.01,0 0.01,0.01 0.01,0 0,0.01 0.01,0 0.01,0.01 0.01,0.01 0,0 0.01,0.01 0.01,0 0,0.01 0.01,0.01 0,0 0.01,0.01 0,0.01 0.01,0.01 0,0 0,0.01 0.01,0.01 0,0.01 0,0.01 0,0 0.01,0.01 0,0.01 0,0.01 0,0.01 c 0,0.11 -0.09,0.2 -0.2,0.2 -0.03,0 -0.05,0 -0.18,-0.07 l -5.52,-2.6 c -0.11,-0.05 -0.19,-0.1 -0.19,-0.22 0,-0.12 0.08,-0.17 0.19,-0.22 l 5.52,-2.6 c 0.13,-0.07 0.15,-0.07 0.18,-0.07 0.11,0 0.2,0.09 0.2,0.2 0,0.11 -0.07,0.16 -0.19,0.22 l -5.23,2.47 z" />
<path
   style="fill:#000000;stroke-width:0"
   id="path9313"
   d="m 252.51,712.69 0.03,-0.12 0.03,-0.13 0.02,-0.13 0.03,-0.14 0.03,-0.14 0.03,-0.14 0.07,-0.3 0.06,-0.3 0.07,-0.31 0.08,-0.32 0.08,-0.31 0.08,-0.32 0.09,-0.31 0.08,-0.3 0.1,-0.29 0.04,-0.14 0.05,-0.14 0.05,-0.13 0.05,-0.14 0.05,-0.12 0.05,-0.12 0.06,-0.12 0.05,-0.11 c 0.22,-0.43 0.33,-0.65 0.43,-0.65 0.04,0 0.06,0 0.24,0.18 0.75,0.73 1.27,1.31 1.97,2.1 l 2.18,2.54 c -0.14,-0.84 -0.5,-3.08 -0.5,-4.25 0,-0.27 0.01,-0.53 0.04,-0.8 0.01,-0.11 0.05,-0.4 0.47,-0.4 0.42,0 1.18,0.44 1.18,0.64 0,0.06 -0.06,0.07 -0.09,0.07 -0.13,0 -0.33,-0.09 -0.44,-0.16 -0.24,0.03 -0.26,0.19 -0.28,0.42 -0.03,0.32 -0.03,0.62 -0.03,0.66 0,1.1 0.44,4.12 0.73,5.36 0.01,0.07 0.02,0.09 0.02,0.17 0,0.04 -0.01,0.15 -0.08,0.15 -0.04,0 -0.05,-0.01 -0.24,-0.23 -0.94,-1.14 -3.85,-4.63 -4.84,-5.46 -0.24,0.53 -0.42,0.9 -0.77,2.3 -0.29,1.13 -0.46,1.95 -0.63,2.92 -0.03,0.14 -0.08,0.41 -0.08,0.43 -0.03,0.05 -0.08,0.05 -0.11,0.05 -0.18,0 -0.6,-0.22 -0.63,-0.43 -0.12,-0.84 -0.32,-2.15 -1.01,-4.06 -0.8,-2.12 -1.02,-2.12 -1.21,-2.12 -0.13,0 -0.5,0.08 -0.71,0.28 -0.05,0.05 -0.08,0.05 -0.1,0.05 -0.13,0 -0.35,-0.45 -0.35,-0.73 0,-0.09 0,-0.21 0.31,-0.38 0.25,-0.13 0.49,-0.14 0.54,-0.14 0.62,0 1.21,1.43 1.41,1.94 0.47,1.12 1.02,2.7 1.3,4.13 z" />
<path
   style="fill:#000000;stroke-width:0"
   id="path9315"
   d="m 262.21,707.22 0.02,0 0.02,0 0.02,0 0.03,0 0.03,0 0.02,0 0.03,0 0.03,0 0.04,0.01 0.03,0 0.04,0 0.03,0 0.04,0 0.04,0.01 0.07,0 0.08,0.01 0.08,0.01 0.08,0.01 0.09,0.02 0.08,0.01 0.03,0.01 0.04,0.01 0.04,0.01 0.04,0.01 0.04,0.01 0.03,0.02 c 0.52,0.18 0.62,0.51 0.62,0.72 0,0.38 -0.39,0.62 -0.87,0.62 v -0.2 c 0.31,0 0.57,-0.15 0.57,-0.42 0,-0.68 -1.18,-0.68 -1.48,-0.68 h -0.34 c 0.28,1.02 1.06,1.1 1.25,1.1 v 0.2 c -0.84,0 -1.97,-0.65 -1.97,-1.84 0,-0.7 0.44,-1.31 1.26,-1.31 1.18,0 1.73,0.69 1.73,0.79 0,0.04 -0.06,0.12 -0.12,0.12 -0.04,0 -0.06,-0.02 -0.11,-0.07 -0.54,-0.64 -1.36,-0.64 -1.49,-0.64 -0.41,0 -0.69,0.27 -0.69,0.84 0,0.1 0,0.24 0.08,0.62 z" />
</g><g
     id="g10444"><path
       style="fill:none;stroke:#000000;stroke-width:1;stroke-linecap:butt;stroke-linejoin:miter;stroke-miterlimit:4;stroke-opacity:1;stroke-dasharray:6, 2;stroke-dashoffset:0"
       d="m 210,712.55005 0,50"
       id="path10434" /><path
       id="path10436"
       d="m 110,712.55005 0,-50"
       style="fill:none;stroke:#000000;stroke-width:1;stroke-linecap:butt;stroke-linejoin:miter;stroke-miterlimit:4;stroke-opacity:1;stroke-dasharray:6, 2;stroke-dashoffset:0" /></g></g><g
   id="g10528"><g
     id="g5071"
     transform="matrix(0.45,0,0,-0.45,149.99996,1052.55)"><path
       style="fill:none;stroke:#000000;stroke-width:1px;stroke-linecap:butt;stroke-linejoin:miter;stroke-opacity:1;marker-end:url(#Arrow2Mend)"
       d="m 95,712.55005 125,0"
       id="path5073"
       transform="matrix(2.2222222,0,0,-2.2222222,0,2339)" /><path
       style="fill:none;stroke:#000000;stroke-width:1px;stroke-linecap:butt;stroke-linejoin:miter;stroke-opacity:1;marker-end:url(#Arrow2Mend)"
       d="m 160,787.55005 0,-160"
       id="path5075"
       transform="matrix(2.2222222,0,0,-2.2222222,0,2339)" /><path
       style="fill:none;stroke:#000000;stroke-width:1.5;stroke-linecap:butt;stroke-linejoin:miter;stroke-miterlimit:4;stroke-opacity:1;stroke-dasharray:none"
       d="m 110.00004,662.55006 100,100"
       id="path5077"
       transform="matrix(2.2222222,0,0,-2.2222222,0,2339)"
       sodipodi:nodetypes="cc" /></g><g
     id="g5880"
     transform="translate(150,0)"><path
       style="fill:none;stroke:#000000;stroke-width:1px;stroke-linecap:butt;stroke-linejoin:miter;stroke-opacity:1;marker-end:url(#Arrow2Mend)"
       d="m 160,667.55005 -45,0"
       id="path5882"
       sodipodi:nodetypes="cc" /><path
       style="fill:none;stroke:#000000;stroke-width:1px;stroke-linecap:butt;stroke-linejoin:miter;stroke-opacity:1;marker-end:url(#Arrow2Mend)"
       d="m 160,677.55005 -35,0"
       id="path5884"
       sodipodi:nodetypes="cc" /><path
       style="fill:none;stroke:#000000;stroke-width:1px;stroke-linecap:butt;stroke-linejoin:miter;stroke-opacity:1;marker-end:url(#Arrow2Mend)"
       d="m 160,687.55005 -25,0"
       id="path5886"
       sodipodi:nodetypes="cc" /><path
       style="fill:none;stroke:#000000;stroke-width:1px;stroke-linecap:butt;stroke-linejoin:miter;stroke-opacity:1;marker-end:url(#Arrow2Mend)"
       d="m 160,697.55005 -15,0"
       id="path5888"
       sodipodi:nodetypes="cc" /></g><g
     transform="matrix(-1,0,0,-1,470.17563,1425.1193)"
     id="g5890"><path
       sodipodi:nodetypes="cc"
       id="path5892"
       d="m 160,667.55005 -45,0"
       style="fill:none;stroke:#000000;stroke-width:1px;stroke-linecap:butt;stroke-linejoin:miter;stroke-opacity:1;marker-end:url(#Arrow2Mend)" /><path
       sodipodi:nodetypes="cc"
       id="path5894"
       d="m 160,677.55005 -35,0"
       style="fill:none;stroke:#000000;stroke-width:1px;stroke-linecap:butt;stroke-linejoin:miter;stroke-opacity:1;marker-end:url(#Arrow2Mend)" /><path
       sodipodi:nodetypes="cc"
       id="path5896"
       d="m 160,687.55005 -25,0"
       style="fill:none;stroke:#000000;stroke-width:1px;stroke-linecap:butt;stroke-linejoin:miter;stroke-opacity:1;marker-end:url(#Arrow2Mend)" /><path
       sodipodi:nodetypes="cc"
       id="path5898"
       d="m 160,697.55005 -15,0"
       style="fill:none;stroke:#000000;stroke-width:1px;stroke-linecap:butt;stroke-linejoin:miter;stroke-opacity:1;marker-end:url(#Arrow2Mend)" /></g><path
     style="fill:none;stroke:#000000;stroke-width:1px;stroke-linecap:butt;stroke-linejoin:miter;stroke-opacity:1;marker-end:url(#Arrow2Mend)"
     d="m 310,717.55005 5,0"
     id="path5973" /><path
     id="path6161"
     d="m 309.82437,707.56927 -5,0"
     style="fill:none;stroke:#000000;stroke-width:1px;stroke-linecap:butt;stroke-linejoin:miter;stroke-opacity:1;marker-end:url(#Arrow2Mend)" /><g
     id="g6708"
     transform="matrix(1.35,0,0,-1.35,13.981844,1590.186)"
     xml:space="preserve"
     stroke-miterlimit="10.433"
     fill-rule="even-odd"
     font-style="normal"
     font-variant="normal"
     font-weight="normal"
     font-stretch="normal"
     font-size-adjust="none"
     letter-spacing="normal"
     word-spacing="normal"
     ns0:text="$x_2$"
     ns0:preamble=""
     style="font-style:normal;font-variant:normal;font-weight:normal;font-stretch:normal;letter-spacing:normal;word-spacing:normal;text-anchor:start;fill:none;stroke:#000000;stroke-linecap:butt;stroke-linejoin:miter;stroke-miterlimit:10.43299961;stroke-opacity:1;stroke-dasharray:none;stroke-dashoffset:0">
<path
   d="m 226.76,710.13 0.01,0.03 0,0.03 0.01,0.03 0.01,0.04 0.01,0.03 0.01,0.05 0.02,0.04 0.01,0.04 0.02,0.05 0.01,0.05 0.02,0.05 0.02,0.05 0.03,0.05 0.02,0.05 0.03,0.05 0.02,0.05 0.03,0.04 0.03,0.05 0.04,0.05 0.03,0.04 0.04,0.05 0.04,0.04 0.04,0.03 0.05,0.04 0.04,0.03 0.05,0.03 0.03,0.01 0.02,0.02 0.03,0.01 0.03,0.01 0.02,0.01 0.03,0 0.03,0.01 0.03,0.01 0.03,0 0.03,0 0.03,0.01 0.04,0 c 0.05,0 0.29,0 0.49,-0.13 -0.28,-0.05 -0.47,-0.3 -0.47,-0.54 0,-0.16 0.11,-0.35 0.38,-0.35 0.21,0 0.53,0.18 0.53,0.58 0,0.52 -0.58,0.66 -0.92,0.66 -0.58,0 -0.93,-0.53 -1.05,-0.76 -0.25,0.66 -0.79,0.76 -1.08,0.76 -1.03,0 -1.6,-1.29 -1.6,-1.54 0,-0.1 0.1,-0.1 0.12,-0.1 0.08,0 0.11,0.02 0.13,0.11 0.34,1.06 1,1.31 1.33,1.31 0.19,0 0.54,-0.09 0.54,-0.67 0,-0.31 -0.17,-0.98 -0.54,-2.37 -0.15,-0.62 -0.5,-1.04 -0.94,-1.04 -0.06,0 -0.29,0 -0.5,0.13 0.25,0.05 0.47,0.26 0.47,0.54 0,0.27 -0.22,0.35 -0.37,0.35 -0.3,0 -0.55,-0.26 -0.55,-0.58 0,-0.46 0.5,-0.66 0.94,-0.66 0.66,0 1.01,0.7 1.04,0.76 0.12,-0.37 0.48,-0.76 1.08,-0.76 1.03,0 1.59,1.29 1.59,1.54 0,0.1 -0.09,0.1 -0.12,0.1 -0.09,0 -0.1,-0.04 -0.13,-0.11 -0.32,-1.07 -1,-1.31 -1.32,-1.31 -0.39,0 -0.55,0.32 -0.55,0.66 0,0.22 0.06,0.44 0.17,0.88 z"
   id="path6710"
   style="fill:#000000;stroke-width:0" />
<path
   d="m 232.65,706.9 h -0.24 c -0.02,-0.15 -0.09,-0.57 -0.18,-0.63 -0.06,-0.05 -0.59,-0.05 -0.69,-0.05 h -1.28 c 0.73,0.65 0.97,0.85 1.39,1.17 0.52,0.42 1,0.85 1,1.51 0,0.84 -0.74,1.36 -1.64,1.36 -0.86,0 -1.45,-0.61 -1.45,-1.25 0,-0.35 0.3,-0.39 0.37,-0.39 0.17,0 0.37,0.12 0.37,0.37 0,0.13 -0.04,0.37 -0.41,0.37 0.22,0.5 0.69,0.65 1.02,0.65 0.7,0 1.06,-0.54 1.06,-1.11 0,-0.61 -0.43,-1.09 -0.65,-1.34 l -1.69,-1.66 c -0.07,-0.06 -0.07,-0.07 -0.07,-0.27 h 2.88 z"
   id="path6712"
   style="fill:#000000;stroke-width:0" />
</g><g
     style="font-style:normal;font-variant:normal;font-weight:normal;font-stretch:normal;letter-spacing:normal;word-spacing:normal;text-anchor:start;fill:none;stroke:#000000;stroke-linecap:butt;stroke-linejoin:miter;stroke-miterlimit:10.43299961;stroke-opacity:1;stroke-dasharray:none;stroke-dashoffset:0"
     ns0:preamble=""
     ns0:text="$\\sigma_{11}$"
     word-spacing="normal"
     letter-spacing="normal"
     font-size-adjust="none"
     font-stretch="normal"
     font-weight="normal"
     font-variant="normal"
     font-style="normal"
     fill-rule="even-odd"
     stroke-miterlimit="10.433"
     xml:space="preserve"
     transform="matrix(1.35,0,0,-1.35,63.951656,1680.726)"
     id="g6929">
<path
   id="path6931"
   d="m 228.59,710.84 0.02,0 0.01,0 0.02,0 0.01,0 0.02,0 0.02,0 0.01,0 0.02,0 0.02,0.01 0.02,0 0.02,0 0.02,0.01 0.03,0 0.02,0.01 0.02,0 0.02,0.01 0.02,0.01 0.01,0.01 0.02,0.01 0.02,0.01 0.02,0.01 0.01,0.02 0.01,0.01 0.01,0 0.01,0.01 0,0.01 0.01,0.01 0.01,0.01 0,0.01 0.01,0.01 0,0.01 0.01,0.01 0,0.01 0.01,0.02 0,0.01 0,0.01 0,0.01 0.01,0.02 0,0.01 0,0.02 0,0.01 0,0.02 c 0,0.24 -0.21,0.24 -0.39,0.24 h -2.27 c -1.5,0 -2.61,-1.65 -2.61,-2.83 0,-0.88 0.59,-1.58 1.49,-1.58 l 0.02,0.22 c -0.49,0 -0.89,0.36 -0.89,1.08 0,0.3 0.12,1.11 0.47,1.7 0.42,0.69 1.01,0.83 1.35,0.83 0.84,0 0.92,-0.66 0.92,-0.97 0,-0.47 -0.2,-1.28 -0.54,-1.79 -0.39,-0.59 -0.93,-0.85 -1.31,-0.85 h 0 l -0.02,-0.22 c 1.18,0 2.51,1.21 2.51,2.74 0,0.17 0,0.65 -0.31,1.09 z"
   style="fill:#000000;stroke-width:0" />
<path
   id="path6933"
   d="m 231.46,710.07 0,0 0,0.01 0,0.01 0,0.01 0,0.01 0,0 0,0.01 0,0.01 0,0 0,0.01 0,0.01 0,0 0,0.01 0,0 0,0.01 0,0.01 -0.01,0 0,0.01 0,0 0,0.01 0,0.01 -0.01,0.01 0,0 -0.01,0.01 0,0 -0.01,0.01 0,0 -0.01,0.01 -0.01,0 0,0 -0.01,0 -0.01,0.01 -0.01,0 0,0 -0.01,0 0,0 -0.01,0 -0.01,0 0,0 -0.01,0 -0.01,0 0,0 -0.01,0 -0.01,0 -0.01,0 0,0 -0.01,0 -0.01,0 -0.01,0 -0.01,0 c -0.44,-0.44 -1.08,-0.45 -1.37,-0.45 v -0.25 c 0.17,0 0.63,0 1.02,0.2 v -3.56 c 0,-0.23 0,-0.32 -0.7,-0.32 h -0.27 v -0.25 c 0.13,0.01 0.99,0.03 1.25,0.03 0.21,0 1.09,-0.02 1.24,-0.03 v 0.25 h -0.26 c -0.7,0 -0.7,0.09 -0.7,0.32 z"
   style="fill:#000000;stroke-width:0" />
<path
   id="path6935"
   d="m 235.44,710.07 0,0 0,0.01 0,0.01 0,0.01 0,0.01 0,0 0,0.01 0,0.01 -0.01,0 0,0.01 0,0.01 0,0 0,0.01 0,0 0,0.01 0,0.01 0,0 0,0.01 0,0 -0.01,0.01 0,0.01 0,0.01 -0.01,0 0,0.01 -0.01,0 0,0.01 -0.01,0 0,0.01 -0.01,0 -0.01,0 -0.01,0 -0.01,0.01 0,0 -0.01,0 0,0 -0.01,0 -0.01,0 0,0 -0.01,0 0,0 -0.01,0 -0.01,0 -0.01,0 0,0 -0.01,0 -0.01,0 -0.01,0 -0.01,0 0,0 -0.01,0 c -0.45,-0.44 -1.08,-0.45 -1.37,-0.45 v -0.25 c 0.17,0 0.63,0 1.01,0.2 v -3.56 c 0,-0.23 0,-0.32 -0.7,-0.32 h -0.26 v -0.25 c 0.12,0.01 0.98,0.03 1.24,0.03 0.22,0 1.09,-0.02 1.25,-0.03 v 0.25 h -0.27 c -0.69,0 -0.69,0.09 -0.69,0.32 z"
   style="fill:#000000;stroke-width:0" />
</g><g
     id="g7348"
     transform="matrix(1.35,0,0,-1.35,45.951656,1658.726)"
     xml:space="preserve"
     stroke-miterlimit="10.433"
     fill-rule="even-odd"
     font-style="normal"
     font-variant="normal"
     font-weight="normal"
     font-stretch="normal"
     font-size-adjust="none"
     letter-spacing="normal"
     word-spacing="normal"
     ns0:text="$\\sigma_{e}$"
     ns0:preamble=""
     style="font-style:normal;font-variant:normal;font-weight:normal;font-stretch:normal;letter-spacing:normal;word-spacing:normal;text-anchor:start;fill:none;stroke:#000000;stroke-linecap:butt;stroke-linejoin:miter;stroke-miterlimit:10.43299961;stroke-opacity:1;stroke-dasharray:none;stroke-dashoffset:0">
<path
   style="fill:#000000;stroke-width:0"
   d="m 228.59,710.84 0.02,0 0.01,0 0.02,0 0.01,0 0.02,0 0.02,0 0.01,0 0.02,0 0.02,0.01 0.02,0 0.02,0 0.02,0.01 0.03,0 0.02,0.01 0.02,0 0.02,0.01 0.02,0.01 0.01,0.01 0.02,0.01 0.02,0.01 0.02,0.01 0.01,0.02 0.01,0.01 0.01,0 0.01,0.01 0,0.01 0.01,0.01 0.01,0.01 0,0.01 0.01,0.01 0,0.01 0.01,0.01 0,0.01 0.01,0.02 0,0.01 0,0.01 0,0.01 0.01,0.02 0,0.01 0,0.02 0,0.01 0,0.02 c 0,0.24 -0.21,0.24 -0.39,0.24 h -2.27 c -1.5,0 -2.61,-1.65 -2.61,-2.83 0,-0.88 0.59,-1.58 1.49,-1.58 l 0.02,0.22 c -0.49,0 -0.89,0.36 -0.89,1.08 0,0.3 0.12,1.11 0.47,1.7 0.42,0.69 1.01,0.83 1.35,0.83 0.84,0 0.92,-0.66 0.92,-0.97 0,-0.47 -0.2,-1.28 -0.54,-1.79 -0.39,-0.59 -0.93,-0.85 -1.31,-0.85 h 0 l -0.02,-0.22 c 1.18,0 2.51,1.21 2.51,2.74 0,0.17 0,0.65 -0.31,1.09 z"
   id="path7350" />
<path
   style="fill:#000000;stroke-width:0"
   d="m 230.69,707.22 0.02,0 0.02,0 0.02,0 0.03,0 0.02,0 0.03,0 0.03,0 0.03,0 0.03,0.01 0.04,0 0.03,0 0.04,0 0.04,0 0.03,0.01 0.08,0 0.08,0.01 0.08,0.01 0.08,0.01 0.08,0.02 0.08,0.01 0.04,0.01 0.04,0.01 0.04,0.01 0.04,0.01 0.03,0.01 0.04,0.02 c 0.52,0.18 0.61,0.51 0.61,0.72 0,0.38 -0.38,0.62 -0.86,0.62 v -0.2 c 0.31,0 0.56,-0.15 0.56,-0.42 0,-0.68 -1.17,-0.68 -1.47,-0.68 h -0.35 c 0.29,1.02 1.06,1.1 1.26,1.1 v 0.2 c -0.84,0 -1.97,-0.65 -1.97,-1.84 0,-0.7 0.44,-1.31 1.26,-1.31 1.18,0 1.73,0.69 1.73,0.79 0,0.04 -0.07,0.12 -0.12,0.12 -0.04,0 -0.06,-0.02 -0.11,-0.07 -0.55,-0.64 -1.36,-0.64 -1.49,-0.64 -0.42,0 -0.7,0.27 -0.7,0.84 0,0.1 0,0.24 0.09,0.62 z"
   id="path7352" />
</g><g
     id="g8434"
     transform="matrix(1.35,0,0,-1.35,13.981844,1620.186)"
     xml:space="preserve"
     stroke-miterlimit="10.433"
     fill-rule="even-odd"
     font-style="normal"
     font-variant="normal"
     font-weight="normal"
     font-stretch="normal"
     font-size-adjust="none"
     letter-spacing="normal"
     word-spacing="normal"
     ns0:text="$h/2$"
     ns0:preamble=""
     style="font-style:normal;font-variant:normal;font-weight:normal;font-stretch:normal;letter-spacing:normal;word-spacing:normal;text-anchor:start;fill:none;stroke:#000000;stroke-linecap:butt;stroke-linejoin:miter;stroke-miterlimit:10.43299961;stroke-opacity:1;stroke-dasharray:none;stroke-dashoffset:0">
<path
   style="fill:#000000;stroke-width:0"
   d="m 226.29,713.93 0,0 0,0 0,0 0,0 0,0 0,0.01 0,0 0,0 0,0.01 0,0 0,0.01 0,0 0,0.01 -0.01,0 0,0.01 0,0 0,0.01 -0.01,0 0,0.01 -0.01,0 0,0 0,0.01 0,0 -0.01,0 0,0 0,0.01 -0.01,0 0,0 0,0 -0.01,0 0,0 0,0.01 -0.01,0 0,0 -0.01,0 0,0 -0.01,0 0,0 0,0 -0.01,0.01 -0.01,0 0,0 -0.01,0 0,0 -0.01,0 c -0.23,0 -0.95,-0.08 -1.21,-0.1 -0.08,-0.01 -0.19,-0.02 -0.19,-0.2 0,-0.12 0.09,-0.12 0.24,-0.12 0.48,0 0.49,-0.07 0.49,-0.17 l -0.03,-0.2 -1.44,-5.74 c -0.04,-0.14 -0.04,-0.16 -0.04,-0.22 0,-0.23 0.2,-0.28 0.29,-0.28 0.16,0 0.32,0.12 0.37,0.26 l 0.19,0.76 0.22,0.9 c 0.06,0.22 0.12,0.43 0.17,0.66 0.02,0.06 0.1,0.39 0.1,0.45 0.03,0.09 0.34,0.65 0.68,0.92 0.22,0.16 0.53,0.35 0.96,0.35 0.43,0 0.54,-0.34 0.54,-0.7 0,-0.54 -0.38,-1.62 -0.62,-2.23 -0.08,-0.23 -0.13,-0.35 -0.13,-0.55 0,-0.47 0.35,-0.82 0.82,-0.82 0.93,0 1.3,1.46 1.3,1.54 0,0.1 -0.09,0.1 -0.12,0.1 -0.1,0 -0.1,-0.03 -0.15,-0.18 -0.15,-0.53 -0.47,-1.24 -1.01,-1.24 -0.17,0 -0.24,0.1 -0.24,0.33 0,0.25 0.09,0.49 0.18,0.71 0.16,0.43 0.6,1.61 0.6,2.19 0,0.65 -0.39,1.07 -1.14,1.07 -0.63,0 -1.11,-0.31 -1.48,-0.77 z"
   id="path8436" />
<path
   style="fill:#000000;stroke-width:0"
   d="m 233.54,714.22 0.01,0 0,0.01 0,0 0,0.01 0,0 0.01,0.01 0,0.01 0,0.01 0.01,0.01 0,0.01 0,0.01 0,0.01 0.01,0 0,0.01 0,0.01 0,0 0,0.01 0.01,0 0,0.01 0,0.01 0,0 0,0 0,0.01 0,0 0,0.01 0,0 0,0 0,0 0,0.01 0,0 0,0 0,0 0,0 0,0 0,0.01 c 0,0.11 -0.09,0.19 -0.2,0.19 -0.07,0 -0.13,-0.02 -0.16,-0.08 l -3.46,-9.5 c -0.05,-0.13 -0.05,-0.17 -0.05,-0.18 0,-0.11 0.09,-0.2 0.2,-0.2 0.13,0 0.16,0.07 0.22,0.24 z"
   id="path8438" />
<path
   style="fill:#000000;stroke-width:0"
   d="m 235.41,707.89 1.06,1.03 c 1.55,1.37 2.15,1.91 2.15,2.91 0,1.13 -0.89,1.93 -2.11,1.93 -1.13,0 -1.86,-0.92 -1.86,-1.81 0,-0.55 0.5,-0.55 0.53,-0.55 0.17,0 0.51,0.12 0.51,0.52 0,0.26 -0.18,0.52 -0.52,0.52 -0.08,0 -0.1,0 -0.13,-0.01 0.23,0.65 0.76,1.02 1.34,1.02 0.91,0 1.34,-0.81 1.34,-1.62 0,-0.8 -0.5,-1.59 -1.05,-2.21 l -1.91,-2.13 c -0.11,-0.11 -0.11,-0.13 -0.11,-0.37 h 3.69 l 0.28,1.74 h -0.25 c -0.05,-0.3 -0.11,-0.74 -0.22,-0.89 -0.06,-0.08 -0.72,-0.08 -0.94,-0.08 z"
   id="path8440" />
</g><g
     id="g9616"
     transform="matrix(1.35,0,0,-1.35,-58.018156,1738.186)"
     xml:space="preserve"
     stroke-miterlimit="10.433"
     fill-rule="even-odd"
     font-style="normal"
     font-variant="normal"
     font-weight="normal"
     font-stretch="normal"
     font-size-adjust="none"
     letter-spacing="normal"
     word-spacing="normal"
     ns0:text="$\\mathcal{M}=\\mathcal{M}_e$"
     ns0:preamble=""
     style="font-style:normal;font-variant:normal;font-weight:normal;font-stretch:normal;letter-spacing:normal;word-spacing:normal;text-anchor:start;fill:none;stroke:#000000;stroke-linecap:butt;stroke-linejoin:miter;stroke-miterlimit:10.43299961;stroke-opacity:1;stroke-dasharray:none;stroke-dashoffset:0">
<path
   style="fill:#000000;stroke-width:0"
   d="m 227.27,712.69 0.02,-0.12 0.03,-0.13 0.03,-0.13 0.03,-0.14 0.03,-0.14 0.03,-0.14 0.06,-0.3 0.07,-0.3 0.07,-0.31 0.07,-0.32 0.08,-0.31 0.09,-0.32 0.08,-0.31 0.09,-0.3 0.09,-0.29 0.05,-0.14 0.05,-0.14 0.05,-0.13 0.05,-0.14 0.05,-0.12 0.05,-0.12 0.05,-0.12 0.05,-0.11 c 0.22,-0.43 0.33,-0.65 0.43,-0.65 0.04,0 0.06,0 0.24,0.18 0.76,0.73 1.28,1.31 1.97,2.1 l 2.19,2.54 c -0.14,-0.84 -0.5,-3.08 -0.5,-4.25 0,-0.27 0.01,-0.53 0.04,-0.8 0.01,-0.11 0.05,-0.4 0.47,-0.4 0.41,0 1.17,0.44 1.17,0.64 0,0.06 -0.06,0.07 -0.09,0.07 -0.13,0 -0.33,-0.09 -0.44,-0.16 -0.24,0.03 -0.26,0.19 -0.28,0.42 -0.03,0.32 -0.03,0.62 -0.03,0.66 0,1.1 0.44,4.12 0.73,5.36 0.01,0.07 0.02,0.09 0.02,0.17 0,0.04 -0.01,0.15 -0.08,0.15 -0.04,0 -0.05,-0.01 -0.24,-0.23 -0.93,-1.14 -3.84,-4.63 -4.83,-5.46 -0.25,0.53 -0.43,0.9 -0.78,2.3 -0.29,1.13 -0.46,1.95 -0.62,2.92 -0.03,0.14 -0.08,0.41 -0.08,0.43 -0.03,0.05 -0.08,0.05 -0.11,0.05 -0.18,0 -0.6,-0.22 -0.63,-0.43 -0.12,-0.84 -0.32,-2.15 -1.02,-4.06 -0.79,-2.12 -1.01,-2.12 -1.2,-2.12 -0.13,0 -0.5,0.08 -0.72,0.28 -0.05,0.05 -0.07,0.05 -0.09,0.05 -0.14,0 -0.36,-0.45 -0.36,-0.73 0,-0.09 0,-0.21 0.32,-0.38 0.25,-0.13 0.49,-0.14 0.54,-0.14 0.62,0 1.2,1.43 1.4,1.94 0.47,1.12 1.03,2.7 1.31,4.13 z"
   id="path9618" />
<path
   style="fill:#000000;stroke-width:0"
   d="m 245.01,710.38 0.03,0 0.02,0 0.03,0 0.02,0 0.01,0 0.02,0 0.01,0.01 0.02,0 0.01,0 0.01,0 0.02,0.01 0.01,0 0.01,0.01 0.01,0 0.02,0.01 0.01,0 0.01,0.01 0.01,0.01 0.01,0 0.01,0.01 0,0.01 0.01,0.01 0,0.01 0,0 0.01,0.01 0,0 0,0.01 0.01,0.01 0,0 0,0.01 0,0.01 0,0.01 0,0 0,0.01 0.01,0.01 0,0.01 0,0.01 c 0,0.2 -0.19,0.2 -0.33,0.2 h -5.97 c -0.14,0 -0.33,0 -0.33,-0.2 0,-0.2 0.19,-0.2 0.34,-0.2 z"
   id="path9620" />
<path
   style="fill:#000000;stroke-width:0"
   d="m 245.02,708.45 0.01,0 0.01,0 0.03,0 0.03,0 0.01,0 0.02,0 0.01,0 0.01,0 0.02,0.01 0.01,0 0.02,0 0.01,0 0.01,0.01 0.01,0 0.02,0.01 0.01,0 0.01,0.01 0.01,0.01 0.01,0 0.01,0.01 0.01,0.01 0,0.01 0,0 0.01,0.01 0,0 0,0.01 0.01,0 0,0.01 0,0.01 0.01,0 0,0.01 0,0.01 0,0.01 0,0 0,0.01 0,0.01 0.01,0.01 0,0.01 0,0.01 c 0,0.2 -0.19,0.2 -0.34,0.2 h -5.95 c -0.15,0 -0.34,0 -0.34,-0.2 0,-0.2 0.19,-0.2 0.33,-0.2 z"
   id="path9622" />
<path
   style="fill:#000000;stroke-width:0"
   d="m 252.51,712.69 0.03,-0.12 0.03,-0.13 0.02,-0.13 0.03,-0.14 0.03,-0.14 0.03,-0.14 0.07,-0.3 0.06,-0.3 0.07,-0.31 0.08,-0.32 0.08,-0.31 0.08,-0.32 0.09,-0.31 0.08,-0.3 0.1,-0.29 0.04,-0.14 0.05,-0.14 0.05,-0.13 0.05,-0.14 0.05,-0.12 0.05,-0.12 0.06,-0.12 0.05,-0.11 c 0.22,-0.43 0.33,-0.65 0.43,-0.65 0.04,0 0.06,0 0.24,0.18 0.75,0.73 1.27,1.31 1.97,2.1 l 2.18,2.54 c -0.14,-0.84 -0.5,-3.08 -0.5,-4.25 0,-0.27 0.01,-0.53 0.04,-0.8 0.01,-0.11 0.05,-0.4 0.47,-0.4 0.42,0 1.18,0.44 1.18,0.64 0,0.06 -0.06,0.07 -0.09,0.07 -0.13,0 -0.33,-0.09 -0.44,-0.16 -0.24,0.03 -0.26,0.19 -0.28,0.42 -0.03,0.32 -0.03,0.62 -0.03,0.66 0,1.1 0.44,4.12 0.73,5.36 0.01,0.07 0.02,0.09 0.02,0.17 0,0.04 -0.01,0.15 -0.08,0.15 -0.04,0 -0.05,-0.01 -0.24,-0.23 -0.94,-1.14 -3.85,-4.63 -4.84,-5.46 -0.24,0.53 -0.42,0.9 -0.77,2.3 -0.29,1.13 -0.46,1.95 -0.63,2.92 -0.03,0.14 -0.08,0.41 -0.08,0.43 -0.03,0.05 -0.08,0.05 -0.11,0.05 -0.18,0 -0.6,-0.22 -0.63,-0.43 -0.12,-0.84 -0.32,-2.15 -1.01,-4.06 -0.8,-2.12 -1.02,-2.12 -1.21,-2.12 -0.13,0 -0.5,0.08 -0.71,0.28 -0.05,0.05 -0.08,0.05 -0.1,0.05 -0.13,0 -0.35,-0.45 -0.35,-0.73 0,-0.09 0,-0.21 0.31,-0.38 0.25,-0.13 0.49,-0.14 0.54,-0.14 0.62,0 1.21,1.43 1.41,1.94 0.47,1.12 1.02,2.7 1.3,4.13 z"
   id="path9624" />
<path
   style="fill:#000000;stroke-width:0"
   d="m 262.21,707.22 0.02,0 0.02,0 0.02,0 0.03,0 0.03,0 0.02,0 0.03,0 0.03,0 0.04,0.01 0.03,0 0.04,0 0.03,0 0.04,0 0.04,0.01 0.07,0 0.08,0.01 0.08,0.01 0.08,0.01 0.09,0.02 0.08,0.01 0.03,0.01 0.04,0.01 0.04,0.01 0.04,0.01 0.04,0.01 0.03,0.02 c 0.52,0.18 0.62,0.51 0.62,0.72 0,0.38 -0.39,0.62 -0.87,0.62 v -0.2 c 0.31,0 0.57,-0.15 0.57,-0.42 0,-0.68 -1.18,-0.68 -1.48,-0.68 h -0.34 c 0.28,1.02 1.06,1.1 1.25,1.1 v 0.2 c -0.84,0 -1.97,-0.65 -1.97,-1.84 0,-0.7 0.44,-1.31 1.26,-1.31 1.18,0 1.73,0.69 1.73,0.79 0,0.04 -0.06,0.12 -0.12,0.12 -0.04,0 -0.06,-0.02 -0.11,-0.07 -0.54,-0.64 -1.36,-0.64 -1.49,-0.64 -0.41,0 -0.69,0.27 -0.69,0.84 0,0.1 0,0.24 0.08,0.62 z"
   id="path9626" />
</g><g
     transform="translate(150,-1.1718751e-6)"
     id="g10448"><path
       id="path10450"
       d="m 210,712.55005 0,50"
       style="fill:none;stroke:#000000;stroke-width:1;stroke-linecap:butt;stroke-linejoin:miter;stroke-miterlimit:4;stroke-opacity:1;stroke-dasharray:6, 2;stroke-dashoffset:0" /><path
       style="fill:none;stroke:#000000;stroke-width:1;stroke-linecap:butt;stroke-linejoin:miter;stroke-miterlimit:4;stroke-opacity:1;stroke-dasharray:6, 2;stroke-dashoffset:0"
       d="m 110,712.55005 0,-50"
       id="path10452" /></g></g></g></svg>