<?xml version="1.0" encoding="UTF-8" standalone="no"?>
<!-- Created with Inkscape (http://www.inkscape.org/) -->

<svg
   xmlns:dc="http://purl.org/dc/elements/1.1/"
   xmlns:cc="http://creativecommons.org/ns#"
   xmlns:rdf="http://www.w3.org/1999/02/22-rdf-syntax-ns#"
   xmlns:svg="http://www.w3.org/2000/svg"
   xmlns="http://www.w3.org/2000/svg"
   xmlns:sodipodi="http://sodipodi.sourceforge.net/DTD/sodipodi-0.dtd"
   xmlns:inkscape="http://www.inkscape.org/namespaces/inkscape"
   sodipodi:docname="T1_Ch03-0003.svg"
   xml:space="preserve"
   height="126.98844"
   width="380.10156"
   inkscape:version="0.47 r22583"
   version="1.1"
   id="svg2"><metadata
     id="metadata8"><rdf:RDF><cc:Work
         rdf:about=""><dc:format>image/svg+xml</dc:format><dc:type
           rdf:resource="http://purl.org/dc/dcmitype/StillImage" /><dc:title /></cc:Work></rdf:RDF></metadata><defs
     id="defs6"><marker
       inkscape:stockid="Arrow2Mstart"
       orient="auto"
       refY="0"
       refX="0"
       id="Arrow2Mstart"
       style="overflow:visible"><path
         id="path3909"
         style="font-size:12px;fill-rule:evenodd;stroke-width:0.625;stroke-linejoin:round"
         d="M 8.7185878,4.0337352 -2.2072895,0.01601326 8.7185884,-4.0017078 c -1.7454984,2.3720609 -1.7354408,5.6174519 -6e-7,8.035443 z"
         transform="scale(0.6,0.6)" /></marker><marker
       inkscape:stockid="Arrow2Mend"
       orient="auto"
       refY="0"
       refX="0"
       id="Arrow2Mend"
       style="overflow:visible"><path
         id="path3912"
         style="font-size:12px;fill-rule:evenodd;stroke-width:0.625;stroke-linejoin:round"
         d="M 8.7185878,4.0337352 -2.2072895,0.01601326 8.7185884,-4.0017078 c -1.7454984,2.3720609 -1.7354408,5.6174519 -6e-7,8.035443 z"
         transform="scale(-0.6,-0.6)" /></marker><inkscape:perspective
       sodipodi:type="inkscape:persp3d"
       inkscape:vp_x="0 : 0.5 : 1"
       inkscape:vp_y="866.02538 : 499.99998 : 0"
       inkscape:vp_z="655.71904 : 378.62422 : 1"
       inkscape:persp3d-origin="0.5 : 0.33333333 : 1"
       id="perspective10" /></defs><sodipodi:namedview
     pagecolor="#ffffff"
     bordercolor="#666666"
     borderopacity="1"
     objecttolerance="10"
     gridtolerance="10"
     guidetolerance="10"
     inkscape:pageopacity="0"
     inkscape:pageshadow="2"
     inkscape:window-width="1280"
     inkscape:window-height="717"
     id="namedview4"
     showgrid="true"
     inkscape:zoom="1.8101934"
     inkscape:cx="179.5172"
     inkscape:cy="41.457113"
     inkscape:window-x="0"
     inkscape:window-y="29"
     inkscape:window-maximized="1"
     inkscape:current-layer="g12"><inkscape:grid
       type="xygrid"
       id="grid3010"
       empspacing="5"
       visible="true"
       enabled="true"
       snapvisiblegridlinesonly="true" /></sodipodi:namedview><g
     id="g12"
     inkscape:groupmode="layer"
     inkscape:label="MS1_ch03"
     transform="matrix(0.45,0,0,-0.45,-170.39844,970.66402)"><g
   id="g3875"
   transform="translate(11.037221,0)"><rect
     transform="matrix(2.2222222,0,0,-2.2222222,0,2339)"
     y="137.55005"
     x="185"
     height="45"
     width="45"
     id="rect3869"
     style="fill:none;stroke:#000000;stroke-width:1;stroke-linejoin:bevel;stroke-miterlimit:4;stroke-opacity:1;stroke-dasharray:none;stroke-dashoffset:0" /><path
     id="path3871"
     d="m 511.11111,2033.3332 44.44444,44.4445 -99.99999,0 -44.44445,-44.4445"
     style="fill:none;stroke:#000000;stroke-width:2.22222209px;stroke-linecap:butt;stroke-linejoin:bevel;stroke-opacity:1" /><path
     transform="matrix(2.2222222,0,0,-2.2222222,0,2339)"
     id="path3873"
     d="m 250,117.55005 -3e-5,45 -19.99997,20"
     style="fill:none;stroke:#000000;stroke-width:1px;stroke-linecap:butt;stroke-linejoin:bevel;stroke-opacity:1"
     sodipodi:nodetypes="ccc" /></g><path
   style="fill:none;stroke:#000000;stroke-width:1px;stroke-linecap:butt;stroke-linejoin:miter;stroke-opacity:1;marker-start:url(#Arrow2Mstart);marker-end:url(#Arrow2Mend)"
   d="m 190,207.55005 0,-70 50,-50"
   id="path3880"
   transform="matrix(2.2222222,0,0,-2.2222222,0,2339)" /><path
   style="fill:none;stroke:#000000;stroke-width:1px;stroke-linecap:butt;stroke-linejoin:miter;stroke-opacity:1;marker-end:url(#Arrow2Mend)"
   d="m 190,137.55005 115,0"
   id="path4704"
   transform="matrix(2.2222222,0,0,-2.2222222,0,2339)" /><text
   xml:space="preserve"
   style="font-size:11px;font-style:normal;font-weight:normal;fill:#000000;fill-opacity:1;stroke:none;font-family:Bitstream Vera Sans"
   x="176.17188"
   y="136.92503"
   id="text4892"
   transform="matrix(2.2222222,0,0,-2.2222222,0,2339)"><tspan
     sodipodi:role="line"
     id="tspan4894"
     x="176.17188"
     y="136.92503">A</tspan></text>

<text
   xml:space="preserve"
   style="font-size:11px;font-style:normal;font-weight:normal;fill:#000000;fill-opacity:1;stroke:none;font-family:Bitstream Vera Sans"
   x="170.3125"
   y="186.1438"
   id="text4896"
   transform="matrix(2.2222222,0,0,-2.2222222,0,2339)"><tspan
     sodipodi:role="line"
     id="tspan4898"
     x="170.3125"
     y="186.1438">A3</tspan></text>

<text
   xml:space="preserve"
   style="font-size:11px;font-style:normal;font-weight:normal;fill:#000000;fill-opacity:1;stroke:none;font-family:Bitstream Vera Sans"
   x="197.26562"
   y="202.15942"
   id="text4900"
   transform="matrix(2.2222222,0,0,-2.2222222,0,2339)"><tspan
     sodipodi:role="line"
     id="tspan4902"
     x="197.26562"
     y="202.15942">x2</tspan></text>

<text
   xml:space="preserve"
   style="font-size:11px;font-style:normal;font-weight:normal;fill:#000000;fill-opacity:1;stroke:none;font-family:Bitstream Vera Sans"
   x="193.75"
   y="178.3313"
   id="text4904"
   transform="matrix(2.2222222,0,0,-2.2222222,0,2339)"><tspan
     sodipodi:role="line"
     id="tspan4906"
     x="193.75"
     y="178.3313">1</tspan></text>

<text
   xml:space="preserve"
   style="font-size:11px;font-style:normal;font-weight:normal;fill:#000000;fill-opacity:1;stroke:none;font-family:Bitstream Vera Sans"
   x="190.23438"
   y="125.20629"
   id="text4908"
   transform="matrix(2.2222222,0,0,-2.2222222,0,2339)"><tspan
     sodipodi:role="line"
     id="tspan4910"
     x="190.23438"
     y="125.20629">1</tspan></text>

<text
   xml:space="preserve"
   style="font-size:11px;font-style:normal;font-weight:normal;fill:#000000;fill-opacity:1;stroke:none;font-family:Bitstream Vera Sans"
   x="220.3125"
   y="151.37817"
   id="text4912"
   transform="matrix(2.2222222,0,0,-2.2222222,0,2339)"><tspan
     sodipodi:role="line"
     id="tspan4914"
     x="220.3125"
     y="151.37817">1</tspan></text>

<text
   xml:space="preserve"
   style="font-size:11px;font-style:normal;font-weight:normal;fill:#000000;fill-opacity:1;stroke:none;font-family:Bitstream Vera Sans"
   x="239.45312"
   y="150.98755"
   id="text4916"
   transform="matrix(2.2222222,0,0,-2.2222222,0,2339)"><tspan
     sodipodi:role="line"
     id="tspan4918"
     x="239.45312"
     y="150.98755">A1</tspan></text>

<text
   xml:space="preserve"
   style="font-size:11px;font-style:normal;font-weight:normal;fill:#000000;fill-opacity:1;stroke:none;font-family:Bitstream Vera Sans"
   x="306.64062"
   y="149.81567"
   id="text4920"
   transform="matrix(2.2222222,0,0,-2.2222222,0,2339)"><tspan
     sodipodi:role="line"
     id="tspan4922"
     x="306.64062"
     y="149.81567">x1</tspan></text>

<text
   xml:space="preserve"
   style="font-size:11px;font-style:normal;font-weight:normal;fill:#000000;fill-opacity:1;stroke:none;font-family:Bitstream Vera Sans"
   x="246.09375"
   y="90.050041"
   id="text4924"
   transform="matrix(2.2222222,0,0,-2.2222222,0,2339)"><tspan
     sodipodi:role="line"
     id="tspan4926"
     x="246.09375"
     y="90.050041">x3</tspan></text>

<text
   xml:space="preserve"
   style="font-size:11px;font-style:normal;font-weight:normal;fill:#000000;fill-opacity:1;stroke:none;font-family:Bitstream Vera Sans"
   x="201.95312"
   y="111.53442"
   id="text4928"
   transform="matrix(2.2222222,0,0,-2.2222222,0,2339)"><tspan
     sodipodi:role="line"
     id="tspan4930"
     x="201.95312"
     y="111.53442">A2</tspan></text>

<path
   style="fill:none;stroke:#000000;stroke-width:1px;stroke-linecap:butt;stroke-linejoin:miter;stroke-opacity:1;marker-end:url(#Arrow2Mend)"
   d="m 285,172.55005 c 45,-10 70,-15 115,-30"
   id="path4932"
   transform="matrix(2.2222222,0,0,-2.2222222,0,2339)"
   sodipodi:nodetypes="cc" /><g
   id="g5310"><path
     id="path5306"
     d="m 1166.6666,2155.5554 -33.3333,-55.5555 55.5555,-33.3333 33.3334,55.5555 -55.5556,33.3333 -166.66661,-66.6666 -33.33334,-55.5556 166.66665,66.6667"
     style="fill:none;stroke:#000000;stroke-width:2.22222209px;stroke-linecap:butt;stroke-linejoin:bevel;stroke-opacity:1" /><path
     id="path5308"
     d="m 966.66665,2033.3332 55.55555,-33.3333 166.6666,66.6667"
     style="fill:none;stroke:#000000;stroke-width:2.22222209px;stroke-linecap:butt;stroke-linejoin:bevel;stroke-opacity:1" /></g><text
   xml:space="preserve"
   style="font-size:11px;font-style:normal;font-weight:normal;fill:#000000;fill-opacity:1;stroke:none;font-family:Bitstream Vera Sans"
   x="523.04688"
   y="109.19067"
   id="text5314"
   transform="matrix(2.2222222,0,0,-2.2222222,0,2339)"><tspan
     sodipodi:role="line"
     id="tspan5316"
     x="523.04688"
     y="109.19067">A1'</tspan></text>

<text
   xml:space="preserve"
   style="font-size:11px;font-style:normal;font-weight:normal;fill:#000000;fill-opacity:1;stroke:none;font-family:Bitstream Vera Sans"
   x="455.85938"
   y="168.56567"
   id="text5318"
   transform="matrix(2.2222222,0,0,-2.2222222,0,2339)"><tspan
     sodipodi:role="line"
     id="tspan5320"
     x="455.85938"
     y="168.56567">A3'</tspan></text>

<text
   xml:space="preserve"
   style="font-size:11px;font-style:normal;font-weight:normal;fill:#000000;fill-opacity:1;stroke:none;font-family:Bitstream Vera Sans"
   x="422.65625"
   y="145.90942"
   id="text5322"
   transform="matrix(2.2222222,0,0,-2.2222222,0,2339)"><tspan
     sodipodi:role="line"
     id="tspan5324"
     x="422.65625"
     y="145.90942">A'</tspan></text>

<text
   xml:space="preserve"
   style="font-size:11px;font-style:normal;font-weight:normal;fill:#000000;fill-opacity:1;stroke:none;font-family:Bitstream Vera Sans"
   x="439.84375"
   y="103.72192"
   id="text5326"
   transform="matrix(2.2222222,0,0,-2.2222222,0,2339)"><tspan
     sodipodi:role="line"
     id="tspan5328"
     x="439.84375"
     y="103.72192">A2'</tspan></text>

</g></svg>