<?xml version="1.0" encoding="UTF-8" standalone="no"?>
<!-- Created with Inkscape (http://www.inkscape.org/) -->

<svg
   xmlns:ns0="http://www.iki.fi/pav/software/textext/"
   xmlns:dc="http://purl.org/dc/elements/1.1/"
   xmlns:cc="http://creativecommons.org/ns#"
   xmlns:rdf="http://www.w3.org/1999/02/22-rdf-syntax-ns#"
   xmlns:svg="http://www.w3.org/2000/svg"
   xmlns="http://www.w3.org/2000/svg"
   xmlns:sodipodi="http://sodipodi.sourceforge.net/DTD/sodipodi-0.dtd"
   xmlns:inkscape="http://www.inkscape.org/namespaces/inkscape"
   sodipodi:docname="MS1_ch07.pdf"
   xml:space="preserve"
   height="115.12596"
   width="241.07947"
   inkscape:version="0.47 r22583"
   version="1.1"
   id="svg2"><sodipodi:namedview
     pagecolor="#ffffff"
     bordercolor="#666666"
     borderopacity="1"
     objecttolerance="10"
     gridtolerance="10"
     guidetolerance="10"
     inkscape:pageopacity="0"
     inkscape:pageshadow="2"
     inkscape:window-width="1278"
     inkscape:window-height="746"
     id="namedview4"
     showgrid="true"
     inkscape:zoom="0.63418248"
     inkscape:cx="367.05021"
     inkscape:cy="2.3943226"
     inkscape:window-x="0"
     inkscape:window-y="28"
     inkscape:window-maximized="0"
     inkscape:current-layer="g12"><inkscape:grid
       id="grid2822"
       type="xygrid"
       empspacing="5"
       visible="true"
       enabled="true"
       snapvisiblegridlinesonly="true" /></sodipodi:namedview><metadata
     id="metadata8"><rdf:RDF><cc:Work
         rdf:about=""><dc:format>image/svg+xml</dc:format><dc:type
           rdf:resource="http://purl.org/dc/dcmitype/StillImage" /><dc:title></dc:title></cc:Work></rdf:RDF></metadata><defs
     id="defs6"><marker
       style="overflow:visible"
       id="Arrow2Mend"
       refX="0"
       refY="0"
       orient="auto"
       inkscape:stockid="Arrow2Mend"><path
         transform="scale(-0.6,-0.6)"
         d="M 8.7185878,4.0337352 -2.2072895,0.01601326 8.7185884,-4.0017078 c -1.7454984,2.3720609 -1.7354408,5.6174519 -6e-7,8.035443 z"
         style="font-size:12px;fill-rule:evenodd;stroke-width:0.625;stroke-linejoin:round"
         id="path3628" /></marker><marker
       style="overflow:visible"
       id="Arrow2Mstart"
       refX="0"
       refY="0"
       orient="auto"
       inkscape:stockid="Arrow2Mstart"><path
         transform="scale(0.6,0.6)"
         d="M 8.7185878,4.0337352 -2.2072895,0.01601326 8.7185884,-4.0017078 c -1.7454984,2.3720609 -1.7354408,5.6174519 -6e-7,8.035443 z"
         style="font-size:12px;fill-rule:evenodd;stroke-width:0.625;stroke-linejoin:round"
         id="path3625" /></marker><inkscape:perspective
       id="perspective10"
       inkscape:persp3d-origin="0.5 : 0.33333333 : 1"
       inkscape:vp_z="1 : 0.5 : 1"
       inkscape:vp_y="0 : 1000 : 0"
       inkscape:vp_x="0 : 0.5 : 1"
       sodipodi:type="inkscape:persp3d" /></defs><g
     transform="matrix(0.45,0,0,-0.45,171.07946,669.04193)"
     inkscape:label="MS1_ch07"
     inkscape:groupmode="layer"
     id="g12"><g
   ns0:preamble=""
   ns0:text="$x_1$"
   word-spacing="normal"
   letter-spacing="normal"
   font-size-adjust="none"
   font-stretch="normal"
   font-weight="normal"
   font-variant="normal"
   font-style="normal"
   fill-rule="even-odd"
   stroke-miterlimit="10.433"
   xml:space="preserve"
   transform="matrix(2,0,0,2,-309.28444,-78.426775)"
   id="content"
   style="font-style:normal;font-variant:normal;font-weight:normal;font-stretch:normal;letter-spacing:normal;word-spacing:normal;text-anchor:start;fill:none;stroke:#000000;stroke-linecap:butt;stroke-linejoin:miter;stroke-miterlimit:10.43299961;stroke-opacity:1;stroke-dasharray:none;stroke-dashoffset:0">
<path
   id="path4438"
   d="m 226.76,710.13 0.01,0.03 0,0.03 0.01,0.03 0.01,0.04 0.01,0.03 0.01,0.05 0.02,0.04 0.01,0.04 0.02,0.05 0.01,0.05 0.02,0.05 0.02,0.05 0.03,0.05 0.02,0.05 0.03,0.05 0.02,0.05 0.03,0.04 0.03,0.05 0.04,0.05 0.03,0.04 0.04,0.05 0.04,0.04 0.04,0.03 0.05,0.04 0.04,0.03 0.05,0.03 0.03,0.01 0.02,0.02 0.03,0.01 0.03,0.01 0.02,0.01 0.03,0 0.03,0.01 0.03,0.01 0.03,0 0.03,0 0.03,0.01 0.04,0 c 0.05,0 0.29,0 0.49,-0.13 -0.28,-0.05 -0.47,-0.3 -0.47,-0.54 0,-0.16 0.11,-0.35 0.38,-0.35 0.21,0 0.53,0.18 0.53,0.58 0,0.52 -0.58,0.66 -0.92,0.66 -0.58,0 -0.93,-0.53 -1.05,-0.76 -0.25,0.66 -0.79,0.76 -1.08,0.76 -1.03,0 -1.6,-1.29 -1.6,-1.54 0,-0.1 0.1,-0.1 0.12,-0.1 0.08,0 0.11,0.02 0.13,0.11 0.34,1.06 1,1.31 1.33,1.31 0.19,0 0.54,-0.09 0.54,-0.67 0,-0.31 -0.17,-0.98 -0.54,-2.37 -0.15,-0.62 -0.5,-1.04 -0.94,-1.04 -0.06,0 -0.29,0 -0.5,0.13 0.25,0.05 0.47,0.26 0.47,0.54 0,0.27 -0.22,0.35 -0.37,0.35 -0.3,0 -0.55,-0.26 -0.55,-0.58 0,-0.46 0.5,-0.66 0.94,-0.66 0.66,0 1.01,0.7 1.04,0.76 0.12,-0.37 0.48,-0.76 1.08,-0.76 1.03,0 1.59,1.29 1.59,1.54 0,0.1 -0.09,0.1 -0.12,0.1 -0.09,0 -0.1,-0.04 -0.13,-0.11 -0.32,-1.07 -1,-1.31 -1.32,-1.31 -0.39,0 -0.55,0.32 -0.55,0.66 0,0.22 0.06,0.44 0.17,0.88 z"
   style="fill:#000000;stroke-width:0" />
<path
   id="path4440"
   d="m 231.46,710.07 0,0 0,0.01 0,0.01 0,0.01 0,0.01 0,0 0,0.01 0,0.01 0,0 0,0.01 0,0.01 0,0 0,0.01 0,0 0,0.01 0,0.01 -0.01,0 0,0.01 0,0 0,0.01 0,0.01 -0.01,0.01 0,0 -0.01,0.01 0,0 -0.01,0.01 0,0 -0.01,0.01 -0.01,0 0,0 -0.01,0 -0.01,0.01 -0.01,0 0,0 -0.01,0 0,0 -0.01,0 -0.01,0 0,0 -0.01,0 -0.01,0 0,0 -0.01,0 -0.01,0 -0.01,0 0,0 -0.01,0 -0.01,0 -0.01,0 -0.01,0 c -0.44,-0.44 -1.08,-0.45 -1.37,-0.45 v -0.25 c 0.17,0 0.63,0 1.02,0.2 v -3.56 c 0,-0.23 0,-0.32 -0.7,-0.32 h -0.27 v -0.25 c 0.13,0.01 0.99,0.03 1.25,0.03 0.21,0 1.09,-0.02 1.24,-0.03 v 0.25 h -0.26 c -0.7,0 -0.7,0.09 -0.7,0.32 z"
   style="fill:#000000;stroke-width:0" />
</g>
<g
   id="g4491"
   transform="matrix(2,0,0,2,-815.41554,-166.81566)"
   xml:space="preserve"
   stroke-miterlimit="10.433"
   fill-rule="even-odd"
   font-style="normal"
   font-variant="normal"
   font-weight="normal"
   font-stretch="normal"
   font-size-adjust="none"
   letter-spacing="normal"
   word-spacing="normal"
   ns0:text="$x_3$"
   ns0:preamble=""
   style="font-style:normal;font-variant:normal;font-weight:normal;font-stretch:normal;letter-spacing:normal;word-spacing:normal;text-anchor:start;fill:none;stroke:#000000;stroke-linecap:butt;stroke-linejoin:miter;stroke-miterlimit:10.43299961;stroke-opacity:1;stroke-dasharray:none;stroke-dashoffset:0">
<path
   style="fill:#000000;stroke-width:0"
   d="m 226.76,710.13 0.01,0.03 0,0.03 0.01,0.03 0.01,0.04 0.01,0.03 0.01,0.05 0.02,0.04 0.01,0.04 0.02,0.05 0.01,0.05 0.02,0.05 0.02,0.05 0.03,0.05 0.02,0.05 0.03,0.05 0.02,0.05 0.03,0.04 0.03,0.05 0.04,0.05 0.03,0.04 0.04,0.05 0.04,0.04 0.04,0.03 0.05,0.04 0.04,0.03 0.05,0.03 0.03,0.01 0.02,0.02 0.03,0.01 0.03,0.01 0.02,0.01 0.03,0 0.03,0.01 0.03,0.01 0.03,0 0.03,0 0.03,0.01 0.04,0 c 0.05,0 0.29,0 0.49,-0.13 -0.28,-0.05 -0.47,-0.3 -0.47,-0.54 0,-0.16 0.11,-0.35 0.38,-0.35 0.21,0 0.53,0.18 0.53,0.58 0,0.52 -0.58,0.66 -0.92,0.66 -0.58,0 -0.93,-0.53 -1.05,-0.76 -0.25,0.66 -0.79,0.76 -1.08,0.76 -1.03,0 -1.6,-1.29 -1.6,-1.54 0,-0.1 0.1,-0.1 0.12,-0.1 0.08,0 0.11,0.02 0.13,0.11 0.34,1.06 1,1.31 1.33,1.31 0.19,0 0.54,-0.09 0.54,-0.67 0,-0.31 -0.17,-0.98 -0.54,-2.37 -0.15,-0.62 -0.5,-1.04 -0.94,-1.04 -0.06,0 -0.29,0 -0.5,0.13 0.25,0.05 0.47,0.26 0.47,0.54 0,0.27 -0.22,0.35 -0.37,0.35 -0.3,0 -0.55,-0.26 -0.55,-0.58 0,-0.46 0.5,-0.66 0.94,-0.66 0.66,0 1.01,0.7 1.04,0.76 0.12,-0.37 0.48,-0.76 1.08,-0.76 1.03,0 1.59,1.29 1.59,1.54 0,0.1 -0.09,0.1 -0.12,0.1 -0.09,0 -0.1,-0.04 -0.13,-0.11 -0.32,-1.07 -1,-1.31 -1.32,-1.31 -0.39,0 -0.55,0.32 -0.55,0.66 0,0.22 0.06,0.44 0.17,0.88 z"
   id="path4493" />
<path
   style="fill:#000000;stroke-width:0"
   d="m 231.03,707.96 0.05,0 0.05,-0.01 0.05,0 0.05,-0.01 0.04,-0.01 0.05,-0.01 0.04,-0.01 0.04,-0.02 0.05,-0.02 0.04,-0.02 0.04,-0.02 0.03,-0.03 0.04,-0.03 0.03,-0.03 0.04,-0.03 0.03,-0.03 0.03,-0.04 0.03,-0.04 0.03,-0.04 0.02,-0.04 0.02,-0.05 0.03,-0.04 0.02,-0.05 0.01,-0.05 0.02,-0.06 0.01,-0.05 0.02,-0.06 0.01,-0.06 0,-0.06 0.01,-0.07 0,-0.07 0,-0.06 c 0,-0.87 -0.5,-1.13 -0.9,-1.13 -0.28,0 -0.9,0.08 -1.19,0.49 0.33,0.02 0.41,0.25 0.41,0.39 0,0.23 -0.17,0.39 -0.39,0.39 -0.19,0 -0.39,-0.12 -0.39,-0.41 0,-0.65 0.73,-1.08 1.57,-1.08 0.97,0 1.64,0.65 1.64,1.35 0,0.54 -0.45,1.08 -1.21,1.25 0.73,0.26 0.99,0.78 0.99,1.21 0,0.55 -0.63,0.96 -1.4,0.96 -0.78,0 -1.37,-0.38 -1.37,-0.93 0,-0.24 0.15,-0.37 0.36,-0.37 0.22,0 0.36,0.16 0.36,0.35 0,0.2 -0.14,0.35 -0.36,0.36 0.24,0.31 0.73,0.39 0.98,0.39 0.32,0 0.76,-0.15 0.76,-0.76 0,-0.29 -0.1,-0.62 -0.28,-0.83 -0.23,-0.27 -0.43,-0.28 -0.78,-0.3 -0.17,-0.01 -0.18,-0.01 -0.22,-0.02 -0.01,0 -0.07,-0.02 -0.07,-0.09 0,-0.1 0.06,-0.1 0.18,-0.1 z"
   id="path4495" />
</g>
<g
   style="font-style:normal;font-variant:normal;font-weight:normal;font-stretch:normal;letter-spacing:normal;word-spacing:normal;text-anchor:start;fill:none;stroke:#000000;stroke-linecap:butt;stroke-linejoin:miter;stroke-miterlimit:10.43299961;stroke-opacity:1;stroke-dasharray:none;stroke-dashoffset:0"
   ns0:preamble=""
   ns0:text="$x_2$"
   word-spacing="normal"
   letter-spacing="normal"
   font-size-adjust="none"
   font-stretch="normal"
   font-weight="normal"
   font-variant="normal"
   font-style="normal"
   fill-rule="even-odd"
   stroke-miterlimit="10.433"
   xml:space="preserve"
   transform="matrix(2,0,0,2,-682.61775,46.017659)"
   id="g4540">
<path
   style="fill:#000000;stroke-width:0"
   id="path4542"
   d="m 226.76,710.13 0.01,0.03 0,0.03 0.01,0.03 0.01,0.04 0.01,0.03 0.01,0.05 0.02,0.04 0.01,0.04 0.02,0.05 0.01,0.05 0.02,0.05 0.02,0.05 0.03,0.05 0.02,0.05 0.03,0.05 0.02,0.05 0.03,0.04 0.03,0.05 0.04,0.05 0.03,0.04 0.04,0.05 0.04,0.04 0.04,0.03 0.05,0.04 0.04,0.03 0.05,0.03 0.03,0.01 0.02,0.02 0.03,0.01 0.03,0.01 0.02,0.01 0.03,0 0.03,0.01 0.03,0.01 0.03,0 0.03,0 0.03,0.01 0.04,0 c 0.05,0 0.29,0 0.49,-0.13 -0.28,-0.05 -0.47,-0.3 -0.47,-0.54 0,-0.16 0.11,-0.35 0.38,-0.35 0.21,0 0.53,0.18 0.53,0.58 0,0.52 -0.58,0.66 -0.92,0.66 -0.58,0 -0.93,-0.53 -1.05,-0.76 -0.25,0.66 -0.79,0.76 -1.08,0.76 -1.03,0 -1.6,-1.29 -1.6,-1.54 0,-0.1 0.1,-0.1 0.12,-0.1 0.08,0 0.11,0.02 0.13,0.11 0.34,1.06 1,1.31 1.33,1.31 0.19,0 0.54,-0.09 0.54,-0.67 0,-0.31 -0.17,-0.98 -0.54,-2.37 -0.15,-0.62 -0.5,-1.04 -0.94,-1.04 -0.06,0 -0.29,0 -0.5,0.13 0.25,0.05 0.47,0.26 0.47,0.54 0,0.27 -0.22,0.35 -0.37,0.35 -0.3,0 -0.55,-0.26 -0.55,-0.58 0,-0.46 0.5,-0.66 0.94,-0.66 0.66,0 1.01,0.7 1.04,0.76 0.12,-0.37 0.48,-0.76 1.08,-0.76 1.03,0 1.59,1.29 1.59,1.54 0,0.1 -0.09,0.1 -0.12,0.1 -0.09,0 -0.1,-0.04 -0.13,-0.11 -0.32,-1.07 -1,-1.31 -1.32,-1.31 -0.39,0 -0.55,0.32 -0.55,0.66 0,0.22 0.06,0.44 0.17,0.88 z" />
<path
   style="fill:#000000;stroke-width:0"
   id="path4544"
   d="m 232.65,706.9 h -0.24 c -0.02,-0.15 -0.09,-0.57 -0.18,-0.63 -0.06,-0.05 -0.59,-0.05 -0.69,-0.05 h -1.28 c 0.73,0.65 0.97,0.85 1.39,1.17 0.52,0.42 1,0.85 1,1.51 0,0.84 -0.74,1.36 -1.64,1.36 -0.86,0 -1.45,-0.61 -1.45,-1.25 0,-0.35 0.3,-0.39 0.37,-0.39 0.17,0 0.37,0.12 0.37,0.37 0,0.13 -0.04,0.37 -0.41,0.37 0.22,0.5 0.69,0.65 1.02,0.65 0.7,0 1.06,-0.54 1.06,-1.11 0,-0.61 -0.43,-1.09 -0.65,-1.34 l -1.69,-1.66 c -0.07,-0.06 -0.07,-0.07 -0.07,-0.27 h 2.88 z" />
</g>
<g
   id="g4594"><path
   sodipodi:nodetypes="cssz"
   id="path4572"
   d="M 1.1444444e-5,1411.111 C 33.33334,1428.3542 79.421591,1341.8739 11.11112,1299.9999 c -48.888892,-30.0161 -77.777786,6.4346 -44.444442,44.4444 24.7248434,28.1936 -1.6106,48.5903 33.333333444444,66.6667 z"
   style="fill:#b6b6b6;fill-opacity:1;stroke:#000000;stroke-width:2.22222209px;stroke-linecap:butt;stroke-linejoin:miter;stroke-opacity:1" /><path
   sodipodi:nodetypes="cc"
   id="path4574"
   d="m 8.8889114,1413.3332 -273.3333514,0"
   style="fill:none;stroke:#000000;stroke-width:2.22222209px;stroke-linecap:butt;stroke-linejoin:miter;stroke-opacity:1" /><path
   sodipodi:nodetypes="cc"
   id="path4576"
   d="m -19.999992,1288.8888 -280.000018,0"
   style="fill:none;stroke:#000000;stroke-width:2.22222209px;stroke-linecap:butt;stroke-linejoin:miter;stroke-opacity:1" /><path
   style="fill:#e2e2e2;fill-opacity:1;stroke:#000000;stroke-width:2.22222209px;stroke-linecap:butt;stroke-linejoin:miter;stroke-opacity:1"
   d="m -275.55553,1411.111 c 33.33333,17.2432 79.42159,-69.2371 11.11111,-111.1111 -48.88889,-30.0161 -77.77778,6.4346 -44.44444,44.4444 24.72484,28.1936 -1.6106,48.5903 33.33333,66.6667 z"
   id="path4584"
   sodipodi:nodetypes="cssz" /><path
   style="fill:none;stroke:#000000;stroke-width:3.33333325;stroke-linecap:butt;stroke-linejoin:miter;stroke-miterlimit:4;stroke-opacity:1;stroke-dasharray:none;marker-end:url(#Arrow2Mend)"
   d="m 11.11112,1355.5555 111.11111,66.6666"
   id="path4600" /><path
   id="path5184"
   d="m 11.11112,1355.5555 111.11112,66.6667"
   style="fill:none;stroke:#000000;stroke-width:3.33333325;stroke-linecap:butt;stroke-linejoin:miter;stroke-miterlimit:4;stroke-opacity:1;stroke-dasharray:none;marker-end:url(#Arrow2Mend)" /><path
   id="path5192"
   d="m -266.66667,1355.5554 -68.44439,-110.025"
   style="fill:none;stroke:#000000;stroke-width:3.33333325;stroke-linecap:butt;stroke-linejoin:miter;stroke-miterlimit:4;stroke-opacity:1;stroke-dasharray:none;marker-end:url(#Arrow2Mend)" /><g
   style="font-style:normal;font-variant:normal;font-weight:normal;font-stretch:normal;letter-spacing:normal;word-spacing:normal;text-anchor:start;fill:none;stroke:#000000;stroke-linecap:butt;stroke-linejoin:miter;stroke-miterlimit:10.43299961;stroke-opacity:1;stroke-dasharray:none;stroke-dashoffset:0"
   id="g5227"
   transform="matrix(2,0,0,2,-591.51333,17.584336)"
   xml:space="preserve"
   stroke-miterlimit="10.433"
   fill-rule="even-odd"
   font-style="normal"
   font-variant="normal"
   font-weight="normal"
   font-stretch="normal"
   font-size-adjust="none"
   letter-spacing="normal"
   word-spacing="normal"
   ns0:text="$S_l$"
   ns0:preamble="">
<path
   style="fill:#000000;stroke-width:0"
   d="m 229.86,714.05 0,0 0,0 0,0.01 0,0 0,0 0,0.01 -0.01,0 0,0 0,0.01 0,0 0,0.01 0,0 -0.01,0.01 0,0 0,0 0,0.01 -0.01,0 0,0.01 0,0 -0.01,0 0,0.01 -0.01,0 0,0 -0.01,0 0,0.01 0,0 -0.01,0 0,0 0,0 -0.01,0 0,0 0,0 -0.01,0 0,0 -0.01,0.01 0,0 0,0 -0.01,0 0,0 c -0.05,0 -0.06,-0.01 -0.18,-0.15 l -0.48,-0.57 c -0.26,0.47 -0.78,0.72 -1.42,0.72 -1.27,0 -2.46,-1.15 -2.46,-2.36 0,-0.8 0.52,-1.26 1.03,-1.41 l 1.07,-0.28 c 0.37,-0.09 0.92,-0.24 0.92,-1.06 0,-0.89 -0.82,-1.83 -1.8,-1.83 -0.64,0 -1.74,0.22 -1.74,1.46 0,0.24 0.05,0.48 0.06,0.54 0.01,0.03 0.02,0.05 0.02,0.06 0,0.1 -0.07,0.11 -0.12,0.11 -0.05,0 -0.07,-0.01 -0.1,-0.04 -0.04,-0.04 -0.6,-2.31 -0.6,-2.34 0,-0.06 0.05,-0.1 0.11,-0.1 0.05,0 0.06,0.01 0.18,0.15 l 0.49,0.57 c 0.43,-0.58 1.1,-0.72 1.68,-0.72 1.36,0 2.53,1.33 2.53,2.56 0,0.69 -0.34,1.03 -0.49,1.17 -0.22,0.23 -0.38,0.27 -1.26,0.5 -0.22,0.06 -0.58,0.16 -0.67,0.18 -0.27,0.09 -0.61,0.37 -0.61,0.9 0,0.81 0.8,1.66 1.75,1.66 0.82,0 1.43,-0.43 1.43,-1.55 0,-0.32 -0.04,-0.49 -0.04,-0.55 0,-0.01 0,-0.11 0.12,-0.11 0.1,0 0.11,0.04 0.15,0.2 z"
   id="path5229" />
<path
   style="fill:#000000;stroke-width:0"
   d="m 231.5,710.26 0,0 0,0 0.01,0 0,0 0,0.01 0,0 0,0 0,0 0,0 0,0.01 0,0 0,0 0,0.01 0,0 0,0.01 0.01,0 0,0.01 0,0 0,0.01 0,0.01 0,0 0,0.01 0.01,0 0,0.01 0,0 0,0 0,0.01 0,0 0,0 0,0 0,0 0,0.01 0,0 0,0 0,0 0,0 0,0 0,0 0,0 0,0 c 0,0.04 -0.03,0.1 -0.11,0.1 -0.14,0 -0.72,-0.06 -0.89,-0.07 -0.05,-0.01 -0.15,-0.01 -0.15,-0.16 0,-0.1 0.1,-0.1 0.18,-0.1 0.33,0 0.33,-0.05 0.33,-0.1 0,-0.05 -0.01,-0.09 -0.03,-0.16 L 230,706.44 c -0.02,-0.07 -0.03,-0.15 -0.03,-0.22 0,-0.44 0.4,-0.66 0.73,-0.66 0.17,0 0.38,0.06 0.56,0.37 0.15,0.26 0.24,0.67 0.24,0.7 0,0.09 -0.09,0.09 -0.11,0.09 -0.1,0 -0.11,-0.04 -0.14,-0.17 -0.09,-0.35 -0.22,-0.79 -0.52,-0.79 -0.19,0 -0.24,0.17 -0.24,0.34 0,0.07 0.02,0.21 0.05,0.28 z"
   id="path5231" />
</g>
<g
   ns0:preamble=""
   ns0:text="$A$"
   word-spacing="normal"
   letter-spacing="normal"
   font-size-adjust="none"
   font-stretch="normal"
   font-weight="normal"
   font-variant="normal"
   font-style="normal"
   fill-rule="even-odd"
   stroke-miterlimit="10.433"
   xml:space="preserve"
   transform="matrix(2,0,0,2,-453.33328,-49.4284)"
   id="g5312"
   style="font-style:normal;font-variant:normal;font-weight:normal;font-stretch:normal;letter-spacing:normal;word-spacing:normal;text-anchor:start;fill:none;stroke:#000000;stroke-linecap:butt;stroke-linejoin:miter;stroke-miterlimit:10.43299961;stroke-opacity:1;stroke-dasharray:none;stroke-dashoffset:0">
<path
   id="path5314"
   d="m 225.22,708.27 -0.04,-0.06 -0.04,-0.06 -0.04,-0.06 -0.03,-0.05 -0.04,-0.05 -0.04,-0.04 -0.03,-0.05 -0.04,-0.04 -0.04,-0.04 -0.04,-0.04 -0.03,-0.03 -0.04,-0.03 -0.04,-0.03 -0.04,-0.03 -0.03,-0.03 -0.04,-0.02 -0.04,-0.02 -0.04,-0.02 -0.04,-0.02 -0.03,-0.02 -0.04,-0.01 -0.04,-0.02 -0.04,-0.01 -0.04,-0.01 -0.04,-0.01 -0.04,-0.01 -0.04,-0.01 -0.04,0 -0.08,-0.01 -0.08,-0.01 c -0.12,-0.01 -0.21,-0.01 -0.21,-0.2 0,-0.06 0.05,-0.11 0.13,-0.11 0.27,0 0.58,0.03 0.86,0.03 0.33,0 0.68,-0.03 0.99,-0.03 0.06,0 0.19,0 0.19,0.19 0,0.11 -0.09,0.12 -0.16,0.12 -0.23,0.02 -0.47,0.1 -0.47,0.35 0,0.12 0.06,0.23 0.14,0.37 l 0.76,1.27 h 2.5 l -0.03,0.31 h -2.28 l 1.96,3.29 0.32,-3.29 0.03,-0.31 c 0.02,-0.2 0.16,-1.56 0.16,-1.66 0,-0.3 -0.52,-0.33 -0.72,-0.33 -0.14,0 -0.23,0 -0.23,-0.2 0,-0.11 0.11,-0.11 0.14,-0.11 0.4,0 0.83,0.03 1.24,0.03 0.25,0 0.88,-0.03 1.13,-0.03 0.06,0 0.18,0 0.18,0.2 0,0.11 -0.1,0.11 -0.23,0.11 -0.62,0 -0.62,0.07 -0.65,0.36 l -0.61,6.23 c -0.02,0.2 -0.02,0.24 -0.19,0.24 -0.16,0 -0.2,-0.07 -0.26,-0.17 z"
   style="fill:#000000;stroke-width:0" />
</g>
<g
   id="g5400"
   transform="matrix(2,0,0,2,-706.66656,-49.4284)"
   xml:space="preserve"
   stroke-miterlimit="10.433"
   fill-rule="even-odd"
   font-style="normal"
   font-variant="normal"
   font-weight="normal"
   font-stretch="normal"
   font-size-adjust="none"
   letter-spacing="normal"
   word-spacing="normal"
   ns0:text="$A_0$"
   ns0:preamble=""
   style="font-style:normal;font-variant:normal;font-weight:normal;font-stretch:normal;letter-spacing:normal;word-spacing:normal;text-anchor:start;fill:none;stroke:#000000;stroke-linecap:butt;stroke-linejoin:miter;stroke-miterlimit:10.43299961;stroke-opacity:1;stroke-dasharray:none;stroke-dashoffset:0">
<path
   d="m 225.22,708.27 -0.04,-0.06 -0.04,-0.06 -0.04,-0.06 -0.03,-0.05 -0.04,-0.05 -0.04,-0.04 -0.03,-0.05 -0.04,-0.04 -0.04,-0.04 -0.04,-0.04 -0.03,-0.03 -0.04,-0.03 -0.04,-0.03 -0.04,-0.03 -0.03,-0.03 -0.04,-0.02 -0.04,-0.02 -0.04,-0.02 -0.04,-0.02 -0.03,-0.02 -0.04,-0.01 -0.04,-0.02 -0.04,-0.01 -0.04,-0.01 -0.04,-0.01 -0.04,-0.01 -0.04,-0.01 -0.04,0 -0.08,-0.01 -0.08,-0.01 c -0.12,-0.01 -0.21,-0.01 -0.21,-0.2 0,-0.06 0.05,-0.11 0.13,-0.11 0.27,0 0.58,0.03 0.86,0.03 0.33,0 0.68,-0.03 0.99,-0.03 0.06,0 0.19,0 0.19,0.19 0,0.11 -0.09,0.12 -0.16,0.12 -0.23,0.02 -0.47,0.1 -0.47,0.35 0,0.12 0.06,0.23 0.14,0.37 l 0.76,1.27 h 2.5 l -0.03,0.31 h -2.28 l 1.96,3.29 0.32,-3.29 0.03,-0.31 c 0.02,-0.2 0.16,-1.56 0.16,-1.66 0,-0.3 -0.52,-0.33 -0.72,-0.33 -0.14,0 -0.23,0 -0.23,-0.2 0,-0.11 0.11,-0.11 0.14,-0.11 0.4,0 0.83,0.03 1.24,0.03 0.25,0 0.88,-0.03 1.13,-0.03 0.06,0 0.18,0 0.18,0.2 0,0.11 -0.1,0.11 -0.23,0.11 -0.62,0 -0.62,0.07 -0.65,0.36 l -0.61,6.23 c -0.02,0.2 -0.02,0.24 -0.19,0.24 -0.16,0 -0.2,-0.07 -0.26,-0.17 z"
   id="path5402"
   style="fill:#000000;stroke-width:0" />
<path
   d="m 234.5,707.85 0,0.15 0,0.13 -0.01,0.13 -0.01,0.13 -0.01,0.13 -0.01,0.11 -0.02,0.12 -0.02,0.11 -0.03,0.11 -0.03,0.11 -0.03,0.1 -0.04,0.1 -0.04,0.1 -0.05,0.09 -0.05,0.1 -0.03,0.05 -0.03,0.04 c -0.22,0.32 -0.65,0.6 -1.21,0.6 -1.62,0 -1.62,-1.9 -1.62,-2.41 0,-0.5 0,-2.36 1.62,-2.36 v 0.2 c -0.32,0 -0.74,0.18 -0.88,0.76 -0.1,0.41 -0.1,0.98 -0.1,1.5 0,0.5 0,1.03 0.1,1.42 0.15,0.55 0.6,0.7 0.88,0.7 0.38,0 0.74,-0.23 0.87,-0.64 0.11,-0.38 0.12,-0.88 0.12,-1.48 0,-0.52 0,-1.04 -0.09,-1.48 -0.14,-0.63 -0.62,-0.78 -0.9,-0.78 h 0 v -0.2 c 1.62,0 1.62,1.86 1.62,2.36 z"
   id="path5404"
   style="fill:#000000;stroke-width:0" />
</g>
<g
   style="font-style:normal;font-variant:normal;font-weight:normal;font-stretch:normal;letter-spacing:normal;word-spacing:normal;text-anchor:start;fill:none;stroke:#000000;stroke-linecap:butt;stroke-linejoin:miter;stroke-miterlimit:10.43299961;stroke-opacity:1;stroke-dasharray:none;stroke-dashoffset:0"
   ns0:preamble=""
   ns0:text="$\\Sigma$"
   word-spacing="normal"
   letter-spacing="normal"
   font-size-adjust="none"
   font-stretch="normal"
   font-weight="normal"
   font-variant="normal"
   font-style="normal"
   fill-rule="even-odd"
   stroke-miterlimit="10.433"
   xml:space="preserve"
   transform="matrix(2,0,0,2,-471.11104,-98.317284)"
   id="g5496">
<path
   id="path5498"
   d="m 227.14,710.37 0,0 0.01,0.01 0,0 0,0.01 0.01,0 0,0.01 0.01,0 0,0 0,0.01 0,0 0.01,0.01 0.01,0.01 0,0 0,0.01 0.01,0.01 0,0 0.01,0.01 0,0 0,0.01 0,0.01 0.01,0 0,0 0,0.01 0,0 0,0.01 0,0 0.01,0 0,0.01 0,0 0,0 0,0.01 0,0 0,0 0,0 0,0.01 0,0 c 0,0.05 -0.04,0.1 -0.07,0.14 l -2.04,2.95 h 2.3 c 1.68,0 2.18,-0.36 2.39,-1.94 h 0.25 l -0.28,2.25 h -5.53 c -0.24,0 -0.26,0 -0.26,-0.23 l 2.48,-3.61 -2.37,-2.7 c -0.1,-0.11 -0.1,-0.13 -0.1,-0.16 0,-0.11 0.1,-0.11 0.25,-0.11 h 5.53 l 0.28,2.35 h -0.25 c -0.18,-1.66 -0.86,-1.93 -2.42,-1.93 h -2.75 z"
   style="fill:#000000;stroke-width:0" />
</g>
<g
   id="g5594"
   transform="matrix(2,0,0,2,-795.55544,-89.428396)"
   xml:space="preserve"
   stroke-miterlimit="10.433"
   fill-rule="even-odd"
   font-style="normal"
   font-variant="normal"
   font-weight="normal"
   font-stretch="normal"
   font-size-adjust="none"
   letter-spacing="normal"
   word-spacing="normal"
   ns0:text="$\\Sigma_0$"
   ns0:preamble=""
   style="font-style:normal;font-variant:normal;font-weight:normal;font-stretch:normal;letter-spacing:normal;word-spacing:normal;text-anchor:start;fill:none;stroke:#000000;stroke-linecap:butt;stroke-linejoin:miter;stroke-miterlimit:10.43299961;stroke-opacity:1;stroke-dasharray:none;stroke-dashoffset:0">
<path
   d="m 227.14,710.37 0,0 0.01,0.01 0,0 0,0.01 0.01,0 0,0.01 0.01,0 0,0 0,0.01 0,0 0.01,0.01 0.01,0.01 0,0 0,0.01 0.01,0.01 0,0 0.01,0.01 0,0 0,0.01 0,0.01 0.01,0 0,0 0,0.01 0,0 0,0.01 0,0 0.01,0 0,0.01 0,0 0,0 0,0.01 0,0 0,0 0,0 0,0.01 0,0 c 0,0.05 -0.04,0.1 -0.07,0.14 l -2.04,2.95 h 2.3 c 1.68,0 2.18,-0.36 2.39,-1.94 h 0.25 l -0.28,2.25 h -5.53 c -0.24,0 -0.26,0 -0.26,-0.23 l 2.48,-3.61 -2.37,-2.7 c -0.1,-0.11 -0.1,-0.13 -0.1,-0.16 0,-0.11 0.1,-0.11 0.25,-0.11 h 5.53 l 0.28,2.35 h -0.25 c -0.18,-1.66 -0.86,-1.93 -2.42,-1.93 h -2.75 z"
   id="path5596"
   style="fill:#000000;stroke-width:0" />
<path
   d="m 234.22,707.85 0,0.15 0,0.13 -0.01,0.13 -0.01,0.13 -0.01,0.13 -0.01,0.11 -0.02,0.12 -0.02,0.11 -0.03,0.11 -0.03,0.11 -0.03,0.1 -0.04,0.1 -0.04,0.1 -0.05,0.09 -0.05,0.1 -0.03,0.05 -0.03,0.04 c -0.21,0.32 -0.65,0.6 -1.2,0.6 -1.62,0 -1.62,-1.9 -1.62,-2.41 0,-0.5 0,-2.36 1.62,-2.36 v 0.2 c -0.32,0 -0.75,0.18 -0.89,0.76 -0.1,0.41 -0.1,0.98 -0.1,1.5 0,0.5 0,1.03 0.11,1.42 0.14,0.55 0.59,0.7 0.88,0.7 0.37,0 0.74,-0.23 0.86,-0.64 0.11,-0.38 0.12,-0.88 0.12,-1.48 0,-0.52 0,-1.04 -0.09,-1.48 -0.14,-0.63 -0.62,-0.78 -0.89,-0.78 h 0 v -0.2 c 1.61,0 1.61,1.86 1.61,2.36 z"
   id="path5598"
   style="fill:#000000;stroke-width:0" />
</g>
</g><g
   transform="translate(-711.11111,0)"
   id="g4580"><path
     style="fill:none;stroke:#000000;stroke-width:1px;stroke-linecap:butt;stroke-linejoin:miter;stroke-opacity:1;marker-start:url(#Arrow2Mstart);marker-end:url(#Arrow2Mend)"
     d="M 200.25782,391.85693 200,442.55005 l 180,0"
     id="path2824"
     transform="matrix(2.2222222,0,0,-2.2222222,0,2339)" /><path
     style="fill:none;stroke:#000000;stroke-width:1px;stroke-linecap:butt;stroke-linejoin:miter;stroke-opacity:1;marker-end:url(#Arrow2Mend)"
     d="m 200,442.55005 -50,35"
     id="path4234"
     transform="matrix(2.2222222,0,0,-2.2222222,0,2339)" /></g><path
   style="fill:none;stroke:#000000;stroke-width:3.33333325;stroke-linecap:butt;stroke-linejoin:miter;stroke-miterlimit:4;stroke-opacity:1;stroke-dasharray:none;marker-start:none;marker-end:url(#Arrow2Mend)"
   d="m 11.11112,1355.5555 c 0,-44.4445 22.22222,-22.2223 22.22222,-55.5556 0,-33.6428 22.22222,-11.1111 22.22222,-55.5556"
   id="path4788"
   sodipodi:nodetypes="czc" /><path
   sodipodi:nodetypes="czc"
   id="path5186"
   d="m 11.11112,1355.5555 c 0,-44.4444 22.22223,-22.2222 22.22223,-55.5556 0,-33.6428 22.22222,-11.1111 22.22222,-55.5555"
   style="fill:none;stroke:#000000;stroke-width:3.33333325;stroke-linecap:butt;stroke-linejoin:miter;stroke-miterlimit:4;stroke-opacity:1;stroke-dasharray:none;marker-start:none;marker-end:url(#Arrow2Mend)" /><path
   style="fill:none;stroke:#000000;stroke-width:3.33333325;stroke-linecap:butt;stroke-linejoin:miter;stroke-miterlimit:4;stroke-opacity:1;stroke-dasharray:none;marker-start:none;marker-end:url(#Arrow2Mend)"
   d="m -266.25111,1356.0673 c 0,44.4444 -22.22223,22.2222 -22.22223,55.5556 0,33.6428 -22.22222,11.1111 -22.22222,55.5555"
   id="path5190"
   sodipodi:nodetypes="czc" /><g
   id="g5902"
   transform="matrix(2,0,0,2,-361.97111,17.6843)"
   xml:space="preserve"
   stroke-miterlimit="10.433"
   fill-rule="even-odd"
   font-style="normal"
   font-variant="normal"
   font-weight="normal"
   font-stretch="normal"
   font-size-adjust="none"
   letter-spacing="normal"
   word-spacing="normal"
   ns0:text="$\\vec{\\mathcal{F}}$"
   ns0:preamble=""
   style="font-style:normal;font-variant:normal;font-weight:normal;font-stretch:normal;letter-spacing:normal;word-spacing:normal;text-anchor:start;fill:none;stroke:#000000;stroke-linecap:butt;stroke-linejoin:miter;stroke-miterlimit:10.43299961;stroke-opacity:1;stroke-dasharray:none;stroke-dashoffset:0">
<path
   d="m 230.71,715.57 -0.01,-0.01 -0.02,-0.02 -0.01,-0.01 -0.02,-0.01 -0.02,-0.02 -0.02,-0.02 -0.01,-0.01 -0.02,-0.02 -0.02,-0.02 -0.02,-0.02 -0.04,-0.04 -0.04,-0.03 -0.04,-0.04 -0.01,-0.03 -0.02,-0.02 -0.02,-0.02 -0.02,-0.02 -0.01,-0.02 -0.02,-0.02 -0.01,-0.02 -0.01,-0.02 -0.02,-0.02 -0.01,-0.02 -0.01,-0.02 0,-0.02 -0.01,-0.01 0,-0.02 -0.01,-0.02 0,-0.02 c 0,-0.1 0.1,-0.2 0.2,-0.2 0.09,0 0.14,0.07 0.19,0.13 0.12,0.15 0.35,0.43 0.79,0.65 0.07,0.04 0.17,0.09 0.17,0.21 0,0.1 -0.07,0.15 -0.14,0.2 -0.22,0.15 -0.33,0.33 -0.41,0.57 -0.02,0.09 -0.06,0.22 -0.2,0.22 -0.14,0 -0.2,-0.13 -0.2,-0.21 0,-0.05 0.08,-0.37 0.24,-0.58 h -3.36 c -0.17,0 -0.35,0 -0.35,-0.2 0,-0.2 0.18,-0.2 0.35,-0.2 z"
   id="path5904"
   style="fill:#000000;stroke-width:0" />
<path
   d="m 231.7,713.55 0,0.02 0,0.02 0,0.02 -0.01,0.02 0,0.02 -0.01,0.01 0,0.02 -0.01,0.02 -0.01,0.01 -0.01,0.02 -0.01,0.01 -0.01,0.01 -0.01,0.02 -0.02,0.01 -0.01,0.01 -0.01,0.01 -0.02,0.01 -0.01,0.01 -0.04,0.02 -0.03,0.02 -0.04,0.01 -0.04,0.02 -0.04,0.01 -0.04,0.01 -0.04,0 -0.04,0.01 -0.05,0.01 -0.04,0 -0.05,0 -0.04,0.01 -0.05,0 -0.04,0 -0.05,0 -0.04,0 -0.04,0 -0.04,0 -0.04,0 -0.04,0 -0.03,0 -0.03,0 -0.03,0 h -3.76 c -0.5,0 -1.38,-0.29 -1.55,-0.83 0.03,-0.06 0.05,-0.07 0.11,-0.07 0.21,0 0.51,0.18 0.65,0.33 0.31,0 0.61,0.02 0.92,0.02 h 0.62 c 0,0 -0.04,-0.18 -0.04,-0.19 -0.39,-1.82 -0.98,-3.37 -1.42,-4.34 -0.06,-0.13 -0.6,-1.38 -0.73,-1.5 -0.44,0 -0.77,0.24 -0.95,0.63 -0.03,0.06 -0.03,0.1 -0.1,0.1 -0.23,0 -0.78,-0.32 -0.78,-0.49 0,-0.02 0.01,-0.04 0.02,-0.06 0.18,-0.47 0.63,-0.74 1.12,-0.74 0.51,0 1.09,0.37 1.41,0.74 0.33,0.38 0.99,2.01 1.25,2.61 h 1.92 c -0.01,-0.01 -0.02,-0.02 -0.02,-0.03 0,-0.04 0.06,-0.07 0.1,-0.07 0.22,0 0.79,0.28 0.79,0.59 0,0.07 -0.07,0.06 -0.19,0.06 h -2.39 c 0.26,0.9 0.6,1.77 0.77,2.69 h 1.32 c 0.25,0 0.95,0.05 1.12,-0.17 0.03,-0.06 0,-0.16 0.03,-0.21 0.02,-0.02 0.04,-0.03 0.07,-0.03 0.24,0 0.78,0.3 0.78,0.57 z"
   id="path5906"
   style="fill:#000000;stroke-width:0" />
</g>
<g
   style="font-style:normal;font-variant:normal;font-weight:normal;font-stretch:normal;letter-spacing:normal;word-spacing:normal;text-anchor:start;fill:none;stroke:#000000;stroke-linecap:butt;stroke-linejoin:miter;stroke-miterlimit:10.43299961;stroke-opacity:1;stroke-dasharray:none;stroke-dashoffset:0"
   ns0:preamble=""
   ns0:text="$\\vec{\\mathcal{M}}$"
   word-spacing="normal"
   letter-spacing="normal"
   font-size-adjust="none"
   font-stretch="normal"
   font-weight="normal"
   font-variant="normal"
   font-style="normal"
   fill-rule="even-odd"
   stroke-miterlimit="10.433"
   xml:space="preserve"
   transform="matrix(2,0,0,2,-379.74887,-182.31561)"
   id="g6016">
<path
   id="path6018"
   d="m 232.89,715.57 -0.01,-0.01 -0.02,-0.02 -0.01,-0.01 -0.02,-0.01 -0.02,-0.02 -0.01,-0.02 -0.02,-0.01 -0.02,-0.02 -0.02,-0.02 -0.02,-0.02 -0.04,-0.04 -0.04,-0.03 -0.03,-0.04 -0.02,-0.03 -0.02,-0.02 -0.02,-0.02 -0.01,-0.02 -0.02,-0.02 -0.02,-0.02 -0.01,-0.02 -0.01,-0.02 -0.01,-0.02 -0.01,-0.02 -0.01,-0.02 -0.01,-0.02 -0.01,-0.01 0,-0.02 -0.01,-0.02 0,-0.02 c 0,-0.1 0.1,-0.2 0.2,-0.2 0.09,0 0.14,0.07 0.19,0.13 0.12,0.15 0.35,0.43 0.79,0.65 0.07,0.04 0.17,0.09 0.17,0.21 0,0.1 -0.07,0.15 -0.14,0.2 -0.22,0.15 -0.33,0.33 -0.41,0.57 -0.02,0.09 -0.06,0.22 -0.2,0.22 -0.14,0 -0.2,-0.13 -0.2,-0.21 0,-0.05 0.08,-0.37 0.24,-0.58 h -3.36 c -0.16,0 -0.34,0 -0.34,-0.2 0,-0.2 0.18,-0.2 0.34,-0.2 z"
   style="fill:#000000;stroke-width:0" />
<path
   id="path6020"
   d="m 227.27,712.69 0.02,-0.12 0.03,-0.13 0.03,-0.13 0.03,-0.14 0.03,-0.14 0.03,-0.14 0.06,-0.3 0.07,-0.3 0.07,-0.31 0.07,-0.32 0.08,-0.31 0.09,-0.32 0.08,-0.31 0.09,-0.3 0.09,-0.29 0.05,-0.14 0.05,-0.14 0.05,-0.13 0.05,-0.14 0.05,-0.12 0.05,-0.12 0.05,-0.12 0.05,-0.11 c 0.22,-0.43 0.33,-0.65 0.43,-0.65 0.04,0 0.06,0 0.24,0.18 0.76,0.73 1.28,1.31 1.97,2.1 l 2.19,2.54 c -0.14,-0.84 -0.5,-3.08 -0.5,-4.25 0,-0.27 0.01,-0.53 0.04,-0.8 0.01,-0.11 0.05,-0.4 0.47,-0.4 0.41,0 1.17,0.44 1.17,0.64 0,0.06 -0.06,0.07 -0.09,0.07 -0.13,0 -0.33,-0.09 -0.44,-0.16 -0.24,0.03 -0.26,0.19 -0.28,0.42 -0.03,0.32 -0.03,0.62 -0.03,0.66 0,1.1 0.44,4.12 0.73,5.36 0.01,0.07 0.02,0.09 0.02,0.17 0,0.04 -0.01,0.15 -0.08,0.15 -0.04,0 -0.05,-0.01 -0.24,-0.23 -0.93,-1.14 -3.84,-4.63 -4.83,-5.46 -0.25,0.53 -0.43,0.9 -0.78,2.3 -0.29,1.13 -0.46,1.95 -0.62,2.92 -0.03,0.14 -0.08,0.41 -0.08,0.43 -0.03,0.05 -0.08,0.05 -0.11,0.05 -0.18,0 -0.6,-0.22 -0.63,-0.43 -0.12,-0.84 -0.32,-2.15 -1.02,-4.06 -0.79,-2.12 -1.01,-2.12 -1.2,-2.12 -0.13,0 -0.5,0.08 -0.72,0.28 -0.05,0.05 -0.07,0.05 -0.09,0.05 -0.14,0 -0.36,-0.45 -0.36,-0.73 0,-0.09 0,-0.21 0.32,-0.38 0.25,-0.13 0.49,-0.14 0.54,-0.14 0.62,0 1.2,1.43 1.4,1.94 0.47,1.12 1.03,2.7 1.31,4.13 z"
   style="fill:#000000;stroke-width:0" />
</g>
<g
   id="g6145"
   transform="matrix(2,0,0,2,-766.41555,-173.42683)"
   xml:space="preserve"
   stroke-miterlimit="10.433"
   fill-rule="even-odd"
   font-style="normal"
   font-variant="normal"
   font-weight="normal"
   font-stretch="normal"
   font-size-adjust="none"
   letter-spacing="normal"
   word-spacing="normal"
   ns0:text="$\\vec{\\mathcal{F}}_0$"
   ns0:preamble=""
   style="font-style:normal;font-variant:normal;font-weight:normal;font-stretch:normal;letter-spacing:normal;word-spacing:normal;text-anchor:start;fill:none;stroke:#000000;stroke-linecap:butt;stroke-linejoin:miter;stroke-miterlimit:10.43299961;stroke-opacity:1;stroke-dasharray:none;stroke-dashoffset:0">
<path
   d="m 230.71,715.57 -0.01,-0.01 -0.02,-0.02 -0.01,-0.01 -0.02,-0.01 -0.02,-0.02 -0.02,-0.02 -0.01,-0.01 -0.02,-0.02 -0.02,-0.02 -0.02,-0.02 -0.04,-0.04 -0.04,-0.03 -0.04,-0.04 -0.01,-0.03 -0.02,-0.02 -0.02,-0.02 -0.02,-0.02 -0.01,-0.02 -0.02,-0.02 -0.01,-0.02 -0.01,-0.02 -0.02,-0.02 -0.01,-0.02 -0.01,-0.02 0,-0.02 -0.01,-0.01 0,-0.02 -0.01,-0.02 0,-0.02 c 0,-0.1 0.1,-0.2 0.2,-0.2 0.09,0 0.14,0.07 0.19,0.13 0.12,0.15 0.35,0.43 0.79,0.65 0.07,0.04 0.17,0.09 0.17,0.21 0,0.1 -0.07,0.15 -0.14,0.2 -0.22,0.15 -0.33,0.33 -0.41,0.57 -0.02,0.09 -0.06,0.22 -0.2,0.22 -0.14,0 -0.2,-0.13 -0.2,-0.21 0,-0.05 0.08,-0.37 0.24,-0.58 h -3.36 c -0.17,0 -0.35,0 -0.35,-0.2 0,-0.2 0.18,-0.2 0.35,-0.2 z"
   id="path6147"
   style="fill:#000000;stroke-width:0" />
<path
   d="m 231.7,713.55 0,0.02 0,0.02 0,0.02 -0.01,0.02 0,0.02 -0.01,0.01 0,0.02 -0.01,0.02 -0.01,0.01 -0.01,0.02 -0.01,0.01 -0.01,0.01 -0.01,0.02 -0.02,0.01 -0.01,0.01 -0.01,0.01 -0.02,0.01 -0.01,0.01 -0.04,0.02 -0.03,0.02 -0.04,0.01 -0.04,0.02 -0.04,0.01 -0.04,0.01 -0.04,0 -0.04,0.01 -0.05,0.01 -0.04,0 -0.05,0 -0.04,0.01 -0.05,0 -0.04,0 -0.05,0 -0.04,0 -0.04,0 -0.04,0 -0.04,0 -0.04,0 -0.03,0 -0.03,0 -0.03,0 h -3.76 c -0.5,0 -1.38,-0.29 -1.55,-0.83 0.03,-0.06 0.05,-0.07 0.11,-0.07 0.21,0 0.51,0.18 0.65,0.33 0.31,0 0.61,0.02 0.92,0.02 h 0.62 c 0,0 -0.04,-0.18 -0.04,-0.19 -0.39,-1.82 -0.98,-3.37 -1.42,-4.34 -0.06,-0.13 -0.6,-1.38 -0.73,-1.5 -0.44,0 -0.77,0.24 -0.95,0.63 -0.03,0.06 -0.03,0.1 -0.1,0.1 -0.23,0 -0.78,-0.32 -0.78,-0.49 0,-0.02 0.01,-0.04 0.02,-0.06 0.18,-0.47 0.63,-0.74 1.12,-0.74 0.51,0 1.09,0.37 1.41,0.74 0.33,0.38 0.99,2.01 1.25,2.61 h 1.92 c -0.01,-0.01 -0.02,-0.02 -0.02,-0.03 0,-0.04 0.06,-0.07 0.1,-0.07 0.22,0 0.79,0.28 0.79,0.59 0,0.07 -0.07,0.06 -0.19,0.06 h -2.39 c 0.26,0.9 0.6,1.77 0.77,2.69 h 1.32 c 0.25,0 0.95,0.05 1.12,-0.17 0.03,-0.06 0,-0.16 0.03,-0.21 0.02,-0.02 0.04,-0.03 0.07,-0.03 0.24,0 0.78,0.3 0.78,0.57 z"
   id="path6149"
   style="fill:#000000;stroke-width:0" />
<path
   d="m 234.19,707.85 0,0.15 0,0.13 -0.01,0.13 -0.01,0.13 -0.01,0.13 -0.01,0.11 -0.02,0.12 -0.02,0.11 -0.03,0.11 -0.03,0.11 -0.03,0.1 -0.04,0.1 -0.04,0.1 -0.05,0.09 -0.05,0.1 -0.03,0.05 -0.03,0.04 c -0.21,0.32 -0.65,0.6 -1.2,0.6 -1.62,0 -1.62,-1.9 -1.62,-2.41 0,-0.5 0,-2.36 1.62,-2.36 v 0.2 c -0.32,0 -0.75,0.18 -0.89,0.76 -0.1,0.41 -0.1,0.98 -0.1,1.5 0,0.5 0,1.03 0.11,1.42 0.14,0.55 0.59,0.7 0.88,0.7 0.37,0 0.74,-0.23 0.86,-0.64 0.11,-0.38 0.12,-0.88 0.12,-1.48 0,-0.52 0,-1.04 -0.09,-1.48 -0.14,-0.63 -0.62,-0.78 -0.89,-0.78 h 0 v -0.2 c 1.61,0 1.61,1.86 1.61,2.36 z"
   id="path6151"
   style="fill:#000000;stroke-width:0" />
</g>
<g
   style="font-style:normal;font-variant:normal;font-weight:normal;font-stretch:normal;letter-spacing:normal;word-spacing:normal;text-anchor:start;fill:none;stroke:#000000;stroke-linecap:butt;stroke-linejoin:miter;stroke-miterlimit:10.43299961;stroke-opacity:1;stroke-dasharray:none;stroke-dashoffset:0"
   ns0:preamble=""
   ns0:text="$\\vec{\\mathcal{M}}_0$"
   word-spacing="normal"
   letter-spacing="normal"
   font-size-adjust="none"
   font-stretch="normal"
   font-weight="normal"
   font-variant="normal"
   font-style="normal"
   fill-rule="even-odd"
   stroke-miterlimit="10.433"
   xml:space="preserve"
   transform="matrix(2,0,0,2,-797.52659,53.239853)"
   id="g6272">
<path
   id="path6274"
   d="m 232.89,715.57 -0.01,-0.01 -0.02,-0.02 -0.01,-0.01 -0.02,-0.01 -0.02,-0.02 -0.01,-0.02 -0.02,-0.01 -0.02,-0.02 -0.02,-0.02 -0.02,-0.02 -0.04,-0.04 -0.04,-0.03 -0.03,-0.04 -0.02,-0.03 -0.02,-0.02 -0.02,-0.02 -0.01,-0.02 -0.02,-0.02 -0.02,-0.02 -0.01,-0.02 -0.01,-0.02 -0.01,-0.02 -0.01,-0.02 -0.01,-0.02 -0.01,-0.02 -0.01,-0.01 0,-0.02 -0.01,-0.02 0,-0.02 c 0,-0.1 0.1,-0.2 0.2,-0.2 0.09,0 0.14,0.07 0.19,0.13 0.12,0.15 0.35,0.43 0.79,0.65 0.07,0.04 0.17,0.09 0.17,0.21 0,0.1 -0.07,0.15 -0.14,0.2 -0.22,0.15 -0.33,0.33 -0.41,0.57 -0.02,0.09 -0.06,0.22 -0.2,0.22 -0.14,0 -0.2,-0.13 -0.2,-0.21 0,-0.05 0.08,-0.37 0.24,-0.58 h -3.36 c -0.16,0 -0.34,0 -0.34,-0.2 0,-0.2 0.18,-0.2 0.34,-0.2 z"
   style="fill:#000000;stroke-width:0" />
<path
   id="path6276"
   d="m 227.27,712.69 0.02,-0.12 0.03,-0.13 0.03,-0.13 0.03,-0.14 0.03,-0.14 0.03,-0.14 0.06,-0.3 0.07,-0.3 0.07,-0.31 0.07,-0.32 0.08,-0.31 0.09,-0.32 0.08,-0.31 0.09,-0.3 0.09,-0.29 0.05,-0.14 0.05,-0.14 0.05,-0.13 0.05,-0.14 0.05,-0.12 0.05,-0.12 0.05,-0.12 0.05,-0.11 c 0.22,-0.43 0.33,-0.65 0.43,-0.65 0.04,0 0.06,0 0.24,0.18 0.76,0.73 1.28,1.31 1.97,2.1 l 2.19,2.54 c -0.14,-0.84 -0.5,-3.08 -0.5,-4.25 0,-0.27 0.01,-0.53 0.04,-0.8 0.01,-0.11 0.05,-0.4 0.47,-0.4 0.41,0 1.17,0.44 1.17,0.64 0,0.06 -0.06,0.07 -0.09,0.07 -0.13,0 -0.33,-0.09 -0.44,-0.16 -0.24,0.03 -0.26,0.19 -0.28,0.42 -0.03,0.32 -0.03,0.62 -0.03,0.66 0,1.1 0.44,4.12 0.73,5.36 0.01,0.07 0.02,0.09 0.02,0.17 0,0.04 -0.01,0.15 -0.08,0.15 -0.04,0 -0.05,-0.01 -0.24,-0.23 -0.93,-1.14 -3.84,-4.63 -4.83,-5.46 -0.25,0.53 -0.43,0.9 -0.78,2.3 -0.29,1.13 -0.46,1.95 -0.62,2.92 -0.03,0.14 -0.08,0.41 -0.08,0.43 -0.03,0.05 -0.08,0.05 -0.11,0.05 -0.18,0 -0.6,-0.22 -0.63,-0.43 -0.12,-0.84 -0.32,-2.15 -1.02,-4.06 -0.79,-2.12 -1.01,-2.12 -1.2,-2.12 -0.13,0 -0.5,0.08 -0.72,0.28 -0.05,0.05 -0.07,0.05 -0.09,0.05 -0.14,0 -0.36,-0.45 -0.36,-0.73 0,-0.09 0,-0.21 0.32,-0.38 0.25,-0.13 0.49,-0.14 0.54,-0.14 0.62,0 1.2,1.43 1.4,1.94 0.47,1.12 1.03,2.7 1.31,4.13 z"
   style="fill:#000000;stroke-width:0" />
<path
   id="path6278"
   d="m 238.99,707.85 0,0.15 0,0.13 -0.01,0.13 -0.01,0.13 -0.01,0.13 -0.01,0.11 -0.02,0.12 -0.02,0.11 -0.03,0.11 -0.03,0.11 -0.03,0.1 -0.04,0.1 -0.04,0.1 -0.05,0.09 -0.05,0.1 -0.03,0.05 -0.03,0.04 c -0.21,0.32 -0.65,0.6 -1.2,0.6 -1.62,0 -1.62,-1.9 -1.62,-2.41 0,-0.5 0,-2.36 1.62,-2.36 v 0.2 c -0.33,0 -0.75,0.18 -0.89,0.76 -0.1,0.41 -0.1,0.98 -0.1,1.5 0,0.5 0,1.03 0.11,1.42 0.14,0.55 0.59,0.7 0.88,0.7 0.37,0 0.74,-0.23 0.86,-0.64 0.11,-0.38 0.12,-0.88 0.12,-1.48 0,-0.52 0,-1.04 -0.09,-1.48 -0.14,-0.63 -0.62,-0.78 -0.89,-0.78 h 0 v -0.2 c 1.61,0 1.61,1.86 1.61,2.36 z"
   style="fill:#000000;stroke-width:0" />
</g>
</g></svg>