<?xml version="1.0" encoding="UTF-8" standalone="no"?>
<!-- Created with Inkscape (http://www.inkscape.org/) -->

<svg
   xmlns:ns0="http://www.iki.fi/pav/software/textext/"
   xmlns:dc="http://purl.org/dc/elements/1.1/"
   xmlns:cc="http://creativecommons.org/ns#"
   xmlns:rdf="http://www.w3.org/1999/02/22-rdf-syntax-ns#"
   xmlns:svg="http://www.w3.org/2000/svg"
   xmlns="http://www.w3.org/2000/svg"
   xmlns:sodipodi="http://sodipodi.sourceforge.net/DTD/sodipodi-0.dtd"
   xmlns:inkscape="http://www.inkscape.org/namespaces/inkscape"
   sodipodi:docname="T1_Ch04-0008.svg"
   xml:space="preserve"
   height="175.38092"
   width="92.976425"
   inkscape:version="0.47 r22583"
   version="1.1"
   id="svg2"><sodipodi:namedview
     pagecolor="#ffffff"
     bordercolor="#666666"
     borderopacity="1"
     objecttolerance="10"
     gridtolerance="10"
     guidetolerance="10"
     inkscape:pageopacity="0"
     inkscape:pageshadow="2"
     inkscape:window-width="1280"
     inkscape:window-height="717"
     id="namedview4"
     showgrid="true"
     inkscape:zoom="5.0734598"
     inkscape:cx="54.951023"
     inkscape:cy="96.446491"
     inkscape:window-x="0"
     inkscape:window-y="29"
     inkscape:window-maximized="1"
     inkscape:current-layer="g4511"><inkscape:grid
       id="grid2822"
       type="xygrid"
       empspacing="5"
       visible="true"
       enabled="true"
       snapvisiblegridlinesonly="true" /></sodipodi:namedview><metadata
     id="metadata8"><rdf:RDF><cc:Work
         rdf:about=""><dc:format>image/svg+xml</dc:format><dc:type
           rdf:resource="http://purl.org/dc/dcmitype/StillImage" /><dc:title></dc:title></cc:Work></rdf:RDF></metadata><defs
     id="defs6"><marker
       inkscape:stockid="Arrow2Send"
       orient="auto"
       refY="0"
       refX="0"
       id="Arrow2Send"
       style="overflow:visible"><path
         id="path3634"
         style="font-size:12px;fill-rule:evenodd;stroke-width:0.625;stroke-linejoin:round"
         d="M 8.7185878,4.0337352 -2.2072895,0.01601326 8.7185884,-4.0017078 c -1.7454984,2.3720609 -1.7354408,5.6174519 -6e-7,8.035443 z"
         transform="matrix(-0.3,0,0,-0.3,0.69,0)" /></marker><marker
       inkscape:stockid="Arrow1Lend"
       orient="auto"
       refY="0"
       refX="0"
       id="Arrow1Lend"
       style="overflow:visible"><path
         id="path3604"
         d="M 0,0 5,-5 -12.5,0 5,5 0,0 z"
         style="fill-rule:evenodd;stroke:#000000;stroke-width:1pt;marker-start:none"
         transform="matrix(-0.8,0,0,-0.8,-10,0)" /></marker><marker
       inkscape:stockid="TriangleOutS"
       orient="auto"
       refY="0"
       refX="0"
       id="TriangleOutS"
       style="overflow:visible"><path
         id="path3750"
         d="m 5.77,0 -8.65,5 0,-10 8.65,5 z"
         style="fill-rule:evenodd;stroke:#000000;stroke-width:1pt;marker-start:none"
         transform="scale(0.2,0.2)" /></marker><marker
       inkscape:stockid="TriangleOutM"
       orient="auto"
       refY="0"
       refX="0"
       id="TriangleOutM"
       style="overflow:visible"><path
         id="path3747"
         d="m 5.77,0 -8.65,5 0,-10 8.65,5 z"
         style="fill-rule:evenodd;stroke:#000000;stroke-width:1pt;marker-start:none"
         transform="scale(0.4,0.4)" /></marker><marker
       inkscape:stockid="Arrow1Mend"
       orient="auto"
       refY="0"
       refX="0"
       id="Arrow1Mend"
       style="overflow:visible"><path
         id="path3610"
         d="M 0,0 5,-5 -12.5,0 5,5 0,0 z"
         style="fill-rule:evenodd;stroke:#000000;stroke-width:1pt;marker-start:none"
         transform="matrix(-0.4,0,0,-0.4,-4,0)" /></marker><marker
       style="overflow:visible"
       id="Arrow2Mend"
       refX="0"
       refY="0"
       orient="auto"
       inkscape:stockid="Arrow2Mend"><path
         transform="scale(-0.6,-0.6)"
         d="M 8.7185878,4.0337352 -2.2072895,0.01601326 8.7185884,-4.0017078 c -1.7454984,2.3720609 -1.7354408,5.6174519 -6e-7,8.035443 z"
         style="font-size:12px;fill-rule:evenodd;stroke-width:0.625;stroke-linejoin:round"
         id="path3628" /></marker><marker
       style="overflow:visible"
       id="Arrow2Mstart"
       refX="0"
       refY="0"
       orient="auto"
       inkscape:stockid="Arrow2Mstart"><path
         transform="scale(0.6,0.6)"
         d="M 8.7185878,4.0337352 -2.2072895,0.01601326 8.7185884,-4.0017078 c -1.7454984,2.3720609 -1.7354408,5.6174519 -6e-7,8.035443 z"
         style="font-size:12px;fill-rule:evenodd;stroke-width:0.625;stroke-linejoin:round"
         id="path3625" /></marker><inkscape:perspective
       id="perspective10"
       inkscape:persp3d-origin="0.5 : 0.33333333 : 1"
       inkscape:vp_z="1 : 0.5 : 1"
       inkscape:vp_y="0 : 1000 : 0"
       inkscape:vp_x="0 : 0.5 : 1"
       sodipodi:type="inkscape:persp3d" /></defs><g
     transform="matrix(0.45,0,0,-0.45,76.652037,311.32432)"
     inkscape:label="MS1_ch04"
     inkscape:groupmode="layer"
     id="g12"><g
   id="g4511"
   transform="translate(-222.22222,0)"><g
   style="font-style:normal;font-variant:normal;font-weight:normal;font-stretch:normal;letter-spacing:normal;word-spacing:normal;text-anchor:start;fill:none;stroke:#000000;stroke-linecap:butt;stroke-linejoin:miter;stroke-miterlimit:10.43299961;stroke-opacity:1;stroke-dasharray:none;stroke-dashoffset:0"
   id="content"
   transform="matrix(2,0,0,2,-297.7778,-743.20928)"
   xml:space="preserve"
   stroke-miterlimit="10.433"
   fill-rule="even-odd"
   font-style="normal"
   font-variant="normal"
   font-weight="normal"
   font-stretch="normal"
   font-size-adjust="none"
   letter-spacing="normal"
   word-spacing="normal"
   ns0:text="$x_1$"
   ns0:preamble="">
<path
   style="fill:#000000;stroke-width:0"
   d="m 226.76,710.13 0.01,0.03 0,0.03 0.01,0.03 0.01,0.04 0.01,0.03 0.01,0.05 0.02,0.04 0.01,0.04 0.02,0.05 0.01,0.05 0.02,0.05 0.02,0.05 0.03,0.05 0.02,0.05 0.03,0.05 0.02,0.05 0.03,0.04 0.03,0.05 0.04,0.05 0.03,0.04 0.04,0.05 0.04,0.04 0.04,0.03 0.05,0.04 0.04,0.03 0.05,0.03 0.03,0.01 0.02,0.02 0.03,0.01 0.03,0.01 0.02,0.01 0.03,0 0.03,0.01 0.03,0.01 0.03,0 0.03,0 0.03,0.01 0.04,0 c 0.05,0 0.29,0 0.49,-0.13 -0.28,-0.05 -0.47,-0.3 -0.47,-0.54 0,-0.16 0.11,-0.35 0.38,-0.35 0.21,0 0.53,0.18 0.53,0.58 0,0.52 -0.58,0.66 -0.92,0.66 -0.58,0 -0.93,-0.53 -1.05,-0.76 -0.25,0.66 -0.79,0.76 -1.08,0.76 -1.03,0 -1.6,-1.29 -1.6,-1.54 0,-0.1 0.1,-0.1 0.12,-0.1 0.08,0 0.11,0.02 0.13,0.11 0.34,1.06 1,1.31 1.33,1.31 0.19,0 0.54,-0.09 0.54,-0.67 0,-0.31 -0.17,-0.98 -0.54,-2.37 -0.15,-0.62 -0.5,-1.04 -0.94,-1.04 -0.06,0 -0.29,0 -0.5,0.13 0.25,0.05 0.47,0.26 0.47,0.54 0,0.27 -0.22,0.35 -0.37,0.35 -0.3,0 -0.55,-0.26 -0.55,-0.58 0,-0.46 0.5,-0.66 0.94,-0.66 0.66,0 1.01,0.7 1.04,0.76 0.12,-0.37 0.48,-0.76 1.08,-0.76 1.03,0 1.59,1.29 1.59,1.54 0,0.1 -0.09,0.1 -0.12,0.1 -0.09,0 -0.1,-0.04 -0.13,-0.11 -0.32,-1.07 -1,-1.31 -1.32,-1.31 -0.39,0 -0.55,0.32 -0.55,0.66 0,0.22 0.06,0.44 0.17,0.88 z"
   id="path5914" />
<path
   style="fill:#000000;stroke-width:0"
   d="m 231.46,710.07 0,0 0,0.01 0,0.01 0,0.01 0,0.01 0,0 0,0.01 0,0.01 0,0 0,0.01 0,0.01 0,0 0,0.01 0,0 0,0.01 0,0.01 -0.01,0 0,0.01 0,0 0,0.01 0,0.01 -0.01,0.01 0,0 -0.01,0.01 0,0 -0.01,0.01 0,0 -0.01,0.01 -0.01,0 0,0 -0.01,0 -0.01,0.01 -0.01,0 0,0 -0.01,0 0,0 -0.01,0 -0.01,0 0,0 -0.01,0 -0.01,0 0,0 -0.01,0 -0.01,0 -0.01,0 0,0 -0.01,0 -0.01,0 -0.01,0 -0.01,0 c -0.44,-0.44 -1.08,-0.45 -1.37,-0.45 v -0.25 c 0.17,0 0.63,0 1.02,0.2 v -3.56 c 0,-0.23 0,-0.32 -0.7,-0.32 h -0.27 v -0.25 c 0.13,0.01 0.99,0.03 1.25,0.03 0.21,0 1.09,-0.02 1.24,-0.03 v 0.25 h -0.26 c -0.7,0 -0.7,0.09 -0.7,0.32 z"
   id="path5916" />
</g>
<g
   style="font-style:normal;font-variant:normal;font-weight:normal;font-stretch:normal;letter-spacing:normal;word-spacing:normal;text-anchor:start;fill:none;stroke:#000000;stroke-linecap:butt;stroke-linejoin:miter;stroke-miterlimit:10.43299961;stroke-opacity:1;stroke-dasharray:none;stroke-dashoffset:0"
   ns0:preamble=""
   ns0:text="$x_2$"
   word-spacing="normal"
   letter-spacing="normal"
   font-size-adjust="none"
   font-stretch="normal"
   font-weight="normal"
   font-variant="normal"
   font-style="normal"
   fill-rule="even-odd"
   stroke-miterlimit="10.433"
   xml:space="preserve"
   transform="matrix(2,0,0,2,-395.55564,-1076.5424)"
   id="g6005">
<path
   id="path6007"
   d="m 226.76,710.13 0.01,0.03 0,0.03 0.01,0.03 0.01,0.04 0.01,0.03 0.01,0.05 0.02,0.04 0.01,0.04 0.02,0.05 0.01,0.05 0.02,0.05 0.02,0.05 0.03,0.05 0.02,0.05 0.03,0.05 0.02,0.05 0.03,0.04 0.03,0.05 0.04,0.05 0.03,0.04 0.04,0.05 0.04,0.04 0.04,0.03 0.05,0.04 0.04,0.03 0.05,0.03 0.03,0.01 0.02,0.02 0.03,0.01 0.03,0.01 0.02,0.01 0.03,0 0.03,0.01 0.03,0.01 0.03,0 0.03,0 0.03,0.01 0.04,0 c 0.05,0 0.29,0 0.49,-0.13 -0.28,-0.05 -0.47,-0.3 -0.47,-0.54 0,-0.16 0.11,-0.35 0.38,-0.35 0.21,0 0.53,0.18 0.53,0.58 0,0.52 -0.58,0.66 -0.92,0.66 -0.58,0 -0.93,-0.53 -1.05,-0.76 -0.25,0.66 -0.79,0.76 -1.08,0.76 -1.03,0 -1.6,-1.29 -1.6,-1.54 0,-0.1 0.1,-0.1 0.12,-0.1 0.08,0 0.11,0.02 0.13,0.11 0.34,1.06 1,1.31 1.33,1.31 0.19,0 0.54,-0.09 0.54,-0.67 0,-0.31 -0.17,-0.98 -0.54,-2.37 -0.15,-0.62 -0.5,-1.04 -0.94,-1.04 -0.06,0 -0.29,0 -0.5,0.13 0.25,0.05 0.47,0.26 0.47,0.54 0,0.27 -0.22,0.35 -0.37,0.35 -0.3,0 -0.55,-0.26 -0.55,-0.58 0,-0.46 0.5,-0.66 0.94,-0.66 0.66,0 1.01,0.7 1.04,0.76 0.12,-0.37 0.48,-0.76 1.08,-0.76 1.03,0 1.59,1.29 1.59,1.54 0,0.1 -0.09,0.1 -0.12,0.1 -0.09,0 -0.1,-0.04 -0.13,-0.11 -0.32,-1.07 -1,-1.31 -1.32,-1.31 -0.39,0 -0.55,0.32 -0.55,0.66 0,0.22 0.06,0.44 0.17,0.88 z"
   style="fill:#000000;stroke-width:0" />
<path
   id="path6009"
   d="m 232.65,706.9 h -0.24 c -0.02,-0.15 -0.09,-0.57 -0.18,-0.63 -0.06,-0.05 -0.59,-0.05 -0.69,-0.05 h -1.28 c 0.73,0.65 0.97,0.85 1.39,1.17 0.52,0.42 1,0.85 1,1.51 0,0.84 -0.74,1.36 -1.64,1.36 -0.86,0 -1.45,-0.61 -1.45,-1.25 0,-0.35 0.3,-0.39 0.37,-0.39 0.17,0 0.37,0.12 0.37,0.37 0,0.13 -0.04,0.37 -0.41,0.37 0.22,0.5 0.69,0.65 1.02,0.65 0.7,0 1.06,-0.54 1.06,-1.11 0,-0.61 -0.43,-1.09 -0.65,-1.34 l -1.69,-1.66 c -0.07,-0.06 -0.07,-0.07 -0.07,-0.27 h 2.88 z"
   style="fill:#000000;stroke-width:0" />
</g>
<g
   id="g6092"
   transform="matrix(2,0,0,2,-213.33344,-1036.5424)"
   xml:space="preserve"
   stroke-miterlimit="10.433"
   fill-rule="even-odd"
   font-style="normal"
   font-variant="normal"
   font-weight="normal"
   font-stretch="normal"
   font-size-adjust="none"
   letter-spacing="normal"
   word-spacing="normal"
   ns0:text="$x_3$"
   ns0:preamble=""
   style="font-style:normal;font-variant:normal;font-weight:normal;font-stretch:normal;letter-spacing:normal;word-spacing:normal;text-anchor:start;fill:none;stroke:#000000;stroke-linecap:butt;stroke-linejoin:miter;stroke-miterlimit:10.43299961;stroke-opacity:1;stroke-dasharray:none;stroke-dashoffset:0">
<path
   d="m 226.76,710.13 0.01,0.03 0,0.03 0.01,0.03 0.01,0.04 0.01,0.03 0.01,0.05 0.02,0.04 0.01,0.04 0.02,0.05 0.01,0.05 0.02,0.05 0.02,0.05 0.03,0.05 0.02,0.05 0.03,0.05 0.02,0.05 0.03,0.04 0.03,0.05 0.04,0.05 0.03,0.04 0.04,0.05 0.04,0.04 0.04,0.03 0.05,0.04 0.04,0.03 0.05,0.03 0.03,0.01 0.02,0.02 0.03,0.01 0.03,0.01 0.02,0.01 0.03,0 0.03,0.01 0.03,0.01 0.03,0 0.03,0 0.03,0.01 0.04,0 c 0.05,0 0.29,0 0.49,-0.13 -0.28,-0.05 -0.47,-0.3 -0.47,-0.54 0,-0.16 0.11,-0.35 0.38,-0.35 0.21,0 0.53,0.18 0.53,0.58 0,0.52 -0.58,0.66 -0.92,0.66 -0.58,0 -0.93,-0.53 -1.05,-0.76 -0.25,0.66 -0.79,0.76 -1.08,0.76 -1.03,0 -1.6,-1.29 -1.6,-1.54 0,-0.1 0.1,-0.1 0.12,-0.1 0.08,0 0.11,0.02 0.13,0.11 0.34,1.06 1,1.31 1.33,1.31 0.19,0 0.54,-0.09 0.54,-0.67 0,-0.31 -0.17,-0.98 -0.54,-2.37 -0.15,-0.62 -0.5,-1.04 -0.94,-1.04 -0.06,0 -0.29,0 -0.5,0.13 0.25,0.05 0.47,0.26 0.47,0.54 0,0.27 -0.22,0.35 -0.37,0.35 -0.3,0 -0.55,-0.26 -0.55,-0.58 0,-0.46 0.5,-0.66 0.94,-0.66 0.66,0 1.01,0.7 1.04,0.76 0.12,-0.37 0.48,-0.76 1.08,-0.76 1.03,0 1.59,1.29 1.59,1.54 0,0.1 -0.09,0.1 -0.12,0.1 -0.09,0 -0.1,-0.04 -0.13,-0.11 -0.32,-1.07 -1,-1.31 -1.32,-1.31 -0.39,0 -0.55,0.32 -0.55,0.66 0,0.22 0.06,0.44 0.17,0.88 z"
   id="path6094"
   style="fill:#000000;stroke-width:0" />
<path
   d="m 231.03,707.96 0.05,0 0.05,-0.01 0.05,0 0.05,-0.01 0.04,-0.01 0.05,-0.01 0.04,-0.01 0.04,-0.02 0.05,-0.02 0.04,-0.02 0.04,-0.02 0.03,-0.03 0.04,-0.03 0.03,-0.03 0.04,-0.03 0.03,-0.03 0.03,-0.04 0.03,-0.04 0.03,-0.04 0.02,-0.04 0.02,-0.05 0.03,-0.04 0.02,-0.05 0.01,-0.05 0.02,-0.06 0.01,-0.05 0.02,-0.06 0.01,-0.06 0,-0.06 0.01,-0.07 0,-0.07 0,-0.06 c 0,-0.87 -0.5,-1.13 -0.9,-1.13 -0.28,0 -0.9,0.08 -1.19,0.49 0.33,0.02 0.41,0.25 0.41,0.39 0,0.23 -0.17,0.39 -0.39,0.39 -0.19,0 -0.39,-0.12 -0.39,-0.41 0,-0.65 0.73,-1.08 1.57,-1.08 0.97,0 1.64,0.65 1.64,1.35 0,0.54 -0.45,1.08 -1.21,1.25 0.73,0.26 0.99,0.78 0.99,1.21 0,0.55 -0.63,0.96 -1.4,0.96 -0.78,0 -1.37,-0.38 -1.37,-0.93 0,-0.24 0.15,-0.37 0.36,-0.37 0.22,0 0.36,0.16 0.36,0.35 0,0.2 -0.14,0.35 -0.36,0.36 0.24,0.31 0.73,0.39 0.98,0.39 0.32,0 0.76,-0.15 0.76,-0.76 0,-0.29 -0.1,-0.62 -0.28,-0.83 -0.23,-0.27 -0.43,-0.28 -0.78,-0.3 -0.17,-0.01 -0.18,-0.01 -0.22,-0.02 -0.01,0 -0.07,-0.02 -0.07,-0.09 0,-0.1 0.06,-0.1 0.18,-0.1 z"
   id="path6096"
   style="fill:#000000;stroke-width:0" />
</g>
<g
   ns0:preamble=""
   ns0:text="$\\mathbf{F}$"
   word-spacing="normal"
   letter-spacing="normal"
   font-size-adjust="none"
   font-stretch="normal"
   font-weight="normal"
   font-variant="normal"
   font-style="normal"
   fill-rule="even-odd"
   stroke-miterlimit="10.433"
   xml:space="preserve"
   transform="matrix(2,0,0,2,-342.22216,-1106.4844)"
   id="g6182"
   style="font-style:normal;font-variant:normal;font-weight:normal;font-stretch:normal;letter-spacing:normal;word-spacing:normal;text-anchor:start;fill:none;stroke:#000000;stroke-linecap:butt;stroke-linejoin:miter;stroke-miterlimit:10.43299961;stroke-opacity:1;stroke-dasharray:none;stroke-dashoffset:0">
<path
   id="path6184"
   d="m 229.85,713.9 h -6.03 v -0.47 h 1.08 v -5.84 h -1.08 v -0.47 c 0.38,0.03 1.39,0.03 1.82,0.03 0.49,0 1.58,0 2.02,-0.03 v 0.47 h -1.35 v 2.69 h 0.5 c 0.96,0 1.05,-0.43 1.05,-1.17 h 0.46 v 2.8 h -0.46 c 0,-0.73 -0.08,-1.16 -1.05,-1.16 h -0.5 v 2.68 h 1.4 c 1.6,0 1.83,-0.77 1.98,-1.93 h 0.47 z"
   style="fill:#000000;stroke-width:0" />
</g>
<g
   style="font-style:normal;font-variant:normal;font-weight:normal;font-stretch:normal;letter-spacing:normal;word-spacing:normal;text-anchor:start;fill:none;stroke:#000000;stroke-linecap:butt;stroke-linejoin:miter;stroke-miterlimit:10.43299961;stroke-opacity:1;stroke-dasharray:none;stroke-dashoffset:0"
   id="g6234"
   transform="matrix(2,0,0,2,-342.2222,-782.0402)"
   xml:space="preserve"
   stroke-miterlimit="10.433"
   fill-rule="even-odd"
   font-style="normal"
   font-variant="normal"
   font-weight="normal"
   font-stretch="normal"
   font-size-adjust="none"
   letter-spacing="normal"
   word-spacing="normal"
   ns0:text="$\\mathbf{F}$"
   ns0:preamble="">
<path
   style="fill:#000000;stroke-width:0"
   d="m 229.85,713.9 h -6.03 v -0.47 h 1.08 v -5.84 h -1.08 v -0.47 c 0.38,0.03 1.39,0.03 1.82,0.03 0.49,0 1.58,0 2.02,-0.03 v 0.47 h -1.35 v 2.69 h 0.5 c 0.96,0 1.05,-0.43 1.05,-1.17 h 0.46 v 2.8 h -0.46 c 0,-0.73 -0.08,-1.16 -1.05,-1.16 h -0.5 v 2.68 h 1.4 c 1.6,0 1.83,-0.77 1.98,-1.93 h 0.47 z"
   id="path6236" />
</g><path
   transform="matrix(2.2222222,0,0,-2.2222222,-222.22221,2107.8912)"
   d="m 191.65204,782.55005 c 0,6.04389 -14.1711,10.94344 -31.65204,10.94344 -17.48094,0 -31.65204,-4.89955 -31.65204,-10.94344 0,-6.0439 14.1711,-10.94344 31.65204,-10.94344 17.48094,0 31.65204,4.89954 31.65204,10.94344 z"
   sodipodi:ry="10.94344"
   sodipodi:rx="31.652042"
   sodipodi:cy="782.55005"
   sodipodi:cx="160"
   id="path6311"
   style="fill:none;stroke:#000000;stroke-width:1.5;stroke-linecap:square;stroke-linejoin:bevel;stroke-miterlimit:4;stroke-opacity:1;stroke-dasharray:none;stroke-dashoffset:0"
   sodipodi:type="arc" /><path
   transform="matrix(2.2222222,0,0,-2.2222222,0,2339)"
   id="path4505"
   d="m 90.835771,782.60661 0.04559,104 -61.794255,0 -0.09769,-104 61.846354,0 z"
   style="fill:#ffffff;fill-opacity:1;stroke:none"
   sodipodi:nodetypes="ccccc" /><path
   sodipodi:type="arc"
   style="fill:none;stroke:#000000;stroke-width:1.5;stroke-linecap:square;stroke-linejoin:bevel;stroke-miterlimit:4;stroke-opacity:1;stroke-dasharray:none;stroke-dashoffset:0"
   id="path4422"
   sodipodi:cx="160"
   sodipodi:cy="782.55005"
   sodipodi:rx="31.652042"
   sodipodi:ry="10.94344"
   d="m 191.65204,782.55005 c 0,6.04389 -14.1711,10.94344 -31.65204,10.94344 -17.48094,0 -31.65204,-4.89955 -31.65204,-10.94344 0,-6.0439 14.1711,-10.94344 31.65204,-10.94344 17.48094,0 31.65204,4.89954 31.65204,10.94344 z"
   transform="matrix(2.2222222,0,0,-2.2222222,-222.22221,2339)" /><path
   transform="matrix(2.2222222,0,0,-2.2222222,-222.22221,2339)"
   d="m 187.65204,782.55005 c 0,4.38704 -12.38024,7.94344 -27.65204,7.94344 -15.2718,0 -27.65204,-3.5564 -27.65204,-7.94344 0,-4.38704 12.38024,-7.94344 27.65204,-7.94344 15.2718,0 27.65204,3.5564 27.65204,7.94344 z"
   sodipodi:ry="7.9434404"
   sodipodi:rx="27.652042"
   sodipodi:cy="782.55005"
   sodipodi:cx="160"
   id="path6305"
   style="fill:none;stroke:#000000;stroke-width:1.5;stroke-linecap:square;stroke-linejoin:bevel;stroke-miterlimit:4;stroke-opacity:1;stroke-dasharray:none;stroke-dashoffset:0"
   sodipodi:type="arc" /><g
   id="g6363"
   transform="matrix(2,0,0,2,-280.00004,-786.48464)"
   xml:space="preserve"
   stroke="black"
   stroke-linecap="butt"
   stroke-linejoin="miter"
   stroke-miterlimit="10.433"
   stroke-dasharray="none"
   stroke-dashoffset="0"
   stroke-opacity="1"
   fill="none"
   fill-rule="even-odd"
   fill-opacity="1"
   font-style="normal"
   font-variant="normal"
   font-weight="normal"
   font-stretch="normal"
   font-size-adjust="none"
   letter-spacing="normal"
   word-spacing="normal"
   text-anchor="start"
   ns0:text="$\\mathbf{M}$"
   ns0:preamble=""
   style="font-style:normal;font-variant:normal;font-weight:normal;font-stretch:normal;letter-spacing:normal;word-spacing:normal;text-anchor:start;fill:none;stroke:#000000;stroke-linecap:butt;stroke-linejoin:miter;stroke-miterlimit:10.43299961;stroke-opacity:1;stroke-dasharray:none;stroke-dashoffset:0">
<path
   d="M228.87,708.44 L226.48,713.71 C226.37,713.96,226.26,713.96,226.04,713.96 H223.83 V713.49 H224.91 V707.88 C224.91,707.66,224.9,707.65,224.62,707.62 C224.38,707.59,224.36,707.59,224.08,707.59 H223.83 V707.12 C224.21,707.15,224.78,707.15,225.17,707.15 C225.58,707.15,226.1,707.15,226.51,707.12 V707.59 H226.26 C226.08,707.59,225.91,707.6,225.73,707.62 C225.45,707.65,225.43,707.66,225.43,707.88 V713.36 H225.45 L228.15,707.37 C228.24,707.17,228.36,707.12,228.47,707.12 C228.67,707.12,228.75,707.27,228.79,707.36 L231.57,713.49 H231.58 V707.59 H230.51 V707.12 C230.87,707.15,231.79,707.15,232.2,707.15 C232.61,707.15,233.54,707.15,233.9,707.12 V707.59 H232.83 V713.49 H233.9 V713.96 H231.7 C231.48,713.96,231.37,713.96,231.26,713.71 Z "
   stroke-width="0"
   fill="black"
   id="path6365" />
</g>
<g
   style="font-style:normal;font-variant:normal;font-weight:normal;font-stretch:normal;letter-spacing:normal;word-spacing:normal;text-anchor:start;fill:none;stroke:#000000;stroke-linecap:butt;stroke-linejoin:miter;stroke-miterlimit:10.43299961;stroke-opacity:1;stroke-dasharray:none;stroke-dashoffset:0"
   ns0:preamble=""
   ns0:text="$\\mathbf{M}$"
   word-spacing="normal"
   letter-spacing="normal"
   font-size-adjust="none"
   font-stretch="normal"
   font-weight="normal"
   font-variant="normal"
   font-style="normal"
   fill-rule="even-odd"
   stroke-miterlimit="10.433"
   xml:space="preserve"
   transform="matrix(2,0,0,2,-266.66672,-1093.1508)"
   id="g6420">
<path
   style="fill:#000000;stroke-width:0"
   id="path6422"
   d="m 228.87,708.44 -2.39,5.27 c -0.11,0.25 -0.22,0.25 -0.44,0.25 h -2.21 v -0.47 h 1.08 v -5.61 c 0,-0.22 -0.01,-0.23 -0.29,-0.26 -0.24,-0.03 -0.26,-0.03 -0.54,-0.03 h -0.25 v -0.47 c 0.38,0.03 0.95,0.03 1.34,0.03 0.41,0 0.93,0 1.34,-0.03 v 0.47 h -0.25 c -0.18,0 -0.35,0.01 -0.53,0.03 -0.28,0.03 -0.3,0.04 -0.3,0.26 v 5.48 h 0.02 l 2.7,-5.99 c 0.09,-0.2 0.21,-0.25 0.32,-0.25 0.2,0 0.28,0.15 0.32,0.24 l 2.78,6.13 h 0.01 v -5.9 h -1.07 v -0.47 c 0.36,0.03 1.28,0.03 1.69,0.03 0.41,0 1.34,0 1.7,-0.03 v 0.47 h -1.07 v 5.9 h 1.07 v 0.47 h -2.2 c -0.22,0 -0.33,0 -0.44,-0.25 z" />
</g><path
   id="path4507"
   d="m 62.841674,599.99991 0,-233.33333"
   style="fill:none;stroke:#000000;stroke-width:3.33333325;stroke-linecap:butt;stroke-linejoin:miter;stroke-miterlimit:4;stroke-opacity:1;stroke-dasharray:none" /><path
   id="path4509"
   d="m 203.69667,599.99991 0,-233.33333"
   style="fill:none;stroke:#000000;stroke-width:3.33333325;stroke-linecap:butt;stroke-linejoin:miter;stroke-miterlimit:4;stroke-opacity:1;stroke-dasharray:none" /></g><path
   style="fill:none;stroke:#000000;stroke-width:6.66666651;stroke-linecap:butt;stroke-linejoin:miter;stroke-miterlimit:4;stroke-opacity:1;stroke-dasharray:none;marker-end:url(#Arrow2Send)"
   d="m -88.888888,367.54259 0,-55.55555"
   id="path4522" /><path
   id="path5882"
   d="m -88.888888,598.76281 0,55.55556"
   style="fill:none;stroke:#000000;stroke-width:6.66666651;stroke-linecap:butt;stroke-linejoin:miter;stroke-miterlimit:4;stroke-opacity:1;stroke-dasharray:none;marker-end:url(#Arrow2Send)" /><g
   id="g4518"
   transform="translate(-444.44441,1.3140277)"><path
     style="fill:none;stroke:#000000;stroke-width:1px;stroke-linecap:butt;stroke-linejoin:miter;stroke-opacity:1;marker-end:url(#Arrow2Mend)"
     d="m 160,887.55005 -30,20"
     id="path4234"
     transform="matrix(2.2222222,0,0,-2.2222222,0,2339)" /><path
     style="fill:none;stroke:#000000;stroke-width:1px;stroke-linecap:butt;stroke-linejoin:miter;stroke-opacity:1;marker-start:url(#Arrow2Mstart);marker-end:url(#Arrow2Mend)"
     d="m 215,887.55005 -55,0 0,-144.99999"
     id="path2824"
     transform="matrix(2.2222222,0,0,-2.2222222,0,2339)" /></g><path
   sodipodi:nodetypes="cc"
   style="fill:none;stroke:#000000;stroke-width:6.66666651;stroke-linecap:butt;stroke-linejoin:miter;stroke-miterlimit:4;stroke-opacity:1;stroke-dasharray:none;marker-end:url(#Arrow2Send)"
   d="M -52.830486,339.87422 C -70.279358,328.00278 -97.88868,328.72571 -119.37363,335.8179"
   id="path6424" /><path
   id="path6426"
   d="m -120.90346,597.38346 c 18.33149,-10.45708 45.797601,-7.55707 66.655693,1.2089"
   style="fill:none;stroke:#000000;stroke-width:6.66666651;stroke-linecap:butt;stroke-linejoin:miter;stroke-miterlimit:4;stroke-opacity:1;stroke-dasharray:none;marker-end:url(#Arrow2Send)"
   sodipodi:nodetypes="cc" /><g
   id="g7216"><path
     style="fill:none;stroke:#000000;stroke-width:2.22222209px;stroke-linecap:butt;stroke-linejoin:miter;stroke-opacity:1;marker-start:url(#Arrow2Mstart);marker-end:url(#Arrow2Mend)"
     d="m -47.645454,512.33154 0,-44.44445 33.333336,-22.22222"
     id="path6428"
     sodipodi:nodetypes="ccc" /><path
     style="fill:none;stroke:#000000;stroke-width:2.22222209px;stroke-linecap:butt;stroke-linejoin:miter;stroke-opacity:1;marker-end:url(#Arrow2Mend)"
     d="M -47.645454,467.88709 -3.2010072,478.9982"
     id="path7018"
     sodipodi:nodetypes="cc" /></g><g
   ns0:preamble=""
   ns0:text="$\\vec{e}_r$"
   word-spacing="normal"
   letter-spacing="normal"
   font-size-adjust="none"
   font-stretch="normal"
   font-weight="normal"
   font-variant="normal"
   font-style="normal"
   fill-rule="even-odd"
   stroke-miterlimit="10.433"
   xml:space="preserve"
   transform="matrix(1.5,0,0,1.5,-375.55556,-622.47784)"
   id="g7275"
   style="font-style:normal;font-variant:normal;font-weight:normal;font-stretch:normal;letter-spacing:normal;word-spacing:normal;text-anchor:start;fill:none;stroke:#000000;stroke-linecap:butt;stroke-linejoin:miter;stroke-miterlimit:10.43299961;stroke-opacity:1;stroke-dasharray:none;stroke-dashoffset:0">
<path
   id="path7277"
   d="m 228.4,713.05 -0.01,-0.01 -0.02,-0.02 -0.01,-0.01 -0.02,-0.01 -0.02,-0.02 -0.02,-0.02 -0.01,-0.01 -0.02,-0.02 -0.02,-0.02 -0.02,-0.02 -0.04,-0.04 -0.04,-0.03 -0.04,-0.04 -0.01,-0.03 -0.02,-0.02 -0.02,-0.02 -0.02,-0.02 -0.01,-0.02 -0.02,-0.02 -0.01,-0.02 -0.01,-0.02 -0.02,-0.02 -0.01,-0.02 -0.01,-0.02 0,-0.02 -0.01,-0.01 0,-0.02 -0.01,-0.02 0,-0.02 c 0,-0.1 0.1,-0.2 0.2,-0.2 0.09,0 0.14,0.07 0.19,0.13 0.12,0.15 0.35,0.43 0.79,0.65 0.07,0.04 0.17,0.09 0.17,0.21 0,0.1 -0.07,0.15 -0.14,0.2 -0.22,0.15 -0.33,0.33 -0.41,0.57 -0.02,0.09 -0.06,0.22 -0.2,0.22 -0.14,0 -0.2,-0.13 -0.2,-0.21 0,-0.05 0.08,-0.37 0.24,-0.58 h -3.36 c -0.17,0 -0.35,0 -0.35,-0.2 0,-0.2 0.18,-0.2 0.35,-0.2 z"
   style="fill:#000000;stroke-width:0" />
<path
   id="path7279"
   d="m 225.3,709.42 0.03,0 0.03,0 0.04,0 0.03,0.01 0.04,0 0.04,0 0.04,0 0.04,0 0.05,0 0.04,0.01 0.05,0 0.05,0 0.05,0.01 0.05,0 0.11,0.01 0.1,0.01 0.11,0.02 0.11,0.02 0.11,0.02 0.11,0.02 0.05,0.02 0.05,0.01 0.05,0.02 0.05,0.02 0.05,0.01 0.05,0.02 c 0.69,0.3 0.74,0.89 0.74,1.03 0,0.44 -0.37,0.85 -1.06,0.85 v -0.22 c 0.47,0 0.74,-0.29 0.74,-0.63 0,-1.04 -1.6,-1.04 -2.01,-1.04 h -0.4 c 0.38,1.52 1.41,1.67 1.67,1.67 v 0.22 c -1.11,0 -2.61,-0.97 -2.61,-2.71 0,-1.02 0.59,-1.81 1.56,-1.81 1.43,0 2.26,1.06 2.26,1.18 0,0.06 -0.06,0.13 -0.12,0.13 -0.05,0 -0.06,-0.02 -0.12,-0.1 -0.79,-0.99 -1.88,-0.99 -2,-0.99 -0.77,0 -0.86,0.84 -0.86,1.16 0,0.12 0.01,0.43 0.15,1.03 z"
   style="fill:#000000;stroke-width:0" />
<path
   id="path7281"
   d="m 229.71,707.04 0,0 0,0 0,0.01 0,0 0,0.01 0,0.01 0,0 0.01,0.01 0,0.01 0,0.01 0,0.01 0,0.01 0.01,0.01 0,0.01 0.01,0.02 0,0.03 0.01,0.02 0.01,0.03 0,0.03 0.01,0.03 0.01,0.03 0.01,0.06 0.02,0.07 0.01,0.03 0.01,0.03 0,0.02 0.01,0.03 0.01,0.03 0,0.02 0.01,0.03 0,0.01 0.01,0.01 0,0.01 0,0.01 0,0.01 0.01,0 0,0.01 0,0.01 0,0 0,0.01 0.01,0 0,0.01 0,0 0,0 c 0.01,0.06 0.21,0.41 0.44,0.58 0.07,0.05 0.26,0.19 0.56,0.19 0.07,0 0.25,-0.01 0.38,-0.1 -0.22,-0.06 -0.3,-0.25 -0.3,-0.38 0,-0.15 0.12,-0.26 0.28,-0.26 0.16,0 0.39,0.13 0.39,0.43 0,0.36 -0.38,0.51 -0.74,0.51 -0.36,0 -0.68,-0.15 -0.98,-0.5 -0.13,0.43 -0.55,0.5 -0.72,0.5 -0.26,0 -0.44,-0.17 -0.55,-0.36 -0.16,-0.27 -0.25,-0.68 -0.25,-0.71 0,-0.09 0.09,-0.09 0.11,-0.09 0.1,0 0.11,0.02 0.16,0.21 0.1,0.42 0.23,0.75 0.51,0.75 0.18,0 0.23,-0.15 0.23,-0.34 0,-0.13 -0.07,-0.39 -0.12,-0.58 -0.04,-0.19 -0.11,-0.48 -0.15,-0.63 l -0.22,-0.89 c -0.03,-0.09 -0.07,-0.27 -0.07,-0.29 0,-0.15 0.12,-0.22 0.24,-0.22 0.1,0 0.24,0.06 0.3,0.2 0.01,0.04 0.09,0.35 0.13,0.53 z"
   style="fill:#000000;stroke-width:0" />
</g>
<g
   id="g7419"
   transform="matrix(1.5,0,0,1.5,-340.00004,-569.14452)"
   xml:space="preserve"
   stroke="black"
   stroke-linecap="butt"
   stroke-linejoin="miter"
   stroke-miterlimit="10.433"
   stroke-dasharray="none"
   stroke-dashoffset="0"
   stroke-opacity="1"
   fill="none"
   fill-rule="even-odd"
   fill-opacity="1"
   font-style="normal"
   font-variant="normal"
   font-weight="normal"
   font-stretch="normal"
   font-size-adjust="none"
   letter-spacing="normal"
   word-spacing="normal"
   text-anchor="start"
   ns0:text="$\\vec{e}_{\\theta}$"
   ns0:preamble=""
   style="font-style:normal;font-variant:normal;font-weight:normal;font-stretch:normal;letter-spacing:normal;word-spacing:normal;text-anchor:start;fill:none;stroke:#000000;stroke-linecap:butt;stroke-linejoin:miter;stroke-miterlimit:10.43299961;stroke-opacity:1;stroke-dasharray:none;stroke-dashoffset:0">
<path
   d="M228.4,713.05 L228.39,713.04 L228.37,713.02 L228.36,713.01 L228.34,713 L228.32,712.98 L228.3,712.96 L228.29,712.95 L228.27,712.93 L228.25,712.91 L228.23,712.89 L228.19,712.85 L228.15,712.82 L228.11,712.78 L228.1,712.75 L228.08,712.73 L228.06,712.71 L228.04,712.69 L228.03,712.67 L228.01,712.65 L228,712.63 L227.99,712.61 L227.97,712.59 L227.96,712.57 L227.95,712.55 L227.95,712.53 L227.94,712.52 L227.94,712.5 L227.93,712.48 L227.93,712.46 C227.93,712.36,228.03,712.26,228.13,712.26 C228.22,712.26,228.27,712.33,228.32,712.39 C228.44,712.54,228.67,712.82,229.11,713.04 C229.18,713.08,229.28,713.13,229.28,713.25 C229.28,713.35,229.21,713.4,229.14,713.45 C228.92,713.6,228.81,713.78,228.73,714.02 C228.71,714.11,228.67,714.24,228.53,714.24 C228.39,714.24,228.33,714.11,228.33,714.03 C228.33,713.98,228.41,713.66,228.57,713.45 H225.21 C225.04,713.45,224.86,713.45,224.86,713.25 C224.86,713.05,225.04,713.05,225.21,713.05 Z "
   stroke-width="0"
   fill="black"
   id="path7421" />
<path
   d="M225.3,709.42 L225.33,709.42 L225.36,709.42 L225.4,709.42 L225.43,709.43 L225.47,709.43 L225.51,709.43 L225.55,709.43 L225.59,709.43 L225.64,709.43 L225.68,709.44 L225.73,709.44 L225.78,709.44 L225.83,709.45 L225.88,709.45 L225.99,709.46 L226.09,709.47 L226.2,709.49 L226.31,709.51 L226.42,709.53 L226.53,709.55 L226.58,709.57 L226.63,709.58 L226.68,709.6 L226.73,709.62 L226.78,709.63 L226.83,709.65 C227.52,709.95,227.57,710.54,227.57,710.68 C227.57,711.12,227.2,711.53,226.51,711.53 V711.31 C226.98,711.31,227.25,711.02,227.25,710.68 C227.25,709.64,225.65,709.64,225.24,709.64 H224.84 C225.22,711.16,226.25,711.31,226.51,711.31 V711.53 C225.4,711.53,223.9,710.56,223.9,708.82 C223.9,707.8,224.49,707.01,225.46,707.01 C226.89,707.01,227.72,708.07,227.72,708.19 C227.72,708.25,227.66,708.32,227.6,708.32 C227.55,708.32,227.54,708.3,227.48,708.22 C226.69,707.23,225.6,707.23,225.48,707.23 C224.71,707.23,224.62,708.07,224.62,708.39 C224.62,708.51,224.63,708.82,224.77,709.42 Z "
   stroke-width="0"
   fill="black"
   id="path7423" />
<path
   d="M231.63,709.03 L231.63,709.09 L231.63,709.16 L231.62,709.23 L231.62,709.3 L231.61,709.37 L231.6,709.44 L231.59,709.5 L231.58,709.57 L231.56,709.64 L231.55,709.7 L231.53,709.76 L231.51,709.83 L231.48,709.89 L231.46,709.95 L231.43,710 L231.41,710.06 L231.38,710.11 L231.34,710.16 L231.31,710.21 L231.27,710.25 L231.24,710.3 L231.19,710.34 L231.15,710.37 L231.11,710.41 L231.06,710.44 L231.01,710.46 L230.96,710.49 L230.91,710.5 L230.85,710.52 L230.79,710.53 L230.73,710.54 L230.67,710.54 L230.66,710.34 C231.11,710.34,231.11,709.57,231.11,709.44 C231.11,709.17,231.05,708.76,230.91,708.17 H229.29 C229.65,709.68,230.25,710.34,230.66,710.34 L230.67,710.54 C229.62,710.54,228.51,708.67,228.51,707.07 C228.51,706.24,228.83,705.56,229.47,705.56 L229.48,705.76 C229.09,705.76,229.03,706.29,229.03,706.66 C229.03,707.12,229.16,707.67,229.23,707.92 H230.84 C230.65,707.16,230.49,706.79,230.28,706.45 C230.06,706.08,229.78,705.76,229.48,705.76 L229.47,705.56 C230.53,705.56,231.63,707.46,231.63,709.03 Z "
   stroke-width="0"
   fill="black"
   id="path7425" />
</g>
<g
   style="font-style:normal;font-variant:normal;font-weight:normal;font-stretch:normal;letter-spacing:normal;word-spacing:normal;text-anchor:start;fill:none;stroke:#000000;stroke-linecap:butt;stroke-linejoin:miter;stroke-miterlimit:10.43299961;stroke-opacity:1;stroke-dasharray:none;stroke-dashoffset:0"
   ns0:preamble=""
   ns0:text="$\\vec{e}_z$"
   text-anchor="start"
   word-spacing="normal"
   letter-spacing="normal"
   font-size-adjust="none"
   font-stretch="normal"
   font-weight="normal"
   font-variant="normal"
   font-style="normal"
   fill-opacity="1"
   fill-rule="even-odd"
   fill="none"
   stroke-opacity="1"
   stroke-dashoffset="0"
   stroke-dasharray="none"
   stroke-miterlimit="10.433"
   stroke-linejoin="miter"
   stroke-linecap="butt"
   stroke="black"
   xml:space="preserve"
   transform="matrix(1.5,0,0,1.5,-402.2222,-551.36676)"
   id="g7555">
<path
   id="path7557"
   fill="black"
   stroke-width="0"
   d="M228.4,713.05 L228.39,713.04 L228.37,713.02 L228.36,713.01 L228.34,713 L228.32,712.98 L228.3,712.96 L228.29,712.95 L228.27,712.93 L228.25,712.91 L228.23,712.89 L228.19,712.85 L228.15,712.82 L228.11,712.78 L228.1,712.75 L228.08,712.73 L228.06,712.71 L228.04,712.69 L228.03,712.67 L228.01,712.65 L228,712.63 L227.99,712.61 L227.97,712.59 L227.96,712.57 L227.95,712.55 L227.95,712.53 L227.94,712.52 L227.94,712.5 L227.93,712.48 L227.93,712.46 C227.93,712.36,228.03,712.26,228.13,712.26 C228.22,712.26,228.27,712.33,228.32,712.39 C228.44,712.54,228.67,712.82,229.11,713.04 C229.18,713.08,229.28,713.13,229.28,713.25 C229.28,713.35,229.21,713.4,229.14,713.45 C228.92,713.6,228.81,713.78,228.73,714.02 C228.71,714.11,228.67,714.24,228.53,714.24 C228.39,714.24,228.33,714.11,228.33,714.03 C228.33,713.98,228.41,713.66,228.57,713.45 H225.21 C225.04,713.45,224.86,713.45,224.86,713.25 C224.86,713.05,225.04,713.05,225.21,713.05 Z " />
<path
   id="path7559"
   fill="black"
   stroke-width="0"
   d="M225.3,709.42 L225.33,709.42 L225.36,709.42 L225.4,709.42 L225.43,709.43 L225.47,709.43 L225.51,709.43 L225.55,709.43 L225.59,709.43 L225.64,709.43 L225.68,709.44 L225.73,709.44 L225.78,709.44 L225.83,709.45 L225.88,709.45 L225.99,709.46 L226.09,709.47 L226.2,709.49 L226.31,709.51 L226.42,709.53 L226.53,709.55 L226.58,709.57 L226.63,709.58 L226.68,709.6 L226.73,709.62 L226.78,709.63 L226.83,709.65 C227.52,709.95,227.57,710.54,227.57,710.68 C227.57,711.12,227.2,711.53,226.51,711.53 V711.31 C226.98,711.31,227.25,711.02,227.25,710.68 C227.25,709.64,225.65,709.64,225.24,709.64 H224.84 C225.22,711.16,226.25,711.31,226.51,711.31 V711.53 C225.4,711.53,223.9,710.56,223.9,708.82 C223.9,707.8,224.49,707.01,225.46,707.01 C226.89,707.01,227.72,708.07,227.72,708.19 C227.72,708.25,227.66,708.32,227.6,708.32 C227.55,708.32,227.54,708.3,227.48,708.22 C226.69,707.23,225.6,707.23,225.48,707.23 C224.71,707.23,224.62,708.07,224.62,708.39 C224.62,708.51,224.63,708.82,224.77,709.42 Z " />
<path
   id="path7561"
   fill="black"
   stroke-width="0"
   d="M229.24,706.24 L229.27,706.28 L229.31,706.31 L229.34,706.34 L229.37,706.38 L229.41,706.41 L229.43,706.43 L229.45,706.45 L229.47,706.47 L229.49,706.49 L229.51,706.51 L229.53,706.53 L229.56,706.55 L229.59,706.57 L229.61,706.6 L229.64,706.62 L229.67,706.65 L229.7,706.68 L229.74,706.7 L229.77,706.73 L229.81,706.77 L229.85,706.8 L229.89,706.83 L229.94,706.87 L229.98,706.91 L230.03,706.95 L230.08,706.99 L230.14,707.03 C230.29,707.15,230.81,707.57,231.01,707.76 C231.44,708.18,231.7,708.54,231.7,708.62 C231.7,708.71,231.61,708.71,231.58,708.71 C231.52,708.71,231.5,708.69,231.46,708.64 C231.25,708.32,231.1,708.21,230.93,708.21 C230.85,708.21,230.74,708.22,230.54,708.42 C230.3,708.66,230.15,708.71,229.99,708.71 C229.43,708.71,229.05,708.1,229.05,707.89 C229.05,707.83,229.12,707.81,229.17,707.81 C229.25,707.81,229.27,707.83,229.29,707.9 C229.4,708.15,229.79,708.16,229.9,708.16 C230.06,708.16,230.24,708.12,230.34,708.1 C230.73,708.02,230.77,708.02,230.95,708.02 C230.77,707.83,230.64,707.7,229.98,707.17 C229.43,706.74,229.25,706.57,229.11,706.42 C228.7,706.01,228.49,705.71,228.49,705.64 C228.49,705.56,228.58,705.56,228.61,705.56 C228.68,705.56,228.7,705.57,228.73,705.63 C228.92,705.9,229.13,706.05,229.37,706.05 C229.46,706.05,229.56,706.05,229.75,705.87 C229.96,705.66,230.1,705.56,230.33,705.56 C231.07,705.56,231.54,706.4,231.54,706.64 C231.54,706.72,231.46,706.73,231.42,706.73 C231.34,706.73,231.32,706.7,231.3,706.62 C231.16,706.27,230.75,706.1,230.41,706.1 C230.25,706.1,230.08,706.14,229.9,706.18 C229.58,706.25,229.52,706.25,229.4,706.25 C229.39,706.25,229.28,706.25,229.24,706.24 Z " />
</g>
</g></svg>