<?xml version="1.0" encoding="UTF-8" standalone="no"?>
<!-- Created with Inkscape (http://www.inkscape.org/) -->

<svg
   xmlns:ns0="http://www.iki.fi/pav/software/textext/"
   xmlns:dc="http://purl.org/dc/elements/1.1/"
   xmlns:cc="http://creativecommons.org/ns#"
   xmlns:rdf="http://www.w3.org/1999/02/22-rdf-syntax-ns#"
   xmlns:svg="http://www.w3.org/2000/svg"
   xmlns="http://www.w3.org/2000/svg"
   xmlns:sodipodi="http://sodipodi.sourceforge.net/DTD/sodipodi-0.dtd"
   xmlns:inkscape="http://www.inkscape.org/namespaces/inkscape"
   width="210.54149"
   height="133.2724"
   id="svg9818"
   version="1.1"
   inkscape:version="0.47 r22583"
   sodipodi:docname="Nouveau document 36">
  <defs
     id="defs9820">
    <inkscape:perspective
       sodipodi:type="inkscape:persp3d"
       inkscape:vp_x="0 : 526.18109 : 1"
       inkscape:vp_y="0 : 1000 : 0"
       inkscape:vp_z="744.09448 : 526.18109 : 1"
       inkscape:persp3d-origin="372.04724 : 350.78739 : 1"
       id="perspective9826" />
    <inkscape:perspective
       id="perspective9763"
       inkscape:persp3d-origin="0.5 : 0.33333333 : 1"
       inkscape:vp_z="1 : 0.5 : 1"
       inkscape:vp_y="0 : 1000 : 0"
       inkscape:vp_x="0 : 0.5 : 1"
       sodipodi:type="inkscape:persp3d" />
    <marker
       inkscape:stockid="Arrow2Mend"
       orient="auto"
       refY="0"
       refX="0"
       id="Arrow2Mend"
       style="overflow:visible">
      <path
         id="path3628"
         style="font-size:12px;fill-rule:evenodd;stroke-width:0.625;stroke-linejoin:round"
         d="M 8.7185878,4.0337352 -2.2072895,0.01601326 8.7185884,-4.0017078 c -1.7454984,2.3720609 -1.7354408,5.6174519 -6e-7,8.035443 z"
         transform="scale(-0.6,-0.6)" />
    </marker>
    <marker
       inkscape:stockid="Arrow2Mend"
       orient="auto"
       refY="0"
       refX="0"
       id="marker9769"
       style="overflow:visible">
      <path
         id="path9771"
         style="font-size:12px;fill-rule:evenodd;stroke-width:0.625;stroke-linejoin:round"
         d="M 8.7185878,4.0337352 -2.2072895,0.01601326 8.7185884,-4.0017078 c -1.7454984,2.3720609 -1.7354408,5.6174519 -6e-7,8.035443 z"
         transform="scale(-0.6,-0.6)" />
    </marker>
    <marker
       inkscape:stockid="Arrow2Mend"
       orient="auto"
       refY="0"
       refX="0"
       id="marker9773"
       style="overflow:visible">
      <path
         id="path9775"
         style="font-size:12px;fill-rule:evenodd;stroke-width:0.625;stroke-linejoin:round"
         d="M 8.7185878,4.0337352 -2.2072895,0.01601326 8.7185884,-4.0017078 c -1.7454984,2.3720609 -1.7354408,5.6174519 -6e-7,8.035443 z"
         transform="scale(-0.6,-0.6)" />
    </marker>
    <marker
       inkscape:stockid="Arrow2Mstart"
       orient="auto"
       refY="0"
       refX="0"
       id="Arrow2Mstart"
       style="overflow:visible">
      <path
         id="path3625"
         style="font-size:12px;fill-rule:evenodd;stroke-width:0.625;stroke-linejoin:round"
         d="M 8.7185878,4.0337352 -2.2072895,0.01601326 8.7185884,-4.0017078 c -1.7454984,2.3720609 -1.7354408,5.6174519 -6e-7,8.035443 z"
         transform="scale(0.6,0.6)" />
    </marker>
    <marker
       inkscape:stockid="Arrow2Mstart"
       orient="auto"
       refY="0"
       refX="0"
       id="marker9779"
       style="overflow:visible">
      <path
         id="path9781"
         style="font-size:12px;fill-rule:evenodd;stroke-width:0.625;stroke-linejoin:round"
         d="M 8.7185878,4.0337352 -2.2072895,0.01601326 8.7185884,-4.0017078 c -1.7454984,2.3720609 -1.7354408,5.6174519 -6e-7,8.035443 z"
         transform="scale(0.6,0.6)" />
    </marker>
    <marker
       inkscape:stockid="Arrow2Mend"
       orient="auto"
       refY="0"
       refX="0"
       id="marker9783"
       style="overflow:visible">
      <path
         id="path9785"
         style="font-size:12px;fill-rule:evenodd;stroke-width:0.625;stroke-linejoin:round"
         d="M 8.7185878,4.0337352 -2.2072895,0.01601326 8.7185884,-4.0017078 c -1.7454984,2.3720609 -1.7354408,5.6174519 -6e-7,8.035443 z"
         transform="scale(-0.6,-0.6)" />
    </marker>
    <marker
       inkscape:stockid="Arrow2Mstart"
       orient="auto"
       refY="0"
       refX="0"
       id="marker9787"
       style="overflow:visible">
      <path
         id="path9789"
         style="font-size:12px;fill-rule:evenodd;stroke-width:0.625;stroke-linejoin:round"
         d="M 8.7185878,4.0337352 -2.2072895,0.01601326 8.7185884,-4.0017078 c -1.7454984,2.3720609 -1.7354408,5.6174519 -6e-7,8.035443 z"
         transform="scale(0.6,0.6)" />
    </marker>
    <marker
       inkscape:stockid="Arrow2Mend"
       orient="auto"
       refY="0"
       refX="0"
       id="marker9791"
       style="overflow:visible">
      <path
         id="path9793"
         style="font-size:12px;fill-rule:evenodd;stroke-width:0.625;stroke-linejoin:round"
         d="M 8.7185878,4.0337352 -2.2072895,0.01601326 8.7185884,-4.0017078 c -1.7454984,2.3720609 -1.7354408,5.6174519 -6e-7,8.035443 z"
         transform="scale(-0.6,-0.6)" />
    </marker>
  </defs>
  <sodipodi:namedview
     id="base"
     pagecolor="#ffffff"
     bordercolor="#666666"
     borderopacity="1.0"
     inkscape:pageopacity="0.0"
     inkscape:pageshadow="2"
     inkscape:zoom="0.98994949"
     inkscape:cx="67.861962"
     inkscape:cy="74.045789"
     inkscape:document-units="px"
     inkscape:current-layer="g8434"
     showgrid="false"
     inkscape:window-width="605"
     inkscape:window-height="481"
     inkscape:window-x="0"
     inkscape:window-y="261"
     inkscape:window-maximized="0" />
  <metadata
     id="metadata9823">
    <rdf:RDF>
      <cc:Work
         rdf:about="">
        <dc:format>image/svg+xml</dc:format>
        <dc:type
           rdf:resource="http://purl.org/dc/dcmitype/StillImage" />
        <dc:title></dc:title>
      </cc:Work>
    </rdf:RDF>
  </metadata>
  <g
     inkscape:label="Calque 1"
     inkscape:groupmode="layer"
     id="layer1"
     transform="translate(-380.44355,-305.726)">
    <path
       style="fill:none;stroke:#000000;stroke-width:0.99999994px;stroke-linecap:butt;stroke-linejoin:miter;stroke-opacity:1;marker-start:url(#Arrow2Mstart);marker-end:url(#Arrow2Mend)"
       d="m 395.42503,315.39603 0,109.99994 174.99987,0"
       id="path2824" />
    <g
       id="g8434"
       transform="matrix(0.45,0,0,-0.45,255.42504,475.39598)">
      <path
         sodipodi:nodetypes="csc"
         id="path6326"
         d="m 377.77777,277.77769 c 10.68811,21.52823 25.23185,33.38608 41.63969,40.87739 16.40783,7.49131 34.67975,10.61607 52.82421,14.67814"
         style="fill:none;stroke:#000000;stroke-width:2.22222209px;stroke-linecap:butt;stroke-linejoin:miter;stroke-opacity:1;marker-mid:url(#Arrow2Mend)" />
      <path
         sodipodi:nodetypes="csc"
         id="path6708"
         d="m 471.11117,333.33322 c 39.35136,7.98948 79.89187,11.0088 117.5465,4.03637 37.65463,-6.97242 72.4234,-23.93658 100.23128,-55.91405"
         style="fill:none;stroke:#000000;stroke-width:2.22222209px;stroke-linecap:butt;stroke-linejoin:miter;stroke-opacity:1;marker-mid:url(#Arrow2Mend)" />
      <path
         sodipodi:nodetypes="ccc"
         id="path7282"
         d="m 423.36044,211.111 -19.45797,-49.99993 -19.458,-49.99993"
         style="fill:none;stroke:#000000;stroke-width:2.22222209px;stroke-linecap:butt;stroke-linejoin:miter;stroke-opacity:1;marker-mid:url(#Arrow2Mend)" />
      <path
         sodipodi:nodetypes="ccc"
         id="path7474"
         d="M 471.51382,333.33322 442.80823,261.11101 423.39422,211.111"
         style="fill:none;stroke:#000000;stroke-width:2.22222209px;stroke-linecap:butt;stroke-linejoin:miter;stroke-opacity:1;marker-mid:url(#Arrow2Mstart)" />
      <path
         transform="matrix(2.2222222,0,0,-2.2222222,0,2339)"
         id="path7856"
         d="m 140,1002.55 30,-74.99995"
         style="fill:none;stroke:#ff0000;stroke-width:1px;stroke-linecap:butt;stroke-linejoin:miter;stroke-opacity:1" />
      <path
         sodipodi:nodetypes="ccc"
         id="path7858"
         d="m 311.1111,111.11113 11.11111,27.77774 11.11112,27.77771"
         style="fill:none;stroke:#000000;stroke-width:2.22222209px;stroke-linecap:butt;stroke-linejoin:miter;stroke-opacity:1;marker-mid:url(#Arrow2Mstart)" />
      <path
         sodipodi:nodetypes="ccc"
         id="path8240"
         d="m 333.33333,166.66658 22.22222,55.55555 22.22222,55.55556"
         style="fill:none;stroke:#000000;stroke-width:2.22222209px;stroke-linecap:butt;stroke-linejoin:miter;stroke-opacity:1;marker-mid:url(#Arrow2Mend)" />
      <path
         transform="matrix(2.2222222,0,0,-2.2222222,16.66673,2359.4649)"
         d="m 304.2092,935.05005 c 0,0.94396 -0.76524,1.7092 -1.7092,1.7092 -0.94396,0 -1.7092,-0.76524 -1.7092,-1.7092 0,-0.94396 0.76524,-1.7092 1.7092,-1.7092 0.94396,0 1.7092,0.76524 1.7092,1.7092 z"
         sodipodi:ry="1.7091972"
         sodipodi:rx="1.7091972"
         sodipodi:cy="935.05005"
         sodipodi:cx="302.5"
         id="path8432"
         style="fill:#ffffff;fill-opacity:1;stroke:#000000;stroke-width:1;stroke-linecap:square;stroke-linejoin:bevel;stroke-miterlimit:4;stroke-opacity:1;stroke-dasharray:none;stroke-dashoffset:0"
         sodipodi:type="arc" />
    </g>
    <g
       ns0:preamble=""
       ns0:text="$\\sigma$"
       word-spacing="normal"
       letter-spacing="normal"
       font-size-adjust="none"
       font-stretch="normal"
       font-weight="normal"
       font-variant="normal"
       font-style="normal"
       fill-rule="even-odd"
       stroke-miterlimit="10.433"
       xml:space="preserve"
       transform="matrix(1.35,0,0,-1.35,78.300046,1275.0301)"
       id="content"
       style="font-style:normal;font-variant:normal;font-weight:normal;font-stretch:normal;letter-spacing:normal;word-spacing:normal;text-anchor:start;fill:none;stroke:#000000;stroke-linecap:butt;stroke-linejoin:miter;stroke-miterlimit:10.43299961;stroke-opacity:1;stroke-dasharray:none;stroke-dashoffset:0">
<path
   id="path8533"
   d="m 228.59,710.84 0.02,0 0.01,0 0.02,0 0.01,0 0.02,0 0.02,0 0.01,0 0.02,0 0.02,0.01 0.02,0 0.02,0 0.02,0.01 0.03,0 0.02,0.01 0.02,0 0.02,0.01 0.02,0.01 0.01,0.01 0.02,0.01 0.02,0.01 0.02,0.01 0.01,0.02 0.01,0.01 0.01,0 0.01,0.01 0,0.01 0.01,0.01 0.01,0.01 0,0.01 0.01,0.01 0,0.01 0.01,0.01 0,0.01 0.01,0.02 0,0.01 0,0.01 0,0.01 0.01,0.02 0,0.01 0,0.02 0,0.01 0,0.02 c 0,0.24 -0.21,0.24 -0.39,0.24 h -2.27 c -1.5,0 -2.61,-1.65 -2.61,-2.83 0,-0.88 0.59,-1.58 1.49,-1.58 l 0.02,0.22 c -0.49,0 -0.89,0.36 -0.89,1.08 0,0.3 0.12,1.11 0.47,1.7 0.42,0.69 1.01,0.83 1.35,0.83 0.84,0 0.92,-0.66 0.92,-0.97 0,-0.47 -0.2,-1.28 -0.54,-1.79 -0.39,-0.59 -0.93,-0.85 -1.31,-0.85 h 0 l -0.02,-0.22 c 1.18,0 2.51,1.21 2.51,2.74 0,0.17 0,0.65 -0.31,1.09 z"
   style="fill:#000000;stroke-width:0" />
</g>    <g
       id="g8597"
       transform="matrix(1.35,0,0,-1.35,276.30003,1387.03)"
       xml:space="preserve"
       stroke-miterlimit="10.433"
       fill-rule="even-odd"
       font-style="normal"
       font-variant="normal"
       font-weight="normal"
       font-stretch="normal"
       font-size-adjust="none"
       letter-spacing="normal"
       word-spacing="normal"
       ns0:text="$\\varepsilon_L$"
       ns0:preamble=""
       style="font-style:normal;font-variant:normal;font-weight:normal;font-stretch:normal;letter-spacing:normal;word-spacing:normal;text-anchor:start;fill:none;stroke:#000000;stroke-linecap:butt;stroke-linejoin:miter;stroke-miterlimit:10.43299961;stroke-opacity:1;stroke-dasharray:none;stroke-dashoffset:0">
<path
   d="m 224.84,709.38 0.03,-0.01 0.03,-0.01 0.03,-0.01 0.03,-0.01 0.03,-0.01 0.03,-0.01 0.03,-0.01 0.03,-0.01 0.02,0 0.03,-0.01 0.06,-0.01 0.06,-0.01 0.05,-0.01 0.05,0 0.05,-0.01 0.06,0 0.05,0 0.04,0 0.05,0 0.05,0 0.04,-0.01 v 0.22 c -0.21,0 -0.34,0 -0.52,0.05 h 0 c 0.23,0.08 0.43,0.09 0.6,0.09 0.25,0 0.29,-0.01 0.47,-0.06 -0.15,-0.07 -0.17,-0.08 -0.55,-0.08 v -0.22 c 0.26,0 0.81,0 0.81,0.31 0,0.24 -0.35,0.27 -0.73,0.27 -0.21,0 -0.55,-0.02 -0.92,-0.19 -0.23,0.12 -0.4,0.31 -0.4,0.58 0,0.61 0.98,0.97 1.87,0.97 0.16,0 0.52,0 0.92,-0.28 0.11,-0.08 0.13,-0.1 0.2,-0.1 0.13,0 0.27,0.13 0.27,0.27 0,0.19 -0.61,0.57 -1.29,0.57 -1.14,0 -2.22,-0.67 -2.22,-1.43 0,-0.43 0.36,-0.68 0.4,-0.71 -0.59,-0.33 -0.91,-0.88 -0.91,-1.34 0,-0.65 0.57,-1.26 1.63,-1.26 1.31,0 1.87,0.88 1.87,1.03 0,0.06 -0.05,0.1 -0.11,0.1 -0.05,0 -0.08,-0.04 -0.1,-0.07 -0.14,-0.23 -0.38,-0.6 -1.58,-0.6 -0.6,0 -1.45,0.15 -1.45,0.86 0,0.34 0.28,0.87 0.89,1.16 z"
   id="path8599"
   style="fill:#000000;stroke-width:0" />
<path
   d="m 230.95,709.82 0,0.02 0.01,0.03 0.01,0.02 0,0.02 0.01,0.02 0,0.01 0.01,0.02 0.01,0.02 0.01,0.01 0,0.02 0.01,0.01 0.02,0.01 0.01,0.01 0.01,0.02 0.02,0.01 0.01,0.01 0.02,0 0.02,0.01 0.02,0.01 0.03,0.01 0.01,0 0.01,0 0.02,0.01 0.01,0 0.02,0 0.01,0 0.02,0.01 0.02,0 0.02,0 0.01,0 0.02,0 0.02,0 0.02,0.01 0.03,0 0.02,0 0.02,0 0.02,0 0.03,0 0.02,0 0.03,0 0.03,0 0.02,0 0.03,0 0.03,0 c 0.22,0 0.29,0 0.29,0.15 0,0.01 -0.01,0.1 -0.12,0.1 -0.16,0 -0.35,-0.01 -0.52,-0.02 -0.17,-0.01 -0.38,-0.01 -0.55,-0.01 -0.15,0 -0.34,0.01 -0.48,0.01 -0.15,0 -0.32,0.02 -0.46,0.02 -0.04,0 -0.14,0 -0.14,-0.15 0,-0.1 0.08,-0.1 0.22,-0.1 0.01,0 0.14,0 0.26,-0.01 0.15,-0.02 0.17,-0.03 0.17,-0.1 0,-0.01 0,-0.05 -0.03,-0.15 l -0.93,-3.71 c -0.06,-0.23 -0.08,-0.29 -0.62,-0.29 -0.11,0 -0.2,0 -0.2,-0.15 0,-0.1 0.08,-0.1 0.2,-0.1 h 3.51 c 0.18,0 0.19,0.01 0.24,0.14 0.07,0.19 0.59,1.54 0.59,1.6 0,0.02 -0.01,0.09 -0.11,0.09 -0.09,0 -0.1,-0.03 -0.14,-0.14 -0.27,-0.66 -0.58,-1.44 -1.85,-1.44 h -0.79 c -0.22,0 -0.22,0.01 -0.22,0.07 0,0.01 0,0.04 0.02,0.15 z"
   id="path8601"
   style="fill:#000000;stroke-width:0" />
</g>    <g
       ns0:preamble=""
       ns0:text="$A$"
       word-spacing="normal"
       letter-spacing="normal"
       font-size-adjust="none"
       font-stretch="normal"
       font-weight="normal"
       font-variant="normal"
       font-style="normal"
       fill-rule="even-odd"
       stroke-miterlimit="10.433"
       xml:space="preserve"
       transform="matrix(1.35,0,0,-1.35,103.69356,1311.5315)"
       id="g8667"
       style="font-style:normal;font-variant:normal;font-weight:normal;font-stretch:normal;letter-spacing:normal;word-spacing:normal;text-anchor:start;fill:none;stroke:#000000;stroke-linecap:butt;stroke-linejoin:miter;stroke-miterlimit:10.43299961;stroke-opacity:1;stroke-dasharray:none;stroke-dashoffset:0">
<path
   id="path8669"
   d="m 225.22,708.27 -0.04,-0.06 -0.04,-0.06 -0.04,-0.06 -0.03,-0.05 -0.04,-0.05 -0.04,-0.04 -0.03,-0.05 -0.04,-0.04 -0.04,-0.04 -0.04,-0.04 -0.03,-0.03 -0.04,-0.03 -0.04,-0.03 -0.04,-0.03 -0.03,-0.03 -0.04,-0.02 -0.04,-0.02 -0.04,-0.02 -0.04,-0.02 -0.03,-0.02 -0.04,-0.01 -0.04,-0.02 -0.04,-0.01 -0.04,-0.01 -0.04,-0.01 -0.04,-0.01 -0.04,-0.01 -0.04,0 -0.08,-0.01 -0.08,-0.01 c -0.12,-0.01 -0.21,-0.01 -0.21,-0.2 0,-0.06 0.05,-0.11 0.13,-0.11 0.27,0 0.58,0.03 0.86,0.03 0.33,0 0.68,-0.03 0.99,-0.03 0.06,0 0.19,0 0.19,0.19 0,0.11 -0.09,0.12 -0.16,0.12 -0.23,0.02 -0.47,0.1 -0.47,0.35 0,0.12 0.06,0.23 0.14,0.37 l 0.76,1.27 h 2.5 l -0.03,0.31 h -2.28 l 1.96,3.29 0.32,-3.29 0.03,-0.31 c 0.02,-0.2 0.16,-1.56 0.16,-1.66 0,-0.3 -0.52,-0.33 -0.72,-0.33 -0.14,0 -0.23,0 -0.23,-0.2 0,-0.11 0.11,-0.11 0.14,-0.11 0.4,0 0.83,0.03 1.24,0.03 0.25,0 0.88,-0.03 1.13,-0.03 0.06,0 0.18,0 0.18,0.2 0,0.11 -0.1,0.11 -0.23,0.11 -0.62,0 -0.62,0.07 -0.65,0.36 l -0.61,6.23 c -0.02,0.2 -0.02,0.24 -0.19,0.24 -0.16,0 -0.2,-0.07 -0.26,-0.17 z"
   style="fill:#000000;stroke-width:0" />
</g>    <g
       id="g8743"
       transform="matrix(1.35,0,0,-1.35,201.69356,1269.5315)"
       xml:space="preserve"
       stroke-miterlimit="10.433"
       fill-rule="even-odd"
       font-style="normal"
       font-variant="normal"
       font-weight="normal"
       font-stretch="normal"
       font-size-adjust="none"
       letter-spacing="normal"
       word-spacing="normal"
       ns0:text="$B$"
       ns0:preamble=""
       style="font-style:normal;font-variant:normal;font-weight:normal;font-stretch:normal;letter-spacing:normal;word-spacing:normal;text-anchor:start;fill:none;stroke:#000000;stroke-linecap:butt;stroke-linejoin:miter;stroke-miterlimit:10.43299961;stroke-opacity:1;stroke-dasharray:none;stroke-dashoffset:0">
<path
   d="m 225.03,707.9 -0.01,-0.04 -0.01,-0.03 -0.01,-0.03 -0.01,-0.03 -0.01,-0.03 -0.01,-0.03 -0.01,-0.02 -0.01,-0.03 -0.01,-0.02 -0.01,-0.02 -0.01,-0.02 -0.02,-0.02 -0.01,-0.02 -0.02,-0.01 -0.02,-0.02 -0.02,-0.01 -0.02,-0.01 -0.03,-0.01 -0.02,-0.01 -0.03,-0.01 -0.04,-0.01 -0.01,-0.01 -0.02,0 -0.02,0 -0.02,0 -0.02,-0.01 -0.02,0 -0.02,0 -0.02,-0.01 -0.03,0 -0.02,0 -0.03,0 -0.02,0 -0.03,0 -0.03,0 -0.03,-0.01 -0.03,0 -0.03,0 -0.03,0 -0.03,0 -0.04,0 -0.03,0 -0.04,0 c -0.17,0 -0.27,0 -0.27,-0.2 0,-0.11 0.09,-0.11 0.27,-0.11 h 3.56 c 1.57,0 2.75,1.18 2.75,2.15 0,0.72 -0.58,1.3 -1.55,1.41 1.04,0.19 2.08,0.93 2.08,1.87 0,0.74 -0.65,1.38 -1.85,1.38 l -0.14,-0.31 c 0.88,0 1.09,-0.59 1.09,-1.03 0,-0.87 -0.86,-1.82 -2.07,-1.82 h -1.46 l -0.06,-0.22 h 1.88 c 0.96,0 1.15,-0.74 1.15,-1.17 0,-0.98 -0.89,-1.95 -2.06,-1.95 h -1.36 c -0.14,0 -0.16,0 -0.22,0.01 -0.1,0.01 -0.13,0.02 -0.13,0.1 0,0.03 0,0.05 0.05,0.23 l 0.69,2.78 0.06,0.22 0.62,2.47 c 0.09,0.35 0.11,0.38 0.54,0.38 h 1.28 l 0.14,0.31 h -3.35 c -0.19,0 -0.28,0 -0.28,-0.2 0,-0.11 0.08,-0.11 0.27,-0.11 0.02,0 0.21,0 0.38,-0.02 0.18,-0.02 0.27,-0.03 0.27,-0.16 0,-0.04 -0.01,-0.07 -0.04,-0.19 z"
   id="path8745"
   style="fill:#000000;stroke-width:0" />
</g>    <g
       style="font-style:normal;font-variant:normal;font-weight:normal;font-stretch:normal;letter-spacing:normal;word-spacing:normal;text-anchor:start;fill:none;stroke:#000000;stroke-linecap:butt;stroke-linejoin:miter;stroke-miterlimit:10.43299961;stroke-opacity:1;stroke-dasharray:none;stroke-dashoffset:0"
       id="g9356"
       transform="matrix(1.35,0,0,-1.35,83.425036,1393.3134)"
       xml:space="preserve"
       stroke-miterlimit="10.433"
       fill-rule="even-odd"
       font-style="normal"
       font-variant="normal"
       font-weight="normal"
       font-stretch="normal"
       font-size-adjust="none"
       letter-spacing="normal"
       word-spacing="normal"
       ns0:text="$O$"
       ns0:preamble="">
<path
   style="fill:#000000;stroke-width:0"
   d="m 230.8,711.47 0,0.14 -0.01,0.15 -0.01,0.14 -0.02,0.14 -0.03,0.14 -0.03,0.13 -0.04,0.13 -0.04,0.12 -0.05,0.12 -0.06,0.12 -0.05,0.11 -0.07,0.11 -0.07,0.1 -0.07,0.1 -0.08,0.1 -0.08,0.09 -0.09,0.08 -0.09,0.08 -0.09,0.08 -0.1,0.07 -0.1,0.07 -0.11,0.06 -0.11,0.05 -0.11,0.05 -0.12,0.05 -0.12,0.04 -0.12,0.03 -0.13,0.03 -0.13,0.02 -0.13,0.01 -0.14,0.01 -0.14,0.01 -0.05,-0.25 c 0.81,0 1.71,-0.56 1.71,-2.05 0,-0.71 -0.27,-2.27 -1.26,-3.49 -0.48,-0.61 -1.29,-1.2 -2.13,-1.2 h 0 c -0.99,0 -1.68,0.81 -1.68,2.12 0,0.44 0.14,1.9 0.9,3.06 0.69,1.04 1.67,1.56 2.46,1.56 l 0.05,0.25 c -2.15,0 -4.34,-2.26 -4.34,-4.59 0,-1.65 1.12,-2.66 2.55,-2.66 2.11,0 4.33,2.19 4.33,4.57 z"
   id="path9358" />
</g>    <g
       style="font-style:normal;font-variant:normal;font-weight:normal;font-stretch:normal;letter-spacing:normal;word-spacing:normal;text-anchor:start;fill:none;stroke:#000000;stroke-linecap:butt;stroke-linejoin:miter;stroke-miterlimit:10.43299961;stroke-opacity:1;stroke-dasharray:none;stroke-dashoffset:0"
       ns0:preamble=""
       ns0:text="$C$"
       word-spacing="normal"
       letter-spacing="normal"
       font-size-adjust="none"
       font-stretch="normal"
       font-weight="normal"
       font-variant="normal"
       font-style="normal"
       fill-rule="even-odd"
       stroke-miterlimit="10.433"
       xml:space="preserve"
       transform="matrix(1.35,0,0,-1.35,272.77258,1304.0976)"
       id="g9709">
<path
   style="fill:#000000;stroke-width:0"
   id="path9711"
   d="m 231,714.05 0,0 0,0 0,0.01 0,0 0,0 0,0.01 0,0 0,0 0,0.01 0,0 -0.01,0.01 0,0 0,0.01 0,0 0,0 -0.01,0.01 0,0 0,0.01 -0.01,0 0,0 -0.01,0.01 0,0 -0.01,0 0,0 -0.01,0.01 0,0 0,0 -0.01,0 0,0 0,0 -0.01,0 0,0 0,0 -0.01,0 0,0.01 0,0 -0.01,0 0,0 -0.01,0 c -0.02,0 -0.04,-0.01 -0.15,-0.12 l -0.69,-0.77 c -0.09,0.14 -0.55,0.89 -1.66,0.89 -2.22,0 -4.46,-2.21 -4.46,-4.52 0,-1.64 1.18,-2.73 2.7,-2.73 0.87,0 1.62,0.4 2.15,0.86 0.93,0.82 1.1,1.72 1.1,1.75 0,0.1 -0.1,0.1 -0.12,0.1 -0.06,0 -0.11,-0.02 -0.13,-0.1 -0.09,-0.29 -0.32,-0.99 -1.01,-1.57 -0.68,-0.56 -1.31,-0.73 -1.83,-0.73 -0.9,0 -1.95,0.52 -1.95,2.07 0,0.57 0.21,2.19 1.2,3.35 0.61,0.71 1.55,1.21 2.43,1.21 1.02,0 1.61,-0.77 1.61,-1.93 0,-0.39 -0.03,-0.4 -0.03,-0.5 0,-0.1 0.11,-0.1 0.15,-0.1 0.13,0 0.13,0.02 0.18,0.2 z" />
</g>  </g>
</svg>
