<?xml version="1.0" encoding="UTF-8" standalone="no"?>
<!-- Created with Inkscape (http://www.inkscape.org/) -->

<svg
   xmlns:ns0="http://www.iki.fi/pav/software/textext/"
   xmlns:dc="http://purl.org/dc/elements/1.1/"
   xmlns:cc="http://creativecommons.org/ns#"
   xmlns:rdf="http://www.w3.org/1999/02/22-rdf-syntax-ns#"
   xmlns:svg="http://www.w3.org/2000/svg"
   xmlns="http://www.w3.org/2000/svg"
   xmlns:sodipodi="http://sodipodi.sourceforge.net/DTD/sodipodi-0.dtd"
   xmlns:inkscape="http://www.inkscape.org/namespaces/inkscape"
   id="svg2"
   version="1.1"
   inkscape:version="0.47 r22583"
   width="76.095703"
   height="77.136398"
   xml:space="preserve"
   sodipodi:docname="T1_Ch03-0007.svg"><sodipodi:namedview
     pagecolor="#ffffff"
     bordercolor="#666666"
     borderopacity="1"
     objecttolerance="10"
     gridtolerance="10"
     guidetolerance="10"
     inkscape:pageopacity="0"
     inkscape:pageshadow="2"
     inkscape:window-width="1278"
     inkscape:window-height="746"
     id="namedview4"
     showgrid="true"
     inkscape:zoom="3.5874778"
     inkscape:cx="-42.082285"
     inkscape:cy="12.822996"
     inkscape:window-x="0"
     inkscape:window-y="28"
     inkscape:window-maximized="0"
     inkscape:current-layer="g12"><inkscape:grid
       snapvisiblegridlinesonly="true"
       enabled="true"
       visible="true"
       empspacing="5"
       id="grid2826"
       type="xygrid" /></sodipodi:namedview><metadata
     id="metadata8"><rdf:RDF><cc:Work
         rdf:about=""><dc:format>image/svg+xml</dc:format><dc:type
           rdf:resource="http://purl.org/dc/dcmitype/StillImage" /><dc:title></dc:title></cc:Work></rdf:RDF></metadata><defs
     id="defs6"><marker
       style="overflow:visible"
       id="Arrow2Mend"
       refX="0"
       refY="0"
       orient="auto"
       inkscape:stockid="Arrow2Mend"><path
         transform="scale(-0.6,-0.6)"
         d="M 8.7185878,4.0337352 -2.2072895,0.01601326 8.7185884,-4.0017078 c -1.7454984,2.3720609 -1.7354408,5.6174519 -6e-7,8.035443 z"
         style="font-size:12px;fill-rule:evenodd;stroke-width:0.625;stroke-linejoin:round"
         id="path3644" /></marker><marker
       style="overflow:visible"
       id="Arrow2Mstart"
       refX="0"
       refY="0"
       orient="auto"
       inkscape:stockid="Arrow2Mstart"><path
         transform="scale(0.6,0.6)"
         d="M 8.7185878,4.0337352 -2.2072895,0.01601326 8.7185884,-4.0017078 c -1.7454984,2.3720609 -1.7354408,5.6174519 -6e-7,8.035443 z"
         style="font-size:12px;fill-rule:evenodd;stroke-width:0.625;stroke-linejoin:round"
         id="path3641" /></marker><inkscape:perspective
       id="perspective10"
       inkscape:persp3d-origin="0.5 : 0.33333333 : 1"
       inkscape:vp_z="1 : 0.5 : 1"
       inkscape:vp_y="0 : 1000 : 0"
       inkscape:vp_x="0 : 0.5 : 1"
       sodipodi:type="inkscape:persp3d" /></defs><g
     transform="matrix(0.45,0,0,-0.45,-519.25,816.38635)"
     inkscape:label="MS1_ch03"
     inkscape:groupmode="layer"
     id="g12"><path
   transform="matrix(2.2222222,0,0,-2.2222222,-133.33333,2339)"
   d="m 650,277.55005 c 0,19.32997 -15.67003,35 -35,35 -19.32997,0 -35,-15.67003 -35,-35 0,-19.32997 15.67003,-35 35,-35 19.32997,0 35,15.67003 35,35 z"
   sodipodi:ry="35"
   sodipodi:rx="35"
   sodipodi:cy="277.55005"
   sodipodi:cx="615"
   id="path2828"
   style="fill:none;stroke:#000000;stroke-width:1.5;stroke-linecap:square;stroke-linejoin:bevel;stroke-miterlimit:4;stroke-opacity:1;stroke-dasharray:none;stroke-dashoffset:0"
   sodipodi:type="arc" /><path
   transform="matrix(2.2222222,0,0,-2.2222222,-133.33333,2339)"
   d="m 640,277.55005 c 0,13.80712 -11.19288,25 -25,25 -13.80712,0 -25,-11.19288 -25,-25 0,-13.80712 11.19288,-25 25,-25 13.80712,0 25,11.19288 25,25 z"
   sodipodi:ry="25"
   sodipodi:rx="25"
   sodipodi:cy="277.55005"
   sodipodi:cx="615"
   id="path2830"
   style="fill:none;stroke:#000000;stroke-width:1.50000001;stroke-linecap:square;stroke-linejoin:bevel;stroke-miterlimit:4;stroke-opacity:1;stroke-dasharray:none;stroke-dashoffset:0"
   sodipodi:type="arc" /><path
   sodipodi:nodetypes="ccc"
   transform="matrix(2.2222222,0,0,-2.2222222,0,2339)"
   id="path3604"
   d="m 559.25001,253.30005 -4.25001,24.25 24.25001,-24.25"
   style="fill:none;stroke:#000000;stroke-width:1px;stroke-linecap:butt;stroke-linejoin:round;stroke-opacity:1;marker-start:url(#Arrow2Mstart);marker-end:url(#Arrow2Mend)" />

<g
   ns0:preamble=""
   ns0:text="$a$"
   word-spacing="normal"
   letter-spacing="normal"
   font-size-adjust="none"
   font-stretch="normal"
   font-weight="normal"
   font-variant="normal"
   font-style="normal"
   fill-rule="even-odd"
   stroke-miterlimit="10.433"
   xml:space="preserve"
   transform="matrix(2,0,0,2,777.36667,343.21989)"
   id="content"
   style="font-style:normal;font-variant:normal;font-weight:normal;font-stretch:normal;letter-spacing:normal;word-spacing:normal;text-anchor:start;fill:none;stroke:#000000;stroke-linecap:butt;stroke-linejoin:miter;stroke-miterlimit:10.43299961;stroke-opacity:1;stroke-dasharray:none;stroke-dashoffset:0">
<path
   id="path3623"
   d="m 227.15,710.89 -0.02,0.03 -0.02,0.04 -0.01,0.03 -0.02,0.03 -0.02,0.03 -0.02,0.03 -0.03,0.03 -0.02,0.03 -0.02,0.03 -0.02,0.03 -0.03,0.03 -0.02,0.02 -0.03,0.03 -0.02,0.02 -0.03,0.02 -0.03,0.03 -0.03,0.02 -0.03,0.02 -0.03,0.01 -0.03,0.02 -0.03,0.02 -0.03,0.01 -0.04,0.02 -0.03,0.01 -0.04,0.01 -0.03,0.01 -0.04,0.01 -0.04,0 -0.04,0.01 -0.04,0 -0.04,0.01 -0.04,0 0.01,-0.22 c 0.65,0 0.79,-0.82 0.79,-0.88 0,-0.06 -0.02,-0.12 -0.03,-0.17 l -0.5,-1.95 c -0.05,-0.18 -0.05,-0.2 -0.2,-0.37 -0.44,-0.55 -0.84,-0.71 -1.12,-0.71 -0.5,0 -0.64,0.55 -0.64,0.94 0,0.5 0.32,1.72 0.55,2.18 0.31,0.59 0.75,0.96 1.15,0.96 l -0.01,0.22 c -1.16,0 -2.4,-1.47 -2.4,-2.92 0,-0.94 0.55,-1.6 1.33,-1.6 0.19,0 0.69,0.04 1.29,0.75 0.08,-0.42 0.43,-0.75 0.91,-0.75 0.35,0 0.58,0.23 0.74,0.55 0.16,0.36 0.29,0.97 0.29,0.99 0,0.1 -0.09,0.1 -0.12,0.1 -0.09,0 -0.11,-0.04 -0.14,-0.18 -0.17,-0.65 -0.34,-1.24 -0.75,-1.24 -0.27,0 -0.3,0.26 -0.3,0.46 0,0.22 0.02,0.3 0.13,0.74 0.11,0.42 0.13,0.52 0.22,0.89 l 0.36,1.4 c 0.07,0.28 0.07,0.3 0.07,0.34 0,0.17 -0.12,0.27 -0.29,0.27 -0.24,0 -0.39,-0.22 -0.42,-0.44 z"
   style="fill:#000000;stroke-width:0" />
</g>
<g
   id="g3660"
   transform="matrix(2,0,0,2,844.03331,369.88653)"
   xml:space="preserve"
   stroke="black"
   stroke-linecap="butt"
   stroke-linejoin="miter"
   stroke-miterlimit="10.433"
   stroke-dasharray="none"
   stroke-dashoffset="0"
   stroke-opacity="1"
   fill="none"
   fill-rule="even-odd"
   fill-opacity="1"
   font-style="normal"
   font-variant="normal"
   font-weight="normal"
   font-stretch="normal"
   font-size-adjust="none"
   letter-spacing="normal"
   word-spacing="normal"
   text-anchor="start"
   ns0:text="$b$"
   ns0:preamble=""
   style="font-style:normal;font-variant:normal;font-weight:normal;font-stretch:normal;letter-spacing:normal;word-spacing:normal;text-anchor:start;fill:none;stroke:#000000;stroke-linecap:butt;stroke-linejoin:miter;stroke-miterlimit:10.43299961;stroke-opacity:1;stroke-dasharray:none;stroke-dashoffset:0">
<path
   d="M225.81,713.93 L225.81,713.93 L225.81,713.93 L225.81,713.93 L225.81,713.93 L225.81,713.93 L225.81,713.94 L225.81,713.94 L225.81,713.94 L225.81,713.95 L225.81,713.95 L225.81,713.96 L225.81,713.96 L225.81,713.97 L225.81,713.97 L225.8,713.98 L225.8,713.98 L225.8,713.99 L225.79,713.99 L225.79,714 L225.79,714 L225.78,714 L225.78,714.01 L225.78,714.01 L225.77,714.01 L225.77,714.01 L225.77,714.02 L225.77,714.02 L225.76,714.02 L225.76,714.02 L225.76,714.02 L225.75,714.02 L225.75,714.03 L225.74,714.03 L225.74,714.03 L225.74,714.03 L225.73,714.03 L225.73,714.03 L225.72,714.03 L225.72,714.03 L225.71,714.04 L225.71,714.04 L225.7,714.04 L225.7,714.04 L225.69,714.04 L225.68,714.04 C225.46,714.04,224.73,713.96,224.47,713.94 C224.39,713.93,224.28,713.92,224.28,713.74 C224.28,713.62,224.37,713.62,224.52,713.62 C225,713.62,225.02,713.55,225.02,713.45 C225.02,713.38,224.93,713.04,224.88,712.83 L224.06,709.58 C223.94,709.09,223.9,708.93,223.9,708.58 C223.9,707.63,224.43,707.01,225.17,707.01 V707.23 C224.83,707.23,224.5,707.5,224.5,708.24 C224.5,708.43,224.5,708.62,224.66,709.24 L224.88,710.16 C224.94,710.38,224.94,710.4,225.03,710.51 C225.51,711.16,225.96,711.31,226.22,711.31 C226.58,711.31,226.85,711.01,226.85,710.37 C226.85,709.78,226.52,708.64,226.34,708.26 C226.01,707.59,225.55,707.23,225.17,707.23 V707.01 C226.34,707.01,227.57,708.5,227.57,709.93 C227.57,710.84,227.04,711.53,226.24,711.53 C225.78,711.53,225.38,711.24,225.08,710.93 Z "
   stroke-width="0"
   fill="black"
   id="path3662" />
</g>
<g
   style="font-style:normal;font-variant:normal;font-weight:normal;font-stretch:normal;letter-spacing:normal;word-spacing:normal;text-anchor:start;fill:none;stroke:#000000;stroke-linecap:butt;stroke-linejoin:miter;stroke-miterlimit:10.43299961;stroke-opacity:1;stroke-dasharray:none;stroke-dashoffset:0"
   ns0:preamble=""
   ns0:text="$p$"
   text-anchor="start"
   word-spacing="normal"
   letter-spacing="normal"
   font-size-adjust="none"
   font-stretch="normal"
   font-weight="normal"
   font-variant="normal"
   font-style="normal"
   fill-opacity="1"
   fill-rule="even-odd"
   fill="none"
   stroke-opacity="1"
   stroke-dashoffset="0"
   stroke-dasharray="none"
   stroke-miterlimit="10.433"
   stroke-linejoin="miter"
   stroke-linecap="butt"
   stroke="black"
   xml:space="preserve"
   transform="matrix(2,0,0,2,764.03339,307.66429)"
   id="g3702">
<path
   id="path3704"
   fill="black"
   stroke-width="0"
   d="M223.88,705.91 L223.87,705.88 L223.87,705.85 L223.86,705.82 L223.85,705.79 L223.85,705.77 L223.84,705.74 L223.83,705.72 L223.82,705.7 L223.82,705.68 L223.81,705.66 L223.8,705.64 L223.79,705.63 L223.78,705.61 L223.77,705.6 L223.76,705.59 L223.75,705.58 L223.73,705.57 L223.72,705.56 L223.7,705.55 L223.68,705.54 L223.67,705.53 L223.65,705.53 L223.62,705.52 L223.6,705.52 L223.58,705.51 L223.55,705.51 L223.53,705.51 L223.52,705.5 L223.5,705.5 L223.49,705.5 L223.47,705.5 L223.46,705.5 L223.44,705.5 L223.42,705.5 L223.4,705.5 L223.38,705.5 L223.36,705.5 L223.34,705.5 C223.22,705.5,223.11,705.5,223.11,705.31 C223.11,705.23,223.16,705.19,223.24,705.19 C223.51,705.19,223.8,705.22,224.08,705.22 C224.41,705.22,224.75,705.19,225.07,705.19 C225.12,705.19,225.25,705.19,225.25,705.39 C225.25,705.5,225.15,705.5,225.01,705.5 C224.51,705.5,224.51,705.57,224.51,705.66 C224.51,705.78,224.93,707.4,225,707.65 C225.13,707.36,225.4,707.01,225.91,707.01 L225.9,707.23 C225.25,707.23,225.12,708.06,225.12,708.12 C225.12,708.14,225.12,708.16,225.15,708.28 L225.63,710.23 C225.7,710.5,225.97,710.78,226.15,710.93 C226.5,711.24,226.79,711.31,226.96,711.31 C227.36,711.31,227.6,710.96,227.6,710.37 C227.6,709.78,227.27,708.64,227.09,708.26 C226.75,707.56,226.27,707.23,225.9,707.23 L225.91,707.01 C227.07,707.01,228.31,708.47,228.31,709.93 C228.31,710.87,227.75,711.53,226.99,711.53 C226.49,711.53,226.01,711.17,225.68,710.78 C225.58,711.32,225.16,711.53,224.79,711.53 C224.33,711.53,224.14,711.14,224.05,710.96 C223.87,710.62,223.74,710.02,223.74,709.99 C223.74,709.89,223.84,709.89,223.86,709.89 C223.96,709.89,223.97,709.9,224.03,710.12 C224.2,710.83,224.4,711.31,224.76,711.31 C224.93,711.31,225.07,711.23,225.07,710.85 C225.07,710.62,225.04,710.51,225,710.34 Z " />
</g>
</g></svg>