<?xml version="1.0" encoding="UTF-8" standalone="no"?>
<!-- Created with Inkscape (http://www.inkscape.org/) -->

<svg
   xmlns:ns0="http://www.iki.fi/pav/software/textext/"
   xmlns:dc="http://purl.org/dc/elements/1.1/"
   xmlns:cc="http://creativecommons.org/ns#"
   xmlns:rdf="http://www.w3.org/1999/02/22-rdf-syntax-ns#"
   xmlns:svg="http://www.w3.org/2000/svg"
   xmlns="http://www.w3.org/2000/svg"
   xmlns:sodipodi="http://sodipodi.sourceforge.net/DTD/sodipodi-0.dtd"
   xmlns:inkscape="http://www.inkscape.org/namespaces/inkscape"
   width="210.54147"
   height="135.2724"
   id="svg9471"
   version="1.1"
   inkscape:version="0.47 r22583"
   sodipodi:docname="T1_Ch04-0011.svg">
  <defs
     id="defs9473">
    <inkscape:perspective
       sodipodi:type="inkscape:persp3d"
       inkscape:vp_x="0 : 526.18109 : 1"
       inkscape:vp_y="0 : 1000 : 0"
       inkscape:vp_z="744.09448 : 526.18109 : 1"
       inkscape:persp3d-origin="372.04724 : 350.78739 : 1"
       id="perspective9479" />
    <inkscape:perspective
       id="perspective9411"
       inkscape:persp3d-origin="0.5 : 0.33333333 : 1"
       inkscape:vp_z="1 : 0.5 : 1"
       inkscape:vp_y="0 : 1000 : 0"
       inkscape:vp_x="0 : 0.5 : 1"
       sodipodi:type="inkscape:persp3d" />
    <marker
       style="overflow:visible"
       id="Arrow2Mend"
       refX="0"
       refY="0"
       orient="auto"
       inkscape:stockid="Arrow2Mend">
      <path
         transform="scale(-0.6,-0.6)"
         d="M 8.7185878,4.0337352 -2.2072895,0.01601326 8.7185884,-4.0017078 c -1.7454984,2.3720609 -1.7354408,5.6174519 -6e-7,8.035443 z"
         style="font-size:12px;fill-rule:evenodd;stroke-width:0.625;stroke-linejoin:round"
         id="path3628" />
    </marker>
    <marker
       style="overflow:visible"
       id="marker9417"
       refX="0"
       refY="0"
       orient="auto"
       inkscape:stockid="Arrow2Mend">
      <path
         transform="scale(-0.6,-0.6)"
         d="M 8.7185878,4.0337352 -2.2072895,0.01601326 8.7185884,-4.0017078 c -1.7454984,2.3720609 -1.7354408,5.6174519 -6e-7,8.035443 z"
         style="font-size:12px;fill-rule:evenodd;stroke-width:0.625;stroke-linejoin:round"
         id="path9419" />
    </marker>
    <marker
       style="overflow:visible"
       id="marker9421"
       refX="0"
       refY="0"
       orient="auto"
       inkscape:stockid="Arrow2Mend">
      <path
         transform="scale(-0.6,-0.6)"
         d="M 8.7185878,4.0337352 -2.2072895,0.01601326 8.7185884,-4.0017078 c -1.7454984,2.3720609 -1.7354408,5.6174519 -6e-7,8.035443 z"
         style="font-size:12px;fill-rule:evenodd;stroke-width:0.625;stroke-linejoin:round"
         id="path9423" />
    </marker>
    <marker
       style="overflow:visible"
       id="Arrow2Mstart"
       refX="0"
       refY="0"
       orient="auto"
       inkscape:stockid="Arrow2Mstart">
      <path
         transform="scale(0.6,0.6)"
         d="M 8.7185878,4.0337352 -2.2072895,0.01601326 8.7185884,-4.0017078 c -1.7454984,2.3720609 -1.7354408,5.6174519 -6e-7,8.035443 z"
         style="font-size:12px;fill-rule:evenodd;stroke-width:0.625;stroke-linejoin:round"
         id="path3625" />
    </marker>
    <marker
       style="overflow:visible"
       id="marker9427"
       refX="0"
       refY="0"
       orient="auto"
       inkscape:stockid="Arrow2Mstart">
      <path
         transform="scale(0.6,0.6)"
         d="M 8.7185878,4.0337352 -2.2072895,0.01601326 8.7185884,-4.0017078 c -1.7454984,2.3720609 -1.7354408,5.6174519 -6e-7,8.035443 z"
         style="font-size:12px;fill-rule:evenodd;stroke-width:0.625;stroke-linejoin:round"
         id="path9429" />
    </marker>
    <marker
       style="overflow:visible"
       id="marker9431"
       refX="0"
       refY="0"
       orient="auto"
       inkscape:stockid="Arrow2Mend">
      <path
         transform="scale(-0.6,-0.6)"
         d="M 8.7185878,4.0337352 -2.2072895,0.01601326 8.7185884,-4.0017078 c -1.7454984,2.3720609 -1.7354408,5.6174519 -6e-7,8.035443 z"
         style="font-size:12px;fill-rule:evenodd;stroke-width:0.625;stroke-linejoin:round"
         id="path9433" />
    </marker>
    <marker
       style="overflow:visible"
       id="marker9435"
       refX="0"
       refY="0"
       orient="auto"
       inkscape:stockid="Arrow2Mstart">
      <path
         transform="scale(0.6,0.6)"
         d="M 8.7185878,4.0337352 -2.2072895,0.01601326 8.7185884,-4.0017078 c -1.7454984,2.3720609 -1.7354408,5.6174519 -6e-7,8.035443 z"
         style="font-size:12px;fill-rule:evenodd;stroke-width:0.625;stroke-linejoin:round"
         id="path9437" />
    </marker>
    <marker
       style="overflow:visible"
       id="marker9439"
       refX="0"
       refY="0"
       orient="auto"
       inkscape:stockid="Arrow2Mend">
      <path
         transform="scale(-0.6,-0.6)"
         d="M 8.7185878,4.0337352 -2.2072895,0.01601326 8.7185884,-4.0017078 c -1.7454984,2.3720609 -1.7354408,5.6174519 -6e-7,8.035443 z"
         style="font-size:12px;fill-rule:evenodd;stroke-width:0.625;stroke-linejoin:round"
         id="path9441" />
    </marker>
  </defs>
  <sodipodi:namedview
     id="base"
     pagecolor="#ffffff"
     bordercolor="#666666"
     borderopacity="1.0"
     inkscape:pageopacity="0.0"
     inkscape:pageshadow="2"
     inkscape:zoom="0.35"
     inkscape:cx="131.69931"
     inkscape:cy="-138.07808"
     inkscape:document-units="px"
     inkscape:current-layer="layer1"
     showgrid="false"
     inkscape:window-width="605"
     inkscape:window-height="481"
     inkscape:window-x="0"
     inkscape:window-y="261"
     inkscape:window-maximized="0" />
  <metadata
     id="metadata9476">
    <rdf:RDF>
      <cc:Work
         rdf:about="">
        <dc:format>image/svg+xml</dc:format>
        <dc:type
           rdf:resource="http://purl.org/dc/dcmitype/StillImage" />
        <dc:title />
      </cc:Work>
    </rdf:RDF>
  </metadata>
  <g
     inkscape:label="Calque 1"
     inkscape:groupmode="layer"
     id="layer1"
     transform="translate(-243.30069,-259.0117)">
    <path
       id="path2824"
       d="m 258.28218,270.68174 0,109.99995 174.99986,0"
       style="fill:none;stroke:#000000;stroke-width:0.99999994px;stroke-linecap:butt;stroke-linejoin:miter;stroke-opacity:1;marker-start:url(#Arrow2Mstart);marker-end:url(#Arrow2Mend)" />
    <g
       transform="matrix(0.45,0,0,-0.45,118.28218,430.6817)"
       id="g8434">
      <path
         style="fill:none;stroke:#000000;stroke-width:1px;stroke-linecap:butt;stroke-linejoin:miter;stroke-opacity:1"
         d="M 220,912.55005 185,1002.55"
         id="path4236"
         transform="matrix(2.2222222,0,0,-2.2222222,0,2339)" />
      <path
         style="fill:none;stroke:#000000;stroke-width:2.22222209px;stroke-linecap:butt;stroke-linejoin:miter;stroke-opacity:1;marker-mid:url(#Arrow2Mend)"
         d="m 377.77777,277.77769 c 22.22223,0 41.66667,2.77776 59.72223,8.33331 18.05555,5.55556 34.72222,13.88891 51.38888,25.00002"
         id="path6326"
         sodipodi:nodetypes="csc" />
      <path
         style="fill:none;stroke:#000000;stroke-width:2.22222209px;stroke-linecap:butt;stroke-linejoin:miter;stroke-opacity:1;marker-mid:url(#Arrow2Mend)"
         d="m 488.88888,311.11102 c 44.44445,33.33332 86.11111,38.88887 118.05556,30.55554 31.94444,-8.33334 54.16666,-30.55556 59.72222,-52.77776"
         id="path6708"
         sodipodi:nodetypes="csc" />
      <path
         style="fill:none;stroke:#000000;stroke-width:2.22222209px;stroke-linecap:butt;stroke-linejoin:miter;stroke-opacity:1;marker-mid:url(#Arrow2Mend)"
         d="m 450.02708,211.111 -19.45797,-49.99993 -19.458,-49.99993"
         id="path7282"
         sodipodi:nodetypes="ccc" />
      <path
         style="fill:none;stroke:#000000;stroke-width:2.22222209px;stroke-linecap:butt;stroke-linejoin:miter;stroke-opacity:1;marker-mid:url(#Arrow2Mstart)"
         d="M 488.88888,311.11102 469.47487,261.11101 450.06086,211.111"
         id="path7474"
         sodipodi:nodetypes="ccc" />
      <path
         style="fill:none;stroke:#ff0000;stroke-width:1px;stroke-linecap:butt;stroke-linejoin:miter;stroke-opacity:1"
         d="m 140,1002.55 30,-74.99995"
         id="path7856"
         transform="matrix(2.2222222,0,0,-2.2222222,0,2339)" />
      <path
         style="fill:none;stroke:#000000;stroke-width:2.22222209px;stroke-linecap:butt;stroke-linejoin:miter;stroke-opacity:1;marker-mid:url(#Arrow2Mstart)"
         d="m 311.1111,111.11113 11.11111,27.77774 11.11112,27.77771"
         id="path7858"
         sodipodi:nodetypes="ccc" />
      <path
         style="fill:none;stroke:#000000;stroke-width:2.22222209px;stroke-linecap:butt;stroke-linejoin:miter;stroke-opacity:1;marker-mid:url(#Arrow2Mend)"
         d="m 333.33333,166.66658 22.22222,55.55555 22.22222,55.55556"
         id="path8240"
         sodipodi:nodetypes="ccc" />
      <path
         sodipodi:type="arc"
         style="fill:#ffffff;fill-opacity:1;stroke:#000000;stroke-width:1;stroke-linecap:square;stroke-linejoin:bevel;stroke-miterlimit:4;stroke-opacity:1;stroke-dasharray:none;stroke-dashoffset:0"
         id="path8432"
         sodipodi:cx="302.5"
         sodipodi:cy="935.05005"
         sodipodi:rx="1.7091972"
         sodipodi:ry="1.7091972"
         d="m 304.2092,935.05005 c 0,0.94396 -0.76524,1.7092 -1.7092,1.7092 -0.94396,0 -1.7092,-0.76524 -1.7092,-1.7092 0,-0.94396 0.76524,-1.7092 1.7092,-1.7092 0.94396,0 1.7092,0.76524 1.7092,1.7092 z"
         transform="matrix(2.2222222,0,0,-2.2222222,-5.6833216,2366.5955)" />
    </g>
    <g
       style="font-style:normal;font-variant:normal;font-weight:normal;font-stretch:normal;letter-spacing:normal;word-spacing:normal;text-anchor:start;fill:none;stroke:#000000;stroke-linecap:butt;stroke-linejoin:miter;stroke-miterlimit:10.43299961;stroke-opacity:1;stroke-dasharray:none;stroke-dashoffset:0"
       id="content"
       transform="matrix(1.35,0,0,-1.35,-58.842811,1230.3158)"
       xml:space="preserve"
       stroke-miterlimit="10.433"
       fill-rule="even-odd"
       font-style="normal"
       font-variant="normal"
       font-weight="normal"
       font-stretch="normal"
       font-size-adjust="none"
       letter-spacing="normal"
       word-spacing="normal"
       ns0:text="$\\sigma$"
       ns0:preamble="">
<path
   style="fill:#000000;stroke-width:0"
   d="m 228.59,710.84 0.02,0 0.01,0 0.02,0 0.01,0 0.02,0 0.02,0 0.01,0 0.02,0 0.02,0.01 0.02,0 0.02,0 0.02,0.01 0.03,0 0.02,0.01 0.02,0 0.02,0.01 0.02,0.01 0.01,0.01 0.02,0.01 0.02,0.01 0.02,0.01 0.01,0.02 0.01,0.01 0.01,0 0.01,0.01 0,0.01 0.01,0.01 0.01,0.01 0,0.01 0.01,0.01 0,0.01 0.01,0.01 0,0.01 0.01,0.02 0,0.01 0,0.01 0,0.01 0.01,0.02 0,0.01 0,0.02 0,0.01 0,0.02 c 0,0.24 -0.21,0.24 -0.39,0.24 h -2.27 c -1.5,0 -2.61,-1.65 -2.61,-2.83 0,-0.88 0.59,-1.58 1.49,-1.58 l 0.02,0.22 c -0.49,0 -0.89,0.36 -0.89,1.08 0,0.3 0.12,1.11 0.47,1.7 0.42,0.69 1.01,0.83 1.35,0.83 0.84,0 0.92,-0.66 0.92,-0.97 0,-0.47 -0.2,-1.28 -0.54,-1.79 -0.39,-0.59 -0.93,-0.85 -1.31,-0.85 h 0 l -0.02,-0.22 c 1.18,0 2.51,1.21 2.51,2.74 0,0.17 0,0.65 -0.31,1.09 z"
   id="path8533" />
</g>    <g
       style="font-style:normal;font-variant:normal;font-weight:normal;font-stretch:normal;letter-spacing:normal;word-spacing:normal;text-anchor:start;fill:none;stroke:#000000;stroke-linecap:butt;stroke-linejoin:miter;stroke-miterlimit:10.43299961;stroke-opacity:1;stroke-dasharray:none;stroke-dashoffset:0"
       ns0:preamble=""
       ns0:text="$\\varepsilon_L$"
       word-spacing="normal"
       letter-spacing="normal"
       font-size-adjust="none"
       font-stretch="normal"
       font-weight="normal"
       font-variant="normal"
       font-style="normal"
       fill-rule="even-odd"
       stroke-miterlimit="10.433"
       xml:space="preserve"
       transform="matrix(1.35,0,0,-1.35,139.15717,1342.3157)"
       id="g8597">
<path
   style="fill:#000000;stroke-width:0"
   id="path8599"
   d="m 224.84,709.38 0.03,-0.01 0.03,-0.01 0.03,-0.01 0.03,-0.01 0.03,-0.01 0.03,-0.01 0.03,-0.01 0.03,-0.01 0.02,0 0.03,-0.01 0.06,-0.01 0.06,-0.01 0.05,-0.01 0.05,0 0.05,-0.01 0.06,0 0.05,0 0.04,0 0.05,0 0.05,0 0.04,-0.01 v 0.22 c -0.21,0 -0.34,0 -0.52,0.05 h 0 c 0.23,0.08 0.43,0.09 0.6,0.09 0.25,0 0.29,-0.01 0.47,-0.06 -0.15,-0.07 -0.17,-0.08 -0.55,-0.08 v -0.22 c 0.26,0 0.81,0 0.81,0.31 0,0.24 -0.35,0.27 -0.73,0.27 -0.21,0 -0.55,-0.02 -0.92,-0.19 -0.23,0.12 -0.4,0.31 -0.4,0.58 0,0.61 0.98,0.97 1.87,0.97 0.16,0 0.52,0 0.92,-0.28 0.11,-0.08 0.13,-0.1 0.2,-0.1 0.13,0 0.27,0.13 0.27,0.27 0,0.19 -0.61,0.57 -1.29,0.57 -1.14,0 -2.22,-0.67 -2.22,-1.43 0,-0.43 0.36,-0.68 0.4,-0.71 -0.59,-0.33 -0.91,-0.88 -0.91,-1.34 0,-0.65 0.57,-1.26 1.63,-1.26 1.31,0 1.87,0.88 1.87,1.03 0,0.06 -0.05,0.1 -0.11,0.1 -0.05,0 -0.08,-0.04 -0.1,-0.07 -0.14,-0.23 -0.38,-0.6 -1.58,-0.6 -0.6,0 -1.45,0.15 -1.45,0.86 0,0.34 0.28,0.87 0.89,1.16 z" />
<path
   style="fill:#000000;stroke-width:0"
   id="path8601"
   d="m 230.95,709.82 0,0.02 0.01,0.03 0.01,0.02 0,0.02 0.01,0.02 0,0.01 0.01,0.02 0.01,0.02 0.01,0.01 0,0.02 0.01,0.01 0.02,0.01 0.01,0.01 0.01,0.02 0.02,0.01 0.01,0.01 0.02,0 0.02,0.01 0.02,0.01 0.03,0.01 0.01,0 0.01,0 0.02,0.01 0.01,0 0.02,0 0.01,0 0.02,0.01 0.02,0 0.02,0 0.01,0 0.02,0 0.02,0 0.02,0.01 0.03,0 0.02,0 0.02,0 0.02,0 0.03,0 0.02,0 0.03,0 0.03,0 0.02,0 0.03,0 0.03,0 c 0.22,0 0.29,0 0.29,0.15 0,0.01 -0.01,0.1 -0.12,0.1 -0.16,0 -0.35,-0.01 -0.52,-0.02 -0.17,-0.01 -0.38,-0.01 -0.55,-0.01 -0.15,0 -0.34,0.01 -0.48,0.01 -0.15,0 -0.32,0.02 -0.46,0.02 -0.04,0 -0.14,0 -0.14,-0.15 0,-0.1 0.08,-0.1 0.22,-0.1 0.01,0 0.14,0 0.26,-0.01 0.15,-0.02 0.17,-0.03 0.17,-0.1 0,-0.01 0,-0.05 -0.03,-0.15 l -0.93,-3.71 c -0.06,-0.23 -0.08,-0.29 -0.62,-0.29 -0.11,0 -0.2,0 -0.2,-0.15 0,-0.1 0.08,-0.1 0.2,-0.1 h 3.51 c 0.18,0 0.19,0.01 0.24,0.14 0.07,0.19 0.59,1.54 0.59,1.6 0,0.02 -0.01,0.09 -0.11,0.09 -0.09,0 -0.1,-0.03 -0.14,-0.14 -0.27,-0.66 -0.58,-1.44 -1.85,-1.44 h -0.79 c -0.22,0 -0.22,0.01 -0.22,0.07 0,0.01 0,0.04 0.02,0.15 z" />
</g>    <g
       style="font-style:normal;font-variant:normal;font-weight:normal;font-stretch:normal;letter-spacing:normal;word-spacing:normal;text-anchor:start;fill:none;stroke:#000000;stroke-linecap:butt;stroke-linejoin:miter;stroke-miterlimit:10.43299961;stroke-opacity:1;stroke-dasharray:none;stroke-dashoffset:0"
       id="g8667"
       transform="matrix(1.35,0,0,-1.35,-25.449311,1258.8172)"
       xml:space="preserve"
       stroke-miterlimit="10.433"
       fill-rule="even-odd"
       font-style="normal"
       font-variant="normal"
       font-weight="normal"
       font-stretch="normal"
       font-size-adjust="none"
       letter-spacing="normal"
       word-spacing="normal"
       ns0:text="$A$"
       ns0:preamble="">
<path
   style="fill:#000000;stroke-width:0"
   d="m 225.22,708.27 -0.04,-0.06 -0.04,-0.06 -0.04,-0.06 -0.03,-0.05 -0.04,-0.05 -0.04,-0.04 -0.03,-0.05 -0.04,-0.04 -0.04,-0.04 -0.04,-0.04 -0.03,-0.03 -0.04,-0.03 -0.04,-0.03 -0.04,-0.03 -0.03,-0.03 -0.04,-0.02 -0.04,-0.02 -0.04,-0.02 -0.04,-0.02 -0.03,-0.02 -0.04,-0.01 -0.04,-0.02 -0.04,-0.01 -0.04,-0.01 -0.04,-0.01 -0.04,-0.01 -0.04,-0.01 -0.04,0 -0.08,-0.01 -0.08,-0.01 c -0.12,-0.01 -0.21,-0.01 -0.21,-0.2 0,-0.06 0.05,-0.11 0.13,-0.11 0.27,0 0.58,0.03 0.86,0.03 0.33,0 0.68,-0.03 0.99,-0.03 0.06,0 0.19,0 0.19,0.19 0,0.11 -0.09,0.12 -0.16,0.12 -0.23,0.02 -0.47,0.1 -0.47,0.35 0,0.12 0.06,0.23 0.14,0.37 l 0.76,1.27 h 2.5 l -0.03,0.31 h -2.28 l 1.96,3.29 0.32,-3.29 0.03,-0.31 c 0.02,-0.2 0.16,-1.56 0.16,-1.66 0,-0.3 -0.52,-0.33 -0.72,-0.33 -0.14,0 -0.23,0 -0.23,-0.2 0,-0.11 0.11,-0.11 0.14,-0.11 0.4,0 0.83,0.03 1.24,0.03 0.25,0 0.88,-0.03 1.13,-0.03 0.06,0 0.18,0 0.18,0.2 0,0.11 -0.1,0.11 -0.23,0.11 -0.62,0 -0.62,0.07 -0.65,0.36 l -0.61,6.23 c -0.02,0.2 -0.02,0.24 -0.19,0.24 -0.16,0 -0.2,-0.07 -0.26,-0.17 z"
   id="path8669" />
</g>    <g
       style="font-style:normal;font-variant:normal;font-weight:normal;font-stretch:normal;letter-spacing:normal;word-spacing:normal;text-anchor:start;fill:none;stroke:#000000;stroke-linecap:butt;stroke-linejoin:miter;stroke-miterlimit:10.43299961;stroke-opacity:1;stroke-dasharray:none;stroke-dashoffset:0"
       ns0:preamble=""
       ns0:text="$B$"
       word-spacing="normal"
       letter-spacing="normal"
       font-size-adjust="none"
       font-stretch="normal"
       font-weight="normal"
       font-variant="normal"
       font-style="normal"
       fill-rule="even-odd"
       stroke-miterlimit="10.433"
       xml:space="preserve"
       transform="matrix(1.35,0,0,-1.35,80.550679,1222.8172)"
       id="g8743">
<path
   style="fill:#000000;stroke-width:0"
   id="path8745"
   d="m 225.03,707.9 -0.01,-0.04 -0.01,-0.03 -0.01,-0.03 -0.01,-0.03 -0.01,-0.03 -0.01,-0.03 -0.01,-0.02 -0.01,-0.03 -0.01,-0.02 -0.01,-0.02 -0.01,-0.02 -0.02,-0.02 -0.01,-0.02 -0.02,-0.01 -0.02,-0.02 -0.02,-0.01 -0.02,-0.01 -0.03,-0.01 -0.02,-0.01 -0.03,-0.01 -0.04,-0.01 -0.01,-0.01 -0.02,0 -0.02,0 -0.02,0 -0.02,-0.01 -0.02,0 -0.02,0 -0.02,-0.01 -0.03,0 -0.02,0 -0.03,0 -0.02,0 -0.03,0 -0.03,0 -0.03,-0.01 -0.03,0 -0.03,0 -0.03,0 -0.03,0 -0.04,0 -0.03,0 -0.04,0 c -0.17,0 -0.27,0 -0.27,-0.2 0,-0.11 0.09,-0.11 0.27,-0.11 h 3.56 c 1.57,0 2.75,1.18 2.75,2.15 0,0.72 -0.58,1.3 -1.55,1.41 1.04,0.19 2.08,0.93 2.08,1.87 0,0.74 -0.65,1.38 -1.85,1.38 l -0.14,-0.31 c 0.88,0 1.09,-0.59 1.09,-1.03 0,-0.87 -0.86,-1.82 -2.07,-1.82 h -1.46 l -0.06,-0.22 h 1.88 c 0.96,0 1.15,-0.74 1.15,-1.17 0,-0.98 -0.89,-1.95 -2.06,-1.95 h -1.36 c -0.14,0 -0.16,0 -0.22,0.01 -0.1,0.01 -0.13,0.02 -0.13,0.1 0,0.03 0,0.05 0.05,0.23 l 0.69,2.78 0.06,0.22 0.62,2.47 c 0.09,0.35 0.11,0.38 0.54,0.38 h 1.28 l 0.14,0.31 h -3.35 c -0.19,0 -0.28,0 -0.28,-0.2 0,-0.11 0.08,-0.11 0.27,-0.11 0.02,0 0.21,0 0.38,-0.02 0.18,-0.02 0.27,-0.03 0.27,-0.16 0,-0.04 -0.01,-0.07 -0.04,-0.19 z" />
</g>    <g
       style="font-style:normal;font-variant:normal;font-weight:normal;font-stretch:normal;letter-spacing:normal;word-spacing:normal;text-anchor:start;fill:none;stroke:#000000;stroke-linecap:butt;stroke-linejoin:miter;stroke-miterlimit:10.43299961;stroke-opacity:1;stroke-dasharray:none;stroke-dashoffset:0"
       id="g8819"
       transform="matrix(1.35,0,0,-1.35,-18.370311,1285.3833)"
       xml:space="preserve"
       stroke-miterlimit="10.433"
       fill-rule="even-odd"
       font-style="normal"
       font-variant="normal"
       font-weight="normal"
       font-stretch="normal"
       font-size-adjust="none"
       letter-spacing="normal"
       word-spacing="normal"
       ns0:text="$a$"
       ns0:preamble="">
<path
   style="fill:#000000;stroke-width:0"
   d="m 227.15,710.89 -0.02,0.03 -0.02,0.04 -0.01,0.03 -0.02,0.03 -0.02,0.03 -0.02,0.03 -0.03,0.03 -0.02,0.03 -0.02,0.03 -0.02,0.03 -0.03,0.03 -0.02,0.02 -0.03,0.03 -0.02,0.02 -0.03,0.02 -0.03,0.03 -0.03,0.02 -0.03,0.02 -0.03,0.01 -0.03,0.02 -0.03,0.02 -0.03,0.01 -0.04,0.02 -0.03,0.01 -0.04,0.01 -0.03,0.01 -0.04,0.01 -0.04,0 -0.04,0.01 -0.04,0 -0.04,0.01 -0.04,0 0.01,-0.22 c 0.65,0 0.79,-0.82 0.79,-0.88 0,-0.06 -0.02,-0.12 -0.03,-0.17 l -0.5,-1.95 c -0.05,-0.18 -0.05,-0.2 -0.2,-0.37 -0.44,-0.55 -0.84,-0.71 -1.12,-0.71 -0.5,0 -0.64,0.55 -0.64,0.94 0,0.5 0.32,1.72 0.55,2.18 0.31,0.59 0.75,0.96 1.15,0.96 l -0.01,0.22 c -1.16,0 -2.4,-1.47 -2.4,-2.92 0,-0.94 0.55,-1.6 1.33,-1.6 0.19,0 0.69,0.04 1.29,0.75 0.08,-0.42 0.43,-0.75 0.91,-0.75 0.35,0 0.58,0.23 0.74,0.55 0.16,0.36 0.29,0.97 0.29,0.99 0,0.1 -0.09,0.1 -0.12,0.1 -0.09,0 -0.11,-0.04 -0.14,-0.18 -0.17,-0.65 -0.34,-1.24 -0.75,-1.24 -0.27,0 -0.3,0.26 -0.3,0.46 0,0.22 0.02,0.3 0.13,0.74 0.11,0.42 0.13,0.52 0.22,0.89 l 0.36,1.4 c 0.07,0.28 0.07,0.3 0.07,0.34 0,0.17 -0.12,0.27 -0.29,0.27 -0.24,0 -0.39,-0.22 -0.42,-0.44 z"
   id="path8821" />
</g>    <g
       style="font-style:normal;font-variant:normal;font-weight:normal;font-stretch:normal;letter-spacing:normal;word-spacing:normal;text-anchor:start;fill:none;stroke:#000000;stroke-linecap:butt;stroke-linejoin:miter;stroke-miterlimit:10.43299961;stroke-opacity:1;stroke-dasharray:none;stroke-dashoffset:0"
       ns0:preamble=""
       ns0:text="$b$"
       word-spacing="normal"
       letter-spacing="normal"
       font-size-adjust="none"
       font-stretch="normal"
       font-weight="normal"
       font-variant="normal"
       font-style="normal"
       fill-rule="even-odd"
       stroke-miterlimit="10.433"
       xml:space="preserve"
       transform="matrix(1.35,0,0,-1.35,35.629689,1237.3834)"
       id="g8903">
<path
   style="fill:#000000;stroke-width:0"
   id="path8905"
   d="m 225.81,713.93 0,0 0,0 0,0 0,0 0,0 0,0.01 0,0 0,0 0,0.01 0,0 0,0.01 0,0 0,0.01 0,0 -0.01,0.01 0,0 0,0.01 -0.01,0 0,0.01 0,0 -0.01,0 0,0.01 0,0 -0.01,0 0,0 0,0.01 0,0 -0.01,0 0,0 0,0 -0.01,0 0,0.01 -0.01,0 0,0 0,0 -0.01,0 0,0 -0.01,0 0,0 -0.01,0.01 0,0 -0.01,0 0,0 -0.01,0 -0.01,0 c -0.22,0 -0.95,-0.08 -1.21,-0.1 -0.08,-0.01 -0.19,-0.02 -0.19,-0.2 0,-0.12 0.09,-0.12 0.24,-0.12 0.48,0 0.5,-0.07 0.5,-0.17 0,-0.07 -0.09,-0.41 -0.14,-0.62 l -0.82,-3.25 c -0.12,-0.49 -0.16,-0.65 -0.16,-1 0,-0.95 0.53,-1.57 1.27,-1.57 v 0.22 c -0.34,0 -0.67,0.27 -0.67,1.01 0,0.19 0,0.38 0.16,1 l 0.22,0.92 c 0.06,0.22 0.06,0.24 0.15,0.35 0.48,0.65 0.93,0.8 1.19,0.8 0.36,0 0.63,-0.3 0.63,-0.94 0,-0.59 -0.33,-1.73 -0.51,-2.11 -0.33,-0.67 -0.79,-1.03 -1.17,-1.03 v -0.22 c 1.17,0 2.4,1.49 2.4,2.92 0,0.91 -0.53,1.6 -1.33,1.6 -0.46,0 -0.86,-0.29 -1.16,-0.6 z" />
</g>    <g
       id="g8991"
       transform="matrix(1.35,0,0,-1.35,11.629709,1333.3833)"
       xml:space="preserve"
       stroke-miterlimit="10.433"
       fill-rule="even-odd"
       font-style="normal"
       font-variant="normal"
       font-weight="normal"
       font-stretch="normal"
       font-size-adjust="none"
       letter-spacing="normal"
       word-spacing="normal"
       ns0:text="$c$"
       ns0:preamble=""
       style="font-style:normal;font-variant:normal;font-weight:normal;font-stretch:normal;letter-spacing:normal;word-spacing:normal;text-anchor:start;fill:none;stroke:#000000;stroke-linecap:butt;stroke-linejoin:miter;stroke-miterlimit:10.43299961;stroke-opacity:1;stroke-dasharray:none;stroke-dashoffset:0">
<path
   style="fill:#000000;stroke-width:0"
   d="m 227.38,710.91 -0.03,0 -0.03,0 -0.03,0 -0.03,0 -0.03,-0.01 -0.02,0 -0.02,0 -0.01,0 -0.02,-0.01 -0.01,0 -0.01,0 -0.02,-0.01 -0.01,0 -0.01,-0.01 -0.02,0 -0.01,-0.01 -0.01,0 -0.02,-0.01 -0.01,-0.01 -0.01,-0.01 -0.02,-0.01 -0.01,-0.01 -0.01,-0.01 -0.01,-0.01 -0.02,-0.01 -0.01,-0.01 c -0.16,-0.15 -0.18,-0.32 -0.18,-0.39 0,-0.24 0.18,-0.35 0.37,-0.35 0.29,0 0.56,0.24 0.56,0.64 0,0.49 -0.47,0.86 -1.18,0.86 -1.34,0 -2.67,-1.43 -2.67,-2.83 0,-0.9 0.58,-1.69 1.62,-1.69 1.42,0 2.26,1.06 2.26,1.18 0,0.06 -0.06,0.13 -0.12,0.13 -0.05,0 -0.07,-0.02 -0.13,-0.1 -0.79,-0.99 -1.88,-0.99 -1.99,-0.99 -0.63,0 -0.9,0.49 -0.9,1.09 0,0.41 0.2,1.37 0.54,1.99 0.31,0.57 0.85,1 1.4,1 0.34,0 0.72,-0.13 0.86,-0.4 z"
   id="path8993" />
</g>    <g
       ns0:preamble=""
       ns0:text="$O$"
       word-spacing="normal"
       letter-spacing="normal"
       font-size-adjust="none"
       font-stretch="normal"
       font-weight="normal"
       font-variant="normal"
       font-style="normal"
       fill-rule="even-odd"
       stroke-miterlimit="10.433"
       xml:space="preserve"
       transform="matrix(1.35,0,0,-1.35,-53.717821,1348.5991)"
       id="g9356"
       style="font-style:normal;font-variant:normal;font-weight:normal;font-stretch:normal;letter-spacing:normal;word-spacing:normal;text-anchor:start;fill:none;stroke:#000000;stroke-linecap:butt;stroke-linejoin:miter;stroke-miterlimit:10.43299961;stroke-opacity:1;stroke-dasharray:none;stroke-dashoffset:0">
<path
   id="path9358"
   d="m 230.8,711.47 0,0.14 -0.01,0.15 -0.01,0.14 -0.02,0.14 -0.03,0.14 -0.03,0.13 -0.04,0.13 -0.04,0.12 -0.05,0.12 -0.06,0.12 -0.05,0.11 -0.07,0.11 -0.07,0.1 -0.07,0.1 -0.08,0.1 -0.08,0.09 -0.09,0.08 -0.09,0.08 -0.09,0.08 -0.1,0.07 -0.1,0.07 -0.11,0.06 -0.11,0.05 -0.11,0.05 -0.12,0.05 -0.12,0.04 -0.12,0.03 -0.13,0.03 -0.13,0.02 -0.13,0.01 -0.14,0.01 -0.14,0.01 -0.05,-0.25 c 0.81,0 1.71,-0.56 1.71,-2.05 0,-0.71 -0.27,-2.27 -1.26,-3.49 -0.48,-0.61 -1.29,-1.2 -2.13,-1.2 h 0 c -0.99,0 -1.68,0.81 -1.68,2.12 0,0.44 0.14,1.9 0.9,3.06 0.69,1.04 1.67,1.56 2.46,1.56 l 0.05,0.25 c -2.15,0 -4.34,-2.26 -4.34,-4.59 0,-1.65 1.12,-2.66 2.55,-2.66 2.11,0 4.33,2.19 4.33,4.57 z"
   style="fill:#000000;stroke-width:0" />
</g>  </g>
</svg>
