<?xml version="1.0" encoding="UTF-8" standalone="no"?>
<!-- Created with Inkscape (http://www.inkscape.org/) -->

<svg
   xmlns:ns0="http://www.iki.fi/pav/software/textext/"
   xmlns:dc="http://purl.org/dc/elements/1.1/"
   xmlns:cc="http://creativecommons.org/ns#"
   xmlns:rdf="http://www.w3.org/1999/02/22-rdf-syntax-ns#"
   xmlns:svg="http://www.w3.org/2000/svg"
   xmlns="http://www.w3.org/2000/svg"
   xmlns:sodipodi="http://sodipodi.sourceforge.net/DTD/sodipodi-0.dtd"
   xmlns:inkscape="http://www.inkscape.org/namespaces/inkscape"
   width="306.02103"
   height="137.84471"
   id="svg2822"
   version="1.1"
   inkscape:version="0.47 r22583"
   sodipodi:docname="T1_Ch10-08.svg">
  <sodipodi:namedview
     id="base"
     pagecolor="#ffffff"
     bordercolor="#666666"
     borderopacity="1.0"
     inkscape:pageopacity="0.0"
     inkscape:pageshadow="2"
     inkscape:zoom="1.979899"
     inkscape:cx="175.14004"
     inkscape:cy="80.047068"
     inkscape:document-units="px"
     inkscape:current-layer="layer2"
     showgrid="true"
     inkscape:window-width="1280"
     inkscape:window-height="725"
     inkscape:window-x="0"
     inkscape:window-y="25"
     inkscape:window-maximized="1">
    <inkscape:grid
       snapvisiblegridlinesonly="true"
       enabled="true"
       visible="true"
       empspacing="5"
       id="grid2867"
       type="xygrid" />
  </sodipodi:namedview>
  <defs
     id="defs2824">
    <marker
       style="overflow:visible"
       id="Arrow2Mend"
       refX="0"
       refY="0"
       orient="auto"
       inkscape:stockid="Arrow2Mend">
      <path
         transform="scale(-0.6,-0.6)"
         d="M 8.7185878,4.0337352 -2.2072895,0.01601326 8.7185884,-4.0017078 c -1.7454984,2.3720609 -1.7354408,5.6174519 -6e-7,8.035443 z"
         style="font-size:12px;fill-rule:evenodd;stroke-width:0.625;stroke-linejoin:round"
         id="path3673" />
    </marker>
    <marker
       style="overflow:visible"
       id="Arrow2Mstart"
       refX="0"
       refY="0"
       orient="auto"
       inkscape:stockid="Arrow2Mstart">
      <path
         transform="scale(0.6,0.6)"
         d="M 8.7185878,4.0337352 -2.2072895,0.01601326 8.7185884,-4.0017078 c -1.7454984,2.3720609 -1.7354408,5.6174519 -6e-7,8.035443 z"
         style="font-size:12px;fill-rule:evenodd;stroke-width:0.625;stroke-linejoin:round"
         id="path3670" />
    </marker>
    <inkscape:perspective
       id="perspective2830"
       inkscape:persp3d-origin="372.04724 : 350.78739 : 1"
       inkscape:vp_z="744.09448 : 526.18109 : 1"
       inkscape:vp_y="0 : 1000 : 0"
       inkscape:vp_x="0 : 526.18109 : 1"
       sodipodi:type="inkscape:persp3d" />
    <inkscape:perspective
       sodipodi:type="inkscape:persp3d"
       inkscape:vp_x="0 : 0.5 : 1"
       inkscape:vp_y="0 : 1000 : 0"
       inkscape:vp_z="1 : 0.5 : 1"
       inkscape:persp3d-origin="0.5 : 0.33333333 : 1"
       id="perspective2861" />
    <inkscape:perspective
       id="perspective3781"
       inkscape:persp3d-origin="0.5 : 0.33333333 : 1"
       inkscape:vp_z="1 : 0.5 : 1"
       inkscape:vp_y="0 : 1000 : 0"
       inkscape:vp_x="0 : 0.5 : 1"
       sodipodi:type="inkscape:persp3d" />
    <marker
       style="overflow:visible"
       id="Arrow2Mend-1"
       refX="0"
       refY="0"
       orient="auto"
       inkscape:stockid="Arrow2Mend">
      <path
         transform="scale(-0.6,-0.6)"
         d="M 8.7185878,4.0337352 -2.2072895,0.01601326 8.7185884,-4.0017078 c -1.7454984,2.3720609 -1.7354408,5.6174519 -6e-7,8.035443 z"
         style="font-size:12px;fill-rule:evenodd;stroke-width:0.625;stroke-linejoin:round"
         id="path3673-9" />
    </marker>
    <marker
       style="overflow:visible"
       id="marker3787"
       refX="0"
       refY="0"
       orient="auto"
       inkscape:stockid="Arrow2Mend">
      <path
         transform="scale(-0.6,-0.6)"
         d="M 8.7185878,4.0337352 -2.2072895,0.01601326 8.7185884,-4.0017078 c -1.7454984,2.3720609 -1.7354408,5.6174519 -6e-7,8.035443 z"
         style="font-size:12px;fill-rule:evenodd;stroke-width:0.625;stroke-linejoin:round"
         id="path3789" />
    </marker>
    <marker
       style="overflow:visible"
       id="Arrow2Mstart-1"
       refX="0"
       refY="0"
       orient="auto"
       inkscape:stockid="Arrow2Mstart">
      <path
         transform="scale(0.6,0.6)"
         d="M 8.7185878,4.0337352 -2.2072895,0.01601326 8.7185884,-4.0017078 c -1.7454984,2.3720609 -1.7354408,5.6174519 -6e-7,8.035443 z"
         style="font-size:12px;fill-rule:evenodd;stroke-width:0.625;stroke-linejoin:round"
         id="path3670-3" />
    </marker>
    <marker
       style="overflow:visible"
       id="marker3793"
       refX="0"
       refY="0"
       orient="auto"
       inkscape:stockid="Arrow2Mend">
      <path
         transform="scale(-0.6,-0.6)"
         d="M 8.7185878,4.0337352 -2.2072895,0.01601326 8.7185884,-4.0017078 c -1.7454984,2.3720609 -1.7354408,5.6174519 -6e-7,8.035443 z"
         style="font-size:12px;fill-rule:evenodd;stroke-width:0.625;stroke-linejoin:round"
         id="path3795" />
    </marker>
  </defs>
  <metadata
     id="metadata2827">
    <rdf:RDF>
      <cc:Work
         rdf:about="">
        <dc:format>image/svg+xml</dc:format>
        <dc:type
           rdf:resource="http://purl.org/dc/dcmitype/StillImage" />
        <dc:title></dc:title>
      </cc:Work>
    </rdf:RDF>
  </metadata>
  <g
     style="display:inline"
     transform="translate(-582.7404,-1480.1793)"
     id="layer1"
     inkscape:groupmode="layer"
     inkscape:label="Calque 1" />
  <g
     style="display:inline"
     inkscape:label="dessin"
     id="layer2"
     inkscape:groupmode="layer"
     transform="translate(-1035.7404,-2117.3171)">
    <path
       id="path2869"
       d="m 1339.625,2205.2513 -202.0897,0 0,-86.6098"
       style="fill:none;stroke:#000000;stroke-width:1;stroke-linecap:butt;stroke-linejoin:miter;stroke-miterlimit:4;stroke-opacity:1;stroke-dasharray:none;marker-start:url(#Arrow2Mstart);marker-end:url(#Arrow2Mend);display:inline" />
    <path
       sodipodi:nodetypes="czzz"
       id="path4279"
       d="m 1243.3918,2152.3231 c -47.53,-38.024 -206.9014,-11.5352 -206.9014,43.3049 0,52.9283 92.8607,62.3917 134.7265,57.74 43.3049,-4.8117 120.2915,-62.5516 72.1749,-101.0449 z"
       style="fill:none;stroke:#000000;stroke-width:1.5;stroke-linecap:butt;stroke-linejoin:miter;stroke-miterlimit:4;stroke-opacity:1;stroke-dasharray:none;display:inline" />
    <path
       sodipodi:nodetypes="cc"
       id="path4281"
       d="m 1243.3918,2152.3231 24.0583,19.2466"
       style="fill:none;stroke:#000000;stroke-width:2;stroke-linecap:butt;stroke-linejoin:miter;stroke-miterlimit:4;stroke-opacity:1;stroke-dasharray:none;marker-end:url(#Arrow2Mend);display:inline" />
    <path
       style="fill:none;stroke:#000000;stroke-width:2;stroke-linecap:butt;stroke-linejoin:miter;stroke-miterlimit:4;stroke-opacity:1;stroke-dasharray:none;marker-end:url(#Arrow2Mend);display:inline"
       d="m 1243.3918,2152.3231 -19.2466,24.0583"
       id="path4290"
       sodipodi:nodetypes="cc" />
    <g
       style="font-style:normal;font-variant:normal;font-weight:normal;font-stretch:normal;letter-spacing:normal;word-spacing:normal;text-anchor:start;fill:none;stroke:#000000;stroke-linecap:butt;stroke-linejoin:miter;stroke-miterlimit:10.43299961;stroke-opacity:1;stroke-dasharray:none;stroke-dashoffset:0;display:inline"
       id="g4739"
       transform="matrix(1.4434982,0,0,-1.4434982,1002.5249,3240.6582)"
       xml:space="preserve"
       stroke-miterlimit="10.433"
       fill-rule="even-odd"
       font-style="normal"
       font-variant="normal"
       font-weight="normal"
       font-stretch="normal"
       font-size-adjust="none"
       letter-spacing="normal"
       word-spacing="normal"
       ns0:text="$\\sigma_{ij}$"
       ns0:preamble="">
<path
   style="fill:#000000;stroke-width:0"
   d="m 228.59,710.84 0.02,0 0.01,0 0.02,0 0.01,0 0.02,0 0.02,0 0.01,0 0.02,0 0.02,0.01 0.02,0 0.02,0 0.02,0.01 0.03,0 0.02,0.01 0.02,0 0.02,0.01 0.02,0.01 0.01,0.01 0.02,0.01 0.02,0.01 0.02,0.01 0.01,0.02 0.01,0.01 0.01,0 0.01,0.01 0,0.01 0.01,0.01 0.01,0.01 0,0.01 0.01,0.01 0,0.01 0.01,0.01 0,0.01 0.01,0.02 0,0.01 0,0.01 0,0.01 0.01,0.02 0,0.01 0,0.02 0,0.01 0,0.02 c 0,0.24 -0.21,0.24 -0.39,0.24 h -2.27 c -1.5,0 -2.61,-1.65 -2.61,-2.83 0,-0.88 0.59,-1.58 1.49,-1.58 l 0.02,0.22 c -0.49,0 -0.89,0.36 -0.89,1.08 0,0.3 0.12,1.11 0.47,1.7 0.42,0.69 1.01,0.83 1.35,0.83 0.84,0 0.92,-0.66 0.92,-0.97 0,-0.47 -0.2,-1.28 -0.54,-1.79 -0.39,-0.59 -0.93,-0.85 -1.31,-0.85 h 0 l -0.02,-0.22 c 1.18,0 2.51,1.21 2.51,2.74 0,0.17 0,0.65 -0.31,1.09 z"
   id="path4741" />
<path
   style="fill:#000000;stroke-width:0"
   d="m 231.38,709.99 0,0.01 0,0.01 0,0.01 0,0.01 0,0.01 0,0.01 -0.01,0.02 0,0.01 -0.01,0.01 0,0.01 -0.01,0.01 0,0.01 -0.01,0.01 -0.01,0.01 0,0.01 -0.01,0.01 -0.01,0.01 -0.01,0.01 -0.01,0.01 -0.01,0.01 -0.01,0.01 -0.01,0 -0.02,0.01 -0.01,0.01 -0.01,0 -0.02,0.01 -0.01,0 -0.02,0.01 -0.01,0 -0.02,0 -0.02,0 -0.01,0 c -0.19,0 -0.4,-0.18 -0.4,-0.38 0,-0.12 0.1,-0.27 0.28,-0.27 0.21,0 0.39,0.2 0.39,0.39 z"
   id="path4743" />
<path
   style="fill:#000000;stroke-width:0"
   d="m 229.96,706.45 0,-0.02 -0.01,-0.02 -0.01,-0.03 -0.01,-0.02 0,-0.02 -0.01,-0.01 0,-0.02 0,-0.02 -0.01,-0.02 0,-0.01 -0.01,-0.02 0,-0.01 0,-0.01 0,-0.01 0,-0.01 0,-0.01 0,-0.02 0,-0.01 0,-0.01 c 0,-0.32 0.28,-0.59 0.66,-0.59 0.7,0 1.01,0.96 1.01,1.07 0,0.09 -0.09,0.09 -0.12,0.09 -0.09,0 -0.1,-0.04 -0.13,-0.12 -0.16,-0.56 -0.47,-0.84 -0.74,-0.84 -0.14,0 -0.17,0.09 -0.17,0.24 0,0.16 0.05,0.29 0.11,0.45 0.07,0.18 0.15,0.37 0.22,0.55 0.07,0.17 0.32,0.81 0.35,0.89 0.02,0.07 0.04,0.15 0.04,0.22 0,0.33 -0.28,0.6 -0.67,0.6 -0.69,0 -1.01,-0.95 -1.01,-1.07 0,-0.09 0.1,-0.09 0.12,-0.09 0.1,0 0.11,0.03 0.13,0.11 0.18,0.6 0.48,0.85 0.74,0.85 0.11,0 0.18,-0.06 0.18,-0.24 0,-0.16 -0.04,-0.27 -0.22,-0.7 z"
   id="path4745" />
<path
   style="fill:#000000;stroke-width:0"
   d="m 235.01,709.99 0,0.01 0,0.01 -0.01,0.01 0,0.01 0,0.02 0,0.01 -0.01,0.01 0,0.01 0,0.01 -0.01,0.01 -0.01,0.01 0,0.01 -0.01,0.02 -0.01,0.01 0,0.01 -0.01,0.01 -0.01,0.01 -0.01,0 -0.01,0.01 -0.01,0.01 -0.01,0.01 -0.01,0.01 -0.02,0 -0.01,0.01 -0.01,0 -0.02,0.01 -0.01,0 -0.02,0.01 -0.01,0 -0.02,0 -0.01,0 -0.02,0 c -0.21,0 -0.39,-0.19 -0.39,-0.38 0,-0.11 0.08,-0.27 0.28,-0.27 0.18,0 0.39,0.19 0.39,0.39 z"
   id="path4747" />
<path
   style="fill:#000000;stroke-width:0"
   d="m 233.53,705.29 -0.01,-0.05 -0.02,-0.04 -0.01,-0.04 -0.02,-0.05 -0.01,-0.04 -0.02,-0.04 -0.02,-0.04 -0.02,-0.04 -0.03,-0.04 -0.02,-0.04 -0.02,-0.04 -0.03,-0.03 -0.03,-0.04 -0.02,-0.03 -0.03,-0.03 -0.03,-0.03 -0.03,-0.03 -0.03,-0.03 -0.03,-0.03 -0.04,-0.02 -0.03,-0.03 -0.03,-0.02 -0.04,-0.02 -0.03,-0.02 -0.04,-0.01 -0.04,-0.02 -0.03,-0.01 -0.04,-0.01 -0.04,-0.01 -0.04,0 -0.03,-0.01 -0.04,0 c -0.09,0 -0.18,0.02 -0.25,0.04 0.18,0.09 0.24,0.26 0.24,0.36 0,0.17 -0.14,0.26 -0.28,0.26 -0.21,0 -0.39,-0.19 -0.39,-0.41 0,-0.27 0.27,-0.44 0.68,-0.44 0.42,0 1.24,0.25 1.46,1.1 l 0.62,2.5 c 0.03,0.07 0.04,0.14 0.04,0.24 0,0.38 -0.33,0.66 -0.75,0.66 -0.77,0 -1.22,-0.97 -1.22,-1.07 0,-0.09 0.1,-0.09 0.12,-0.09 0.08,0 0.09,0.02 0.14,0.12 0.17,0.41 0.54,0.84 0.94,0.84 0.18,0 0.24,-0.12 0.24,-0.34 0,-0.08 -0.01,-0.18 -0.02,-0.21 z"
   id="path4749" />
</g>    <g
       style="font-style:normal;font-variant:normal;font-weight:normal;font-stretch:normal;letter-spacing:normal;word-spacing:normal;text-anchor:start;fill:none;stroke:#000000;stroke-linecap:butt;stroke-linejoin:miter;stroke-miterlimit:10.43299961;stroke-opacity:1;stroke-dasharray:none;stroke-dashoffset:0;display:inline"
       ns0:preamble=""
       ns0:text="$f\\left(\\sigma_{ij}\\right)&lt;0$"
       word-spacing="normal"
       letter-spacing="normal"
       font-size-adjust="none"
       font-stretch="normal"
       font-weight="normal"
       font-variant="normal"
       font-style="normal"
       fill-rule="even-odd"
       stroke-miterlimit="10.433"
       xml:space="preserve"
       transform="matrix(1.4434982,0,0,-1.4434982,795.1712,3258.4421)"
       id="g4821">
<path
   id="path4823"
   d="m 227.09,711.11 h 0.86 c 0.2,0 0.29,0 0.29,0.2 0,0.11 -0.09,0.11 -0.26,0.11 h -0.83 l 0.21,1.13 c 0.04,0.21 0.18,0.92 0.24,1.04 0.09,0.19 0.26,0.34 0.47,0.34 0.03,0 0.29,0 0.48,-0.18 -0.43,-0.04 -0.54,-0.39 -0.54,-0.54 0,-0.23 0.19,-0.35 0.37,-0.35 0.26,0 0.55,0.22 0.55,0.6 0,0.46 -0.46,0.69 -0.86,0.69 -0.34,0 -0.97,-0.18 -1.27,-1.17 -0.06,-0.21 -0.09,-0.31 -0.33,-1.56 h -0.69 c -0.19,0 -0.29,0 -0.29,-0.19 0,-0.12 0.08,-0.12 0.27,-0.12 h 0.66 l -0.75,-3.94 c -0.18,-0.96 -0.35,-1.87 -0.86,-1.87 -0.04,0 -0.29,0 -0.48,0.18 0.46,0.03 0.55,0.39 0.55,0.54 0,0.23 -0.18,0.34 -0.37,0.34 -0.26,0 -0.55,-0.21 -0.55,-0.59 0,-0.45 0.44,-0.69 0.85,-0.69 0.54,0 0.94,0.59 1.12,0.97 0.32,0.62 0.55,1.83 0.56,1.9 z"
   style="fill:#000000;stroke-width:0" />
<path
   id="path4825"
   d="m 234.34,704.73 0,0.01 0,0 0,0.01 0,0 0,0 0,0 0,0.01 0,0 0,0.01 -0.01,0 0,0 0,0.01 0,0 -0.01,0.01 0,0 -0.01,0.01 0,0.01 -0.01,0 0,0.01 -0.01,0 0,0.01 0,0 -0.01,0.01 0,0 0,0 -0.01,0.01 0,0 -0.01,0.01 0,0 -0.01,0.01 0,0.01 -0.01,0 0,0.01 -0.01,0 -0.01,0.01 0,0.01 -0.01,0 -0.01,0.01 0,0.01 -0.01,0.01 -0.01,0 -0.01,0.01 c -1.24,1.26 -1.56,3.14 -1.56,4.66 0,1.74 0.38,3.47 1.6,4.72 0.13,0.12 0.13,0.14 0.13,0.16 0,0.08 -0.04,0.1 -0.1,0.1 -0.1,0 -0.99,-0.67 -1.58,-1.94 -0.51,-1.09 -0.63,-2.2 -0.63,-3.04 0,-0.77 0.11,-1.98 0.66,-3.1 0.6,-1.23 1.45,-1.88 1.55,-1.88 0.06,0 0.1,0.03 0.1,0.1 z"
   style="fill:#000000;stroke-width:0" />
<path
   id="path4827"
   d="m 240.08,710.84 0.01,0 0.01,0 0.02,0 0.01,0 0.02,0 0.02,0 0.02,0 0.02,0 0.02,0.01 0.02,0 0.02,0 0.02,0.01 0.02,0 0.02,0.01 0.02,0 0.02,0.01 0.02,0.01 0.02,0.01 0.02,0.01 0.01,0.01 0.02,0.01 0.02,0.02 0,0.01 0.01,0 0.01,0.01 0.01,0.01 0,0.01 0.01,0.01 0,0.01 0.01,0.01 0.01,0.01 0,0.01 0,0.01 0.01,0.02 0,0.01 0.01,0.01 0,0.01 0,0.02 0,0.01 0,0.02 0,0.01 0,0.02 c 0,0.24 -0.21,0.24 -0.38,0.24 h -2.28 c -1.5,0 -2.61,-1.65 -2.61,-2.83 0,-0.88 0.59,-1.58 1.5,-1.58 l 0.01,0.22 c -0.49,0 -0.89,0.36 -0.89,1.08 0,0.3 0.12,1.11 0.47,1.7 0.42,0.69 1.02,0.83 1.35,0.83 0.84,0 0.92,-0.66 0.92,-0.97 0,-0.47 -0.2,-1.28 -0.54,-1.79 -0.39,-0.59 -0.92,-0.85 -1.31,-0.85 h 0 l -0.01,-0.22 c 1.17,0 2.5,1.21 2.5,2.74 0,0.17 0,0.65 -0.31,1.09 z"
   style="fill:#000000;stroke-width:0" />
<path
   id="path4829"
   d="m 242.87,709.99 0,0.01 0,0.01 -0.01,0.01 0,0.01 0,0.01 0,0.01 -0.01,0.02 0,0.01 0,0.01 -0.01,0.01 0,0.01 -0.01,0.01 -0.01,0.01 0,0.01 -0.01,0.01 -0.01,0.01 -0.01,0.01 -0.01,0.01 -0.01,0.01 -0.01,0.01 -0.01,0.01 -0.01,0 -0.01,0.01 -0.02,0.01 -0.01,0 -0.01,0.01 -0.02,0 -0.01,0.01 -0.02,0 -0.02,0 -0.01,0 -0.02,0 c -0.19,0 -0.39,-0.18 -0.39,-0.38 0,-0.12 0.09,-0.27 0.28,-0.27 0.2,0 0.39,0.2 0.39,0.39 z"
   style="fill:#000000;stroke-width:0" />
<path
   id="path4831"
   d="m 241.44,706.45 0,-0.02 -0.01,-0.02 -0.01,-0.03 0,-0.02 -0.01,-0.02 0,-0.01 -0.01,-0.02 0,-0.02 -0.01,-0.02 0,-0.01 0,-0.02 0,-0.01 0,-0.01 -0.01,-0.01 0,-0.01 0,-0.01 0,-0.02 0,-0.01 0,-0.01 c 0,-0.32 0.28,-0.59 0.66,-0.59 0.7,0 1.01,0.96 1.01,1.07 0,0.09 -0.09,0.09 -0.11,0.09 -0.1,0 -0.11,-0.04 -0.14,-0.12 -0.16,-0.56 -0.46,-0.84 -0.73,-0.84 -0.14,0 -0.18,0.09 -0.18,0.24 0,0.16 0.05,0.29 0.11,0.45 0.07,0.18 0.15,0.37 0.23,0.55 0.06,0.17 0.31,0.81 0.34,0.89 0.02,0.07 0.04,0.15 0.04,0.22 0,0.33 -0.28,0.6 -0.66,0.6 -0.69,0 -1.02,-0.95 -1.02,-1.07 0,-0.09 0.1,-0.09 0.12,-0.09 0.1,0 0.11,0.03 0.13,0.11 0.18,0.6 0.49,0.85 0.75,0.85 0.11,0 0.17,-0.06 0.17,-0.24 0,-0.16 -0.04,-0.27 -0.22,-0.7 z"
   style="fill:#000000;stroke-width:0" />
<path
   id="path4833"
   d="m 246.49,709.99 0,0.01 0,0.01 0,0.01 -0.01,0.01 0,0.02 0,0.01 0,0.01 -0.01,0.01 0,0.01 -0.01,0.01 0,0.01 -0.01,0.01 -0.01,0.02 0,0.01 -0.01,0.01 -0.01,0.01 -0.01,0.01 -0.01,0 -0.01,0.01 -0.01,0.01 -0.01,0.01 -0.01,0.01 -0.01,0 -0.02,0.01 -0.01,0 -0.01,0.01 -0.02,0 -0.01,0.01 -0.02,0 -0.02,0 -0.01,0 -0.02,0 c -0.2,0 -0.39,-0.19 -0.39,-0.38 0,-0.11 0.08,-0.27 0.28,-0.27 0.19,0 0.39,0.19 0.39,0.39 z"
   style="fill:#000000;stroke-width:0" />
<path
   id="path4835"
   d="m 245.01,705.29 -0.01,-0.05 -0.01,-0.04 -0.02,-0.04 -0.01,-0.05 -0.02,-0.04 -0.02,-0.04 -0.02,-0.04 -0.02,-0.04 -0.02,-0.04 -0.03,-0.04 -0.02,-0.04 -0.03,-0.03 -0.02,-0.04 -0.03,-0.03 -0.03,-0.03 -0.03,-0.03 -0.03,-0.03 -0.03,-0.03 -0.03,-0.03 -0.03,-0.02 -0.04,-0.03 -0.03,-0.02 -0.04,-0.02 -0.03,-0.02 -0.04,-0.01 -0.03,-0.02 -0.04,-0.01 -0.04,-0.01 -0.03,-0.01 -0.04,0 -0.04,-0.01 -0.04,0 c -0.09,0 -0.17,0.02 -0.25,0.04 0.18,0.09 0.24,0.26 0.24,0.36 0,0.17 -0.14,0.26 -0.28,0.26 -0.21,0 -0.39,-0.19 -0.39,-0.41 0,-0.27 0.27,-0.44 0.69,-0.44 0.42,0 1.23,0.25 1.45,1.1 l 0.63,2.5 c 0.02,0.07 0.03,0.14 0.03,0.24 0,0.38 -0.33,0.66 -0.74,0.66 -0.78,0 -1.23,-0.97 -1.23,-1.07 0,-0.09 0.1,-0.09 0.12,-0.09 0.09,0 0.09,0.02 0.14,0.12 0.18,0.41 0.54,0.84 0.94,0.84 0.18,0 0.24,-0.12 0.24,-0.34 0,-0.08 -0.01,-0.18 -0.02,-0.21 z"
   style="fill:#000000;stroke-width:0" />
<path
   id="path4837"
   d="m 250.51,709.61 0,0.08 0,0.07 -0.01,0.08 0,0.08 -0.01,0.17 -0.01,0.18 -0.02,0.18 -0.02,0.19 -0.02,0.2 -0.04,0.2 -0.04,0.2 -0.04,0.21 -0.06,0.21 -0.06,0.21 -0.07,0.21 -0.08,0.22 -0.04,0.1 -0.04,0.11 -0.05,0.11 -0.05,0.1 c -0.6,1.23 -1.45,1.87 -1.56,1.87 -0.05,0 -0.09,-0.04 -0.09,-0.1 0,-0.02 0,-0.04 0.18,-0.22 0.98,-0.99 1.55,-2.57 1.55,-4.66 0,-1.7 -0.37,-3.45 -1.61,-4.71 -0.12,-0.12 -0.12,-0.14 -0.12,-0.17 0,-0.06 0.04,-0.1 0.09,-0.1 0.11,0 1,0.68 1.59,1.95 0.51,1.09 0.63,2.2 0.63,3.03 z"
   style="fill:#000000;stroke-width:0" />
<path
   id="path4839"
   d="m 260.99,712.08 0.01,0.01 0.01,0.01 0.01,0 0.01,0.01 0.01,0 0.01,0.01 0.01,0 0.01,0.01 0.01,0 0.01,0.01 0,0 0.01,0.01 0.01,0.01 0.01,0 0,0.01 0.01,0 0.01,0.01 0,0.01 0.01,0 0,0.01 0.01,0.01 0,0.01 0,0 0.01,0.01 0,0.01 0,0.01 0,0.01 0.01,0 0,0.01 0,0.01 0,0.01 0,0.01 c 0,0.11 -0.09,0.2 -0.2,0.2 -0.03,0 -0.05,0 -0.18,-0.07 l -5.52,-2.6 c -0.11,-0.05 -0.19,-0.1 -0.19,-0.22 0,-0.12 0.08,-0.17 0.19,-0.22 l 5.52,-2.6 c 0.13,-0.07 0.15,-0.07 0.18,-0.07 0.11,0 0.2,0.09 0.2,0.2 0,0.11 -0.07,0.16 -0.19,0.22 l -5.23,2.47 z"
   style="fill:#000000;stroke-width:0" />
<path
   id="path4841"
   d="m 269.37,710.31 0,0.15 0,0.15 -0.01,0.15 0,0.15 -0.01,0.15 -0.01,0.14 -0.02,0.15 -0.02,0.15 -0.02,0.15 -0.03,0.14 -0.03,0.15 -0.04,0.14 -0.04,0.14 -0.05,0.14 -0.06,0.14 -0.03,0.07 -0.03,0.07 c -0.46,0.96 -1.27,1.12 -1.69,1.12 -0.6,0 -1.33,-0.26 -1.73,-1.19 -0.32,-0.68 -0.37,-1.46 -0.37,-2.26 0,-0.75 0.04,-1.64 0.44,-2.4 0.43,-0.81 1.16,-1.01 1.65,-1.01 v 0.22 c -0.39,0 -0.98,0.25 -1.16,1.21 -0.11,0.6 -0.11,1.51 -0.11,2.1 0,0.64 0,1.29 0.08,1.83 0.19,1.19 0.94,1.28 1.19,1.28 0.33,0 0.99,-0.18 1.17,-1.17 0.1,-0.55 0.1,-1.31 0.1,-1.94 0,-0.75 0,-1.42 -0.11,-2.06 -0.15,-0.95 -0.71,-1.25 -1.16,-1.25 h 0 v -0.22 c 0.54,0 1.29,0.21 1.73,1.16 0.32,0.69 0.37,1.46 0.37,2.25 z"
   style="fill:#000000;stroke-width:0" />
</g>    <g
       id="g4935"
       transform="matrix(1.4434982,0,0,-1.4434982,948.63608,3185.6433)"
       xml:space="preserve"
       stroke-miterlimit="10.433"
       fill-rule="even-odd"
       font-style="normal"
       font-variant="normal"
       font-weight="normal"
       font-stretch="normal"
       font-size-adjust="none"
       letter-spacing="normal"
       word-spacing="normal"
       ns0:text="charge"
       ns0:preamble=""
       style="font-style:normal;font-variant:normal;font-weight:normal;font-stretch:normal;letter-spacing:normal;word-spacing:normal;text-anchor:start;fill:none;stroke:#000000;stroke-linecap:butt;stroke-linejoin:miter;stroke-miterlimit:10.43299961;stroke-opacity:1;stroke-dasharray:none;stroke-dashoffset:0;display:inline">
<path
   d="m 224.6,709.29 0,0.08 0,0.07 0,0.07 0.01,0.07 0,0.07 0.01,0.07 0.01,0.06 0,0.07 0.01,0.06 0.01,0.06 0.01,0.06 0.02,0.06 0.02,0.11 0.03,0.1 0.04,0.1 0.03,0.09 0.04,0.08 0.04,0.08 0.05,0.08 0.04,0.07 0.05,0.06 0.05,0.06 0.05,0.06 0.06,0.05 0.05,0.05 0.06,0.04 0.05,0.04 0.06,0.03 0.05,0.03 0.06,0.03 0.06,0.02 0.05,0.02 0.06,0.01 0.05,0.02 0.06,0.01 0.05,0 0.05,0.01 0.05,0 c 0.09,0 0.72,-0.01 1.07,-0.37 -0.41,-0.03 -0.47,-0.33 -0.47,-0.46 0,-0.26 0.18,-0.46 0.46,-0.46 0.26,0 0.46,0.17 0.46,0.47 0,0.68 -0.76,1.07 -1.53,1.07 -1.24,0 -2.16,-1.08 -2.16,-2.32 0,-1.27 0.99,-2.26 2.14,-2.26 1.34,0 1.66,1.2 1.66,1.3 0,0.1 -0.1,0.1 -0.13,0.1 -0.09,0 -0.11,-0.04 -0.13,-0.1 -0.29,-0.93 -0.94,-1.05 -1.31,-1.05 -0.52,0 -1.4,0.43 -1.4,2.03 z"
   id="path4937"
   style="fill:#000000;stroke-width:0" />
<path
   d="m 228.68,707.88 0,-0.02 0,-0.02 -0.01,-0.04 0,-0.03 0,-0.04 0,-0.03 -0.01,-0.03 0,-0.02 -0.01,-0.03 -0.01,-0.02 -0.01,-0.02 -0.01,-0.02 -0.01,-0.02 -0.02,-0.01 -0.01,-0.02 -0.02,-0.01 -0.02,-0.01 -0.02,-0.01 -0.03,-0.01 -0.02,-0.01 -0.03,-0.01 -0.03,0 -0.04,-0.01 -0.03,0 -0.04,0 -0.02,0 -0.02,0 -0.02,-0.01 -0.02,0 -0.02,0 -0.03,0 -0.02,0 -0.03,0 -0.02,0 -0.03,0 -0.02,0 -0.03,0 -0.03,0 -0.03,0 -0.03,0 -0.03,0 v -0.31 c 0.35,0.01 0.86,0.03 1.12,0.03 0.26,0 0.78,-0.02 1.12,-0.03 v 0.31 c -0.67,0 -0.78,0 -0.78,0.45 v 1.83 c 0,1.04 0.71,1.6 1.35,1.6 0.63,0 0.74,-0.54 0.74,-1.11 v -2.32 c 0,-0.45 -0.11,-0.45 -0.78,-0.45 v -0.31 c 0.35,0.01 0.85,0.03 1.12,0.03 0.26,0 0.78,-0.02 1.12,-0.03 v 0.31 c -0.52,0 -0.77,0 -0.78,0.3 v 1.9 c 0,0.86 0,1.17 -0.31,1.53 -0.14,0.17 -0.46,0.37 -1.04,0.37 -0.84,0 -1.28,-0.6 -1.45,-0.98 v 3.49 l -1.43,-0.11 v -0.31 c 0.7,0 0.78,-0.07 0.78,-0.56 z"
   id="path4939"
   style="fill:#000000;stroke-width:0" />
<path
   d="m 236.43,707.88 0.01,-0.04 0,-0.03 0.01,-0.04 0.01,-0.04 0.01,-0.04 0.01,-0.03 0.01,-0.04 0.01,-0.04 0.02,-0.03 0.02,-0.04 0.01,-0.03 0.02,-0.03 0.02,-0.04 0.02,-0.03 0.03,-0.03 0.02,-0.03 0.03,-0.03 0.02,-0.02 0.03,-0.03 0.03,-0.02 0.03,-0.03 0.03,-0.02 0.03,-0.02 0.04,-0.02 0.03,-0.01 0.04,-0.02 0.03,-0.01 0.04,-0.01 0.04,-0.01 0.04,0 0.05,-0.01 0.04,0 c 0.21,0 0.82,0.14 0.82,0.95 v 0.56 h -0.25 v -0.56 c 0,-0.58 -0.25,-0.64 -0.36,-0.64 -0.33,0 -0.37,0.45 -0.37,0.5 v 1.99 c 0,0.42 0,0.81 -0.36,1.18 -0.39,0.39 -0.89,0.55 -1.36,0.55 -0.82,0 -1.51,-0.47 -1.51,-1.13 0,-0.3 0.2,-0.47 0.46,-0.47 0.28,0 0.46,0.2 0.46,0.46 0,0.12 -0.05,0.45 -0.51,0.46 0.27,0.35 0.76,0.46 1.08,0.46 0.48,0 1.05,-0.39 1.05,-1.28 v -0.37 -0.21 -0.99 c 0,-0.95 -0.71,-1.29 -1.16,-1.29 -0.49,0 -0.9,0.35 -0.9,0.85 0,0.55 0.42,1.37 2.06,1.43 h 0 v 0.21 c -0.51,-0.03 -1.2,-0.06 -1.83,-0.36 -0.75,-0.33 -1,-0.85 -1,-1.29 0,-0.81 0.97,-1.06 1.6,-1.06 0.66,0 1.11,0.4 1.3,0.87 z"
   id="path4941"
   style="fill:#000000;stroke-width:0" />
<path
   d="m 239.76,710.43 v 1.1 l -1.39,-0.11 v -0.31 c 0.7,0 0.78,-0.07 0.78,-0.56 v -2.67 c 0,-0.45 -0.11,-0.45 -0.78,-0.45 v -0.31 c 0.39,0.01 0.86,0.03 1.14,0.03 0.4,0 0.87,0 1.26,-0.03 v 0.31 h -0.2 c -0.74,0 -0.76,0.11 -0.76,0.47 v 1.53 c 0,0.99 0.42,1.88 1.17,1.88 0.07,0 0.09,0 0.11,-0.01 -0.03,-0.01 -0.22,-0.13 -0.22,-0.39 0,-0.28 0.2,-0.43 0.42,-0.43 0.18,0 0.43,0.12 0.43,0.44 0,0.32 -0.31,0.61 -0.74,0.61 -0.72,0 -1.08,-0.67 -1.22,-1.1 z"
   id="path4943"
   style="fill:#000000;stroke-width:0" />
<path
   d="m 243.06,708.45 0,0 0,0.01 0,0 0,0.01 0,0.01 0,0.01 0,0.01 0,0.01 0,0.01 0,0.01 0.01,0.02 0,0.01 0,0.02 0,0.01 0.01,0.02 0,0.01 0,0.02 0.01,0.02 0,0.01 0.01,0.02 0.01,0.02 0,0.02 0.01,0.02 0.01,0.01 0.01,0.02 0.01,0.02 0.01,0.02 0.01,0.02 0.01,0.02 0.02,0.02 0.01,0.02 0.02,0.02 c 0.39,-0.28 0.79,-0.31 0.98,-0.31 v 0.23 c -0.86,0 -0.86,0.99 -0.86,1.22 0,0.27 0.01,0.59 0.16,0.84 0.08,0.12 0.31,0.4 0.7,0.4 0.87,0 0.87,-1 0.87,-1.23 0,-0.27 -0.01,-0.59 -0.16,-0.84 -0.08,-0.12 -0.31,-0.39 -0.71,-0.39 h 0 v -0.23 c 0.93,0 1.62,0.68 1.62,1.45 0,0.37 -0.16,0.74 -0.41,0.97 0.36,0.34 0.72,0.39 0.9,0.39 0.02,0 0.07,0 0.1,-0.01 -0.11,-0.04 -0.16,-0.15 -0.16,-0.27 0,-0.17 0.13,-0.29 0.28,-0.29 0.11,0 0.29,0.07 0.29,0.3 0,0.17 -0.12,0.49 -0.5,0.49 -0.2,0 -0.64,-0.06 -1.06,-0.47 -0.42,0.33 -0.84,0.36 -1.06,0.36 -0.92,0 -1.61,-0.69 -1.61,-1.46 0,-0.44 0.22,-0.81 0.47,-1.03 -0.13,-0.14 -0.31,-0.47 -0.31,-0.82 0,-0.31 0.13,-0.69 0.44,-0.89 -0.6,-0.17 -0.92,-0.6 -0.92,-0.99 0,-0.72 0.99,-1.27 2.2,-1.27 l 0.01,0.23 c -1,0 -1.69,0.51 -1.69,1.04 0,0.45 0.38,0.82 0.82,0.85 h 0.58 c 0.86,0 1.98,0 1.98,-0.85 0,-0.54 -0.71,-1.04 -1.69,-1.04 h 0 l -0.01,-0.23 c 1.18,0 2.22,0.51 2.22,1.28 0,0.35 -0.15,0.86 -0.65,1.14 -0.53,0.28 -1.11,0.28 -1.72,0.28 -0.24,0 -0.67,0 -0.74,0.01 -0.32,0.04 -0.53,0.35 -0.53,0.67 z"
   id="path4945"
   style="fill:#000000;stroke-width:0" />
<path
   d="m 248.09,709.42 0.01,0.21 c 0.06,1.49 0.89,1.74 1.23,1.74 1.03,0 1.13,-1.35 1.13,-1.74 h -2.36 l -0.01,-0.21 h 2.78 c 0.22,0 0.25,0 0.25,0.21 0,0.99 -0.54,1.96 -1.79,1.96 -1.15,0 -2.07,-1.03 -2.07,-2.28 0,-1.33 1.05,-2.3 2.19,-2.3 1.22,0 1.67,1.11 1.67,1.3 0,0.1 -0.08,0.12 -0.13,0.12 -0.09,0 -0.11,-0.06 -0.13,-0.14 -0.35,-1.03 -1.25,-1.03 -1.35,-1.03 -0.5,0 -0.89,0.3 -1.12,0.67 -0.3,0.48 -0.3,1.14 -0.3,1.49 z"
   id="path4947"
   style="fill:#000000;stroke-width:0" />
</g>    <g
       style="font-style:normal;font-variant:normal;font-weight:normal;font-stretch:normal;letter-spacing:normal;word-spacing:normal;text-anchor:start;fill:none;stroke:#000000;stroke-linecap:butt;stroke-linejoin:miter;stroke-miterlimit:10.43299961;stroke-opacity:1;stroke-dasharray:none;stroke-dashoffset:0;display:inline"
       ns0:preamble=""
       ns0:text="d\\\'echarge"
       word-spacing="normal"
       letter-spacing="normal"
       font-size-adjust="none"
       font-stretch="normal"
       font-weight="normal"
       font-variant="normal"
       font-style="normal"
       fill-rule="even-odd"
       stroke-miterlimit="10.433"
       xml:space="preserve"
       transform="matrix(1.4434982,0,0,-1.4434982,843.71273,3189.2376)"
       id="g5057">
<path
   id="path5059"
   d="m 227.22,707.67 v -0.66 l 1.46,0.11 v 0.31 c -0.69,0 -0.77,0.07 -0.77,0.56 v 6.05 l -1.44,-0.11 v -0.31 c 0.7,0 0.78,-0.07 0.78,-0.56 v -2.15 c -0.29,0.36 -0.72,0.62 -1.26,0.62 l 0.04,-0.22 c 0.35,0 0.77,-0.15 1.08,-0.6 0.11,-0.17 0.11,-0.19 0.11,-0.37 h 0 v -2.04 c 0,-0.18 0,-0.2 -0.11,-0.37 -0.3,-0.48 -0.75,-0.7 -1.18,-0.7 -0.44,0 -0.8,0.26 -1.04,0.64 -0.26,0.41 -0.29,0.98 -0.29,1.39 0,0.36 0.02,0.96 0.31,1.41 0.21,0.31 0.58,0.64 1.12,0.64 l -0.04,0.22 c -1.17,0 -2.22,-0.98 -2.22,-2.27 0,-1.26 0.98,-2.25 2.11,-2.25 0.64,0 1.09,0.34 1.34,0.66 z"
   style="fill:#000000;stroke-width:0" />
<path
   id="path5061"
   d="m 232.43,713.42 0.01,0.01 0.02,0.02 0.02,0.01 0.01,0.02 0.01,0.01 0.01,0.01 0,0 0.01,0.01 0.01,0.01 0,0.01 0.01,0.01 0,0.01 0.01,0.01 0.01,0.01 0,0.01 0.01,0.01 0,0.01 0,0.01 0.01,0.01 0,0.01 0,0.01 0.01,0.01 0,0.01 0,0.01 0,0.01 0,0.02 0,0.01 0.01,0.01 c 0,0.18 -0.18,0.36 -0.36,0.36 -0.15,0 -0.26,-0.11 -0.3,-0.17 l -1.2,-1.53 0.17,-0.18 z"
   style="fill:#000000;stroke-width:0" />
<path
   id="path5063"
   d="m 230.07,709.42 0.01,0.21 c 0.06,1.49 0.9,1.74 1.24,1.74 1.03,0 1.12,-1.35 1.12,-1.74 h -2.36 l -0.01,-0.21 h 2.78 c 0.22,0 0.25,0 0.25,0.21 0,0.99 -0.54,1.96 -1.78,1.96 -1.16,0 -2.07,-1.03 -2.07,-2.28 0,-1.33 1.04,-2.3 2.19,-2.3 1.21,0 1.66,1.11 1.66,1.3 0,0.1 -0.08,0.12 -0.13,0.12 -0.09,0 -0.11,-0.06 -0.13,-0.14 -0.35,-1.03 -1.24,-1.03 -1.34,-1.03 -0.5,0 -0.9,0.3 -1.13,0.67 -0.3,0.48 -0.3,1.14 -0.3,1.49 z"
   style="fill:#000000;stroke-width:0" />
<path
   id="path5065"
   d="m 234.56,709.29 0,0.08 0,0.07 0,0.07 0.01,0.07 0,0.07 0.01,0.07 0.01,0.06 0,0.07 0.01,0.06 0.01,0.06 0.01,0.06 0.02,0.06 0.02,0.11 0.03,0.1 0.04,0.1 0.03,0.09 0.04,0.08 0.04,0.08 0.05,0.08 0.04,0.07 0.05,0.06 0.05,0.06 0.05,0.06 0.06,0.05 0.05,0.05 0.06,0.04 0.05,0.04 0.06,0.03 0.05,0.03 0.06,0.03 0.06,0.02 0.05,0.02 0.06,0.01 0.05,0.02 0.06,0.01 0.05,0 0.05,0.01 0.05,0 c 0.09,0 0.72,-0.01 1.07,-0.37 -0.41,-0.03 -0.47,-0.33 -0.47,-0.46 0,-0.26 0.18,-0.46 0.46,-0.46 0.26,0 0.46,0.17 0.46,0.47 0,0.68 -0.76,1.07 -1.53,1.07 -1.24,0 -2.16,-1.08 -2.16,-2.32 0,-1.27 0.99,-2.26 2.14,-2.26 1.34,0 1.66,1.2 1.66,1.3 0,0.1 -0.1,0.1 -0.13,0.1 -0.09,0 -0.11,-0.04 -0.13,-0.1 -0.29,-0.93 -0.94,-1.05 -1.31,-1.05 -0.53,0 -1.4,0.43 -1.4,2.03 z"
   style="fill:#000000;stroke-width:0" />
<path
   id="path5067"
   d="m 238.64,707.88 0,-0.02 0,-0.02 -0.01,-0.04 0,-0.03 0,-0.04 0,-0.03 -0.01,-0.03 0,-0.02 -0.01,-0.03 -0.01,-0.02 -0.01,-0.02 -0.01,-0.02 -0.01,-0.02 -0.02,-0.01 -0.01,-0.02 -0.02,-0.01 -0.02,-0.01 -0.02,-0.01 -0.03,-0.01 -0.02,-0.01 -0.03,-0.01 -0.03,0 -0.04,-0.01 -0.03,0 -0.04,0 -0.02,0 -0.02,0 -0.02,-0.01 -0.02,0 -0.02,0 -0.03,0 -0.02,0 -0.03,0 -0.02,0 -0.03,0 -0.02,0 -0.03,0 -0.03,0 -0.03,0 -0.03,0 -0.03,0 v -0.31 c 0.35,0.01 0.86,0.03 1.13,0.03 0.25,0 0.77,-0.02 1.11,-0.03 v 0.31 c -0.67,0 -0.78,0 -0.78,0.45 v 1.83 c 0,1.04 0.71,1.6 1.35,1.6 0.63,0 0.74,-0.54 0.74,-1.11 v -2.32 c 0,-0.45 -0.11,-0.45 -0.78,-0.45 v -0.31 c 0.35,0.01 0.86,0.03 1.12,0.03 0.26,0 0.78,-0.02 1.12,-0.03 v 0.31 c -0.52,0 -0.77,0 -0.78,0.3 v 1.9 c 0,0.86 0,1.17 -0.31,1.53 -0.13,0.17 -0.46,0.37 -1.04,0.37 -0.84,0 -1.28,-0.6 -1.45,-0.98 v 3.49 l -1.43,-0.11 v -0.31 c 0.7,0 0.78,-0.07 0.78,-0.56 z"
   style="fill:#000000;stroke-width:0" />
<path
   id="path5069"
   d="m 246.39,707.88 0.01,-0.04 0,-0.03 0.01,-0.04 0.01,-0.04 0.01,-0.04 0.01,-0.03 0.01,-0.04 0.01,-0.04 0.02,-0.03 0.02,-0.04 0.01,-0.03 0.02,-0.03 0.02,-0.04 0.02,-0.03 0.03,-0.03 0.02,-0.03 0.03,-0.03 0.02,-0.02 0.03,-0.03 0.03,-0.02 0.03,-0.03 0.03,-0.02 0.03,-0.02 0.04,-0.02 0.03,-0.01 0.04,-0.02 0.03,-0.01 0.04,-0.01 0.04,-0.01 0.04,0 0.05,-0.01 0.04,0 c 0.21,0 0.82,0.14 0.82,0.95 v 0.56 h -0.25 v -0.56 c 0,-0.58 -0.25,-0.64 -0.36,-0.64 -0.33,0 -0.37,0.45 -0.37,0.5 v 1.99 c 0,0.42 0,0.81 -0.36,1.18 -0.39,0.39 -0.89,0.55 -1.36,0.55 -0.82,0 -1.51,-0.47 -1.51,-1.13 0,-0.3 0.2,-0.47 0.46,-0.47 0.28,0 0.46,0.2 0.46,0.46 0,0.12 -0.05,0.45 -0.51,0.46 0.27,0.35 0.76,0.46 1.08,0.46 0.49,0 1.05,-0.39 1.05,-1.28 v -0.37 -0.21 -0.99 c 0,-0.95 -0.72,-1.29 -1.16,-1.29 -0.49,0 -0.9,0.35 -0.9,0.85 0,0.55 0.42,1.37 2.06,1.43 h 0 v 0.21 c -0.5,-0.03 -1.2,-0.06 -1.83,-0.36 -0.75,-0.33 -1,-0.85 -1,-1.29 0,-0.81 0.97,-1.06 1.6,-1.06 0.65,0 1.11,0.4 1.3,0.87 z"
   style="fill:#000000;stroke-width:0" />
<path
   id="path5071"
   d="m 249.73,710.43 v 1.1 l -1.39,-0.11 v -0.31 c 0.7,0 0.78,-0.07 0.78,-0.56 v -2.67 c 0,-0.45 -0.11,-0.45 -0.78,-0.45 v -0.31 c 0.39,0.01 0.86,0.03 1.14,0.03 0.4,0 0.86,0 1.26,-0.03 v 0.31 h -0.21 c -0.73,0 -0.75,0.11 -0.75,0.47 v 1.53 c 0,0.99 0.42,1.88 1.17,1.88 0.07,0 0.09,0 0.11,-0.01 -0.03,-0.01 -0.23,-0.13 -0.23,-0.39 0,-0.28 0.21,-0.43 0.43,-0.43 0.18,0 0.43,0.12 0.43,0.44 0,0.32 -0.31,0.61 -0.74,0.61 -0.73,0 -1.08,-0.67 -1.22,-1.1 z"
   style="fill:#000000;stroke-width:0" />
<path
   id="path5073"
   d="m 253.02,708.45 0,0 0,0.01 0,0 0,0.01 0,0.01 0,0.01 0,0.01 0,0.01 0,0.01 0,0.01 0.01,0.02 0,0.01 0,0.02 0,0.01 0.01,0.02 0,0.01 0,0.02 0.01,0.02 0,0.01 0.01,0.02 0.01,0.02 0,0.02 0.01,0.02 0.01,0.01 0.01,0.02 0.01,0.02 0.01,0.02 0.01,0.02 0.01,0.02 0.02,0.02 0.01,0.02 0.02,0.02 c 0.39,-0.28 0.8,-0.31 0.98,-0.31 v 0.23 c -0.86,0 -0.86,0.99 -0.86,1.22 0,0.27 0.01,0.59 0.16,0.84 0.08,0.12 0.31,0.4 0.7,0.4 0.87,0 0.87,-1 0.87,-1.23 0,-0.27 -0.01,-0.59 -0.16,-0.84 -0.08,-0.12 -0.31,-0.39 -0.71,-0.39 h 0 v -0.23 c 0.93,0 1.62,0.68 1.62,1.45 0,0.37 -0.16,0.74 -0.41,0.97 0.36,0.34 0.72,0.39 0.9,0.39 0.02,0 0.07,0 0.1,-0.01 -0.11,-0.04 -0.16,-0.15 -0.16,-0.27 0,-0.17 0.13,-0.29 0.29,-0.29 0.1,0 0.28,0.07 0.28,0.3 0,0.17 -0.12,0.49 -0.5,0.49 -0.2,0 -0.64,-0.06 -1.06,-0.47 -0.42,0.33 -0.84,0.36 -1.06,0.36 -0.92,0 -1.61,-0.69 -1.61,-1.46 0,-0.44 0.22,-0.81 0.47,-1.03 -0.13,-0.14 -0.31,-0.47 -0.31,-0.82 0,-0.31 0.13,-0.69 0.44,-0.89 -0.6,-0.17 -0.92,-0.6 -0.92,-0.99 0,-0.72 0.99,-1.27 2.2,-1.27 l 0.01,0.23 c -1,0 -1.69,0.51 -1.69,1.04 0,0.45 0.38,0.82 0.82,0.85 h 0.58 c 0.86,0 1.98,0 1.98,-0.85 0,-0.54 -0.71,-1.04 -1.69,-1.04 h 0 l -0.01,-0.23 c 1.18,0 2.21,0.51 2.21,1.28 0,0.35 -0.13,0.86 -0.64,1.14 -0.53,0.28 -1.11,0.28 -1.72,0.28 -0.25,0 -0.67,0 -0.74,0.01 -0.32,0.04 -0.53,0.35 -0.53,0.67 z"
   style="fill:#000000;stroke-width:0" />
<path
   id="path5075"
   d="m 258.05,709.42 0.01,0.21 c 0.06,1.49 0.89,1.74 1.23,1.74 1.03,0 1.13,-1.35 1.13,-1.74 h -2.36 l -0.01,-0.21 h 2.78 c 0.22,0 0.25,0 0.25,0.21 0,0.99 -0.54,1.96 -1.79,1.96 -1.15,0 -2.07,-1.03 -2.07,-2.28 0,-1.33 1.05,-2.3 2.19,-2.3 1.22,0 1.67,1.11 1.67,1.3 0,0.1 -0.08,0.12 -0.13,0.12 -0.09,0 -0.11,-0.06 -0.13,-0.14 -0.35,-1.03 -1.25,-1.03 -1.35,-1.03 -0.49,0 -0.89,0.3 -1.12,0.67 -0.3,0.48 -0.3,1.14 -0.3,1.49 z"
   style="fill:#000000;stroke-width:0" />
</g>    <g
       id="g5211"
       transform="matrix(1.4434982,0,0,-1.4434982,756.38864,3218.3802)"
       xml:space="preserve"
       stroke-miterlimit="10.433"
       fill-rule="even-odd"
       font-style="normal"
       font-variant="normal"
       font-weight="normal"
       font-stretch="normal"
       font-size-adjust="none"
       letter-spacing="normal"
       word-spacing="normal"
       ns0:text="Domaine \\\'elastique"
       ns0:preamble=""
       style="font-style:normal;font-variant:normal;font-weight:normal;font-stretch:normal;letter-spacing:normal;word-spacing:normal;text-anchor:start;fill:none;stroke:#000000;stroke-linecap:butt;stroke-linejoin:miter;stroke-miterlimit:10.43299961;stroke-opacity:1;stroke-dasharray:none;stroke-dashoffset:0;display:inline">
<path
   style="fill:#000000;stroke-width:0"
   d="m 223.78,713.93 v -0.31 h 0.24 c 0.77,0 0.79,-0.11 0.79,-0.47 v -5.25 c 0,-0.36 -0.02,-0.47 -0.79,-0.47 h -0.24 v -0.31 h 3.65 l -0.27,0.31 h -1.01 c -0.47,0 -0.49,0.07 -0.49,0.4 v 5.39 c 0,0.33 0.02,0.4 0.49,0.4 h 1 c 0.62,0 1.3,-0.22 1.81,-0.93 0.43,-0.59 0.52,-1.44 0.52,-2.22 0,-1.11 -0.19,-1.7 -0.55,-2.19 -0.2,-0.27 -0.77,-0.85 -1.77,-0.85 l 0.27,-0.31 c 1.67,0 3.05,1.48 3.05,3.35 0,1.89 -1.35,3.46 -3.05,3.46 z"
   id="path5213" />
<path
   style="fill:#000000;stroke-width:0"
   d="m 235.74,709.26 -0.01,0.11 0,0.12 -0.02,0.12 -0.02,0.11 -0.02,0.11 -0.03,0.11 -0.04,0.11 -0.04,0.11 -0.04,0.1 -0.05,0.1 -0.05,0.1 -0.06,0.09 -0.06,0.09 -0.07,0.09 -0.07,0.09 -0.07,0.08 -0.08,0.08 -0.08,0.07 -0.08,0.07 -0.09,0.06 -0.09,0.07 -0.09,0.05 -0.09,0.05 -0.1,0.05 -0.1,0.04 -0.1,0.04 -0.11,0.03 -0.1,0.03 -0.11,0.02 -0.11,0.01 -0.11,0.01 -0.11,0.01 -0.01,-0.22 c 0.43,0 0.86,-0.22 1.12,-0.65 0.26,-0.43 0.26,-1.01 0.26,-1.39 0,-0.35 0,-0.89 -0.22,-1.33 -0.22,-0.45 -0.66,-0.74 -1.15,-0.74 h 0 c -0.43,0 -0.87,0.21 -1.14,0.67 -0.25,0.44 -0.25,1.05 -0.25,1.4 0,0.39 0,0.93 0.24,1.37 0.27,0.46 0.74,0.67 1.14,0.67 l 0.01,0.22 c -1.25,0 -2.22,-1.09 -2.22,-2.33 0,-1.29 1.04,-2.25 2.21,-2.25 1.2,0 2.21,0.98 2.21,2.25 z"
   id="path5215" />
<path
   style="fill:#000000;stroke-width:0"
   d="m 237.12,710.55 v -2.67 c 0,-0.45 -0.11,-0.45 -0.78,-0.45 v -0.31 c 0.35,0.01 0.86,0.03 1.13,0.03 0.26,0 0.78,-0.02 1.12,-0.03 v 0.31 c -0.67,0 -0.78,0 -0.78,0.45 v 1.83 c 0,1.04 0.71,1.6 1.34,1.6 0.63,0 0.74,-0.54 0.74,-1.11 v -2.32 c 0,-0.45 -0.11,-0.45 -0.78,-0.45 v -0.31 c 0.35,0.01 0.86,0.03 1.13,0.03 0.26,0 0.78,-0.02 1.11,-0.03 v 0.31 c -0.66,0 -0.77,0 -0.77,0.45 v 1.83 c 0,1.04 0.71,1.6 1.34,1.6 0.63,0 0.74,-0.54 0.74,-1.11 v -2.32 c 0,-0.45 -0.11,-0.45 -0.78,-0.45 v -0.31 c 0.35,0.01 0.86,0.03 1.13,0.03 0.26,0 0.78,-0.02 1.11,-0.03 v 0.31 c -0.51,0 -0.76,0 -0.77,0.3 v 1.9 c 0,0.86 0,1.17 -0.31,1.53 -0.14,0.17 -0.47,0.37 -1.05,0.37 -0.83,0 -1.27,-0.6 -1.44,-0.98 -0.14,0.87 -0.88,0.98 -1.33,0.98 -0.72,0 -1.19,-0.43 -1.47,-1.05 v 1.05 l -1.41,-0.11 v -0.31 c 0.7,0 0.78,-0.07 0.78,-0.56 z"
   id="path5217" />
<path
   style="fill:#000000;stroke-width:0"
   d="m 247.65,707.88 0,-0.04 0.01,-0.03 0,-0.04 0.01,-0.04 0.01,-0.04 0.01,-0.03 0.01,-0.04 0.02,-0.04 0.01,-0.03 0.02,-0.04 0.02,-0.03 0.02,-0.03 0.02,-0.04 0.02,-0.03 0.02,-0.03 0.02,-0.03 0.03,-0.03 0.02,-0.02 0.03,-0.03 0.03,-0.02 0.03,-0.03 0.03,-0.02 0.04,-0.02 0.03,-0.02 0.03,-0.01 0.04,-0.02 0.04,-0.01 0.04,-0.01 0.04,-0.01 0.04,0 0.04,-0.01 0.04,0 c 0.21,0 0.82,0.14 0.82,0.95 v 0.56 h -0.25 v -0.56 c 0,-0.58 -0.25,-0.64 -0.36,-0.64 -0.33,0 -0.37,0.45 -0.37,0.5 v 1.99 c 0,0.42 0,0.81 -0.36,1.18 -0.38,0.39 -0.88,0.55 -1.36,0.55 -0.82,0 -1.5,-0.47 -1.5,-1.13 0,-0.3 0.19,-0.47 0.45,-0.47 0.28,0 0.46,0.2 0.46,0.46 0,0.12 -0.05,0.45 -0.51,0.46 0.27,0.35 0.76,0.46 1.08,0.46 0.49,0 1.05,-0.39 1.05,-1.28 v -0.37 -0.21 -0.99 c 0,-0.95 -0.71,-1.29 -1.16,-1.29 -0.49,0 -0.9,0.35 -0.9,0.85 0,0.55 0.42,1.37 2.06,1.43 h 0 v 0.21 c -0.5,-0.03 -1.2,-0.06 -1.83,-0.36 -0.75,-0.33 -0.99,-0.85 -0.99,-1.29 0,-0.81 0.96,-1.06 1.59,-1.06 0.66,0 1.12,0.4 1.31,0.87 z"
   id="path5219" />
<path
   style="fill:#000000;stroke-width:0"
   d="m 251.07,711.53 -1.39,-0.11 v -0.31 c 0.64,0 0.73,-0.06 0.73,-0.55 v -2.68 c 0,-0.45 -0.11,-0.45 -0.77,-0.45 v -0.31 c 0.32,0.01 0.85,0.03 1.09,0.03 0.35,0 0.7,-0.02 1.04,-0.03 v 0.31 c -0.66,0 -0.7,0.05 -0.7,0.44 z"
   id="path5221" />
<path
   style="fill:#000000;stroke-width:0"
   d="m 251.11,713.26 0,0.03 0,0.03 -0.01,0.03 0,0.02 -0.01,0.03 0,0.03 -0.01,0.02 -0.01,0.03 -0.01,0.02 -0.02,0.02 -0.01,0.02 -0.01,0.03 -0.02,0.02 -0.01,0.02 -0.02,0.01 -0.02,0.02 -0.02,0.02 -0.02,0.02 -0.02,0.01 -0.02,0.01 -0.02,0.02 -0.02,0.01 -0.02,0.01 -0.03,0.01 -0.02,0.01 -0.02,0.01 -0.03,0 -0.02,0.01 -0.03,0 -0.03,0 -0.02,0.01 -0.03,0 c -0.31,0 -0.53,-0.27 -0.53,-0.53 0,-0.27 0.22,-0.53 0.53,-0.53 0.28,0 0.53,0.21 0.53,0.53 z"
   id="path5223" />
<path
   style="fill:#000000;stroke-width:0"
   d="m 253.17,710.55 v -2.67 c 0,-0.45 -0.11,-0.45 -0.78,-0.45 v -0.31 c 0.35,0.01 0.86,0.03 1.13,0.03 0.26,0 0.78,-0.02 1.11,-0.03 v 0.31 c -0.66,0 -0.77,0 -0.77,0.45 v 1.83 c 0,1.04 0.71,1.6 1.34,1.6 0.63,0 0.74,-0.54 0.74,-1.11 v -2.32 c 0,-0.45 -0.11,-0.45 -0.78,-0.45 v -0.31 c 0.35,0.01 0.86,0.03 1.13,0.03 0.26,0 0.78,-0.02 1.11,-0.03 v 0.31 c -0.51,0 -0.76,0 -0.77,0.3 v 1.9 c 0,0.86 0,1.17 -0.31,1.53 -0.14,0.17 -0.47,0.37 -1.05,0.37 -0.72,0 -1.19,-0.43 -1.47,-1.05 v 1.05 l -1.41,-0.11 v -0.31 c 0.7,0 0.78,-0.07 0.78,-0.56 z"
   id="path5225" />
<path
   style="fill:#000000;stroke-width:0"
   d="m 258.72,709.42 0.01,0.21 c 0.06,1.49 0.89,1.74 1.23,1.74 1.03,0 1.13,-1.35 1.13,-1.74 h -2.36 l -0.01,-0.21 h 2.77 c 0.22,0 0.25,0 0.25,0.21 0,0.99 -0.53,1.96 -1.78,1.96 -1.15,0 -2.07,-1.03 -2.07,-2.28 0,-1.33 1.04,-2.3 2.19,-2.3 1.22,0 1.66,1.11 1.66,1.3 0,0.1 -0.07,0.12 -0.13,0.12 -0.09,0 -0.1,-0.06 -0.13,-0.14 -0.34,-1.03 -1.24,-1.03 -1.34,-1.03 -0.5,0 -0.9,0.3 -1.12,0.67 -0.3,0.48 -0.3,1.14 -0.3,1.49 z"
   id="path5227" />
<path
   style="fill:#000000;stroke-width:0"
   d="m 268.82,713.42 0.02,0.01 0.02,0.02 0.01,0.01 0.02,0.02 0.01,0.02 0.01,0 0.01,0.01 0,0.01 0.01,0.01 0.01,0.01 0,0.01 0.01,0.01 0,0.01 0.01,0.01 0,0.01 0.01,0.01 0,0.01 0.01,0.01 0,0.01 0,0.01 0.01,0.01 0,0.01 0,0.01 0,0.01 0,0.02 0,0.01 0,0.01 c 0,0.18 -0.18,0.36 -0.36,0.36 -0.15,0 -0.25,-0.11 -0.3,-0.17 l -1.19,-1.53 0.17,-0.18 z"
   id="path5229" />
<path
   style="fill:#000000;stroke-width:0"
   d="m 266.46,709.42 0.01,0.21 c 0.06,1.49 0.9,1.74 1.24,1.74 1.02,0 1.12,-1.35 1.12,-1.74 h -2.36 l -0.01,-0.21 h 2.78 c 0.22,0 0.25,0 0.25,0.21 0,0.99 -0.54,1.96 -1.78,1.96 -1.16,0 -2.07,-1.03 -2.07,-2.28 0,-1.33 1.04,-2.3 2.19,-2.3 1.21,0 1.66,1.11 1.66,1.3 0,0.1 -0.08,0.12 -0.13,0.12 -0.09,0 -0.11,-0.06 -0.13,-0.14 -0.35,-1.03 -1.24,-1.03 -1.34,-1.03 -0.5,0 -0.9,0.3 -1.13,0.67 -0.3,0.48 -0.3,1.14 -0.3,1.49 z"
   id="path5231" />
<path
   style="fill:#000000;stroke-width:0"
   d="m 271.55,714.04 -1.44,-0.11 v -0.31 c 0.7,0 0.78,-0.07 0.78,-0.56 v -5.18 c 0,-0.45 -0.11,-0.45 -0.78,-0.45 v -0.31 c 0.33,0.01 0.86,0.03 1.11,0.03 0.25,0 0.73,-0.02 1.1,-0.03 v 0.31 c -0.67,0 -0.77,0 -0.77,0.45 z"
   id="path5233" />
<path
   style="fill:#000000;stroke-width:0"
   d="m 275.87,707.88 0,-0.04 0.01,-0.03 0.01,-0.04 0,-0.04 0.01,-0.04 0.01,-0.03 0.02,-0.04 0.01,-0.04 0.01,-0.03 0.02,-0.04 0.02,-0.03 0.02,-0.03 0.02,-0.04 0.02,-0.03 0.02,-0.03 0.03,-0.03 0.02,-0.03 0.03,-0.02 0.02,-0.03 0.03,-0.02 0.03,-0.03 0.03,-0.02 0.04,-0.02 0.03,-0.02 0.04,-0.01 0.03,-0.02 0.04,-0.01 0.04,-0.01 0.04,-0.01 0.04,0 0.04,-0.01 0.04,0 c 0.21,0 0.82,0.14 0.82,0.95 v 0.56 h -0.25 v -0.56 c 0,-0.58 -0.25,-0.64 -0.36,-0.64 -0.33,0 -0.37,0.45 -0.37,0.5 v 1.99 c 0,0.42 0,0.81 -0.35,1.18 -0.39,0.39 -0.89,0.55 -1.37,0.55 -0.81,0 -1.5,-0.47 -1.5,-1.13 0,-0.3 0.2,-0.47 0.46,-0.47 0.27,0 0.45,0.2 0.45,0.46 0,0.12 -0.05,0.45 -0.5,0.46 0.26,0.35 0.75,0.46 1.07,0.46 0.49,0 1.06,-0.39 1.06,-1.28 v -0.37 -0.21 -0.99 c 0,-0.95 -0.72,-1.29 -1.17,-1.29 -0.49,0 -0.89,0.35 -0.89,0.85 0,0.55 0.41,1.37 2.06,1.43 h 0 v 0.21 c -0.51,-0.03 -1.21,-0.06 -1.84,-0.36 -0.74,-0.33 -0.99,-0.85 -0.99,-1.29 0,-0.81 0.96,-1.06 1.59,-1.06 0.66,0 1.12,0.4 1.31,0.87 z"
   id="path5235" />
<path
   style="fill:#000000;stroke-width:0"
   d="m 279.6,709.05 0.02,0 0.03,0 0.03,-0.01 0.03,-0.01 0.03,0 0.04,-0.01 0.04,-0.01 0.04,-0.01 0.04,-0.02 0.04,-0.01 0.04,-0.02 0.05,-0.01 0.04,-0.02 0.04,-0.02 0.05,-0.02 0.04,-0.03 0.05,-0.03 0.04,-0.02 0.04,-0.03 0.04,-0.04 0.04,-0.03 0.03,-0.04 0.04,-0.04 0.03,-0.04 0.03,-0.05 0.01,-0.02 0.01,-0.02 0.01,-0.03 0.01,-0.02 0.01,-0.03 0.01,-0.03 0.01,-0.03 0.01,-0.02 0,-0.03 0.01,-0.03 0,-0.03 0.01,-0.04 0,-0.03 0,-0.03 c 0,-0.51 -0.35,-0.91 -1.13,-0.91 -0.83,0 -1.19,0.57 -1.38,1.42 -0.03,0.13 -0.04,0.17 -0.14,0.17 -0.13,0 -0.13,-0.07 -0.13,-0.25 v -1.32 c 0,-0.17 0,-0.24 0.11,-0.24 0.05,0 0.06,0.01 0.25,0.2 0.02,0.02 0.02,0.04 0.2,0.23 0.44,-0.42 0.88,-0.43 1.09,-0.43 1.15,0 1.61,0.67 1.61,1.39 0,0.53 -0.3,0.82 -0.42,0.94 -0.33,0.32 -0.72,0.4 -1.14,0.48 -0.56,0.11 -1.22,0.24 -1.22,0.82 0,0.35 0.26,0.76 1.11,0.76 1.1,0 1.15,-0.9 1.17,-1.21 0.01,-0.09 0.1,-0.09 0.12,-0.09 0.13,0 0.13,0.05 0.13,0.24 v 1.01 c 0,0.17 0,0.24 -0.11,0.24 -0.05,0 -0.07,0 -0.2,-0.12 -0.03,-0.04 -0.13,-0.13 -0.17,-0.16 -0.38,0.28 -0.79,0.28 -0.94,0.28 -1.21,0 -1.59,-0.67 -1.59,-1.23 0,-0.35 0.16,-0.63 0.43,-0.85 0.32,-0.25 0.6,-0.31 1.31,-0.46 z"
   id="path5237" />
<path
   style="fill:#000000;stroke-width:0"
   d="m 283.18,711.11 h 1.43 v 0.31 h -1.43 v 1.83 h -0.25 c -0.01,-0.82 -0.3,-1.88 -1.28,-1.92 v -0.22 h 0.85 v -2.75 c 0,-1.23 0.92,-1.35 1.28,-1.35 0.71,0 0.99,0.71 0.99,1.35 v 0.57 h -0.25 v -0.55 c 0,-0.74 -0.3,-1.12 -0.67,-1.12 -0.67,0 -0.67,0.91 -0.67,1.08 z"
   id="path5239" />
<path
   style="fill:#000000;stroke-width:0"
   d="m 287.1,711.53 -1.39,-0.11 v -0.31 c 0.64,0 0.73,-0.06 0.73,-0.55 v -2.68 c 0,-0.45 -0.11,-0.45 -0.77,-0.45 v -0.31 c 0.31,0.01 0.85,0.03 1.09,0.03 0.35,0 0.7,-0.02 1.04,-0.03 v 0.31 c -0.66,0 -0.7,0.05 -0.7,0.44 z"
   id="path5241" />
<path
   style="fill:#000000;stroke-width:0"
   d="m 287.14,713.26 0,0.03 0,0.03 -0.01,0.03 0,0.02 -0.01,0.03 0,0.03 -0.01,0.02 -0.01,0.03 -0.01,0.02 -0.02,0.02 -0.01,0.02 -0.01,0.03 -0.02,0.02 -0.01,0.02 -0.02,0.01 -0.02,0.02 -0.02,0.02 -0.02,0.02 -0.02,0.01 -0.02,0.01 -0.02,0.02 -0.02,0.01 -0.02,0.01 -0.03,0.01 -0.02,0.01 -0.02,0.01 -0.03,0 -0.02,0.01 -0.03,0 -0.03,0 -0.02,0.01 -0.03,0 c -0.31,0 -0.53,-0.27 -0.53,-0.53 0,-0.27 0.22,-0.53 0.53,-0.53 0.28,0 0.53,0.21 0.53,0.53 z"
   id="path5243" />
<path
   style="fill:#000000;stroke-width:0"
   d="m 291.89,707.73 v -1.78 c 0,-0.45 -0.11,-0.45 -0.78,-0.45 v -0.31 c 0.34,0.01 0.86,0.03 1.12,0.03 0.27,0 0.78,-0.02 1.13,-0.03 v 0.31 c -0.67,0 -0.78,0 -0.78,0.45 v 5.58 h -0.22 l -0.38,-0.91 c -0.13,0.28 -0.54,0.91 -1.34,0.91 -1.15,0 -2.2,-0.97 -2.2,-2.27 0,-1.24 0.97,-2.25 2.13,-2.25 l 0.04,0.22 c -0.73,0 -1.34,0.89 -1.34,2.03 0,1.19 0.7,2.02 1.43,2.02 0.8,0 1.22,-0.87 1.22,-1.4 h 0 v -1.4 c 0,-0.32 -0.18,-0.6 -0.4,-0.84 -0.13,-0.14 -0.45,-0.41 -0.91,-0.41 l -0.04,-0.22 c 0.69,0 1.1,0.43 1.32,0.72 z"
   id="path5245" />
<path
   style="fill:#000000;stroke-width:0"
   d="m 297.26,707.91 v -0.9 l 1.43,0.11 v 0.31 c -0.7,0 -0.77,0.07 -0.77,0.56 v 3.54 l -1.47,-0.11 v -0.31 c 0.7,0 0.78,-0.07 0.78,-0.56 v -1.77 c 0,-0.87 -0.48,-1.55 -1.21,-1.55 -0.83,0 -0.87,0.47 -0.87,0.99 v 3.31 l -1.47,-0.11 v -0.31 c 0.78,0 0.78,-0.03 0.78,-0.92 v -1.49 c 0,-0.78 0,-1.69 1.51,-1.69 0.56,0 1,0.28 1.29,0.9 z"
   id="path5247" />
<path
   style="fill:#000000;stroke-width:0"
   d="m 300,709.42 0.01,0.21 c 0.06,1.49 0.9,1.74 1.24,1.74 1.02,0 1.12,-1.35 1.12,-1.74 h -2.36 L 300,709.42 h 2.78 c 0.22,0 0.25,0 0.25,0.21 0,0.99 -0.54,1.96 -1.78,1.96 -1.16,0 -2.07,-1.03 -2.07,-2.28 0,-1.33 1.04,-2.3 2.19,-2.3 1.21,0 1.66,1.11 1.66,1.3 0,0.1 -0.08,0.12 -0.13,0.12 -0.09,0 -0.11,-0.06 -0.13,-0.14 -0.35,-1.03 -1.24,-1.03 -1.34,-1.03 -0.5,0 -0.9,0.3 -1.13,0.67 -0.3,0.48 -0.3,1.14 -0.3,1.49 z"
   id="path5249" />
</g>    <g
       style="font-style:normal;font-variant:normal;font-weight:normal;font-stretch:normal;letter-spacing:normal;word-spacing:normal;text-anchor:start;fill:none;stroke:#000000;stroke-linecap:butt;stroke-linejoin:miter;stroke-miterlimit:10.43299961;stroke-opacity:1;stroke-dasharray:none;stroke-dashoffset:0;display:inline"
       ns0:preamble=""
       ns0:text="seuil"
       word-spacing="normal"
       letter-spacing="normal"
       font-size-adjust="none"
       font-stretch="normal"
       font-weight="normal"
       font-variant="normal"
       font-style="normal"
       fill-rule="even-odd"
       stroke-miterlimit="10.433"
       xml:space="preserve"
       transform="matrix(1.4434982,0,0,-1.4434982,727.06693,3164.3741)"
       id="g5445">
<path
   id="path5447"
   d="m 225.51,709.05 0.02,0 0.02,0 0.03,-0.01 0.03,-0.01 0.04,0 0.03,-0.01 0.04,-0.01 0.04,-0.01 0.04,-0.02 0.04,-0.01 0.05,-0.02 0.04,-0.01 0.04,-0.02 0.05,-0.02 0.04,-0.02 0.05,-0.03 0.04,-0.03 0.04,-0.02 0.04,-0.03 0.04,-0.04 0.04,-0.03 0.03,-0.04 0.04,-0.04 0.03,-0.04 0.03,-0.05 0.01,-0.02 0.01,-0.02 0.02,-0.03 0.01,-0.02 0.01,-0.03 0.01,-0.03 0,-0.03 0.01,-0.02 0.01,-0.03 0,-0.03 0.01,-0.03 0,-0.04 0,-0.03 0,-0.03 c 0,-0.51 -0.35,-0.91 -1.13,-0.91 -0.83,0 -1.19,0.57 -1.38,1.42 -0.03,0.13 -0.04,0.17 -0.14,0.17 -0.13,0 -0.13,-0.07 -0.13,-0.25 v -1.32 c 0,-0.17 0,-0.24 0.11,-0.24 0.05,0 0.06,0.01 0.25,0.2 0.02,0.02 0.02,0.04 0.2,0.23 0.44,-0.42 0.89,-0.43 1.09,-0.43 1.15,0 1.61,0.67 1.61,1.39 0,0.53 -0.3,0.82 -0.42,0.94 -0.33,0.32 -0.72,0.4 -1.14,0.48 -0.55,0.11 -1.22,0.24 -1.22,0.82 0,0.35 0.26,0.76 1.11,0.76 1.1,0 1.15,-0.9 1.17,-1.21 0.01,-0.09 0.1,-0.09 0.12,-0.09 0.13,0 0.13,0.05 0.13,0.24 v 1.01 c 0,0.17 0,0.24 -0.11,0.24 -0.05,0 -0.07,0 -0.2,-0.12 -0.03,-0.04 -0.13,-0.13 -0.17,-0.16 -0.38,0.28 -0.78,0.28 -0.94,0.28 -1.21,0 -1.59,-0.67 -1.59,-1.23 0,-0.35 0.16,-0.63 0.43,-0.85 0.32,-0.25 0.6,-0.31 1.32,-0.46 z"
   style="fill:#000000;stroke-width:0" />
<path
   id="path5449"
   d="m 228.47,709.42 0.01,0.21 c 0.06,1.49 0.9,1.74 1.23,1.74 1.03,0 1.13,-1.35 1.13,-1.74 h -2.36 l -0.01,-0.21 h 2.78 c 0.22,0 0.25,0 0.25,0.21 0,0.99 -0.54,1.96 -1.79,1.96 -1.15,0 -2.07,-1.03 -2.07,-2.28 0,-1.33 1.05,-2.3 2.19,-2.3 1.22,0 1.67,1.11 1.67,1.3 0,0.1 -0.08,0.12 -0.13,0.12 -0.09,0 -0.11,-0.06 -0.13,-0.14 -0.35,-1.03 -1.25,-1.03 -1.35,-1.03 -0.49,0 -0.89,0.3 -1.12,0.67 -0.3,0.48 -0.3,1.14 -0.3,1.49 z"
   style="fill:#000000;stroke-width:0" />
<path
   id="path5451"
   d="m 235.68,707.91 v -0.9 l 1.44,0.11 v 0.31 c -0.7,0 -0.78,0.07 -0.78,0.56 v 3.54 l -1.46,-0.11 v -0.31 c 0.69,0 0.77,-0.07 0.77,-0.56 v -1.77 c 0,-0.87 -0.47,-1.55 -1.2,-1.55 -0.84,0 -0.88,0.47 -0.88,0.99 v 3.31 l -1.46,-0.11 v -0.31 c 0.77,0 0.77,-0.03 0.77,-0.92 v -1.49 c 0,-0.78 0,-1.69 1.52,-1.69 0.56,0 0.99,0.28 1.28,0.9 z"
   style="fill:#000000;stroke-width:0" />
<path
   id="path5453"
   d="m 239.09,711.53 -1.4,-0.11 v -0.31 c 0.65,0 0.74,-0.06 0.74,-0.55 v -2.68 c 0,-0.45 -0.11,-0.45 -0.78,-0.45 v -0.31 c 0.32,0.01 0.86,0.03 1.1,0.03 0.35,0 0.7,-0.02 1.03,-0.03 v 0.31 c -0.65,0 -0.69,0.05 -0.69,0.44 z"
   style="fill:#000000;stroke-width:0" />
<path
   id="path5455"
   d="m 239.13,713.26 0,0.03 -0.01,0.03 0,0.03 -0.01,0.02 0,0.03 -0.01,0.03 -0.01,0.02 -0.01,0.03 -0.01,0.02 -0.01,0.02 -0.01,0.02 -0.02,0.03 -0.01,0.02 -0.02,0.02 -0.02,0.01 -0.01,0.02 -0.02,0.02 -0.02,0.02 -0.02,0.01 -0.02,0.01 -0.02,0.02 -0.03,0.01 -0.02,0.01 -0.02,0.01 -0.03,0.01 -0.02,0.01 -0.02,0 -0.03,0.01 -0.02,0 -0.03,0 -0.03,0.01 -0.02,0 c -0.31,0 -0.53,-0.27 -0.53,-0.53 0,-0.27 0.22,-0.53 0.53,-0.53 0.28,0 0.53,0.21 0.53,0.53 z"
   style="fill:#000000;stroke-width:0" />
<path
   id="path5457"
   d="m 241.85,714.04 -1.43,-0.11 v -0.31 c 0.7,0 0.78,-0.07 0.78,-0.56 v -5.18 c 0,-0.45 -0.11,-0.45 -0.78,-0.45 v -0.31 c 0.33,0.01 0.86,0.03 1.1,0.03 0.25,0 0.74,-0.02 1.11,-0.03 v 0.31 c -0.67,0 -0.78,0 -0.78,0.45 z"
   style="fill:#000000;stroke-width:0" />
</g>  </g>
</svg>
