<?xml version="1.0" encoding="UTF-8" standalone="no"?>
<!-- Created with Inkscape (http://www.inkscape.org/) -->

<svg
   xmlns:ns0="http://www.iki.fi/pav/software/textext/"
   xmlns:dc="http://purl.org/dc/elements/1.1/"
   xmlns:cc="http://creativecommons.org/ns#"
   xmlns:rdf="http://www.w3.org/1999/02/22-rdf-syntax-ns#"
   xmlns:svg="http://www.w3.org/2000/svg"
   xmlns="http://www.w3.org/2000/svg"
   xmlns:sodipodi="http://sodipodi.sourceforge.net/DTD/sodipodi-0.dtd"
   xmlns:inkscape="http://www.inkscape.org/namespaces/inkscape"
   width="279.37888"
   height="114.92551"
   id="svg4514"
   version="1.1"
   inkscape:version="0.47 r22583"
   sodipodi:docname="Nouveau document 6">
  <defs
     id="defs4516">
    <inkscape:perspective
       sodipodi:type="inkscape:persp3d"
       inkscape:vp_x="0 : 526.18109 : 1"
       inkscape:vp_y="0 : 1000 : 0"
       inkscape:vp_z="744.09448 : 526.18109 : 1"
       inkscape:persp3d-origin="372.04724 : 350.78739 : 1"
       id="perspective4522" />
    <inkscape:perspective
       id="perspective4492"
       inkscape:persp3d-origin="0.5 : 0.33333333 : 1"
       inkscape:vp_z="1 : 0.5 : 1"
       inkscape:vp_y="0 : 1000 : 0"
       inkscape:vp_x="0 : 0.5 : 1"
       sodipodi:type="inkscape:persp3d" />
    <marker
       style="overflow:visible"
       id="Arrow2Mstart"
       refX="0"
       refY="0"
       orient="auto"
       inkscape:stockid="Arrow2Mstart">
      <path
         transform="scale(0.6,0.6)"
         d="M 8.7185878,4.0337352 -2.2072895,0.01601326 8.7185884,-4.0017078 c -1.7454984,2.3720609 -1.7354408,5.6174519 -6e-7,8.035443 z"
         style="font-size:12px;fill-rule:evenodd;stroke-width:0.625;stroke-linejoin:round"
         id="path3625" />
    </marker>
    <marker
       style="overflow:visible"
       id="Arrow2Mend"
       refX="0"
       refY="0"
       orient="auto"
       inkscape:stockid="Arrow2Mend">
      <path
         transform="scale(-0.6,-0.6)"
         d="M 8.7185878,4.0337352 -2.2072895,0.01601326 8.7185884,-4.0017078 c -1.7454984,2.3720609 -1.7354408,5.6174519 -6e-7,8.035443 z"
         style="font-size:12px;fill-rule:evenodd;stroke-width:0.625;stroke-linejoin:round"
         id="path3628" />
    </marker>
  </defs>
  <sodipodi:namedview
     id="base"
     pagecolor="#ffffff"
     bordercolor="#666666"
     borderopacity="1.0"
     inkscape:pageopacity="0.0"
     inkscape:pageshadow="2"
     inkscape:zoom="1.979899"
     inkscape:cx="163.52311"
     inkscape:cy="30.989101"
     inkscape:document-units="px"
     inkscape:current-layer="layer1"
     showgrid="true"
     inkscape:window-width="1280"
     inkscape:window-height="725"
     inkscape:window-x="0"
     inkscape:window-y="25"
     inkscape:window-maximized="1">
    <inkscape:grid
       type="xygrid"
       id="grid4567"
       empspacing="5"
       visible="true"
       enabled="true"
       snapvisiblegridlinesonly="true" />
  </sodipodi:namedview>
  <metadata
     id="metadata4519">
    <rdf:RDF>
      <cc:Work
         rdf:about="">
        <dc:format>image/svg+xml</dc:format>
        <dc:type
           rdf:resource="http://purl.org/dc/dcmitype/StillImage" />
        <dc:title></dc:title>
      </cc:Work>
    </rdf:RDF>
  </metadata>
  <g
     inkscape:label="Calque 1"
     inkscape:groupmode="layer"
     id="layer1"
     transform="translate(-183.16771,-200.6137)">
    <path
       id="path2824"
       d="m 461.22221,313.13818 -250.00001,0 0,-105"
       style="fill:none;stroke:#000000;stroke-width:1px;stroke-linecap:butt;stroke-linejoin:miter;stroke-opacity:1;marker-start:url(#Arrow2Mstart);marker-end:url(#Arrow2Mend)" />
    <path
       sodipodi:nodetypes="czc"
       id="path4234"
       d="m 211.2222,313.13818 30,-45 c 27.184,-40.776 88.7778,-40.776 195.00001,-40"
       style="fill:none;stroke:#000000;stroke-width:1.5;stroke-linecap:butt;stroke-linejoin:miter;stroke-miterlimit:4;stroke-opacity:1;stroke-dasharray:none" />
    <path
       id="path4236"
       d="m 241.2222,268.13818 -30,0"
       style="fill:none;stroke:#000000;stroke-width:0.75;stroke-linecap:butt;stroke-linejoin:miter;stroke-miterlimit:4;stroke-opacity:1;stroke-dasharray:3.00000003, 1.50000001;stroke-dashoffset:0" />
    <path
       sodipodi:nodetypes="cc"
       style="fill:none;stroke:#000000;stroke-width:0.75;stroke-linecap:butt;stroke-linejoin:miter;stroke-miterlimit:4;stroke-opacity:1;stroke-dasharray:3, 1.49999999;stroke-dashoffset:0"
       d="m 441.22221,228.13817 -230.00001,4e-4"
       id="path4238" />
    <g
       ns0:preamble=""
       ns0:text="$\\mathcal{M}$"
       word-spacing="normal"
       letter-spacing="normal"
       font-size-adjust="none"
       font-stretch="normal"
       font-weight="normal"
       font-variant="normal"
       font-style="normal"
       fill-rule="even-odd"
       stroke-miterlimit="10.433"
       xml:space="preserve"
       transform="matrix(1.35,0,0,-1.35,-118.82729,1164.7162)"
       id="content"
       style="font-style:normal;font-variant:normal;font-weight:normal;font-stretch:normal;letter-spacing:normal;word-spacing:normal;text-anchor:start;fill:none;stroke:#000000;stroke-linecap:butt;stroke-linejoin:miter;stroke-miterlimit:10.43299961;stroke-opacity:1;stroke-dasharray:none;stroke-dashoffset:0">
<path
   id="path4258"
   d="m 227.27,712.69 0.02,-0.12 0.03,-0.13 0.03,-0.13 0.03,-0.14 0.03,-0.14 0.03,-0.14 0.06,-0.3 0.07,-0.3 0.07,-0.31 0.07,-0.32 0.08,-0.31 0.09,-0.32 0.08,-0.31 0.09,-0.3 0.09,-0.29 0.05,-0.14 0.05,-0.14 0.05,-0.13 0.05,-0.14 0.05,-0.12 0.05,-0.12 0.05,-0.12 0.05,-0.11 c 0.22,-0.43 0.33,-0.65 0.43,-0.65 0.04,0 0.06,0 0.24,0.18 0.76,0.73 1.28,1.31 1.97,2.1 l 2.19,2.54 c -0.14,-0.84 -0.5,-3.08 -0.5,-4.25 0,-0.27 0.01,-0.53 0.04,-0.8 0.01,-0.11 0.05,-0.4 0.47,-0.4 0.41,0 1.17,0.44 1.17,0.64 0,0.06 -0.06,0.07 -0.09,0.07 -0.13,0 -0.33,-0.09 -0.44,-0.16 -0.24,0.03 -0.26,0.19 -0.28,0.42 -0.03,0.32 -0.03,0.62 -0.03,0.66 0,1.1 0.44,4.12 0.73,5.36 0.01,0.07 0.02,0.09 0.02,0.17 0,0.04 -0.01,0.15 -0.08,0.15 -0.04,0 -0.05,-0.01 -0.24,-0.23 -0.93,-1.14 -3.84,-4.63 -4.83,-5.46 -0.25,0.53 -0.43,0.9 -0.78,2.3 -0.29,1.13 -0.46,1.95 -0.62,2.92 -0.03,0.14 -0.08,0.41 -0.08,0.43 -0.03,0.05 -0.08,0.05 -0.11,0.05 -0.18,0 -0.6,-0.22 -0.63,-0.43 -0.12,-0.84 -0.32,-2.15 -1.02,-4.06 -0.79,-2.12 -1.01,-2.12 -1.2,-2.12 -0.13,0 -0.5,0.08 -0.72,0.28 -0.05,0.05 -0.07,0.05 -0.09,0.05 -0.14,0 -0.36,-0.45 -0.36,-0.73 0,-0.09 0,-0.21 0.32,-0.38 0.25,-0.13 0.49,-0.14 0.54,-0.14 0.62,0 1.2,1.43 1.4,1.94 0.47,1.12 1.03,2.7 1.31,4.13 z"
   style="fill:#000000;stroke-width:0" />
</g>    <g
       style="font-style:normal;font-variant:normal;font-weight:normal;font-stretch:normal;letter-spacing:normal;word-spacing:normal;text-anchor:start;fill:none;stroke:#000000;stroke-linecap:butt;stroke-linejoin:miter;stroke-miterlimit:10.43299961;stroke-opacity:1;stroke-dasharray:none;stroke-dashoffset:0"
       ns0:preamble=""
       ns0:text="$\\kappa$"
       word-spacing="normal"
       letter-spacing="normal"
       font-size-adjust="none"
       font-stretch="normal"
       font-weight="normal"
       font-variant="normal"
       font-style="normal"
       fill-rule="even-odd"
       stroke-miterlimit="10.433"
       xml:space="preserve"
       transform="matrix(1.35,0,0,-1.35,150.2952,1258.1012)"
       id="g4345">
<path
   style="fill:#000000;stroke-width:0"
   id="path4347"
   d="m 224.02,707.51 0,-0.01 0,0 -0.01,-0.01 0,0 0,-0.02 0,-0.01 -0.01,-0.01 0,-0.01 0,0 0,-0.01 -0.01,-0.01 0,-0.01 0,-0.01 0,0 0,-0.01 0,-0.01 0,0 -0.01,-0.01 0,-0.01 0,0 0,-0.01 0,-0.01 0,-0.01 0,-0.01 0,-0.01 0,-0.01 0,-0.01 0,0 0,-0.01 c 0,-0.18 0.14,-0.27 0.29,-0.27 0.3,0 0.36,0.24 0.44,0.56 0.1,0.36 0.04,0.17 0.47,1.84 0.83,-0.03 1.7,-0.19 1.7,-0.84 0,-0.07 0,-0.12 -0.02,-0.22 -0.04,-0.16 -0.05,-0.27 -0.05,-0.35 0,-0.59 0.4,-0.99 0.92,-0.99 0.31,0 0.57,0.18 0.77,0.52 0.25,0.42 0.37,1 0.37,1.02 0,0.1 -0.09,0.1 -0.12,0.1 -0.1,0 -0.11,-0.04 -0.14,-0.18 -0.19,-0.69 -0.41,-1.24 -0.86,-1.24 -0.21,0 -0.32,0.13 -0.32,0.48 0,0.15 0.04,0.39 0.08,0.56 0.02,0.09 0.05,0.22 0.05,0.33 0,0.93 -1.38,1 -1.94,1.02 0.33,0.18 0.65,0.45 0.92,0.68 0.46,0.39 0.75,0.63 1.15,0.8 -0.02,-0.05 -0.05,-0.17 -0.05,-0.22 0,-0.12 0.07,-0.35 0.37,-0.35 0.32,0 0.54,0.29 0.54,0.54 0,0.09 -0.04,0.35 -0.4,0.35 -0.6,0 -1.19,-0.5 -1.63,-0.87 -0.68,-0.58 -0.92,-0.73 -1.27,-0.85 0.03,0.11 0.15,0.61 0.2,0.78 0.06,0.26 0.17,0.73 0.17,0.78 0,0.17 -0.11,0.27 -0.28,0.27 -0.04,0 -0.31,0 -0.4,-0.36 z" />
</g>    <g
       id="g4399"
       transform="matrix(1.35,0,0,-1.35,-118.82729,1226.7159)"
       xml:space="preserve"
       stroke-miterlimit="10.433"
       fill-rule="even-odd"
       font-style="normal"
       font-variant="normal"
       font-weight="normal"
       font-stretch="normal"
       font-size-adjust="none"
       letter-spacing="normal"
       word-spacing="normal"
       ns0:text="$\\mathcal{M}_e$"
       ns0:preamble=""
       style="font-style:normal;font-variant:normal;font-weight:normal;font-stretch:normal;letter-spacing:normal;word-spacing:normal;text-anchor:start;fill:none;stroke:#000000;stroke-linecap:butt;stroke-linejoin:miter;stroke-miterlimit:10.43299961;stroke-opacity:1;stroke-dasharray:none;stroke-dashoffset:0">
<path
   style="fill:#000000;stroke-width:0"
   d="m 227.27,712.69 0.02,-0.12 0.03,-0.13 0.03,-0.13 0.03,-0.14 0.03,-0.14 0.03,-0.14 0.06,-0.3 0.07,-0.3 0.07,-0.31 0.07,-0.32 0.08,-0.31 0.09,-0.32 0.08,-0.31 0.09,-0.3 0.09,-0.29 0.05,-0.14 0.05,-0.14 0.05,-0.13 0.05,-0.14 0.05,-0.12 0.05,-0.12 0.05,-0.12 0.05,-0.11 c 0.22,-0.43 0.33,-0.65 0.43,-0.65 0.04,0 0.06,0 0.24,0.18 0.76,0.73 1.28,1.31 1.97,2.1 l 2.19,2.54 c -0.14,-0.84 -0.5,-3.08 -0.5,-4.25 0,-0.27 0.01,-0.53 0.04,-0.8 0.01,-0.11 0.05,-0.4 0.47,-0.4 0.41,0 1.17,0.44 1.17,0.64 0,0.06 -0.06,0.07 -0.09,0.07 -0.13,0 -0.33,-0.09 -0.44,-0.16 -0.24,0.03 -0.26,0.19 -0.28,0.42 -0.03,0.32 -0.03,0.62 -0.03,0.66 0,1.1 0.44,4.12 0.73,5.36 0.01,0.07 0.02,0.09 0.02,0.17 0,0.04 -0.01,0.15 -0.08,0.15 -0.04,0 -0.05,-0.01 -0.24,-0.23 -0.93,-1.14 -3.84,-4.63 -4.83,-5.46 -0.25,0.53 -0.43,0.9 -0.78,2.3 -0.29,1.13 -0.46,1.95 -0.62,2.92 -0.03,0.14 -0.08,0.41 -0.08,0.43 -0.03,0.05 -0.08,0.05 -0.11,0.05 -0.18,0 -0.6,-0.22 -0.63,-0.43 -0.12,-0.84 -0.32,-2.15 -1.02,-4.06 -0.79,-2.12 -1.01,-2.12 -1.2,-2.12 -0.13,0 -0.5,0.08 -0.72,0.28 -0.05,0.05 -0.07,0.05 -0.09,0.05 -0.14,0 -0.36,-0.45 -0.36,-0.73 0,-0.09 0,-0.21 0.32,-0.38 0.25,-0.13 0.49,-0.14 0.54,-0.14 0.62,0 1.2,1.43 1.4,1.94 0.47,1.12 1.03,2.7 1.31,4.13 z"
   id="path4401" />
<path
   style="fill:#000000;stroke-width:0"
   d="m 236.96,707.22 0.02,0 0.02,0 0.02,0 0.03,0 0.02,0 0.03,0 0.03,0 0.03,0 0.03,0.01 0.04,0 0.03,0 0.04,0 0.04,0 0.03,0.01 0.08,0 0.08,0.01 0.08,0.01 0.08,0.01 0.08,0.02 0.08,0.01 0.04,0.01 0.04,0.01 0.04,0.01 0.04,0.01 0.03,0.01 0.04,0.02 c 0.52,0.18 0.61,0.51 0.61,0.72 0,0.38 -0.38,0.62 -0.86,0.62 v -0.2 c 0.31,0 0.56,-0.15 0.56,-0.42 0,-0.68 -1.18,-0.68 -1.48,-0.68 h -0.34 c 0.29,1.02 1.06,1.1 1.26,1.1 v 0.2 c -0.84,0 -1.97,-0.65 -1.97,-1.84 0,-0.7 0.44,-1.31 1.26,-1.31 1.18,0 1.73,0.69 1.73,0.79 0,0.04 -0.07,0.12 -0.12,0.12 -0.04,0 -0.06,-0.02 -0.11,-0.07 -0.55,-0.64 -1.36,-0.64 -1.49,-0.64 -0.42,0 -0.7,0.27 -0.7,0.84 0,0.1 0,0.24 0.09,0.62 z"
   id="path4403" />
</g>    <g
       style="font-style:normal;font-variant:normal;font-weight:normal;font-stretch:normal;letter-spacing:normal;word-spacing:normal;text-anchor:start;fill:none;stroke:#000000;stroke-linecap:butt;stroke-linejoin:miter;stroke-miterlimit:10.43299961;stroke-opacity:1;stroke-dasharray:none;stroke-dashoffset:0"
       ns0:preamble=""
       ns0:text="$\\mathcal{M}_l$"
       word-spacing="normal"
       letter-spacing="normal"
       font-size-adjust="none"
       font-stretch="normal"
       font-weight="normal"
       font-variant="normal"
       font-style="normal"
       fill-rule="even-odd"
       stroke-miterlimit="10.433"
       xml:space="preserve"
       transform="matrix(1.35,0,0,-1.35,-118.82729,1186.7161)"
       id="g4453">
<path
   style="fill:#000000;stroke-width:0"
   id="path4455"
   d="m 227.27,712.69 0.02,-0.12 0.03,-0.13 0.03,-0.13 0.03,-0.14 0.03,-0.14 0.03,-0.14 0.06,-0.3 0.07,-0.3 0.07,-0.31 0.07,-0.32 0.08,-0.31 0.09,-0.32 0.08,-0.31 0.09,-0.3 0.09,-0.29 0.05,-0.14 0.05,-0.14 0.05,-0.13 0.05,-0.14 0.05,-0.12 0.05,-0.12 0.05,-0.12 0.05,-0.11 c 0.22,-0.43 0.33,-0.65 0.43,-0.65 0.04,0 0.06,0 0.24,0.18 0.76,0.73 1.28,1.31 1.97,2.1 l 2.19,2.54 c -0.14,-0.84 -0.5,-3.08 -0.5,-4.25 0,-0.27 0.01,-0.53 0.04,-0.8 0.01,-0.11 0.05,-0.4 0.47,-0.4 0.41,0 1.17,0.44 1.17,0.64 0,0.06 -0.06,0.07 -0.09,0.07 -0.13,0 -0.33,-0.09 -0.44,-0.16 -0.24,0.03 -0.26,0.19 -0.28,0.42 -0.03,0.32 -0.03,0.62 -0.03,0.66 0,1.1 0.44,4.12 0.73,5.36 0.01,0.07 0.02,0.09 0.02,0.17 0,0.04 -0.01,0.15 -0.08,0.15 -0.04,0 -0.05,-0.01 -0.24,-0.23 -0.93,-1.14 -3.84,-4.63 -4.83,-5.46 -0.25,0.53 -0.43,0.9 -0.78,2.3 -0.29,1.13 -0.46,1.95 -0.62,2.92 -0.03,0.14 -0.08,0.41 -0.08,0.43 -0.03,0.05 -0.08,0.05 -0.11,0.05 -0.18,0 -0.6,-0.22 -0.63,-0.43 -0.12,-0.84 -0.32,-2.15 -1.02,-4.06 -0.79,-2.12 -1.01,-2.12 -1.2,-2.12 -0.13,0 -0.5,0.08 -0.72,0.28 -0.05,0.05 -0.07,0.05 -0.09,0.05 -0.14,0 -0.36,-0.45 -0.36,-0.73 0,-0.09 0,-0.21 0.32,-0.38 0.25,-0.13 0.49,-0.14 0.54,-0.14 0.62,0 1.2,1.43 1.4,1.94 0.47,1.12 1.03,2.7 1.31,4.13 z" />
<path
   style="fill:#000000;stroke-width:0"
   id="path4457"
   d="m 237.36,710.26 0,0 0,0 0,0 0,0 0,0.01 0,0 0,0 0.01,0 0,0 0,0.01 0,0 0,0 0,0.01 0,0 0,0.01 0,0 0.01,0.01 0,0 0,0.01 0,0.01 0,0 0,0.01 0,0 0,0.01 0.01,0 0,0 0,0.01 0,0 0,0 0,0 0,0 0,0.01 0,0 0,0 0,0 0,0 0,0 0,0 0,0 0,0 c 0,0.04 -0.03,0.1 -0.11,0.1 -0.14,0 -0.72,-0.06 -0.9,-0.07 -0.04,-0.01 -0.14,-0.01 -0.14,-0.16 0,-0.1 0.1,-0.1 0.17,-0.1 0.34,0 0.34,-0.05 0.34,-0.1 0,-0.05 -0.02,-0.09 -0.03,-0.16 l -0.87,-3.44 c -0.02,-0.07 -0.02,-0.15 -0.02,-0.22 0,-0.44 0.4,-0.66 0.73,-0.66 0.17,0 0.38,0.06 0.56,0.37 0.14,0.26 0.24,0.67 0.24,0.7 0,0.09 -0.09,0.09 -0.11,0.09 -0.1,0 -0.11,-0.04 -0.14,-0.17 -0.09,-0.35 -0.22,-0.79 -0.52,-0.79 -0.19,0 -0.24,0.17 -0.24,0.34 0,0.07 0.02,0.21 0.04,0.28 z" />
</g>  </g>
</svg>
