<?xml version="1.0" encoding="UTF-8" standalone="no"?>
<!-- Created with Inkscape (http://www.inkscape.org/) -->

<svg
   xmlns:dc="http://purl.org/dc/elements/1.1/"
   xmlns:cc="http://creativecommons.org/ns#"
   xmlns:rdf="http://www.w3.org/1999/02/22-rdf-syntax-ns#"
   xmlns:svg="http://www.w3.org/2000/svg"
   xmlns="http://www.w3.org/2000/svg"
   xmlns:sodipodi="http://sodipodi.sourceforge.net/DTD/sodipodi-0.dtd"
   xmlns:inkscape="http://www.inkscape.org/namespaces/inkscape"
   id="svg2"
   version="1.1"
   inkscape:version="0.47 r22583"
   width="76.095703"
   height="77.136398"
   xml:space="preserve"
   sodipodi:docname="MS1_ch03.pdf"><metadata
     id="metadata8"><rdf:RDF><cc:Work
         rdf:about=""><dc:format>image/svg+xml</dc:format><dc:type
           rdf:resource="http://purl.org/dc/dcmitype/StillImage" /><dc:title></dc:title></cc:Work></rdf:RDF></metadata><defs
     id="defs6"><marker
       inkscape:stockid="Arrow2Mend"
       orient="auto"
       refY="0"
       refX="0"
       id="Arrow2Mend"
       style="overflow:visible"><path
         id="path3644"
         style="font-size:12px;fill-rule:evenodd;stroke-width:0.625;stroke-linejoin:round"
         d="M 8.7185878,4.0337352 -2.2072895,0.01601326 8.7185884,-4.0017078 c -1.7454984,2.3720609 -1.7354408,5.6174519 -6e-7,8.035443 z"
         transform="scale(-0.6,-0.6)" /></marker><marker
       inkscape:stockid="Arrow2Mstart"
       orient="auto"
       refY="0"
       refX="0"
       id="Arrow2Mstart"
       style="overflow:visible"><path
         id="path3641"
         style="font-size:12px;fill-rule:evenodd;stroke-width:0.625;stroke-linejoin:round"
         d="M 8.7185878,4.0337352 -2.2072895,0.01601326 8.7185884,-4.0017078 c -1.7454984,2.3720609 -1.7354408,5.6174519 -6e-7,8.035443 z"
         transform="scale(0.6,0.6)" /></marker><inkscape:perspective
       sodipodi:type="inkscape:persp3d"
       inkscape:vp_x="0 : 0.5 : 1"
       inkscape:vp_y="0 : 1000 : 0"
       inkscape:vp_z="1 : 0.5 : 1"
       inkscape:persp3d-origin="0.5 : 0.33333333 : 1"
       id="perspective10" /></defs><sodipodi:namedview
     pagecolor="#ffffff"
     bordercolor="#666666"
     borderopacity="1"
     objecttolerance="10"
     gridtolerance="10"
     guidetolerance="10"
     inkscape:pageopacity="0"
     inkscape:pageshadow="2"
     inkscape:window-width="1280"
     inkscape:window-height="717"
     id="namedview4"
     showgrid="true"
     inkscape:zoom="0.44843473"
     inkscape:cx="-249.1062"
     inkscape:cy="-198.15554"
     inkscape:window-x="0"
     inkscape:window-y="29"
     inkscape:window-maximized="1"
     inkscape:current-layer="g12"><inkscape:grid
       type="xygrid"
       id="grid2826"
       empspacing="5"
       visible="true"
       enabled="true"
       snapvisiblegridlinesonly="true" /></sodipodi:namedview><g
     id="g12"
     inkscape:groupmode="layer"
     inkscape:label="MS1_ch03"
     transform="matrix(0.45,0,0,-0.45,-519.25,816.38635)"><path
       sodipodi:type="arc"
       style="fill:none;stroke:#000000;stroke-width:1.5;stroke-linecap:square;stroke-linejoin:bevel;stroke-miterlimit:4;stroke-opacity:1;stroke-dasharray:none;stroke-dashoffset:0"
       id="path2828"
       sodipodi:cx="615"
       sodipodi:cy="277.55005"
       sodipodi:rx="35"
       sodipodi:ry="35"
       d="m 650,277.55005 c 0,19.32997 -15.67003,35 -35,35 -19.32997,0 -35,-15.67003 -35,-35 0,-19.32997 15.67003,-35 35,-35 19.32997,0 35,15.67003 35,35 z"
       transform="matrix(2.2222222,0,0,-2.2222222,-133.33333,2339)" /><path
       sodipodi:type="arc"
       style="fill:none;stroke:#000000;stroke-width:1.5;stroke-linecap:square;stroke-linejoin:bevel;stroke-miterlimit:4;stroke-opacity:1;stroke-dasharray:4.50000005, 4.50000005;stroke-dashoffset:0"
       id="path2830"
       sodipodi:cx="615"
       sodipodi:cy="277.55005"
       sodipodi:rx="25"
       sodipodi:ry="25"
       d="m 640,277.55005 c 0,13.80712 -11.19288,25 -25,25 -13.80712,0 -25,-11.19288 -25,-25 0,-13.80712 11.19288,-25 25,-25 13.80712,0 25,11.19288 25,25 z"
       transform="matrix(2.2222222,0,0,-2.2222222,-133.33333,2339)" /><path
       style="fill:none;stroke:#000000;stroke-width:1px;stroke-linecap:butt;stroke-linejoin:miter;stroke-opacity:1;marker-start:url(#Arrow2Mstart);marker-end:url(#Arrow2Mend)"
       d="m 575.00001,262.55005 -20.00001,15 14.75961,-31.69488"
       id="path3604"
       transform="matrix(2.2222222,0,0,-2.2222222,0,2339)"
       sodipodi:nodetypes="ccc" /><text
       xml:space="preserve"
       style="font-size:11px;font-style:normal;font-weight:normal;fill:#000000;fill-opacity:1;stroke:none;font-family:Bitstream Vera Sans"
       x="568.92334"
       y="275.4024"
       id="text3606"
       transform="matrix(2.2222222,0,0,-2.2222222,0,2339)"><tspan
         sodipodi:role="line"
         id="tspan3608"
         x="568.92334"
         y="275.4024">1</tspan></text>
<text
       xml:space="preserve"
       style="font-size:11px;font-style:normal;font-weight:normal;fill:#000000;fill-opacity:1;stroke:none;font-family:Bitstream Vera Sans"
       x="573.3833"
       y="244.18269"
       id="text3610"
       transform="matrix(2.2222222,0,0,-2.2222222,0,2339)"><tspan
         sodipodi:role="line"
         id="tspan3612"
         x="573.3833"
         y="244.18269">1+a</tspan></text>
</g></svg>