<?xml version="1.0" encoding="UTF-8" standalone="no"?>
<!-- Created with Inkscape (http://www.inkscape.org/) -->

<svg
   xmlns:ns0="http://www.iki.fi/pav/software/textext/"
   xmlns:dc="http://purl.org/dc/elements/1.1/"
   xmlns:cc="http://creativecommons.org/ns#"
   xmlns:rdf="http://www.w3.org/1999/02/22-rdf-syntax-ns#"
   xmlns:svg="http://www.w3.org/2000/svg"
   xmlns="http://www.w3.org/2000/svg"
   xmlns:sodipodi="http://sodipodi.sourceforge.net/DTD/sodipodi-0.dtd"
   xmlns:inkscape="http://www.inkscape.org/namespaces/inkscape"
   width="150.12346"
   height="105.44472"
   id="svg7912"
   version="1.1"
   inkscape:version="0.47 r22583"
   sodipodi:docname="Nouveau document 33">
  <sodipodi:namedview
     id="base"
     pagecolor="#ffffff"
     bordercolor="#666666"
     borderopacity="1.0"
     inkscape:pageopacity="0.0"
     inkscape:pageshadow="2"
     inkscape:zoom="1.1115998"
     inkscape:cx="83.416979"
     inkscape:cy="24.854287"
     inkscape:document-units="px"
     inkscape:current-layer="layer1"
     showgrid="false"
     inkscape:window-width="755"
     inkscape:window-height="750"
     inkscape:window-x="0"
     inkscape:window-y="25"
     inkscape:window-maximized="0" />
  <defs
     id="defs7914">
    <inkscape:perspective
       sodipodi:type="inkscape:persp3d"
       inkscape:vp_x="0 : 526.18109 : 1"
       inkscape:vp_y="0 : 1000 : 0"
       inkscape:vp_z="744.09448 : 526.18109 : 1"
       inkscape:persp3d-origin="372.04724 : 350.78739 : 1"
       id="perspective7920" />
    <inkscape:perspective
       id="perspective7893"
       inkscape:persp3d-origin="0.5 : 0.33333333 : 1"
       inkscape:vp_z="1 : 0.5 : 1"
       inkscape:vp_y="0 : 1000 : 0"
       inkscape:vp_x="0 : 0.5 : 1"
       sodipodi:type="inkscape:persp3d" />
    <marker
       style="overflow:visible"
       id="DotM"
       refX="0"
       refY="0"
       orient="auto"
       inkscape:stockid="DotM">
      <path
         transform="matrix(0.4,0,0,0.4,2.96,0.4)"
         style="fill-rule:evenodd;stroke:#000000;stroke-width:1pt;marker-start:none;marker-end:none"
         d="m -2.5,-1 c 0,2.76 -2.24,5 -5,5 -2.76,0 -5,-2.24 -5,-5 0,-2.76 2.24,-5 5,-5 2.76,0 5,2.24 5,5 z"
         id="path3971" />
    </marker>
    <marker
       inkscape:stockid="Arrow2Mstart"
       orient="auto"
       refY="0"
       refX="0"
       id="Arrow2Mstart"
       style="overflow:visible">
      <path
         id="path3625"
         style="font-size:12px;fill-rule:evenodd;stroke-width:0.625;stroke-linejoin:round"
         d="M 8.7185878,4.0337352 -2.2072895,0.01601326 8.7185884,-4.0017078 c -1.7454984,2.3720609 -1.7354408,5.6174519 -6e-7,8.035443 z"
         transform="scale(0.6,0.6)" />
    </marker>
    <marker
       inkscape:stockid="Arrow2Mend"
       orient="auto"
       refY="0"
       refX="0"
       id="Arrow2Mend"
       style="overflow:visible">
      <path
         id="path3628"
         style="font-size:12px;fill-rule:evenodd;stroke-width:0.625;stroke-linejoin:round"
         d="M 8.7185878,4.0337352 -2.2072895,0.01601326 8.7185884,-4.0017078 c -1.7454984,2.3720609 -1.7354408,5.6174519 -6e-7,8.035443 z"
         transform="scale(-0.6,-0.6)" />
    </marker>
    <inkscape:perspective
       sodipodi:type="inkscape:persp3d"
       inkscape:vp_x="0 : 0.5 : 1"
       inkscape:vp_y="0 : 1000 : 0"
       inkscape:vp_z="1 : 0.5 : 1"
       inkscape:persp3d-origin="0.5 : 0.33333333 : 1"
       id="perspective8130" />
  </defs>
  <metadata
     id="metadata7917">
    <rdf:RDF>
      <cc:Work
         rdf:about="">
        <dc:format>image/svg+xml</dc:format>
        <dc:type
           rdf:resource="http://purl.org/dc/dcmitype/StillImage" />
        <dc:title></dc:title>
      </cc:Work>
    </rdf:RDF>
  </metadata>
  <g
     inkscape:label="Calque 1"
     inkscape:groupmode="layer"
     id="layer1"
     transform="translate(-173.5097,-308.21128)">
    <g
       transform="matrix(0.45,0,0,-0.45,-359.08928,1188.6456)"
       id="g6842">
      <path
         sodipodi:nodetypes="cc"
         style="fill:none;stroke:#000000;stroke-width:2.22222233px;stroke-linecap:butt;stroke-linejoin:miter;stroke-opacity:1;marker-start:url(#Arrow2Mstart);marker-end:url(#Arrow2Mend)"
         d="m 1488.8889,1744.4443 -300,0 0,200"
         id="path2824-9" />
      <g
         ns0:preamble=""
         ns0:text="$x_2$"
         word-spacing="normal"
         letter-spacing="normal"
         font-size-adjust="none"
         font-stretch="normal"
         font-weight="normal"
         font-variant="normal"
         font-style="normal"
         fill-rule="even-odd"
         stroke-miterlimit="10.433"
         xml:space="preserve"
         transform="matrix(3,0,0,3,529.20154,-178.06928)"
         id="g6657"
         style="font-style:normal;font-variant:normal;font-weight:normal;font-stretch:normal;letter-spacing:normal;word-spacing:normal;text-anchor:start;fill:none;stroke:#000000;stroke-linecap:butt;stroke-linejoin:miter;stroke-miterlimit:10.43299961;stroke-opacity:1;stroke-dasharray:none;stroke-dashoffset:0">
<path
   id="path6659"
   d="m 226.76,710.13 0.01,0.03 0,0.03 0.01,0.03 0.01,0.04 0.01,0.03 0.01,0.05 0.02,0.04 0.01,0.04 0.02,0.05 0.01,0.05 0.02,0.05 0.02,0.05 0.03,0.05 0.02,0.05 0.03,0.05 0.02,0.05 0.03,0.04 0.03,0.05 0.04,0.05 0.03,0.04 0.04,0.05 0.04,0.04 0.04,0.03 0.05,0.04 0.04,0.03 0.05,0.03 0.03,0.01 0.02,0.02 0.03,0.01 0.03,0.01 0.02,0.01 0.03,0 0.03,0.01 0.03,0.01 0.03,0 0.03,0 0.03,0.01 0.04,0 c 0.05,0 0.29,0 0.49,-0.13 -0.28,-0.05 -0.47,-0.3 -0.47,-0.54 0,-0.16 0.11,-0.35 0.38,-0.35 0.21,0 0.53,0.18 0.53,0.58 0,0.52 -0.58,0.66 -0.92,0.66 -0.58,0 -0.93,-0.53 -1.05,-0.76 -0.25,0.66 -0.79,0.76 -1.08,0.76 -1.03,0 -1.6,-1.29 -1.6,-1.54 0,-0.1 0.1,-0.1 0.12,-0.1 0.08,0 0.11,0.02 0.13,0.11 0.34,1.06 1,1.31 1.33,1.31 0.19,0 0.54,-0.09 0.54,-0.67 0,-0.31 -0.17,-0.98 -0.54,-2.37 -0.15,-0.62 -0.5,-1.04 -0.94,-1.04 -0.06,0 -0.29,0 -0.5,0.13 0.25,0.05 0.47,0.26 0.47,0.54 0,0.27 -0.22,0.35 -0.37,0.35 -0.3,0 -0.55,-0.26 -0.55,-0.58 0,-0.46 0.5,-0.66 0.94,-0.66 0.66,0 1.01,0.7 1.04,0.76 0.12,-0.37 0.48,-0.76 1.08,-0.76 1.03,0 1.59,1.29 1.59,1.54 0,0.1 -0.09,0.1 -0.12,0.1 -0.09,0 -0.1,-0.04 -0.13,-0.11 -0.32,-1.07 -1,-1.31 -1.32,-1.31 -0.39,0 -0.55,0.32 -0.55,0.66 0,0.22 0.06,0.44 0.17,0.88 z"
   style="fill:#000000;stroke-width:0" />
<path
   id="path6661"
   d="m 232.65,706.9 h -0.24 c -0.02,-0.15 -0.09,-0.57 -0.18,-0.63 -0.06,-0.05 -0.59,-0.05 -0.69,-0.05 h -1.28 c 0.73,0.65 0.97,0.85 1.39,1.17 0.52,0.42 1,0.85 1,1.51 0,0.84 -0.74,1.36 -1.64,1.36 -0.86,0 -1.45,-0.61 -1.45,-1.25 0,-0.35 0.3,-0.39 0.37,-0.39 0.17,0 0.37,0.12 0.37,0.37 0,0.13 -0.04,0.37 -0.41,0.37 0.22,0.5 0.69,0.65 1.02,0.65 0.7,0 1.06,-0.54 1.06,-1.11 0,-0.61 -0.43,-1.09 -0.65,-1.34 l -1.69,-1.66 c -0.07,-0.06 -0.07,-0.07 -0.07,-0.27 h 2.88 z"
   style="fill:#000000;stroke-width:0" />
</g>      <g
         id="content-6"
         transform="matrix(3,0,0,3,819.90099,-394.69088)"
         xml:space="preserve"
         stroke-miterlimit="10.433"
         fill-rule="even-odd"
         font-style="normal"
         font-variant="normal"
         font-weight="normal"
         font-stretch="normal"
         font-size-adjust="none"
         letter-spacing="normal"
         word-spacing="normal"
         ns0:text="$x_1$"
         ns0:preamble=""
         style="font-style:normal;font-variant:normal;font-weight:normal;font-stretch:normal;letter-spacing:normal;word-spacing:normal;text-anchor:start;fill:none;stroke:#000000;stroke-linecap:butt;stroke-linejoin:miter;stroke-miterlimit:10.43299961;stroke-opacity:1;stroke-dasharray:none;stroke-dashoffset:0">
<path
   style="fill:#000000;stroke-width:0"
   d="m 226.76,710.13 0.01,0.03 0,0.03 0.01,0.03 0.01,0.04 0.01,0.03 0.01,0.05 0.02,0.04 0.01,0.04 0.02,0.05 0.01,0.05 0.02,0.05 0.02,0.05 0.03,0.05 0.02,0.05 0.03,0.05 0.02,0.05 0.03,0.04 0.03,0.05 0.04,0.05 0.03,0.04 0.04,0.05 0.04,0.04 0.04,0.03 0.05,0.04 0.04,0.03 0.05,0.03 0.03,0.01 0.02,0.02 0.03,0.01 0.03,0.01 0.02,0.01 0.03,0 0.03,0.01 0.03,0.01 0.03,0 0.03,0 0.03,0.01 0.04,0 c 0.05,0 0.29,0 0.49,-0.13 -0.28,-0.05 -0.47,-0.3 -0.47,-0.54 0,-0.16 0.11,-0.35 0.38,-0.35 0.21,0 0.53,0.18 0.53,0.58 0,0.52 -0.58,0.66 -0.92,0.66 -0.58,0 -0.93,-0.53 -1.05,-0.76 -0.25,0.66 -0.79,0.76 -1.08,0.76 -1.03,0 -1.6,-1.29 -1.6,-1.54 0,-0.1 0.1,-0.1 0.12,-0.1 0.08,0 0.11,0.02 0.13,0.11 0.34,1.06 1,1.31 1.33,1.31 0.19,0 0.54,-0.09 0.54,-0.67 0,-0.31 -0.17,-0.98 -0.54,-2.37 -0.15,-0.62 -0.5,-1.04 -0.94,-1.04 -0.06,0 -0.29,0 -0.5,0.13 0.25,0.05 0.47,0.26 0.47,0.54 0,0.27 -0.22,0.35 -0.37,0.35 -0.3,0 -0.55,-0.26 -0.55,-0.58 0,-0.46 0.5,-0.66 0.94,-0.66 0.66,0 1.01,0.7 1.04,0.76 0.12,-0.37 0.48,-0.76 1.08,-0.76 1.03,0 1.59,1.29 1.59,1.54 0,0.1 -0.09,0.1 -0.12,0.1 -0.09,0 -0.1,-0.04 -0.13,-0.11 -0.32,-1.07 -1,-1.31 -1.32,-1.31 -0.39,0 -0.55,0.32 -0.55,0.66 0,0.22 0.06,0.44 0.17,0.88 z"
   id="path6728" />
<path
   style="fill:#000000;stroke-width:0"
   d="m 231.46,710.07 0,0 0,0.01 0,0.01 0,0.01 0,0.01 0,0 0,0.01 0,0.01 0,0 0,0.01 0,0.01 0,0 0,0.01 0,0 0,0.01 0,0.01 -0.01,0 0,0.01 0,0 0,0.01 0,0.01 -0.01,0.01 0,0 -0.01,0.01 0,0 -0.01,0.01 0,0 -0.01,0.01 -0.01,0 0,0 -0.01,0 -0.01,0.01 -0.01,0 0,0 -0.01,0 0,0 -0.01,0 -0.01,0 0,0 -0.01,0 -0.01,0 0,0 -0.01,0 -0.01,0 -0.01,0 0,0 -0.01,0 -0.01,0 -0.01,0 -0.01,0 c -0.44,-0.44 -1.08,-0.45 -1.37,-0.45 v -0.25 c 0.17,0 0.63,0 1.02,0.2 v -3.56 c 0,-0.23 0,-0.32 -0.7,-0.32 h -0.27 v -0.25 c 0.13,0.01 0.99,0.03 1.25,0.03 0.21,0 1.09,-0.02 1.24,-0.03 v 0.25 h -0.26 c -0.7,0 -0.7,0.09 -0.7,0.32 z"
   id="path6730" />
</g>    </g>
    <path
       style="fill:none;stroke:#000000;stroke-width:1px;stroke-linecap:butt;stroke-linejoin:miter;stroke-opacity:1;marker-start:none;marker-mid:url(#DotM)"
       d="m 200.91072,373.64564 20,-25 20,-25 27.5,27.5 27.5,27.5 -47.5,-2.5 -47.5,-2.5 z"
       id="path7107"
       sodipodi:nodetypes="ccccccc" />
    <g
       style="font-style:normal;font-variant:normal;font-weight:normal;font-stretch:normal;letter-spacing:normal;word-spacing:normal;text-anchor:start;fill:none;stroke:#000000;stroke-linecap:butt;stroke-linejoin:miter;stroke-miterlimit:10.43299961;stroke-opacity:1;stroke-dasharray:none;stroke-dashoffset:0"
       id="g4567"
       transform="matrix(0.9,0,0,-0.9,-9.7127285,1020.4812)"
       xml:space="preserve"
       stroke-miterlimit="10.433"
       fill-rule="even-odd"
       font-style="normal"
       font-variant="normal"
       font-weight="normal"
       font-stretch="normal"
       font-size-adjust="none"
       letter-spacing="normal"
       word-spacing="normal"
       ns0:text="$A$"
       ns0:preamble="">
<path
   style="fill:#000000;stroke-width:0"
   d="m 225.22,708.27 -0.04,-0.06 -0.04,-0.06 -0.04,-0.06 -0.03,-0.05 -0.04,-0.05 -0.04,-0.04 -0.03,-0.05 -0.04,-0.04 -0.04,-0.04 -0.04,-0.04 -0.03,-0.03 -0.04,-0.03 -0.04,-0.03 -0.04,-0.03 -0.03,-0.03 -0.04,-0.02 -0.04,-0.02 -0.04,-0.02 -0.04,-0.02 -0.03,-0.02 -0.04,-0.01 -0.04,-0.02 -0.04,-0.01 -0.04,-0.01 -0.04,-0.01 -0.04,-0.01 -0.04,-0.01 -0.04,0 -0.08,-0.01 -0.08,-0.01 c -0.12,-0.01 -0.21,-0.01 -0.21,-0.2 0,-0.06 0.05,-0.11 0.13,-0.11 0.27,0 0.58,0.03 0.86,0.03 0.33,0 0.68,-0.03 0.99,-0.03 0.06,0 0.19,0 0.19,0.19 0,0.11 -0.09,0.12 -0.16,0.12 -0.23,0.02 -0.47,0.1 -0.47,0.35 0,0.12 0.06,0.23 0.14,0.37 l 0.76,1.27 h 2.5 l -0.03,0.31 h -2.28 l 1.96,3.29 0.32,-3.29 0.03,-0.31 c 0.02,-0.2 0.16,-1.56 0.16,-1.66 0,-0.3 -0.52,-0.33 -0.72,-0.33 -0.14,0 -0.23,0 -0.23,-0.2 0,-0.11 0.11,-0.11 0.14,-0.11 0.4,0 0.83,0.03 1.24,0.03 0.25,0 0.88,-0.03 1.13,-0.03 0.06,0 0.18,0 0.18,0.2 0,0.11 -0.1,0.11 -0.23,0.11 -0.62,0 -0.62,0.07 -0.65,0.36 l -0.61,6.23 c -0.02,0.2 -0.02,0.24 -0.19,0.24 -0.16,0 -0.2,-0.07 -0.26,-0.17 z"
   id="path4569" />
</g>    <g
       style="font-style:normal;font-variant:normal;font-weight:normal;font-stretch:normal;letter-spacing:normal;word-spacing:normal;text-anchor:start;fill:none;stroke:#000000;stroke-linecap:butt;stroke-linejoin:miter;stroke-miterlimit:10.43299961;stroke-opacity:1;stroke-dasharray:none;stroke-dashoffset:0"
       ns0:preamble=""
       ns0:text="$B$"
       word-spacing="normal"
       letter-spacing="normal"
       font-size-adjust="none"
       font-stretch="normal"
       font-weight="normal"
       font-variant="normal"
       font-style="normal"
       fill-rule="even-odd"
       stroke-miterlimit="10.433"
       xml:space="preserve"
       transform="matrix(0.9,0,0,-0.9,42.745129,956.07807)"
       id="g4631">
<path
   id="path4633"
   d="m 225.03,707.9 -0.01,-0.04 -0.01,-0.03 -0.01,-0.03 -0.01,-0.03 -0.01,-0.03 -0.01,-0.03 -0.01,-0.02 -0.01,-0.03 -0.01,-0.02 -0.01,-0.02 -0.01,-0.02 -0.02,-0.02 -0.01,-0.02 -0.02,-0.01 -0.02,-0.02 -0.02,-0.01 -0.02,-0.01 -0.03,-0.01 -0.02,-0.01 -0.03,-0.01 -0.04,-0.01 -0.01,-0.01 -0.02,0 -0.02,0 -0.02,0 -0.02,-0.01 -0.02,0 -0.02,0 -0.02,-0.01 -0.03,0 -0.02,0 -0.03,0 -0.02,0 -0.03,0 -0.03,0 -0.03,-0.01 -0.03,0 -0.03,0 -0.03,0 -0.03,0 -0.04,0 -0.03,0 -0.04,0 c -0.17,0 -0.27,0 -0.27,-0.2 0,-0.11 0.09,-0.11 0.27,-0.11 h 3.56 c 1.57,0 2.75,1.18 2.75,2.15 0,0.72 -0.58,1.3 -1.55,1.41 1.04,0.19 2.08,0.93 2.08,1.87 0,0.74 -0.65,1.38 -1.85,1.38 l -0.14,-0.31 c 0.88,0 1.09,-0.59 1.09,-1.03 0,-0.87 -0.86,-1.82 -2.07,-1.82 h -1.46 l -0.06,-0.22 h 1.88 c 0.96,0 1.15,-0.74 1.15,-1.17 0,-0.98 -0.89,-1.95 -2.06,-1.95 h -1.36 c -0.14,0 -0.16,0 -0.22,0.01 -0.1,0.01 -0.13,0.02 -0.13,0.1 0,0.03 0,0.05 0.05,0.23 l 0.69,2.78 0.06,0.22 0.62,2.47 c 0.09,0.35 0.11,0.38 0.54,0.38 h 1.28 l 0.14,0.31 h -3.35 c -0.19,0 -0.28,0 -0.28,-0.2 0,-0.11 0.08,-0.11 0.27,-0.11 0.02,0 0.21,0 0.38,-0.02 0.18,-0.02 0.27,-0.03 0.27,-0.16 0,-0.04 -0.01,-0.07 -0.04,-0.19 z"
   style="fill:#000000;stroke-width:0" />
</g>    <path
       d="m 309.61584,374.47878 0,0 0,0 0,-0.009 0,0 0,0 0,-0.009 0,0 0,0 0,-0.009 0,0 -0.009,-0.009 0,0 0,-0.009 0,0 0,0 -0.009,-0.009 0,0 0,-0.009 -0.009,0 0,0 -0.009,-0.009 0,0 -0.009,0 0,0 -0.009,-0.009 0,0 0,0 -0.009,0 0,0 0,0 -0.009,0 0,0 0,0 -0.009,0 0,-0.009 0,0 -0.009,0 0,0 -0.009,0 c -0.018,0 -0.036,0.009 -0.135,0.108 l -0.621,0.693 c -0.081,-0.126 -0.495,-0.801 -1.494,-0.801 -1.998,0 -4.014,1.989 -4.014,4.068 0,1.476 1.062,2.457 2.43,2.457 0.783,0 1.458,-0.36 1.935,-0.774 0.837,-0.738 0.99,-1.548 0.99,-1.575 0,-0.09 -0.09,-0.09 -0.108,-0.09 -0.054,0 -0.099,0.018 -0.117,0.09 -0.081,0.261 -0.288,0.891 -0.909,1.413 -0.612,0.504 -1.179,0.657 -1.647,0.657 -0.81,0 -1.755,-0.468 -1.755,-1.863 0,-0.513 0.189,-1.971 1.08,-3.015 0.549,-0.639 1.395,-1.089 2.187,-1.089 0.918,0 1.449,0.693 1.449,1.737 0,0.351 -0.027,0.36 -0.027,0.45 0,0.09 0.099,0.09 0.135,0.09 0.117,0 0.117,-0.018 0.162,-0.18 z"
       id="path4693"
       style="font-style:normal;font-variant:normal;font-weight:normal;font-stretch:normal;letter-spacing:normal;word-spacing:normal;text-anchor:start;fill:#000000;stroke:#000000;stroke-width:0;stroke-linecap:butt;stroke-linejoin:miter;stroke-miterlimit:10.43299961;stroke-opacity:1;stroke-dasharray:none;stroke-dashoffset:0" />
    <g
       style="font-style:normal;font-variant:normal;font-weight:normal;font-stretch:normal;letter-spacing:normal;word-spacing:normal;text-anchor:start;fill:none;stroke:#000000;stroke-linecap:butt;stroke-linejoin:miter;stroke-miterlimit:10.43299961;stroke-opacity:1;stroke-dasharray:none;stroke-dashoffset:0"
       ns0:preamble=""
       ns0:text="$F$"
       word-spacing="normal"
       letter-spacing="normal"
       font-size-adjust="none"
       font-stretch="normal"
       font-weight="normal"
       font-variant="normal"
       font-style="normal"
       fill-rule="even-odd"
       stroke-miterlimit="10.433"
       xml:space="preserve"
       transform="matrix(0.855,0,0,-0.855,52.393603,991.64918)"
       id="content">
<path
   id="path8341"
   d="m 226.45,710.36 h 0.97 c 0.74,0 0.82,-0.16 0.82,-0.45 0,-0.07 0,-0.19 -0.06,-0.49 -0.03,-0.05 -0.03,-0.09 -0.03,-0.11 0,-0.08 0.06,-0.11 0.11,-0.11 0.1,0 0.1,0.02 0.15,0.2 l 0.55,2.17 c 0.03,0.1 0.03,0.13 0.03,0.15 0,0.02 -0.02,0.12 -0.12,0.12 -0.1,0 -0.11,-0.06 -0.15,-0.21 -0.21,-0.78 -0.44,-0.96 -1.28,-0.96 h -0.91 l 0.64,2.53 c 0.09,0.35 0.1,0.39 0.54,0.39 h 1.31 c 1.23,0 1.46,-0.33 1.46,-1.1 0,-0.23 0,-0.27 -0.03,-0.54 -0.02,-0.12 -0.02,-0.15 -0.02,-0.17 0,-0.06 0.03,-0.12 0.12,-0.12 0.1,0 0.11,0.06 0.13,0.25 l 0.2,1.72 c 0.03,0.27 -0.01,0.27 -0.26,0.27 h -4.89 c -0.19,0 -0.3,0 -0.3,-0.2 0,-0.11 0.09,-0.11 0.28,-0.11 0.37,0 0.65,0 0.65,-0.18 0,-0.04 0,-0.06 -0.05,-0.24 L 225,707.9 c -0.1,-0.39 -0.12,-0.47 -0.91,-0.47 -0.17,0 -0.28,0 -0.28,-0.19 0,-0.12 0.12,-0.12 0.15,-0.12 0.29,0 1.03,0.03 1.32,0.03 0.32,0 1.15,-0.03 1.48,-0.03 0.09,0 0.21,0 0.21,0.19 0,0.08 -0.06,0.1 -0.06,0.11 -0.03,0.01 -0.05,0.01 -0.28,0.01 -0.22,0 -0.27,0 -0.52,0.02 -0.29,0.03 -0.32,0.07 -0.32,0.2 0,0.02 0,0.08 0.04,0.23 z"
   style="fill:#000000;stroke-width:0" />
</g>    <g
       id="g8409"
       transform="matrix(0.855,0,0,-0.855,78.032328,952.51639)"
       xml:space="preserve"
       stroke="black"
       stroke-linecap="butt"
       stroke-linejoin="miter"
       stroke-miterlimit="10.433"
       stroke-dasharray="none"
       stroke-dashoffset="0"
       stroke-opacity="1"
       fill="none"
       fill-rule="even-odd"
       fill-opacity="1"
       font-style="normal"
       font-variant="normal"
       font-weight="normal"
       font-stretch="normal"
       font-size-adjust="none"
       letter-spacing="normal"
       word-spacing="normal"
       text-anchor="start"
       ns0:text="$E$"
       ns0:preamble=""
       style="font-style:normal;font-variant:normal;font-weight:normal;font-stretch:normal;letter-spacing:normal;word-spacing:normal;text-anchor:start;fill:none;stroke:#000000;stroke-linecap:butt;stroke-linejoin:miter;stroke-miterlimit:10.43299961;stroke-opacity:1;stroke-dasharray:none;stroke-dashoffset:0">
<path
   d="M230.49,709.44 L230.49,709.45 L230.49,709.45 L230.49,709.46 L230.5,709.47 L230.5,709.48 L230.51,709.49 L230.51,709.5 L230.51,709.51 L230.52,709.52 L230.52,709.53 L230.52,709.53 L230.52,709.54 L230.53,709.54 L230.53,709.55 L230.53,709.55 L230.53,709.56 L230.53,709.56 L230.53,709.56 L230.53,709.57 L230.53,709.57 L230.53,709.57 L230.54,709.58 L230.54,709.58 L230.54,709.58 L230.54,709.58 C230.54,709.59,230.54,709.69,230.42,709.69 C230.33,709.69,230.31,709.63,230.29,709.57 C229.64,708.1,229.27,707.43,227.57,707.43 H226.11 C225.97,707.43,225.95,707.43,225.89,707.44 C225.79,707.45,225.76,707.46,225.76,707.54 C225.76,707.57,225.76,707.59,225.81,707.77 L226.49,710.49 H227.48 C228.32,710.49,228.32,710.28,228.32,710.03 C228.32,709.96,228.32,709.84,228.25,709.54 C228.23,709.49,228.23,709.46,228.23,709.43 C228.23,709.38,228.26,709.32,228.35,709.32 C228.43,709.32,228.46,709.37,228.5,709.52 L229.07,711.85 C229.07,711.91,229.02,711.96,228.95,711.96 C228.86,711.96,228.84,711.91,228.81,711.78 C228.6,711.03,228.42,710.8,227.51,710.8 H226.57 L227.17,713.2 C227.26,713.55,227.27,713.59,227.71,713.59 H229.11 C230.33,713.59,230.63,713.3,230.63,712.48 C230.63,712.24,230.63,712.22,230.59,711.95 C230.59,711.9,230.58,711.83,230.58,711.78 C230.58,711.72,230.61,711.66,230.7,711.66 C230.8,711.66,230.82,711.72,230.84,711.91 L231.03,713.63 C231.06,713.9,231.01,713.9,230.76,713.9 H225.73 C225.54,713.9,225.43,713.9,225.43,713.7 C225.43,713.59,225.52,713.59,225.71,713.59 C226.08,713.59,226.36,713.59,226.36,713.41 C226.36,713.37,226.36,713.35,226.31,713.17 L225,707.9 C224.9,707.51,224.88,707.43,224.09,707.43 C223.92,707.43,223.81,707.43,223.81,707.24 C223.81,707.12,223.9,707.12,224.09,707.12 H229.26 C229.49,707.12,229.5,707.13,229.57,707.29 Z "
   stroke-width="0"
   fill="black"
   id="path8411" />
</g>    <g
       style="font-style:normal;font-variant:normal;font-weight:normal;font-stretch:normal;letter-spacing:normal;word-spacing:normal;text-anchor:start;fill:none;stroke:#000000;stroke-linecap:butt;stroke-linejoin:miter;stroke-miterlimit:10.43299961;stroke-opacity:1;stroke-dasharray:none;stroke-dashoffset:0"
       ns0:preamble=""
       ns0:text="$D$"
       text-anchor="start"
       word-spacing="normal"
       letter-spacing="normal"
       font-size-adjust="none"
       font-stretch="normal"
       font-weight="normal"
       font-variant="normal"
       font-style="normal"
       fill-opacity="1"
       fill-rule="even-odd"
       fill="none"
       stroke-opacity="1"
       stroke-dashoffset="0"
       stroke-dasharray="none"
       stroke-miterlimit="10.433"
       stroke-linejoin="miter"
       stroke-linecap="butt"
       stroke="black"
       xml:space="preserve"
       transform="matrix(0.855,0,0,-0.855,21.807055,948.91797)"
       id="g8480">
<path
   id="path8482"
   fill="black"
   stroke-width="0"
   d="M225.02,707.9 L225.01,707.86 L225,707.83 L224.99,707.8 L224.98,707.77 L224.97,707.74 L224.96,707.71 L224.95,707.69 L224.94,707.66 L224.93,707.64 L224.92,707.62 L224.91,707.6 L224.89,707.58 L224.88,707.56 L224.86,707.55 L224.84,707.53 L224.82,707.52 L224.8,707.51 L224.77,707.5 L224.75,707.49 L224.72,707.48 L224.68,707.47 L224.67,707.46 L224.65,707.46 L224.63,707.46 L224.61,707.46 L224.59,707.45 L224.57,707.45 L224.55,707.45 L224.53,707.44 L224.5,707.44 L224.48,707.44 L224.45,707.44 L224.43,707.44 L224.4,707.44 L224.37,707.44 L224.34,707.43 L224.31,707.43 L224.28,707.43 L224.25,707.43 L224.22,707.43 L224.18,707.43 L224.15,707.43 L224.11,707.43 C223.94,707.43,223.83,707.43,223.83,707.24 C223.83,707.12,223.92,707.12,224.11,707.12 H227.41 L227.23,707.43 H226.1 C225.96,707.43,225.94,707.43,225.88,707.44 C225.78,707.45,225.75,707.46,225.75,707.54 C225.75,707.57,225.75,707.59,225.8,707.77 L227.17,713.24 C227.26,713.59,227.28,713.62,227.71,713.62 H228.77 C229.75,713.62,230.58,713.09,230.58,711.78 C230.58,711.29,230.38,709.65,229.53,708.56 C229.24,708.19,228.45,707.43,227.23,707.43 L227.41,707.12 C229.48,707.12,231.44,709.22,231.44,711.41 C231.44,712.81,230.6,713.93,229.1,713.93 H225.75 C225.56,713.93,225.46,713.93,225.46,713.74 C225.46,713.62,225.54,713.62,225.74,713.62 C225.87,713.62,226.05,713.61,226.17,713.6 C226.33,713.58,226.39,713.55,226.39,713.44 C226.39,713.4,226.38,713.37,226.35,713.25 Z " />
</g>  </g>
</svg>
